<svg xmlns="http://www.w3.org/2000/svg" viewBox="0 0 500 500"><path d="M158,0l-10,9l-10,2l-12,21l27,16l1,6l-3,3l-33,-15l-8,7l-50,95l-38,90l-22,34l0,27l24,17l35,9l71,32l33,-5l26,24l4,11l43,14l23,17l48,18l31,-1l145,64l6,-1l-3,-3l-145,-63l-34,-1l-51,-18l-26,-20l-34,-15l-32,-29l-23,2l-81,-34l-11,-2l2,5l80,37l33,-4l26,23l3,10l43,15l26,18l45,16l31,0l162,69l-2,-15l-9,6l-150,-64l-32,1l-48,-17l-29,-22l-34,-14l-32,-30l-23,4l-81,-36l-11,2l71,32l14,1l7,-8l8,-40l-4,-25l-27,-36l-50,16l-43,-10l-10,-6l99,-195" fill="none" stroke="currentColor" stroke-width="2"/></svg>