<svg xmlns="http://www.w3.org/2000/svg" viewBox="0 0 500 500"><path d="M435,481l-1,8l-11,11l-19,-6l-44,-24l-83,-51l-59,-57l-8,-12l-14,-9l-46,-45l-27,-29l4,-1l-5,1l-3,-2l-46,-46l-2,-2l2,-2l-2,0l1,-1l-21,-15l-30,-31l-5,-8l-1,-12l-4,-6l-3,-19l-5,-9l-3,-26l100,-30l163,-54l26,-4l7,16l-22,3l2,15l21,33l6,5l8,12l14,33l11,13l0,4l43,66l11,12l1,10l15,19l13,25l11,13l3,13l31,50l1,5l-4,3l18,25l7,19l0,9l14,6l-9,9l-7,4l-4,9l-32,1l-23,8l27,25l-1,3l-16,10" fill="none" stroke="currentColor" stroke-width="2"/></svg>