<svg xmlns="http://www.w3.org/2000/svg" viewBox="0 0 500 500"><path d="M129,335l-2,-3l-48,14l-15,-1l5,54l-2,11l4,20l7,11l0,17l7,29l6,13l24,-9l28,-17l-6,-42l-12,-30l1,-6l-9,-19l-2,-14l-13,-22l-42,-1l-22,3l-9,-4l-4,-6l-5,-21l-8,-17l-12,-53l17,-7l20,6l2,-1l3,-9l2,-29l0,-23l-10,-15l-3,-21l1,-5l5,0l1,-3l-3,-44l4,-4l21,-1l13,-10l32,-2l33,-19l19,-22l4,1l29,-19l12,-4l17,-11l8,0l59,15l9,-4l7,14l3,19l8,16l45,28l16,19l17,14l24,4l25,9l21,9l4,8l7,2l15,23l4,11l3,51l6,20l-3,7" fill="none" stroke="currentColor" stroke-width="2"/></svg>