<svg xmlns="http://www.w3.org/2000/svg" viewBox="0 0 500 500"><path d="M495,171l5,-60l-3,-3l-11,-4l-24,4l-3,-7l-14,7l-1,-2l-12,-2l-25,1l0,1l-17,-2l-15,-10l-16,-6l-25,-25l-9,-4l-4,1l-13,21l-7,-1l-8,-9l-14,-3l-5,0l-9,5l-1,-1l-3,0l-5,4l-8,11l-7,12l-10,11l-9,3l-7,0l-13,7l-12,-2l-5,-3l-4,4l-1,-4l-1,-6l-13,-11l-3,3l-2,6l-7,-19l-3,-10l-8,-19l-7,-13l-6,-6l-18,-29l-6,-6l-9,-5l-16,4l-6,7l-33,54l-23,31l-19,33l2,10l2,27l10,53l3,45l3,25l2,6l1,3l1,6l1,17l-1,13l0,6l2,20l0,11l2,28l2,2l3,-3l6,-2l10,-13l1,6l2,-3l1,2l3,-4l3,4l1,-4l2,-2l3,5l4,21l2,-1l9,46l16,47" fill="none" stroke="currentColor" stroke-width="2"/></svg>