<svg xmlns="http://www.w3.org/2000/svg" viewBox="0 0 500 500"><path d="M487,500l-43,-66l-17,9l-14,-2l33,-18l33,-10l3,-11l-68,-36l1,-5l-87,-39l-15,-13l-44,-19l-23,-21l23,-3l2,-3l-40,-3l-41,-37l-25,-10l-28,-23l5,-4l-8,1l-26,-16l-108,-82l60,8l113,2l26,-3l30,-19l18,-6l16,-14l-24,-38l-15,-4l42,-15l17,6l38,46l9,1l22,15l20,33l-116,41l-13,9l54,9l101,24l58,8l27,7l0,15l-28,20l0,13l-7,6l24,27l-11,15l6,6l-8,30l-25,32l-9,3l75,34l-11,8l-31,7l-43,27l13,0l28,-12l19,5l-37,6" fill="none" stroke="currentColor" stroke-width="2"/></svg>