<svg xmlns="http://www.w3.org/2000/svg" viewBox="0 0 500 500"><path d="M216,472l-24,12l-17,1l37,-25l52,-7l9,-5l-100,-43l40,-25l50,-49l-21,-29l-2,-24l37,-15l5,-24l-87,-57l-28,-35l-20,2l-18,-18l-129,-83l190,-12l28,-4l15,19l26,1l-5,10l13,9l38,8l53,0l17,-8l60,-6l10,-14l15,-4l25,0l15,-8l-50,-39l-25,2l-24,12l-25,2l-8,5l-105,4l-41,6l9,19l30,4l2,15l39,10l38,1l40,-10l56,-6l7,-12l47,-7l7,-10l-29,-15l-12,-19l-29,1l-22,11l-28,2l-9,6l-116,5l-30,6l9,19l27,2l3,16l42,10l35,1l72,-14l27,-1l10,-14l44,-6l7,-10l-27,-14l-20,-21l-28,3l-16,10l-30,3l-9,6l-115,4l-29,5l7,19l29,3l-1,16l42,10l38,1l73,-14l25,-1l8,-13l16,-5l27,-1l10,-11l-48,-35l-29,3l-19,10l-27,3l-7,5l-105,4l-99,12l-101,5l-62,8l106,79l33,15l-17,6l5,10l62,36l78,59l-4,6l-28,11l-14,23l37,31l-75,62l-6,19l-110,26l-44,3l1,6l71,50l65,8l56,-27l14,0" fill="none" stroke="currentColor" stroke-width="2"/></svg>