<svg xmlns="http://www.w3.org/2000/svg" viewBox="0 0 500 500"><path d="M147,0l-17,39l43,18l-9,-3l-7,8l-36,-13l-34,58l-30,68l-31,48l-26,54l0,17l24,22l39,11l62,29l23,4l20,-5l31,27l32,13l38,26l46,16l33,1l127,56l22,5l-148,-65l-33,0l-53,-18l-25,-20l-34,-13l-33,-31l-18,2l2,-38l-12,32l-6,4l-71,-32l-39,-10l-22,-14l-3,4l18,13l47,14l70,32l34,-4l30,28l41,18l27,20l43,15l36,1l152,61l-5,-6l-147,-58l-33,0l-49,-17l-34,-25l-30,-8l-34,-31l-25,5l-72,-36l-44,-12l-24,-15l-3,2l8,10l126,51l34,-4l33,30l28,10l35,24l48,19l37,0l130,58l19,5l-149,-66l-34,0l-47,-16l-28,-21l-38,-16l-34,-30l-24,6l-140,-60l1,6l17,8l47,15l65,29l-3,-7l-62,-26l-40,-11l-27,-13l3,5l130,51l-67,-32l-44,-13l-23,-18l3,-20l82,-159" fill="none" stroke="currentColor" stroke-width="2"/></svg>