<svg xmlns="http://www.w3.org/2000/svg" viewBox="0 0 500 500"><path d="M119,0l2,13l-12,1l-12,17l43,23l-7,5l-31,-11l-28,50l-27,67l-46,94l2,16l111,55l2,-5l-68,-31l53,22l21,17l24,-3l24,23l0,8l39,14l17,13l44,17l28,1l202,94l-40,-8l-132,-59l-15,-9l-2,-10l-15,-8l-26,0l-42,-20l-34,-25l-20,-7l-30,-28l-17,4l-40,-20l-67,-23l-17,-12l-2,3l15,11l42,13l60,31l28,-3l28,32l35,13l23,19l40,13l25,-1l127,59l3,-4l-126,-57l-30,0l-44,-18l-20,-17l-30,-14l-30,-28l-20,3l-40,-20l-61,-21l-20,-12l-3,2l8,7l51,18l56,30l26,-5l24,23l3,9l38,14l22,18l38,13l28,0l148,68l2,-5l-12,-12l8,-55l-8,-7l-27,1l33,4l-4,50l-8,14l-130,-61l-29,0l-45,-18l-32,-24l-19,-7l-29,-27l-20,3l-70,-33l-30,-8l-22,-14l-1,4l13,9l99,39l-53,-27l-37,-12l-19,-12l-3,-20l12,-26l-14,28l3,23l111,46l-54,-28l-35,-8l-19,-14l-5,-6l0,-12l9,-20l-9,16l0,21l21,18l25,8l6,-2l59,29l4,-2l-30,-17l-61,-21l-20,-12l-2,3l17,10l33,10l63,29l-60,-31l-36,-11l-18,-14l-1,-17l25,-56l-25,57l2,23l112,50l10,-6l8,-38l-3,-11l2,18l-13,32l-117,-47l19,13l32,9l63,30l-59,-32l-56,-21l20,14l33,10l60,29l0,-5l-50,-24l-61,-23l12,10l40,13l61,29l-30,-20l-83,-30l110,49l-3,-5l-51,-25l-30,-8l-25,-15l-1,5l110,48l-3,-5l-56,-27l-28,-7l-21,-13l-3,2l12,9l39,12l60,29l-1,-4l-54,-26l-29,-8l-27,-16l-1,4l24,14l31,9l58,27l-57,-30l-36,-11l-19,-15l0,-18l26,-53l-5,4l-23,60l3,13l12,9l99,40l-29,-19l-72,-25l-11,-11l-1,-15l100,-208l3,-2l29,9" fill="none" stroke="currentColor" stroke-width="2"/></svg>