<svg xmlns="http://www.w3.org/2000/svg" viewBox="0 0 500 500"><path d="M129,23l-79,73l-50,191l23,104l85,104l42,-20l106,24l58,-20l86,13l77,-17l19,-61l2,-43l-33,-156l-42,-38l-4,-75l-30,-56l-53,-43l-39,4l-46,24l-110,-13l-61,34l-42,75l-37,150l2,45l26,79l48,45l29,47l46,-19l98,26l67,-20l78,13l80,-17l24,-103l-31,-155l-44,-44l-4,-73l-27,-54l-47,-43l-29,-4l-66,31l-111,-16l-56,36l-39,58l-39,140l-4,41l12,76l16,34l44,38l34,52l45,-17l101,25l68,-20l63,11l86,-10l18,-37l11,-67l-32,-160l-43,-42l-6,-74l-34,-67l-44,-31l-31,-1l-55,30l-110,-18l-54,33l-50,73l-36,138l-2,55l21,79l87,101l50,-18l77,22l75,-17l74,11l85,-11l25,-76l1,-53l-31,-134l-45,-43l0,-68l-22,-40" fill="none" stroke="currentColor" stroke-width="2"/></svg>