<svg xmlns="http://www.w3.org/2000/svg" viewBox="0 0 500 500"><path d="M162,0l-6,9l-17,3l-11,20l33,20l-7,4l-35,-12l-8,10l-37,59l-18,57l-54,104l-2,23l19,14l46,14l69,32l35,-4l31,29l31,11l38,27l46,16l31,0l150,64l3,-2l-6,-4l-142,-61l-35,0l-52,-19l-40,-28l-22,-7l-33,-29l-22,3l-85,-35l-10,-1l0,3l84,38l31,-6l30,26l4,11l43,13l21,16l49,18l33,0l153,64l-2,-5l-149,-62l-32,0l-53,-19l-40,-28l-22,-7l-32,-29l-24,3l-93,-37l79,37l3,-2l-5,-4l-62,-27l-42,-12l-23,-15l-1,-23l99,-197l21,-30l29,12l7,-2l-2,-8l-22,-9" fill="none" stroke="currentColor" stroke-width="2"/></svg>