<svg xmlns="http://www.w3.org/2000/svg" viewBox="0 0 500 500"><path d="M143,0l-25,7l-10,23l29,16l-1,7l-32,-11l-36,68l-10,6l-11,29l1,16l-46,90l-1,28l18,13l40,12l58,30l27,-5l28,28l26,10l27,23l45,17l28,0l40,22l162,71l-200,-96l-29,0l-43,-17l-33,-25l-19,-7l-30,-29l-17,4l-12,-4l-59,-28l-39,-13l-18,-13l-1,6l20,14l32,10l65,31l29,-3l23,23l1,8l20,9l5,9l75,28l28,0l131,60l-4,-6l-126,-58l-30,1l-41,-17l-34,-25l-20,-8l-28,-28l-17,5l-14,-4l-54,-28l-42,-14l-16,-11l0,-21l85,-182l15,-25l10,1" fill="none" stroke="currentColor" stroke-width="2"/></svg>