<svg xmlns="http://www.w3.org/2000/svg" viewBox="0 0 500 500"><path d="M121,1l-14,42l26,16l5,12l246,119l29,22l79,39l4,7l4,77l-8,91l-69,3l-6,57l-4,10l-4,1l-124,-63l-27,-1l-42,-18l-18,-16l-33,-18l-26,-28l-23,1l-95,-44l-16,-12l-2,-11l-3,4l1,12l17,13l40,14l54,31l28,-4l22,24l1,9l37,14l16,15l41,18l27,0l123,63l-120,-66l-28,0l-42,-18l-20,-18l-43,-27l-14,-18l-17,3l-15,-4l-53,-30l-34,-11l-16,-15l0,-19l9,-13l15,-47l71,-161l41,19l-10,-16l-24,-15l12,-21l11,-3l12,-11l0,-5l-8,-4" fill="none" stroke="currentColor" stroke-width="2"/></svg>