<svg xmlns="http://www.w3.org/2000/svg" viewBox="0 0 500 500"><path d="M6,380l-6,14l1,4l82,45l48,23l8,7l36,20l17,7l2,-3l-2,-14l2,-5l48,-37l-19,-27l3,-10l33,5l64,4l34,4l9,-2l77,-2l13,-33l11,-54l-7,-16l-6,-6l-13,-5l-12,0l15,0l10,4l8,9l4,9l5,0l1,-6l-1,-8l6,-15l-5,-8l5,6l-2,11l17,-69l2,-13l-2,-5l5,-15l3,-48l-3,-17l-5,-89l-3,-38l-2,-5l-4,-2l-33,2l-14,-2l-82,13l-54,53l-18,9l-18,6l-26,-11l-11,-1l-14,-7l-14,-3l-12,-7l-95,-20l2,10l14,35l-8,5l3,1l4,8l16,50l-1,4l-11,13l-4,53l5,47l-6,5l-28,3l-8,3l2,12l-2,6l-23,0l-2,2l-2,14l-24,1l-18,9l0,3l16,23l5,10l-3,6l-5,2l-5,8l-8,15" fill="none" stroke="currentColor" stroke-width="2"/></svg>