<svg xmlns="http://www.w3.org/2000/svg" viewBox="0 0 500 500"><path d="M141,12l-25,11l-10,23l31,17l-4,9l69,30l135,71l23,7l133,72l7,89l-10,88l-68,2l-13,69l-124,-64l-29,0l-40,-18l-26,-23l-25,-11l-24,-28l-21,2l-62,-32l-35,-12l-18,-14l-2,-11l-3,11l14,15l45,17l53,29l26,-4l27,29l23,10l30,25l39,17l27,0l122,61l-122,-64l-26,0l-37,-15l-36,-28l-18,-7l-28,-30l-16,3l-13,-3l-54,-31l-39,-14l-13,-12l1,-22l93,-218l27,11l6,-3l0,-4l-23,-12l-2,-5l22,-45l12,7" fill="none" stroke="currentColor" stroke-width="2"/></svg>