<svg xmlns="http://www.w3.org/2000/svg" viewBox="0 0 500 500"><path d="M154,331l-7,-24l-4,-8l-16,-16l-36,-19l-59,-72l-4,-30l-8,-31l-12,-65l0,-17l-6,-11l-2,-15l0,-5l14,-7l3,-6l21,-5l29,1l20,8l16,11l70,65l21,23l21,30l34,62l21,12l13,2l14,10l25,-2l20,11l10,-2l48,4l13,7l25,-1l10,-7l25,-31l12,-23l3,-2l3,-10l5,-1l4,10l-2,2l-1,-9l0,10l0,-13l-2,0l-5,4l-2,7l4,5l1,10l-4,36l-3,6l2,8l-2,27l-1,6l2,11l-4,63l0,28l-1,5l-106,24l-40,71l-25,22l-20,-8l-63,-40l-10,-1l-8,-6l-9,0l-32,-15l-6,2l-5,-29l-1,-50" fill="none" stroke="currentColor" stroke-width="2"/></svg>