<svg xmlns="http://www.w3.org/2000/svg" viewBox="0 0 500 500"><path d="M450,285l-6,-11l-38,-4l2,-74l-20,-26l-48,45l-21,30l-6,25l-26,0l8,93l-6,94l-26,43l-44,-55l-53,-44l-12,-18l-18,-9l-25,17l-46,-28l13,-44l-10,-57l-13,-17l-55,-30l74,46l41,-23l40,-38l47,-23l38,-3l15,-23l14,-49l80,31l30,19l19,-20l20,0l45,-38l24,-94l13,6l-6,41l-12,39l-14,21l-55,49l-24,11l-14,-10l-16,12l-60,73l-13,25l63,-87l29,-23l28,39l-1,75l40,3l3,8l-7,-8l-35,-4l-1,-35l0,36l36,3" fill="none" stroke="currentColor" stroke-width="2"/></svg>