<svg xmlns="http://www.w3.org/2000/svg" viewBox="0 0 500 500"><path d="M150,1l-19,43l5,7l33,11l-7,-1l-7,8l-36,-11l-116,220l-3,21l21,14l46,13l70,33l33,-3l32,29l28,9l34,25l50,18l33,0l153,63l-154,-67l-32,0l-49,-16l-36,-25l-25,-9l-33,-29l-24,3l-84,-36l-32,-8l-24,-15l-2,-11l-5,5l1,10l20,13l42,12l73,32l33,-4l32,29l29,10l34,24l50,18l34,0l152,63l-153,-66l-33,1l-52,-19l-24,-19l-36,-13l-31,-30l-30,2l-65,-30l-45,-13l-21,-12l-6,-13l-4,13l22,14l48,15l66,30l34,-4l30,28l31,12l36,24l47,17l34,1l148,58l-149,-61l-35,0l-45,-17l-26,-19l-38,-15l-32,-29l-23,3l-14,-5l-64,-29l-47,-14l-17,-13l-1,-20l54,-102l24,-55l37,-63l52,18l-12,-15l-26,-9l-4,-6l19,-44l24,5l0,6l-9,5l-15,5l-8,-4" fill="none" stroke="currentColor" stroke-width="2"/></svg>