<svg xmlns="http://www.w3.org/2000/svg" viewBox="0 0 500 500"><path d="M131,0l-21,42l30,16l-8,7l-28,-12l-10,14l-63,132l-8,27l-20,36l-2,21l20,15l35,10l59,30l29,-4l27,26l23,9l35,27l39,14l27,0l127,57l-125,-60l-29,0l-43,-16l-20,-17l-32,-14l-26,-27l-21,3l-67,-32l-30,-9l-23,-14l-3,-11l-3,6l1,9l16,12l44,14l53,27l30,-4l28,28l25,10l30,23l40,16l26,0l109,50l19,8l-9,-9l-116,-52l-28,0l-41,-16l-30,-23l-25,-10l-27,-27l-18,4l-7,-3l-2,5l26,-4l29,29l24,9l34,25l36,14l27,0l195,89l11,-3l-44,-15l-158,-74l-29,0l-42,-16l-31,-24l-24,-8l-25,-27l-21,3l-11,-4l-54,-27l-37,-12l-18,-13l0,-20l96,-207l46,19l-12,-16l-26,-14l20,-37" fill="none" stroke="currentColor" stroke-width="2"/></svg>