<svg xmlns="http://www.w3.org/2000/svg" viewBox="0 0 500 500"><path d="M153,3l-24,41l6,6l32,12l-13,7l-33,-12l-8,9l-28,46l-38,87l-42,74l-4,30l24,16l45,13l66,29l33,-4l27,23l3,10l44,15l42,23l26,10l39,0l131,57l19,5l-148,-65l-37,-1l-52,-19l-27,-20l-33,-12l-33,-30l-22,4l-79,-33l-37,-11l-27,-14l-3,-12l-2,14l27,18l41,11l67,30l36,-4l30,29l30,10l33,24l53,18l30,0l153,61l-150,-64l-35,0l-49,-17l-26,-20l-37,-15l-32,-28l-24,3l-84,-36l-33,-9l-23,-12l-6,-12l-1,14l28,17l36,9l72,32l34,-3l28,24l1,9l44,13l20,16l53,18l31,0l152,61l-149,-64l-36,0l-47,-16l-35,-25l-29,-10l-32,-29l-34,0l-67,-30l-45,-13l-21,-15l2,-21l30,-52l34,-76l50,-88l32,10l7,-4l-2,-6l-26,-13l23,-46" fill="none" stroke="currentColor" stroke-width="2"/></svg>