<svg xmlns="http://www.w3.org/2000/svg" viewBox="0 0 500 500"><path d="M0,499l54,1l3,-2l0,-93l-1,-28l0,-17l1,-1l12,1l50,26l54,17l13,1l31,-2l64,-25l26,-14l16,-23l32,-57l20,-18l12,-8l12,-4l17,2l52,14l19,-4l13,-7l-2,-1l-18,10l-9,0l-12,-1l-43,-13l-16,-2l-17,4l-8,-4l-81,-95l-13,-17l-7,-13l-12,-28l-7,-31l-1,-21l-4,-15l2,-13l1,-16l0,-2l-110,0l-4,4l3,25l18,42l3,26l9,21l14,86l11,72l12,164l9,36l0,3l-53,10l-33,-5l-10,-4l-47,-35l-16,-7l-2,4l1,21l-1,35l-11,1l-46,-1" fill="none" stroke="currentColor" stroke-width="2"/></svg>