<svg xmlns="http://www.w3.org/2000/svg" viewBox="0 0 500 500"><path d="M156,0l-27,41l60,25l-9,-5l-11,7l-59,-10l-46,89l0,21l-17,16l-46,91l0,26l22,15l40,11l71,32l36,-3l32,29l29,10l38,27l45,16l33,-1l153,63l-152,-66l-33,1l-50,-17l-35,-25l-27,-10l-33,-30l-24,3l-73,-32l-47,-14l-21,-12l-2,-12l-3,14l22,16l56,17l56,25l35,-2l28,25l2,9l44,14l23,16l49,18l30,-1l154,62l-149,-65l-36,0l-49,-17l-29,-22l-34,-13l-33,-29l-24,3l-79,-34l-44,-14l-19,-13l0,-18l26,-56l89,-166l37,11l6,-4l-3,-7l-28,-13l11,-26" fill="none" stroke="currentColor" stroke-width="2"/></svg>