<svg xmlns="http://www.w3.org/2000/svg" viewBox="0 0 500 500"><path d="M129,0l-8,9l1,13l-11,20l26,17l-5,6l-27,-12l-25,37l-22,63l-35,62l1,12l-22,39l0,18l19,13l36,11l60,29l28,-3l27,26l26,11l30,23l41,16l27,0l146,68l58,21l-203,-92l-29,0l-41,-16l-20,-17l-35,-16l-27,-26l-25,1l-61,-30l-38,-12l-15,-11l-3,-10l-3,6l1,8l24,15l35,10l58,29l27,-4l24,23l2,9l36,13l24,17l39,15l25,0l148,68l56,21l-12,-9l-65,-25l-123,-58l-31,0l-40,-16l-20,-16l-48,-28l-15,-17l-16,4l-14,-4l-57,-27l-33,-10l-20,-14l0,-19l30,-64l19,-25l2,-20l48,-98l25,12l9,-5l-1,-5l-15,-6" fill="none" stroke="currentColor" stroke-width="2"/></svg>