<svg xmlns="http://www.w3.org/2000/svg" viewBox="0 0 500 500"><path d="M13,463l-1,6l-9,9l-3,6l46,16l21,-18l100,-39l31,-15l67,-23l84,-14l2,-8l5,-6l11,-67l0,-65l8,-5l2,-4l4,-11l-4,-7l1,-8l7,-17l9,-3l11,-38l32,0l-1,-17l15,-1l7,-3l1,-15l6,-3l33,4l-1,17l-35,-3l-2,-19l33,3l6,3l1,4l-1,3l-1,-7l-4,-3l-26,-3l-21,1l1,-16l-21,-5l5,-26l20,-63l-17,-3l-60,0l-14,5l-30,-5l-3,23l12,21l-2,3l-43,10l-5,3l-2,9l-38,26l-13,5l-15,2l-3,9l-15,-2l-17,5l-8,0l1,4l-3,1l-29,2l-15,12l1,7l-106,30l0,6l-20,10l-6,10l0,8l6,7l2,16l57,98l1,16l-3,3l-32,0l-5,2l-13,38l-15,25l30,33l-28,28" fill="none" stroke="currentColor" stroke-width="2"/></svg>