<svg xmlns="http://www.w3.org/2000/svg" viewBox="0 0 500 500"><path d="M129,1l-18,39l25,13l2,6l-4,4l-32,-12l-27,57l-10,30l-41,79l-23,56l3,11l19,13l35,12l59,30l28,-5l23,23l2,8l38,14l22,16l40,15l26,0l123,59l18,1l21,14l42,16l-13,-10l-63,-24l-127,-60l-29,0l-41,-16l-23,-18l-32,-14l-26,-27l-20,2l-12,-4l-52,-26l-41,-14l-17,-13l-1,-8l-3,5l2,9l16,12l38,12l60,30l29,-3l27,27l25,10l27,22l45,17l25,0l126,58l18,1l61,31l-202,-93l-30,0l-40,-16l-30,-23l-25,-9l-26,-28l-18,3l-13,-4l-57,-28l-35,-11l-17,-13l0,-22l97,-205l44,18l-8,-15l-28,-16l20,-37" fill="none" stroke="currentColor" stroke-width="2"/></svg>