<svg xmlns="http://www.w3.org/2000/svg" viewBox="0 0 500 500"><path d="M154,0l-24,48l27,14l1,6l-7,2l-28,-11l-10,9l-76,142l-13,34l-23,33l-1,26l24,15l44,13l68,29l33,-3l33,29l33,12l30,22l50,17l32,0l149,63l3,-3l-7,-5l-142,-57l-34,0l-52,-18l-25,-20l-35,-14l-34,-30l-23,4l-17,-5l-111,-42l-16,-12l-3,-8l0,13l23,15l42,11l72,32l32,-4l28,25l3,9l45,15l21,16l51,17l31,0l152,61l-5,-6l-144,-59l-35,0l-52,-18l-29,-21l-34,-13l-32,-29l-23,3l9,-42l-7,-18l-37,0l-10,36l-6,4l-72,-26l-20,-13l0,-19l55,-100l42,-91l22,-30l40,14l-3,-2l3,-8l-31,-14l10,-37" fill="none" stroke="currentColor" stroke-width="2"/></svg>