<svg xmlns="http://www.w3.org/2000/svg" viewBox="0 0 500 500"><path d="M469,283l-7,11l1,10l-6,3l10,-30l10,-13l19,-14l4,-10l-49,-68l17,-38l18,-64l-3,15l-44,77l-4,-12l-78,-104l-11,-2l-21,-36l-11,-8l-76,24l-84,38l-9,-4l-30,-41l-8,-4l-107,50l20,55l14,18l13,-3l38,-25l43,-34l3,-9l-26,-42l-10,-3l-78,33l-17,12l20,49l16,23l-1,10l19,46l5,5l1,-4l-6,-17l-12,-4l-35,28l22,41l11,44l21,-5l1,-49l-4,-15l35,-12l-8,31l23,34l-6,13l19,29l-16,19l6,35l-3,20l3,27l41,-2l25,-17l10,-1l1,-6l-16,-15l1,8l-4,6l-5,-2l1,5l9,0l-2,-18l4,2l-9,-9l-56,7l4,68l18,19l54,-61l19,-14l12,18l37,0l69,10l7,11l-3,66l16,10l24,2l73,-156l35,13l1,-9l-28,-17l19,-36" fill="none" stroke="currentColor" stroke-width="2"/></svg>