<svg xmlns="http://www.w3.org/2000/svg" viewBox="0 0 500 500"><path d="M130,0l-18,42l23,13l2,5l-5,3l-28,-12l-7,4l-53,129l-18,29l-1,14l-10,10l-11,27l-1,20l15,11l43,15l56,27l26,-5l24,24l2,9l38,14l22,16l38,15l28,0l151,71l52,18l-17,-12l-59,-22l-124,-58l-31,0l-39,-15l-20,-17l-35,-17l-27,-27l-20,3l-12,-4l-55,-27l-33,-10l-21,-15l-1,-12l-4,9l2,9l16,11l40,13l57,28l30,-3l22,23l2,9l39,14l21,16l38,15l27,0l126,57l15,0l63,26l2,4l-8,3l-195,-93l-29,0l-43,-17l-17,-16l-35,-16l-28,-27l-30,-1l-53,-26l-44,-15l-13,-10l0,-22l44,-90l22,-57l32,-58l29,11l5,-3l0,-6l-27,-13l7,-14" fill="none" stroke="currentColor" stroke-width="2"/></svg>