<svg xmlns="http://www.w3.org/2000/svg" viewBox="0 0 500 500"><path d="M143,0l-22,8l-13,22l39,22l-7,-4l-9,6l-29,-11l-39,80l-39,98l-16,23l-8,28l2,10l13,11l45,15l56,29l28,-4l23,23l2,10l38,13l21,17l39,15l26,0l130,60l-127,-64l-29,0l-41,-16l-67,-44l-13,-17l-21,3l-14,-5l-39,-21l-57,-24l-9,-8l-2,-8l-3,13l14,12l41,14l60,31l28,-4l23,23l2,10l37,13l18,15l43,18l27,0l122,59l6,1l-2,-4l-122,-60l-32,0l-41,-18l-19,-16l-32,-15l-28,-29l-21,3l-14,-5l-50,-26l-42,-15l-13,-10l-3,-10l-2,12l17,15l97,40l31,-4l27,28l17,6l36,27l42,17l30,1l125,61l69,30l8,-1l-79,-31l-125,-61l-29,1l-42,-18l-31,-24l-22,-9l-27,-28l-19,4l-12,-5l-53,-26l-36,-12l-20,-15l1,-21l47,-96l33,-85l19,-30l27,11l4,-9" fill="none" stroke="currentColor" stroke-width="2"/></svg>