<svg xmlns="http://www.w3.org/2000/svg" viewBox="0 0 500 500"><path d="M234,428l-6,15l7,6l0,1l-1,2l-8,-4l-4,9l-14,43l-5,-2l-4,-4l2,-7l-1,-15l-1,-2l-25,-5l-4,-5l-3,3l-14,20l-3,-1l-1,-2l-1,-14l0,-25l3,-1l2,-4l-7,-18l-4,-10l3,-4l-1,-3l-16,-25l-16,-45l-9,6l-2,-2l-4,-14l-25,10l-5,0l-3,-3l-3,-9l0,-8l-3,-6l-1,-15l-3,-10l0,-4l3,-10l-2,-17l-2,-3l-5,-4l-2,-4l-2,-1l-11,-57l-7,-16l-4,-4l-9,-24l-2,-1l-11,-17l0,-3l0,-5l5,-5l26,-15l5,-4l8,-3l8,-7l29,-16l81,-55l22,-5l28,1l14,5l18,10l31,22l16,9l17,14l7,8l3,8l15,16l17,6l2,4l20,3l14,-1l1,-4l0,1l3,1l1,-5l3,-1l17,2l17,-4l31,-2l37,-14l2,8l-3,19l5,7l-2,13l-1,3l2,6l-3,31l0,10l-2,3l1,6l-15,1l-13,0l-44,7l-3,3l-24,30l-13,9l-9,3l-7,-2l-12,-6l-7,-2l-18,-8l-51,-12l1,5l8,30l6,19l4,16l0,13l4,16l-1,2l4,10l8,13l4,19l1,39l-1,3l-20,13l-34,29l-10,5l-7,13l-2,0l-14,-8l-1,-3l1,-3" fill="none" stroke="currentColor" stroke-width="2"/></svg>