<svg xmlns="http://www.w3.org/2000/svg" viewBox="0 0 500 500"><path d="M129,0l-19,43l29,16l-8,6l-28,-12l-21,35l-56,131l-20,33l-6,23l2,9l15,13l43,13l55,28l30,-3l26,26l33,16l20,17l44,17l28,0l120,56l18,2l66,31l-25,-10l-9,-8l-31,-16l2,-25l-4,-10l8,-24l-4,-6l-35,-2l-11,4l4,28l35,17l-8,19l-123,-60l-31,1l-40,-16l-33,-25l-17,-6l-31,-29l-21,3l-3,-4l12,-39l-5,-14l-34,-3l-10,35l-5,3l-55,-20l-20,-13l0,-20l26,-48l57,-131l17,-26l28,11l4,-2l-1,-7l-26,-16l20,-41l17,9l-8,5" fill="none" stroke="currentColor" stroke-width="2"/></svg>