<svg xmlns="http://www.w3.org/2000/svg" viewBox="0 0 500 500"><path d="M131,0l-22,42l34,17l-9,6l-32,-12l-20,33l-18,49l-57,113l-7,28l1,7l19,14l33,10l63,30l28,-3l28,27l29,12l28,22l38,14l28,1l100,48l26,11l15,1l62,30l-201,-94l-29,1l-43,-17l-31,-25l-22,-8l-26,-26l-29,0l-103,-46l-9,-9l0,-16l34,-69l-12,15l-22,48l-3,29l17,14l32,9l65,32l30,-4l25,27l24,9l37,26l35,14l28,0l119,55l20,4l66,27l-77,-31l-124,-58l-30,0l-40,-16l-35,-26l-20,-7l-29,-27l-16,3l-13,-3l-59,-29l-37,-12l-14,-11l-1,-18l29,-50l0,-11l40,-85l8,-31l24,-28l25,9l6,-5l-26,-18l16,-36l10,-6" fill="none" stroke="currentColor" stroke-width="2"/></svg>