<svg xmlns="http://www.w3.org/2000/svg" viewBox="0 0 500 500"><path d="M143,0l-22,7l-13,24l36,18l-11,5l-30,-12l-54,109l-24,63l-18,29l-6,17l0,20l15,12l40,12l61,31l27,-3l28,28l29,13l28,21l39,15l27,0l119,59l21,3l64,29l0,-4l-77,-30l-127,-60l-27,1l-43,-18l-30,-23l-21,-8l-30,-30l-21,4l-98,-44l-19,-12l-2,-12l-4,9l2,8l14,11l40,13l60,31l29,-4l25,27l25,10l34,26l38,15l26,0l125,60l15,0l67,28l-79,-32l-124,-60l-31,1l-42,-18l-30,-25l-19,-6l-30,-30l-18,4l-13,-4l-54,-28l-35,-11l-20,-15l0,-21l30,-51l3,-19l15,-29l11,-37l28,-54l13,-19l28,10l4,-3l0,-6l-25,-12l0,-10" fill="none" stroke="currentColor" stroke-width="2"/></svg>