<svg xmlns="http://www.w3.org/2000/svg" viewBox="0 0 500 500"><path d="M131,0l-22,42l30,15l-8,6l-24,-13l-5,2l-96,200l-5,33l18,13l43,14l54,28l29,-3l25,25l31,15l27,20l39,16l28,0l121,58l20,3l58,25l-197,-89l-29,0l-43,-18l-32,-24l-18,-6l-29,-29l-19,3l-12,-4l-105,-48l-6,-7l2,-16l50,-100l-27,40l-26,62l-3,17l10,13l53,20l55,28l25,-5l27,27l31,14l24,19l43,17l28,1l122,57l15,2l67,27l-73,-29l-128,-61l-32,0l-42,-17l-32,-26l-19,-7l-30,-28l-18,4l-12,-4l-53,-26l-39,-14l-15,-11l-1,-21l18,-39l10,-11l5,-22l44,-98l19,-26l3,-11l27,8l4,-3l0,-5l-23,-10l2,-12" fill="none" stroke="currentColor" stroke-width="2"/></svg>