<svg xmlns="http://www.w3.org/2000/svg" viewBox="0 0 500 500"><path d="M164,0l-30,11l-14,22l2,5l33,16l-7,5l-34,-15l-19,30l-80,164l-15,35l0,21l24,16l40,12l64,31l32,-4l29,29l30,11l35,25l44,16l32,0l141,61l-140,-64l-32,0l-46,-17l-39,-28l-21,-7l-32,-30l-22,4l-112,-46l-19,-11l-5,-13l-3,14l16,14l46,14l67,31l32,-3l30,29l28,10l31,24l48,19l29,-1l137,62l21,0l15,8l-167,-73l-37,-1l-41,-15l-38,-28l-26,-10l-29,-28l-21,3l-15,-3l-57,-28l-47,-16l-17,-12l-1,-20l112,-222l36,12l2,-9l-25,-11" fill="none" stroke="currentColor" stroke-width="2"/></svg>