<svg xmlns="http://www.w3.org/2000/svg" viewBox="0 0 500 500"><path d="M152,0l-24,43l33,15l0,5l-6,4l-34,-12l-45,73l-16,48l-25,34l-27,51l-7,19l1,17l21,15l49,15l64,28l34,-4l31,28l30,11l33,24l52,17l32,0l152,65l-17,4l-64,-27l-5,-9l10,0l-13,-9l-60,-28l-35,1l-50,-18l-38,-26l-20,-6l-37,-31l-24,4l-111,-42l-27,-14l-5,-12l-4,6l2,9l18,13l48,13l70,30l33,-3l26,23l3,10l45,14l30,19l42,14l31,0l151,61l-148,-65l-34,0l-51,-17l-26,-20l-34,-12l-35,-31l-22,4l-13,-4l-63,-28l-46,-15l-19,-12l-1,-21l105,-196l13,-19l31,11l6,-3l0,-7l-29,-15" fill="none" stroke="currentColor" stroke-width="2"/></svg>