<svg xmlns="http://www.w3.org/2000/svg" viewBox="0 0 500 500"><path d="M16,221l-14,33l-2,18l19,19l49,16l64,33l6,-6l-3,-3l10,12l27,-5l30,32l27,10l33,26l55,22l32,0l151,70l-14,-11l-134,-61l-36,-1l-49,-20l-39,-30l-21,-8l-35,-33l-22,3l-13,-4l-71,-34l-34,-10l-25,-18l-2,-12l-5,7l2,11l24,17l42,13l70,35l32,-5l31,32l40,19l22,19l52,21l32,0l151,68l-147,-72l-34,1l-48,-19l-39,-29l-23,-9l-37,-35l-17,4l-20,-3l-127,-59l1,6l18,13l42,13l70,35l33,-5l31,32l30,13l33,26l52,21l31,-1l150,68l-145,-71l-39,-1l-46,-18l-23,-21l-40,-18l-31,-33l-24,4l-27,-16l-100,-38l-14,-12l-3,-11l-5,13l17,16l55,18l65,34l34,-4l30,32l41,18l20,20l55,22l31,-1l151,71l-13,-12l-134,-63l-35,0l-51,-20l-38,-30l-19,-7l-21,-15l-15,-19l-23,3l-44,-22l-78,-29l-20,-14l-4,-12l-4,7l3,11l17,14l50,16l66,34l37,-3l29,31l28,11l36,28l50,20l35,1l146,67l-148,-73l-32,1l-49,-19l-40,-31l-19,-6l-36,-35l-26,2l-37,-18l-5,-8l14,-39l33,0l5,21l-12,44l28,-1l32,32l29,12l31,25l46,20l-44,-19l-34,-27l-24,-9l-36,-35l-25,4l-40,-22l-82,-31l-17,-12l-1,-25l58,-120l53,-124l5,-4l34,15l5,-10" fill="none" stroke="currentColor" stroke-width="2"/></svg>