<svg xmlns="http://www.w3.org/2000/svg" viewBox="0 0 500 500"><path d="M130,0l-22,48l26,13l2,4l-31,-11l-9,4l-89,190l-6,15l3,17l16,12l91,35l8,12l26,-3l25,24l32,15l24,19l42,16l29,0l149,69l53,19l-203,-92l-28,0l-41,-16l-32,-23l-19,-7l-31,-29l-19,3l-12,-3l-97,-42l-13,-10l0,-13l-4,17l16,13l38,13l61,29l30,-3l27,27l32,14l21,17l42,17l30,0l151,70l52,18l-13,-9l-64,-25l-125,-57l-30,0l-43,-17l-28,-22l-23,-9l-29,-28l-20,3l-11,-3l-88,-38l-20,-12l-3,-12l-3,14l14,12l41,14l61,29l28,-3l26,25l26,11l27,21l45,18l28,0l179,81l22,9l3,-2l-4,-3l-198,-89l-29,1l-39,-15l-38,-27l-18,-6l-29,-28l-16,3" fill="none" stroke="currentColor" stroke-width="2"/></svg>