<svg xmlns="http://www.w3.org/2000/svg" viewBox="0 0 500 500"><path d="M135,0l-17,41l28,14l0,5l-5,5l-30,-13l-24,39l-34,78l-48,90l-5,23l2,10l18,13l45,14l60,28l30,-4l29,28l27,11l30,22l45,17l31,1l183,78l-38,-23l-9,1l-133,-59l-32,0l-44,-17l-33,-24l-25,-9l-29,-29l-22,3l-13,-4l-57,-28l-41,-13l-20,-17l-4,3l2,7l24,16l39,12l60,28l31,-4l26,27l34,15l24,19l48,18l29,0l137,59l-135,-62l-32,-1l-44,-16l-33,-26l-19,-6l-19,-13l-15,-17l-31,1l-60,-29l-39,-12l-21,-15l0,-21l29,-50l59,-133l19,-29l35,14l2,-10l-27,-12l0,-12" fill="none" stroke="currentColor" stroke-width="2"/></svg>