<svg xmlns="http://www.w3.org/2000/svg" viewBox="0 0 500 500"><path d="M269,284l112,-16l106,-112l-4,-41l-67,-72l-174,42l-207,90l-5,25l26,17l128,-17l79,78l92,-2l135,-129l-68,-105l-112,13l-303,118l46,50l-34,48l139,229l285,-169l-40,-100l87,-78l2,-48l-70,-63l-105,7l-304,122l20,37l49,20l102,-31l55,75l75,22l67,-28l22,-52l90,-74l-71,-103l-122,13l-291,126l12,28l58,22l102,-31l82,90l89,-4l42,-34l6,-40l89,-68l-63,-100l-126,14l-293,118l9,30l63,22l105,-25l69,80l118,-9l124,-133l-72,-102l-122,12l-298,127l18,37l59,16l105,-29l74,85l90,-6l143,-139l-8,-42l-53,-58l-130,9l-298,130l74,48l95,-27l78,84l97,-2l149,-146l-67,-99l-135,19l-294,119l27,38l58,14l93,-33l55,75l111,15l49,-26l17,-50l85,-71l5,-107l-37,-27l-79,2l-31,44l-145,32l-30,32l-172,68l12,26l65,19l99,-28l58,74l40,10" fill="none" stroke="currentColor" stroke-width="2"/></svg>