<svg xmlns="http://www.w3.org/2000/svg" viewBox="0 0 500 500"><path d="M138,0l-19,39l30,13l-10,4l-28,-11l-19,24l-26,74l-20,21l-14,25l-30,74l-2,19l29,21l33,9l59,30l34,1l29,28l30,10l34,26l43,16l30,0l161,74l18,3l-31,-23l-10,3l-134,-60l-35,-1l-43,-16l-37,-28l-35,-19l-17,-18l-19,4l-13,-4l-103,-43l-20,-17l-3,4l3,8l19,13l44,14l60,29l31,-4l29,29l25,9l33,24l47,18l30,0l138,61l-136,-65l-33,0l-43,-16l-37,-27l-20,-7l-31,-29l-19,2l-16,-4l-58,-27l-37,-12l-23,-15l2,-23l28,-50l3,-17l63,-130l13,-18l36,15l-1,-13l-29,-15l13,-28" fill="none" stroke="currentColor" stroke-width="2"/></svg>