<svg xmlns="http://www.w3.org/2000/svg" viewBox="0 0 500 500"><path d="M99,269l-9,218l252,-23l139,-352l-49,-84l-113,-28l-144,38l-153,314l18,71l122,57l189,-35l130,-356l-139,-86l-149,19l-193,372l135,99l202,-51l149,-314l-131,-125l-180,57l-153,318l140,105l198,-41l130,-350l-139,-86l-176,38l-157,350l130,93l212,-36l140,-317l-127,-125l-193,35l-140,324l108,115l194,-32l144,-326l-104,-125l-225,57l-108,337l167,89l121,-67l144,-308l-162,-99l-139,45l-126,308l139,125l185,-100l108,-279l-72,-86l-113,-22l-166,99l-63,292l135,109l148,-81l126,-330l-144,-77l-175,55l-99,327l130,83l144,-54l140,-318l-126,-96l-194,77l-121,301l103,93l189,-29l149,-301l-104,-141l-202,48l-135,321l148,109l180,-55l131,-307l-104,-116l-225,51l-135,308l104,109l117,0l94,-64l131,-298l-153,-106l-185,83l-76,315l139,83l171,-83l113,-295l-113,-100l-198,42l-117,298l144,138l171,-109l108,-279l-157,-96l-153,70l-104,331l140,76l207,-141" fill="none" stroke="currentColor" stroke-width="2"/></svg>