<svg xmlns="http://www.w3.org/2000/svg" viewBox="0 0 500 500"><path d="M150,500l211,-64l5,-29l-366,-176l153,-148l94,-13l-17,40l49,16l149,-13l62,-83l-25,-22l-55,-7l-99,16l-52,92l45,20l87,-3l101,-84l-17,-31l-131,-7l-94,85l7,24l84,17l82,-17l77,-77l-18,-23l-77,-13l-99,21l-54,75l84,35l97,-23l57,-84l-92,-24l-87,20l-57,86l47,19l82,2l67,-34l45,-63l-38,-22l-66,-8l-85,20l-56,88l49,21l124,-9l69,-98l-99,-22l-82,17l-57,80l23,23l69,11l67,-10l82,-96l-95,-25l-86,14l-67,84l37,29l139,-10l74,-87l-77,-29l-114,18l-47,79l55,30l52,2l72,-21l59,-79l-84,-30l-89,12l-65,85l52,31l127,-16l62,-70l-48,-39l-136,13l-71,90l61,23l129,-19l52,-86l-64,-23l-109,18l-55,93l107,19l69,-23l60,-84l-99,-23l-82,19l-62,91l77,19l101,-22l60,-82l-92,-24l-77,20l-67,85l33,18l71,6l102,-50l20,-69l-72,-11l-72,7l-77,77" fill="none" stroke="currentColor" stroke-width="2"/></svg>