<svg xmlns="http://www.w3.org/2000/svg" viewBox="0 0 500 500"><path d="M193,396l40,104l97,-41l145,-309l-109,-94l-141,32l-149,251l105,113l141,-50l153,-255l-88,-125l-174,22l-141,292l117,126l165,-32l146,-317l-105,-95l-170,13l-165,305l24,63l137,50l121,-31l133,-261l-64,-107l-182,-3l-157,292l97,116l169,-40l129,-293l-141,-110l-145,60l-181,289l157,85l181,-75l129,-255l-105,-76l-173,51l-113,273l169,104l109,-66l109,-283l-101,-97l-157,47l-149,314l145,82l153,-88l125,-267l-129,-88l-149,44l-113,292l57,94l84,19l141,-82l109,-273l-133,-88l-141,50l-125,277l113,100l153,-56l117,-293l-125,-91l-149,69l-129,296l157,85l85,-10l97,-100l84,-239l-161,-85l-105,35l-141,292l105,101l149,-35l133,-308l-105,-104l-149,32l-125,355l182,72l157,-170l40,-176l-149,-107l-149,101l-81,277l125,59l141,-59l117,-274l-109,-104l-149,38l-117,274l105,132l173,-66l101,-255l-121,-110l-145,50l-129,296l178,91l161,-135l48,-245l-68,-60l-129,-10l-162,202l-32,166l73,57l157,3l169,-336l-141,-88l-93,9l-84,88l-89,223l28,73l153,37l138,-113l72,-251l-105,-73l-165,51l-105,320l137,76l162,-73l96,-298l-121,-85l-153,44l-125,314l65,82l133,9l133,-128l44,-205l-153,-91l-125,91l-101,245l117,101l181,-107l77,-283l-202,-50l-125,151l-40,229l210,38l145,-157l28,-205l-153,-72l-157,104l-73,280l81,66l133,0l165,-302l-40,-123l-117,-37l-125,66l-97,323l93,66l105,-22l177,-289l-121,-126l-137,35l-121,292l77,95l169,-16l137,-267l-24,-85l-117,-47l-113,22l-76,151" fill="none" stroke="currentColor" stroke-width="2"/></svg>