<svg xmlns="http://www.w3.org/2000/svg" viewBox="0 0 500 500"><path d="M238,423l-64,46l-47,-2l47,-29l220,-81l17,-19l-289,-144l159,-148l32,4l17,46l77,4l85,-61l-8,-26l-90,-9l-49,29l-22,59l79,9l62,-28l32,-50l-60,-23l-74,16l-50,67l39,19l92,-13l57,-66l-68,-23l-62,11l-60,64l22,21l49,6l55,-11l58,-66l-58,-25l-72,13l-51,66l57,21l66,-9l62,-72l-77,-19l-42,4l-30,21l-30,61l38,15l71,-4l64,-79l-71,-18l-57,13l-58,62l47,27l79,-11l62,-65l-47,-24l-75,3l-96,37l-49,43l-87,108l117,67l152,57l0,19l-191,76l-66,43l-115,45l-37,0l156,-65l33,0l-62,37l51,-3l38,-25" fill="none" stroke="currentColor" stroke-width="2"/></svg>