<svg xmlns="http://www.w3.org/2000/svg" viewBox="0 0 500 500"><path d="M0,500l202,-74l145,-34l32,-24l-375,-162l41,-8l-2,-26l164,-119l56,6l-7,30l38,19l68,6l53,-13l72,-79l-48,-16l-92,3l-82,80l56,22l92,-7l65,-83l-70,-18l-70,8l-78,73l80,27l82,-13l68,-64l-68,-30l-104,14l-58,73l90,20l79,-19l56,-67l-43,-19l-90,1l-92,77l29,20l53,7l68,-9l80,-63l-41,-35l-111,4l-75,86l96,20l78,-18l50,-66l-77,-27l-84,10l-61,74l51,23l89,-6l90,-70l-68,-31l-109,15l-62,75l77,20l82,-12l75,-73l-85,-25l-82,13l-67,75l96,20l68,-11l80,-66l-78,-33l-104,15l-65,67l51,26l113,-7l78,-75l-61,-23l-99,6l-82,73l51,27l113,-8l75,-75l-46,-21l-108,3l-90,75l75,29l102,-14l75,-74l-80,-24l-106,17l-71,73l51,19l73,5l87,-36l41,-53l-41,-20l-70,-4l-92,33l-32,57l68,18l70,-6l85,-56l-15,-42l-104,-3l-60,25l-34,69l60,16l73,-7l77,-64l-36,-37l-94,2l-58,33l-27,58l133,11l73,-50l4,-47l-48,-10l-87,4l-87,91l128,14l63,-26l48,-66l-55,-17l-85,2l-101,88l116,21l89,-37l36,-56l-108,-20l-61,13l-77,79l84,21l95,-12l72,-75l-101,-25l-90,24l-65,71l99,16l92,-13l63,-67l-34,-23l-70,-8l-85,28l-50,69l72,16l75,-6l70,-41l5,-55l-61,-12l-75,6l-96,79l55,25l121,-11l70,-77l-75,-22l-101,18l-73,65l37,23l82,7" fill="none" stroke="currentColor" stroke-width="2"/></svg>