<svg xmlns="http://www.w3.org/2000/svg" viewBox="0 0 500 500"><path d="M388,380l85,-306l-174,-71l-121,32l-152,313l54,110l98,22l183,-74l121,-294l-215,-106l-156,119l-89,278l178,90l157,-81l143,-290l-36,-68l-134,-42l-192,81l-98,319l49,62l134,13l152,-94l89,-316l-201,-74l-116,67l-116,313l76,91l98,9l161,-103l111,-284l-192,-90l-143,90l-107,323l148,74l165,-74l129,-320l-138,-96l-170,48l-152,290l157,155l169,-71l134,-296l-147,-123l-107,10l-85,77l-125,323l192,74l134,-52l143,-361l-179,-74l-170,106l-120,284l174,107l174,-91l107,-300l-35,-68l-143,-35l-116,45l-174,358l178,91l152,-62l129,-319l-156,-107l-152,78l-116,293l170,100l147,-64l121,-300l-170,-119l-134,48l-152,322l72,97l174,10l67,-48l156,-284l-138,-145l-152,38l-179,323l125,109l201,-45l125,-280l-98,-133l-205,49l-143,280l107,136l210,-55l147,-306l-89,-97l-103,-16l-143,93l-151,281l160,110l179,-68l120,-303l-31,-65l-152,-42l-120,55l-116,281l22,74l138,51l148,-51l125,-294l-134,-116l-192,65l-130,338l210,68l152,-106l107,-265l-156,-100l-147,45l-166,323l179,97l129,-42l134,-326l-80,-90l-107,-13l-121,109l-125,297l201,68l161,-123l67,-284l-223,-48" fill="none" stroke="currentColor" stroke-width="2"/></svg>