<svg xmlns="http://www.w3.org/2000/svg" viewBox="0 0 500 500"><path d="M302,419l-34,9l-17,33l28,-33l145,-76l12,-25l-182,-140l67,-76l19,-1l-17,-18l33,-43l25,5l11,39l34,8l32,-8l34,-73l-36,-18l-48,15l-34,58l27,23l57,-9l34,-61l-21,-23l-54,6l-41,62l32,25l48,-8l44,-62l-28,-26l-37,0l-28,13l-35,55l30,28l56,-8l42,-67l-27,-19l-53,3l-50,66l31,28l57,-12l38,-58l-26,-25l-52,6l-50,63l33,23l57,-8l38,-62l-34,-24l-58,19l-38,60l48,17l44,-10l37,-62l-25,-25l-53,10l-47,60l30,28l58,-12l40,-61l-30,-24l-55,9l-44,58l30,26l54,-6l47,-63l-29,-26l-35,0l-28,13l-39,58l38,26l45,-4l45,-69l-30,-24l-47,4l-51,70l43,24l46,-10l36,-62l-22,-22l-62,9l-36,55l32,26l49,-6l42,-69l-29,-17l-58,6l-36,61l8,17l31,11l43,-12l38,-70l-23,-13l-54,6l-45,55l29,32l27,2l28,-13l40,-65l-24,-17l-55,6l-51,61l39,26l42,-6l49,-62l-28,-27l-46,6l-58,63l28,25l48,3l54,-65l-8,-25l-45,-5l-31,11l-38,57l39,26l43,-10l42,-61l-14,-22l-38,-5l-33,11l-39,62l35,24l48,-9l40,-65l-17,-17l-50,-2l-33,23l-19,54l38,19l38,-10l42,-74l-42,-14l-36,7l-21,24l-39,9l-58,94l-49,47l-119,54l-130,37l39,113l76,95l50,18l64,-39l57,4" fill="none" stroke="currentColor" stroke-width="2"/></svg>