<svg xmlns="http://www.w3.org/2000/svg" viewBox="0 0 500 500"><path d="M457,27l-21,-2l-35,18l-16,23l104,25l-18,-3l-18,9l-111,-15l-112,88l-53,72l-88,90l-61,38l-28,43l13,11l58,19l326,56l-112,-31l-219,-36l-35,-11l-15,-16l-16,10l66,28l174,26l135,29l18,-2l-171,-40l-146,-22l-54,-18l-9,-15l-9,18l65,24l122,17l186,40l41,-8l28,-43l-1,-46l-61,-43l-35,-10l-141,20l-109,-13l-32,-11l43,-46l61,-40l102,-127l62,-45l27,-7l86,13l19,-6l-92,-27l44,-27l81,-21l-15,-13l-34,0" fill="none" stroke="currentColor" stroke-width="2"/></svg>