<svg xmlns="http://www.w3.org/2000/svg" viewBox="0 0 500 500"><path d="M297,437l-124,18l-98,45l-70,-5l-5,-10l83,-49l299,-106l-2,-19l-77,-47l-205,-85l166,-133l33,7l-2,33l33,6l65,-2l47,-24l44,-47l-52,-15l-54,3l-91,63l83,24l72,-15l54,-52l-35,-20l-64,-7l-46,13l-58,64l73,16l72,-8l50,-60l-58,-24l-75,9l-68,69l83,21l60,-8l50,-73l-50,-19l-71,10l-78,65l64,20l93,-5l52,-62l-62,-27l-71,8l-81,64l73,23l77,-8l68,-61l-62,-26l-77,9l-79,65l71,20l81,-11l62,-64l-74,-20l-71,15l-66,59l85,23l78,-15l50,-58l-64,-24l-73,11l-87,63l89,22l69,-10l52,-64l-42,-21l-70,9l-81,68l79,17l81,-11l43,-64l-64,-20l-71,15l-56,66l71,17l76,-16l42,-65l-52,-16l-62,2l-77,80l87,15l63,-23l39,-55l-85,-19l-62,24l-46,56l54,17l87,-11l68,-65l-70,-21l-77,13l-50,61l50,19l75,-10l54,-59l-13,-14l-64,-10l-50,10l-56,66l33,18l94,-3l58,-71l-60,-20l-62,6l-61,70l46,19l81,-9l58,-57l-10,-15l-54,-13l-69,7l-56,69l67,18l74,-17l50,-57l-31,-18l-44,-4l-54,12l-66,70l102,14l62,-20l43,-48l-33,-21l-47,-6l-69,16l-79,60l98,21l62,-9l58,-61l-29,-21l-45,-6l-63,16l-58,65l81,19l75,-19l49,-52l-76,-27l-58,8l-73,65l69,18l66,-8l58,-58l-41,-25l-75,8l-64,68l60,19l62,-11l62,-66l-64,-20l-58,11l-65,65l56,21l79,-13l52,-60l-52,-24l-76,12l-79,66l70,19l89,-17l46,-61l-62,-19l-64,12l-61,66l63,19l72,-12l42,-67l-54,-17l-56,8l-67,71l85,18l59,-18l33,-64l-48,-16l-60,3l-38,35l-103,24l-131,116l234,93l63,48l-201,71l-79,54" fill="none" stroke="currentColor" stroke-width="2"/></svg>