<svg xmlns="http://www.w3.org/2000/svg" viewBox="0 0 500 500"><path d="M53,500l271,-95l-324,-144l150,-111l120,-131l230,-19l-207,1l-72,63l-50,63l19,40l95,14l72,-20l64,-48l-76,-20l-69,11l-82,56l56,20l68,-4l41,-15l62,-48l-74,-21l-71,9l-86,54l70,24l78,-8l73,-52l-46,-23l-87,8l-90,55l62,22l86,-11l75,-54l-60,-19l-75,8l-86,51l82,25l79,-15l62,-50l-13,-12l-113,-5l-93,52l35,24l85,2l88,-55l-8,-20l-101,-3l-87,40l15,29l93,6l90,-59l-16,-15l-48,-6l-53,7l-77,34l-16,31l43,13l62,1l105,-70l-45,-15l-54,2l-91,38l-12,27l95,19l74,-28l36,-43l-89,-18l-89,30" fill="none" stroke="currentColor" stroke-width="2"/></svg>