<svg xmlns="http://www.w3.org/2000/svg" viewBox="0 0 500 500"><path d="M500,493l-15,7l-22,-12l-29,-105l2,-10l58,-63l-2,-10l-91,-128l-86,-172l-63,24l-85,49l-40,27l3,12l-4,-6l-59,26l-66,40l5,22l17,-2l-3,39l13,30l11,0l78,-56l22,-19l2,-15l-27,-48l-11,-5l-108,55l0,9l7,12l17,-2l-4,31l14,40l53,-27l61,-53l0,-9l-33,-54l-42,11l-44,23l-28,19l0,10l6,11l35,-8l24,20l22,-3l14,9l1,-9l-10,-14l18,-21l1,-11l-17,-19l-43,13l-8,19l-22,11l-4,8l22,-3l25,19l20,-3l27,-41l-16,-22l-23,2" fill="none" stroke="currentColor" stroke-width="2"/></svg>