<svg xmlns="http://www.w3.org/2000/svg" viewBox="0 0 500 500"><path d="M420,0l-30,15l-20,51l130,30l-33,-4l-13,5l-98,-16l-19,3l-94,81l-161,170l-57,39l-25,43l81,27l122,18l173,38l13,-4l-183,-42l-152,-25l-44,-26l-6,17l68,23l95,13l202,42l13,-3l-98,-26l-223,-39l-30,-9l-23,-18l-6,16l52,20l333,57l-178,-42l-153,-24l-32,-12l-11,-16l-13,10l6,8l49,19l316,60l13,1l1,-6l-58,-15l-270,-49l-52,-26l1,15l70,24l290,54l18,-4l-197,-44l-111,-15l-50,-15l-19,-16l-7,11l11,10l74,22l90,11l192,40l31,-2l17,-10l27,-48l-7,-35l-72,-46l-24,-6l-124,19l-149,-20l173,-188l89,-73l16,-5l111,11l1,-7l-81,-24l26,-27l47,-10" fill="none" stroke="currentColor" stroke-width="2"/></svg>