<svg xmlns="http://www.w3.org/2000/svg" viewBox="0 0 500 500"><path d="M127,0l-11,8l-6,36l44,20l-12,-5l-13,4l-25,-11l-7,3l-30,54l-18,50l-49,99l0,25l19,13l36,11l59,27l30,-3l28,27l32,14l18,15l48,19l28,0l202,94l-39,-9l-141,-61l-8,-5l9,-4l-26,-14l-25,-1l-44,-16l-21,-17l-31,-15l-30,-28l-22,3l23,-1l28,26l33,15l26,22l39,12l26,0l193,85l-46,-24l-143,-62l-28,0l-46,-17l-21,-18l-34,-13l-28,-28l-19,2l-3,-5l10,-36l-3,-25l-23,-31l-45,10l-45,-13l4,-19l77,-157l13,-2l36,13l-8,-1l-3,-10l-23,-11l-3,-8" fill="none" stroke="currentColor" stroke-width="2"/></svg>