<svg xmlns="http://www.w3.org/2000/svg" viewBox="0 0 500 500"><path d="M53,69l-4,9l-6,31l38,32l8,-21l21,-25l89,-87l15,-8l4,4l9,31l20,41l7,20l14,27l97,13l3,4l0,15l2,3l5,-17l25,-3l17,2l23,11l38,-7l20,1l2,6l-33,104l-18,52l-7,10l-107,-18l-11,-11l-7,17l-74,-15l0,86l-5,89l1,26l0,-16l-4,-23l-28,-7l-6,23l-2,27l-2,5l-25,-12l-39,-33l-13,-1l-16,-12l-37,-47l-5,-12l-11,-1l3,-37l-1,-22l-3,-15l-9,-17l-4,-1l-17,11l-20,-11l5,-32l9,-26l7,-38l16,-68l3,-6l15,6l-1,-5l-9,-10" fill="none" stroke="currentColor" stroke-width="2"/></svg>