<svg xmlns="http://www.w3.org/2000/svg" viewBox="0 0 500 500"><path d="M62,168l62,47l16,16l20,12l4,6l19,10l44,32l4,64l-3,43l-2,3l-10,0l-4,10l-17,3l-6,54l5,10l24,22l-20,-10l-64,-47l-2,-4l1,1l1,-5l-7,-6l-12,-1l-18,-10l-13,-18l-14,-11l-12,-19l-9,0l-1,-6l4,-28l-2,-16l-10,-24l-20,8l-19,-9l-1,-5l4,-19l33,-115l24,12l36,26l0,-4l-15,-11l-2,-5l1,-9l6,-12l104,-88l63,-37l14,-4l2,6l-9,-14l6,-16l2,11l5,5l3,9l36,-8l158,3l14,5l11,15l4,15l-3,25l-9,48l-11,40l-67,6l-9,4l-24,-6l-22,1l-35,-7l-56,-4l1,10l15,23l-1,11l3,10l10,17l5,12l2,42l-2,7l-5,3l-55,-10l-4,-4l-3,-21l-3,0l0,14l-3,5l-25,-14l-156,-116l0,-5l3,-11l7,-4l5,-8l-6,-8l-5,8" fill="none" stroke="currentColor" stroke-width="2"/></svg>