<svg xmlns="http://www.w3.org/2000/svg" viewBox="0 0 500 500"><path d="M483,493l-5,-1l-7,8l-1,-7l-10,-1l-8,-6l-10,-35l20,-18l4,-8l-11,-1l-3,-9l1,-18l-19,-12l-8,-24l-6,-9l-2,-7l-5,-4l-4,-13l-20,-27l-3,-16l-4,-5l-23,-2l-31,8l-3,4l-1,14l-6,-6l-8,7l-16,-3l-7,3l-3,4l-1,-3l-6,6l-7,-8l-14,5l-9,-4l-11,1l-47,22l-24,5l-18,8l-9,-3l-4,-13l-12,-11l-5,-10l-9,-41l5,-9l-5,-8l-11,-43l-7,-6l-11,-36l1,-8l-10,-38l-15,-28l-8,-7l-26,-39l-20,-25l-1,-5l2,-7l8,-4l6,9l0,8l8,10l3,15l20,29l6,12l6,6l14,28l8,41l5,9l8,30l4,2l2,6l10,39l5,10l2,25l4,9l0,13l6,29l10,7l9,-4l18,1l23,-6l29,-13l12,15l45,-23l3,1l10,-4l10,-9l11,1l20,-8l12,-9l14,-2l8,-8l14,2l7,5l7,12l6,18l10,19l9,10l19,37l30,35l8,18l7,4l12,14l10,17l-1,6l-20,27" fill="none" stroke="currentColor" stroke-width="2"/></svg>