<?xml version="1.0" encoding="utf-8" ?>
<svg baseProfile="full" height="200mm" version="1.1" viewBox="0,0,200,200" width="200mm" xmlns="http://www.w3.org/2000/svg" xmlns:ev="http://www.w3.org/2001/xml-events" xmlns:xlink="http://www.w3.org/1999/xlink"><defs /><rect fill="#1a1a1a" height="200" width="200" x="0" y="0" /><text alignment-baseline="middle" fill="#e1ed5e" style="dominant-baseline: central; font-size:9.0px; font-family:Arial;" text-anchor="middle" x="100.0" y="100.0">2025</text><line stroke="#e1ed5e" stroke-width="0.3" x1="100.0" x2="100.0" y1="15.0" y2="10.0" /><path d="M 100.0 14.0 a86.0,86.0 0 0,1 42.46469731375804,11.215312516191453" fill="none" id="id49" stroke="none" /><text fill="#e1ed5e" style="font-size:6.75px; font-family:Arial;" text-anchor="middle"><textPath startOffset="22.20632615414155" xlink:href="#id49">January</textPath></text><path d="M 100.0 79.0 l 0.0 -33.892352316896606 a54.892352316896606,54.892352316896606 0 0,0 0.9448816106622985,0.00813289433274116 l -0.5834011313897701 33.887330799172425" fill="#9cff22" stroke="none" /><path d="M 100.72285384407766 79.0124445844662 l 0.7950350554266488 -23.083286365239438 a44.09697361471858,44.09697361471858 0 0,0 0.7583822040400653,0.032657533005308145 l -1.1922580918560457 23.066181105709937" fill="#ffcb12" stroke="none" /><path d="M 101.08401301168833 79.027996857942 l 0.7594702932512948 -14.69319390507953 a35.71280878209859,35.71280878209859 0 0,0 0.6136446071959605,0.03701671849679289 l -1.012276949286867 14.677943917202432" fill="#ff4706" stroke="none" /><path d="M 102.16513564639614 79.11191278185805 l 2.1677039946882344 -20.912865288384932 a42.02491082451297,42.02491082451297 0 0,0 0.7188927261999821,0.08077597409116632 l -2.5273634243979415 20.872453360823165" fill="#ffac0f" stroke="none" /><path d="M 102.52436894288641 79.15227682838746 l 3.034786727992487 -25.063053389386507 a46.24612001246207,46.24612001246207 0 0,0 0.7894548994345808,0.10249390345393143 l -3.4657563559349143 25.00710116276844" fill="#ffeb16" stroke="none" /><path d="M 102.88285421437855 79.19881850522331 l 2.9921999980405536 -21.590163983137444 a42.79652361380225,42.79652361380225 0 0,0 0.7288268749577718,0.10741013586584384 l -3.363395853426981 21.53545936311063" fill="#ffb711" stroke="none" /><path d="M 103.2404852339499 79.25152402106235 l 3.318262796671596 -21.246477289026718 a42.50403834587594,42.50403834587594 0 0,0 0.7219023380536792,0.11912007127677586 l -3.6834943408641503 21.186210954810317" fill="#ffb310" stroke="none" /><path d="M 103.95276090670814 79.375362276772 l 4.167196939589431 -21.743517816753904 a43.139243378688846,43.139243378688846 0 0,0 0.7280950915990584,0.1460490258117744 l -4.540858440655615 21.66856483486492" fill="#ffbd11" stroke="none" /><path d="M 104.66035177308747 79.52364482259891 l 6.785121417394018 -29.81203197292275 a51.5744194221795,51.5744194221795 0 0,0 0.8639361481610821,0.20446577361227727 l -7.297281252517624 29.690820287169604" fill="#c8ff1d" stroke="none" /><path d="M 105.01212808612495 79.60689891045804 l 5.273056925223822 -21.454755560753622 a43.09324931983386,43.09324931983386 0 0,0 0.7188181997341853,0.18324276426710176 l -5.641584013643032 21.36080980031765" fill="#ffbc11" stroke="none" /><path d="M 105.36241919743992 79.69619591428918 l 8.05307658006164 -30.491478407144697 a52.536998872082115,52.536998872082115 0 0,0 0.8723696381212646,0.23845157605253603 l -8.576744107406617 30.348340290265867" fill="#bbff1f" stroke="none" /><path d="M 106.0581310904928 79.89281104454417 l 7.893048755801746 -26.19735697310925 a48.36058718372066,48.36058718372066 0 0,0 0.7949896228628068,0.24700714563466583 l -8.34282375137527 26.057609692592063" fill="#f5ff19" stroke="none" /><path d="M 106.74666289553966 80.11325718540242 l 7.812483686686787 -23.02840029595875 a45.317527044205384,45.317527044205384 0 0,0 0.7365565481684085,0.25697011698901867 l -8.20772223891847 22.890509325797527" fill="#ffdd14" stroke="none" /><path d="M 107.08798089147638 80.2323363322302 l 6.380971858534805 -17.79588679827076 a39.905300547631626,39.905300547631626 0 0,0 0.6445992019578063,0.23741132607750365 l -6.686353386265187 17.683412204386933" fill="#ff8b0c" stroke="none" /><path d="M 107.4271985657038 80.35727306442388 l 15.945677006367925 -42.17156394408306 a66.08553449479442,66.08553449479442 0 0,0 1.0605684607019497,0.4114840858327294 l -16.66922863206954 41.89083715435979" fill="#33ff50" stroke="none" /><path d="M 108.43124777332544 80.76684994638697 l 13.566521170076667 -30.94760637863311 a54.790602794637316,54.790602794637316 0 0,0 0.8605200257931138,0.38609025201668806 l -14.097223314336562 30.70949579609989" fill="#9dff22" stroke="none" /><path d="M 110.05341064243156 81.56283822128135 l 6.037955614350709 -11.073134126706838 a33.61234345349463,33.61234345349463 0 0,0 0.505587124133154,0.2813586871925354 l -6.227666827555899 10.967560041954123" fill="#ff2403" stroke="none" /><line stroke="#e1ed5e" stroke-width="0.3" x1="143.23703022742887" x2="145.7803849466894" y1="26.81831364943548" y2="22.513508569990506" /><path d="M 143.74570117128098 25.957352633546492 a86.0,86.0 0 0,1 28.547481713284135,27.462654790039103" fill="none" id="id50" stroke="none" /><text fill="#e1ed5e" style="font-size:6.75px; font-family:Arial;" text-anchor="middle"><textPath startOffset="19.985693538727396" xlink:href="#id50">February</textPath></text><path d="M 111.90073688211348 82.69761687909136 l 7.919034775104095 -11.513419293605653 a34.97390194611651,34.97390194611651 0 0,0 0.4930801568333261,0.34543416053868836 l -8.11604607152107 11.375400290303029" fill="#ff3b05" stroke="none" /><path d="M 112.19680574252982 82.90503203632743 l 12.329758872480658 -17.2813142534437 a42.22891368345992,42.22891368345992 0 0,0 0.5880973139056874,0.4272777091581978 l -12.625401502740134 17.066517309468825" fill="#ffaf10" stroke="none" /><path d="M 113.34407831869373 83.78471172551755 l 8.511174318739995 -10.342501133210595 a34.39430543083297,34.39430543083297 0 0,0 0.45391059627054553,0.3801370706066574 l -8.687942451969658 10.194462905210118" fill="#ff3104" stroke="none" /><path d="M 113.6212207817346 84.01681056812373 l 18.5191832132212 -21.730476156546345 a49.55124762379191,49.55124762379191 0 0,0 0.6444168100403506,0.5588319074782979 l -18.890493821908315 21.408479255648377" fill="#e4ff1a" stroke="none" /><path d="M 113.89432698308785 84.25364557470407 l 22.438853922935788 -25.429813707282264 a54.914268244529936,54.914268244529936 0 0,0 0.7033968943802378,0.6315166768458416 l -22.873261804912016 25.039798021667124" fill="#9cff22" stroke="none" /><path d="M 114.42810811169701 84.74124197986012 l 20.301916664305704 -21.470731389553617 a50.54928301408981,50.54928301408981 0 0,0 0.6270921546927886,0.6032621559699995 l -20.668492062610913 21.118086146821316" fill="#d6ff1c" stroke="none" /><path d="M 114.94478906791727 85.2469230424477 l 30.58895087056574 -30.196555079725464 a63.98273902445932,63.98273902445932 0 0,0 0.7669877104101945,0.7904482557008428 l -31.104202844679044 29.66554262847451" fill="#30ff32" stroke="none" /><path d="M 115.4437574822437 85.77008943001954 l 19.453127474151916 -17.924152498631145 a47.451831908580345,47.451831908580345 0 0,0 0.5483089893826638,0.605456480897999 l -19.758780104150617 17.586643230463597" fill="#fffc17" stroke="none" /><path d="M 115.68641384162765 86.03803664274999 l 24.660218293286412 -21.949252880155147 a54.013574000243246,54.013574000243246 0 0,0 0.6121747661570421,0.6998215828260526 l -25.034384923021303 21.521515741126144" fill="#a7ff21" stroke="none" /><path d="M 115.9244219780498 86.31012108654704 l 25.77940530459744 -22.161993544709247 a54.99605412006577,54.99605412006577 0 0,0 0.6109521774428306,0.7231746738556887 l -26.157068095527386 21.71495992122445" fill="#9bff22" stroke="none" /><path d="M 116.38621287248628 86.86637796730983 l 28.523052277131384 -22.86135245170085 a57.55415088775635,57.55415088775635 0 0,0 0.6129405233774281,0.778372219604633 l -28.912346881102778 22.366987838143178" fill="#7aff26" stroke="none" /><path d="M 116.82858285166822 87.43820079747576 l 21.861111954077707 -16.31836151217 a48.2799768751843,48.2799768751843 0 0,0 0.49139219643830595,0.6702584037041917 l -22.138766763029636 15.939640664794315" fill="#f6ff19" stroke="none" /><path d="M 117.04232023915458 87.72973835380427 l 21.716034335059568 -15.635278499036673 a47.75907474080381,47.75907474080381 0 0,0 0.47460553277375706,0.6712958681980247 l -21.98195248763721 15.259156130506856" fill="#fdff18" stroke="none" /><path d="M 117.45458315368197 88.32363383020206 l 23.345127288163873 -15.616887100488704 a49.08704560486888,49.08704560486888 0 0,0 0.4637635718259509,0.7063437368807375 l -23.61048749534775 15.212725299630293" fill="#ebff1a" stroke="none" /><path d="M 117.65298651832404 88.62581576622439 l 24.086942637031974 -15.519715199329175 a49.65383683676512,49.65383683676512 0 0,0 0.45675004844614436,0.7224688878804086 l -24.350520281724076 15.10279866373456" fill="#e3ff1b" stroke="none" /><line stroke="#e1ed5e" stroke-width="0.3" x1="172.23445277983987" x2="176.4835382374775" y1="55.19839476539836" y2="52.563006222186495" /><path d="M 173.08426987136738 54.67131705675599 a86.0,86.0 0 0,1 12.851231095245387,41.99856678651699" fill="none" id="id51" stroke="none" /><text fill="#e1ed5e" style="font-size:6.75px; font-family:Arial;" text-anchor="middle"><textPath startOffset="22.20632615414155" xlink:href="#id51">March</textPath></text><path d="M 117.84615892207809 88.93136811851018 l 20.598230538237637 -12.775535185655828 a45.23842817895409,45.23842817895409 0 0,0 0.40474218881851337,0.6652897386246622 l -20.81508852534237 12.419077673824084" fill="#ffdc14" stroke="none" /><path d="M 118.21658344932153 89.55222093294921 l 12.966524407767032 -7.43670637563583 a35.94775424385352,35.94775424385352 0 0,0 0.303231903666484,0.5394157210976065 l -13.09261395272595 7.21240714460343" fill="#ff4b07" stroke="none" /><path d="M 118.3937258080291 89.86733742301442 l 25.747471321756 -14.183664682012635 a50.395724574781624,50.395724574781624 0 0,0 0.41202560683366574,0.7634208736179893 l -25.987805027808133 13.738362825062188" fill="#d8ff1c" stroke="none" /><path d="M 119.04729006885535 91.15688171328212 l 26.14157665344844 -12.136794983016681 a49.821586049138574,49.821586049138574 0 0,0 0.3544395009977399,0.7809604577122736 l -26.346618471409524 11.685012516462345" fill="#e0ff1b" stroke="none" /><path d="M 119.196687751892 91.48605970444005 l 19.64140078901085 -8.711175375674937 a42.486488809955,42.486488809955 0 0,0 0.2907477689597867,0.6710859372273239 l -19.788439267813317 8.371790293861011" fill="#ffb310" stroke="none" /><path d="M 119.47837535516314 92.15188598940014 l 29.218643684536833 -11.772606425851366 a52.50116507086557,52.50116507086557 0 0,0 0.33052346005209526,0.8411461539154004 l -29.416960694470628 11.267911267040182" fill="#bcff1f" stroke="none" /><path d="M 119.61058180528143 92.48833698450437 l 19.60998716999067 -7.511435245612739 a41.999363234541946,41.999363234541946 0 0,0 0.2527869904142686,0.6773434565257248 l -19.736378748906564 7.17276865205768" fill="#ffab0f" stroke="none" /><path d="M 119.85752413597 93.16781622104841 l 12.500810362145995 -4.301031346868447 a34.2200276231588,34.2200276231588 0 0,0 0.18684576068934147,0.5586450422838206 l -12.572993416607106 4.085213201662312" fill="#ff2e04" stroke="none" /><path d="M 120.08093135843002 93.85539295169968 l 42.75161671512626 -13.081658450255086 a65.70828244929784,65.70828244929784 0 0,0 0.32163923555744994,1.0844076068707325 l -42.97046184779541 12.343821456637825" fill="#32ff4b" stroke="none" /><path d="M 120.37134235888165 94.90015583598534 l 13.5553948508431 -3.393512322512532 a34.97371301570588,34.97371301570588 0 0,0 0.14117255794395808,0.5852513932106997 l -13.611800209047876 3.159675697642426" fill="#ff3b05" stroke="none" /><path d="M 120.53481517161879 95.60439243477599 l 28.714426513495454 -6.146505306180451 a50.36490792558075,50.36490792558075 0 0,0 0.17416833689200129,0.8493066653112602 l -28.815974146302455 5.6513229847057795" fill="#d9ff1c" stroke="none" /><path d="M 120.67395015179393 96.31383870115 l 31.944599381310475 -5.695715868621089 a53.448399172971286,53.448399172971286 0 0,0 0.15369758717998985,0.9071318598578564 l -32.037908830010686 5.144998220447394" fill="#afff20" stroke="none" /><path d="M 120.78858239683441 97.02765380044208 l 20.93722144847415 -2.9935985731836645 a42.150150694494194,42.150150694494194 0 0,0 0.0965118040812574,0.7191250415736962 l -20.985649251613243 2.6327551895453043" fill="#ffad10" stroke="none" /><path d="M 120.83666639777658 97.38593545837742 l 20.928890241914544 -2.6256344864616854 a42.09294676460837,42.09294676460837 0 0,0 0.08400478761635528,0.7197017194376794 l -20.970985382534487 2.264989028699153" fill="#ffad10" stroke="none" /><path d="M 120.87857604477298 97.74499172005257 l 21.70731033237089 -2.3445164282235407 a42.83355397428614,42.83355397428614 0 0,0 0.07286369834318562,0.733727498640144 l -21.744451156396305 1.9705133988789616" fill="#ffb811" stroke="none" /><path d="M 120.94382443527127 98.46500227214037 l 36.14347734283132 -2.648998313066389 a57.24042144476785,57.24042144476785 0 0,0 0.06356251422619841,0.9832839616445801 l -36.183720448061926 2.026455287168774" fill="#7eff26" stroke="none" /><path d="M 120.96714384426684 98.82574320788733 l 21.467941329826637 -1.2023037618506247 a42.50158225053772,42.50158225053772 0 0,0 0.034621367460665284,0.7308023476961057 l -21.4854563055208 0.8325903075315191" fill="#ffb310" stroke="none" /><line stroke="#e1ed5e" stroke-width="0.3" x1="184.98032266829074" x2="189.97916517819016" y1="98.17113171792111" y2="98.06355123074" /><path d="M 185.9800911702706 98.14961562048488 a86.0,86.0 0 0,1 -9.607161424134198,41.387399972396054" fill="none" id="id52" stroke="none" /><text fill="#e1ed5e" style="font-size:6.75px; font-family:Arial;" text-anchor="middle"><textPath startOffset="21.466115282336823" xlink:href="#id52">April</textPath></text><path d="M 120.99513854157772 99.54816195383933 l 14.772973655371194 -0.31793034083614724 a35.77639436141021,35.77639436141021 0 0,0 0.007950865611357282,0.6158033037609475 l -14.776257528100267 0.06359077901473702" fill="#ff4806" stroke="none" /><path d="M 120.99980553446 99.90962569577887 l 21.674336833401846 -0.09327720237974449 a42.67453754533747,42.67453754533747 0 0,0 -0.003161375891832711,0.7345924211752615 l -21.672731160220508 -0.27982469699920165" fill="#ffb510" stroke="none" /><path d="M 120.99824983174949 100.27111621757518 l 25.39877905846167 0.32793308797318155 a46.40089600330545,46.40089600330545 0 0,0 -0.017185869546342755,0.7985598272408736 l -25.38937112623032 -0.76508273100417" fill="#ffed16" stroke="none" /><path d="M 120.95626037817324 101.35467743843564 l 13.942890238745845 0.9013115170436724 a34.97199164974234,34.97199164974234 0 0,0 -0.04400382713086854,0.6003972599972737 l -13.925309852950639 -1.1411819135377164" fill="#ff3b05" stroke="none" /><path d="M 120.92983693683757 101.71520430193887 l 23.244068674792594 1.904856053388382 a44.32198973378139,44.32198973378139 0 0,0 -0.06885822899371144,0.759844819081928 l -23.207835849521807 -2.3046822610188804" fill="#ffce13" stroke="none" /><path d="M 120.89721153311464 102.0752229133903 l 33.74970982891418 3.3515558306069173 a54.91571671101145,54.91571671101145 0 0,0 -0.10150960638769949,0.9398528843938257 l -33.68701792102542 -3.9320050368855344" fill="#9cff22" stroke="none" /><path d="M 120.76222939487914 103.15116336523771 l 15.0723738112326 2.28759211151182 a36.244983764313474,36.244983764313474 0 0,0 -0.09892851821781108,0.6160279773769546 l -15.0307635386535 -2.5466993185819793" fill="#ff5007" stroke="none" /><path d="M 120.49622156327973 104.57218783832717 l 14.3509030498329 3.2013229458356203 a35.703635161049014,35.703635161049014 0 0,0 -0.13897118725172197,0.5986842374665322 l -14.293671296650626 -3.4478758406507173" fill="#ff4706" stroke="none" /><path d="M 120.41448212921028 104.9243191809786 l 23.40474880484816 5.6456221978214955 a45.07603199488189,45.07603199488189 0 0,0 -0.1884364574106889,0.7527099776684448 l -23.304101033142413 -6.047660014887336" fill="#ffda14" stroke="none" /><path d="M 120.13307415673323 105.97154293290107 l 20.38894510473803 6.047435185589263 a42.266888695996975,42.266888695996975 0 0,0 -0.21289072540474555,0.6957392083976432 l -20.281827606827154 -6.397501366538963" fill="#ffaf10" stroke="none" /><path d="M 119.9155931802556 106.66101706037122 l 20.4034782794482 6.824196280784537 a42.51445051072855,42.51445051072855 0 0,0 -0.23809948559390107,0.692028557034574 l -20.28298796291107 -7.17439754090841" fill="#ffb310" stroke="none" /><path d="M 119.79798401119884 107.00284435728193 l 27.46390290514943 9.71439503029573 a50.13134795350379,50.13134795350379 0 0,0 -0.2947621540649045,0.811058852678814 l -27.292616490079297 -10.185701679980674" fill="#dcff1b" stroke="none" /><path d="M 119.67450827220406 107.3425965602758 l 27.293344178853335 10.185973256022896 a50.13212466741417,50.13212466741417 0 0,0 -0.30868430931562474,0.8058773253477066 l -27.113965589944204 -10.654274148203747" fill="#dcff1b" stroke="none" /><path d="M 119.41010516605496 108.01547362559984 l 20.114212656132025 8.30623737819248 a42.76178141051379,42.76178141051379 0 0,0 -0.2868073787685634,0.677927921878816 l -19.968254296171153 -8.65123982573746" fill="#ffb711" stroke="none" /><path d="M 119.26925614724726 108.34839909993367 l 40.860841924302996 17.70294677369342 a65.53091877825001,65.53091877825001 0 0,0 -0.4573400177477801,1.0311810057826327 l -40.55006082182394 -18.40367611596874" fill="#32ff48" stroke="none" /><path d="M 118.97047184881838 109.00673069616215 l 19.411006293327258 9.215886015845046 a42.487664376954484,42.487664376954484 0 0,0 -0.3193590217118704,0.6579741757441115 l -19.249494015000675 -9.548649147554432" fill="#ffb310" stroke="none" /><path d="M 118.81262510543309 109.33194174019688 l 21.400188899942478 10.615494378070405 a44.88842409712423,44.88842409712423 0 0,0 -0.34932028462619696,0.6892420615914759 l -21.214289945530012 -10.982290651364575" fill="#ffd714" stroke="none" /><path d="M 118.64920377521936 109.65438752849418 l 20.971902277502338 10.856810523232957 a44.615482630564415,44.615482630564415 0 0,0 -0.3589368516557004,0.6789732544482745 l -20.781912917621742 -11.216198792767365" fill="#ffd313" stroke="none" /><line stroke="#e1ed5e" stroke-width="0.3" x1="174.80103733775053" x2="179.2010983576182" y1="140.37084112569926" y2="142.7455964860345" /><path d="M 175.68104954172406 140.8457921977663 a86.0,86.0 0 0,1 -30.038265399797805,32.042727171017184" fill="none" id="id53" stroke="none" /><text fill="#e1ed5e" style="font-size:6.75px; font-family:Arial;" text-anchor="middle"><textPath startOffset="22.206326154141568" xlink:href="#id53">May</textPath></text><path d="M 118.30583269289576 110.29060199501025 l 25.23302126572034 14.184712781622286 a49.94669996551271,49.94669996551271 0 0,0 -0.42775306131302254,0.7458235178120934 l -24.985116208254937 -14.616956145292695" fill="#dfff1b" stroke="none" /><path d="M 117.94076556474637 110.91462005526583 l 20.012424057824575 12.174954529545147 a44.42491482304018,44.42491482304018 0 0,0 -0.4030722454060961,0.6498808005915803 l -19.799887172750516 -12.517631661502" fill="#ffd013" stroke="none" /><path d="M 117.75023020441432 111.22182372390056 l 37.45174041968084 23.677260762422133 a65.3085266926682,65.3085266926682 0 0,0 -0.6089091384016441,0.9450405048978616 l -37.038626417902144 -24.31842286724145" fill="#32ff45" stroke="none" /><path d="M 117.14729908036423 112.12312394758627 l 17.15402977399764 12.127882541507597 a42.00824296384165,42.00824296384165 0 0,0 -0.42252332384565505,0.5868479418873863 l -16.942726657776383 -12.421364088846115" fill="#ffab0f" stroke="none" /><path d="M 116.93607887273984 112.41649034213515 l 11.92385775658572 8.741838402390986 a35.78506416803144,35.78506416803144 0 0,0 -0.3684817593776175,0.49364153311482944 l -11.77161473051301 -8.94579281501513" fill="#ff4806" stroke="none" /><path d="M 116.71984013943494 112.70617746262583 l 28.694587413235812 21.8063400635914 a57.04019719403353,57.04019719403353 0 0,0 -0.6008048935170133,0.7766213141854135 l -28.314975702500732 -22.297039371890065" fill="#80ff25" stroke="none" /><path d="M 116.498646956653 112.99209946851258 l 11.635625129857889 9.162642213183377 a35.81019191264551,35.81019191264551 0 0,0 -0.3855258551108228,0.4810027815608828 l -11.476181362692213 -9.36157282832251" fill="#ff4906" stroke="none" /><path d="M 115.80600337817218 113.82643327865902 l 17.689854007302124 15.47434732798761 a44.502901098095535,44.502901098095535 0 0,0 -0.5093275449477386,0.5722348960930167 l -17.420867612706047 -15.776556393821494" fill="#ffd113" stroke="none" /><path d="M 115.56566222782051 114.09645910891815 l 17.539543206340646 15.884030501149017 a44.663009124972305,44.663009124972305 0 0,0 -0.5209697388038959,0.5654097586985914 l -17.26352705954103 -16.183591514648942" fill="#ffd313" stroke="none" /><path d="M 115.07121518719521 114.62390073753431 l 27.143388593945584 26.337771410458743 a58.82118119825864,58.82118119825864 0 0,0 -0.7113424005049928,0.7205860961208492 l -26.686005568385056 -26.801098000560255" fill="#6aff28" stroke="none" /><path d="M 114.55890576462653 115.13401014063108 l 16.23344637871545 16.87469828328631 a44.41538433343719,44.41538433343719 0 0,0 -0.5555395174358988,0.5252972887639827 l -15.940571026888744 -17.151630208796213" fill="#ffd013" stroke="none" /><path d="M 114.0293411484842 115.62618273729858 l 9.82219599401964 10.940173730160948 a35.70248058631737,35.70248058631737 0 0,0 -0.4608300182440675,0.40662891131291623 l -9.632423622868986 -11.107625783246155" fill="#ff4706" stroke="none" /><path d="M 112.34349029814194 116.9893568818739 l 6.178763952542949 8.504338995139122 a31.51194110169421,31.51194110169421 0 0,0 -0.4415763386982914,0.31505299308227114 l -6.031460285995774 -8.609436250065611" fill="#ff0000" stroke="none" /><line stroke="#e1ed5e" stroke-width="0.3" x1="143.8653032363475" x2="146.44561519142675" y1="172.8068346515853" y2="177.08958963109032" /><path d="M 144.38136562736335 173.6633856474863 a86.0,86.0 0 0,1 -40.68145358897372,12.25698825130547" fill="none" id="id54" stroke="none" /><text fill="#e1ed5e" style="font-size:6.75px; font-family:Arial;" text-anchor="middle"><textPath startOffset="21.466115282336833" xlink:href="#id54">June</textPath></text><path d="M 109.89434966115114 118.52300852407294 l 10.638760504604129 19.916604755347393 a43.57995504988996,43.57995504988996 0 0,0 -0.6647169557126735,0.34774849476538977 l -10.29435264636496 -20.0967826690575" fill="#ffc312" stroke="none" /><path d="M 109.2508944713604 118.85261126421891 l 9.261183843356845 18.873580212789506 a42.02335739669222,42.02335739669222 0 0,0 -0.6521371344609863,0.3130654548496704 l -8.934934040895625 -19.030199944138737" fill="#ffab0f" stroke="none" /><path d="M 108.2653958097858 119.30500536409082 l 11.196834414434104 26.15179640587457 a49.447944673711845,49.447944673711845 0 0,0 -0.7853476579939715,0.32827538473506107 l -10.745015296942672 -26.340656833629605" fill="#e5ff1a" stroke="none" /><path d="M 107.59598834532513 119.57807347666477 l 10.728936635323347 27.65300580037294 a50.66140271666603,50.66140271666603 0 0,0 -0.8157204245981476,0.3084356661608779 l -10.251345989964925 -27.833589716640454" fill="#d5ff1c" stroke="none" /><path d="M 107.2578585660854 119.70592522655815 l 8.0709303591395 21.913509159457707 a44.352554475768095,44.352554475768095 0 0,0 -0.7186812725813329,0.25769353489274227 l -7.692529525928432 -22.04919023539041" fill="#ffcf13" stroke="none" /><path d="M 106.2309692047433 120.05430185196036 l 13.177123175145496 42.41041754686646 a65.4103601839989,65.4103601839989 0 0,0 -1.078102980502826,0.32482358421189855 l -12.445145220202424 -42.630956500184084" fill="#32ff46" stroke="none" /><path d="M 105.18746579009965 120.34920634021253 l 6.396730483234537 25.09286687817682 a46.89536887246531,46.89536887246531 0 0,0 -0.7839269144492577,0.19267016272455786 l -5.963850284042068 -25.19925829921541" fill="#fff417" stroke="none" /><path d="M 104.83641907484287 120.43548508189849 l 3.9820498492998353 16.825489898926264 a38.29028141301288,38.29028141301288 0 0,0 -0.6426929843887642,0.14627483081817003 l -3.691836715518209 -16.891541463322117" fill="#ff710a" stroke="none" /><path d="M 104.48393922423573 120.51570834832081 l 4.9351293474780515 22.580072853542262 a44.11309567642585,44.11309567642585 0 0,0 -0.7432185672905834,0.15574867695451672 l -4.54571931875809 -22.66167751122332" fill="#ffcb12" stroke="none" /><path d="M 103.7750983002368 120.6578951692458 l 8.848428993822305 48.419909636639126 a70.22176698249478,70.22176698249478 0 0,0 -1.1909311683745505,0.20705864906298818 l -8.013648853975704 -48.56504686422312" fill="#39ff88" stroke="none" /><path d="M 103.06178313531738 120.77559828337769 l 3.426832652932918 23.252626144704365 a44.50378277334515,44.50378277334515 0 0,0 -0.7588348664365221,0.10516759796905151 l -3.0260691953095655 -23.30816830816602" fill="#ffd113" stroke="none" /><path d="M 102.70371172650421 120.8252237178851 l 3.2437621764511864 24.98493916714707 a46.19462597943091,46.19462597943091 0 0,0 -0.7894278317340965,0.09558871655553992 l -2.8132069216657096 -25.037073412427958" fill="#ffea16" stroke="none" /><path d="M 101.98527174616119 120.90594882070398 l 2.382203053865463 25.08584289326429 a46.19869847939342,46.19869847939342 0 0,0 -0.7923201795380351,0.06836471899998696 l -1.950038556585886 -25.12313186454294" fill="#ffea16" stroke="none" /><path d="M 101.62511606390274 120.93702456842531 l 4.116613950942313 53.03599499386913 a74.19551931705155,74.19551931705155 0 0,0 -1.274174630908334,0.08787454261376264 l -3.203076559255049 -53.09899788099918" fill="#3fffbb" stroke="none" /><path d="M 100.90346689309514 120.98055641714683 l 0.745327786862681 17.308206643818792 a38.32424690239095,38.32424690239095 0 0,0 -0.6593224020585524,0.022708396636885786 l -0.44728503312947626 -17.31847183888177" fill="#ff710a" stroke="none" /><line stroke="#e1ed5e" stroke-width="0.3" x1="102.19456741930631" x2="102.32365962044197" y1="184.97166512339345" y2="189.96999836594603" /><path d="M 102.22038585953345 185.97133177190398 a86.0,86.0 0 0,1 -42.740103519485714,-10.115201625700543" fill="none" id="id55" stroke="none" /><text fill="#e1ed5e" style="font-size:6.75px; font-family:Arial;" text-anchor="middle"><textPath startOffset="22.20632615414155" xlink:href="#id55">July</textPath></text><path d="M 100.54218724476979 120.99299961872073 l 0.6511070626990263 25.210276432804275 a46.21868311838473,46.21868311838473 0 0,0 -0.7954902456695948,0.013695085991974706 l -0.21705712713676356 -25.217748996075407" fill="#ffea16" stroke="none" /><path d="M 99.81925306533755 120.99922214144158 l -0.2191297118222333 25.458542381029755 a46.45948542286924,46.45948542286924 0 0,0 -0.7996348008889967,-0.013766438268683545 l 0.657324202603898 -25.450998465481913" fill="#ffee16" stroke="none" /><path d="M 99.45781275523022 120.99299961872073 l -0.5553037063213674 21.50085714397173 a42.50802687676706,42.50802687676706 0 0,0 -0.7312992857639632,-0.025187426044601696 l 0.9253233437599735 -21.48811291950103" fill="#ffb310" stroke="none" /><path d="M 99.09653310690486 120.98055641714683 l -1.9155134010767845 44.48257848321658 a65.52380239944952,65.52380239944952 0 0,0 -1.1264225937675305,-0.058223181640429875 l 2.680924063257804 -44.44301549481394" fill="#32ff48" stroke="none" /><path d="M 98.37488393609728 120.93702456842531 l -1.821095713193035 23.46190929711899 a44.53247920349338,44.53247920349338 0 0,0 -0.7637440681045126,-0.0658990518634966 l 2.2246840990390893 -23.427085992976828" fill="#ffd113" stroke="none" /><path d="M 98.01472825383883 120.90594882070398 l -2.383711304853415 25.10172556425088 a46.21465260295791,46.21465260295791 0 0,0 -0.7912991731057206,-0.08202139471951725 l 2.8154430745647288 -25.056974801075604" fill="#ffea16" stroke="none" /><path d="M 97.65516085044442 120.86867818915974 l -3.267354574012633 29.078911936399525 a50.261898867250565,50.261898867250565 0 0,0 -0.8589341508962222,-0.10400496383506541 l 3.767416147960245 -29.018361443839108" fill="#daff1c" stroke="none" /><path d="M 96.93821686468263 120.77559828337769 l -3.064031697107184 20.79085580306347 a42.015422319445676,42.015422319445676 0 0,0 -0.7145905727546785,-0.11160435116689862 l 3.42145813347038 -20.735033144549465" fill="#ffab0f" stroke="none" /><path d="M 96.58105272829116 120.7198165907248 l -7.263281689921665 44.01760322753597 a65.61283060739294,65.61283060739294 0 0,0 -1.1127655764501503,-0.19346855897477164 l 8.019896237843865 -43.88605609004019" fill="#32ff49" stroke="none" /><path d="M 95.86986931433489 120.58985236759428 l -4.169388261770996 20.785562323973004 a42.1996084775441,42.1996084775441 0 0,0 -0.7109800858900924,-0.1489927897281641 l 4.526559809090474 -20.7107135535183" fill="#ffae10" stroke="none" /><path d="M 95.16358092515715 120.4354850818985 l -5.902725951807852 24.94098759103582 a46.62996363006293,46.62996363006293 0 0,0 -0.77949026499415,-0.19157974223163704 l 6.3311695015452125 -24.835686590490152" fill="#fff016" stroke="none" /><path d="M 94.81253420990036 120.34920634021253 l -6.946845353399185 27.25083792931411 a49.122354599389226,49.122354599389226 0 0,0 -0.8175586859090254,-0.21592467962383904 l 7.4148944821197 -27.12722190038669" fill="#eaff1a" stroke="none" /><path d="M 94.11515582081647 120.15858648285463 l -13.7939490235814 47.251296018263105 a70.22355132526187,70.22355132526187 0 0,0 -1.1574346903501416,-0.3487255776209557 l 14.605258688371787 -47.00685507153643" fill="#39ff88" stroke="none" /><path d="M 92.7421414339146 119.70592522655815 l -7.368708138238018 20.006894632388505 a42.320733863027115,42.320733863027115 0 0,0 -0.6814238284937226,-0.25765618481711816 l 7.712002187492024 -19.877090197464753" fill="#ffb010" stroke="none" /><path d="M 92.06813273071674 119.44442032107085 l -8.723316235376972 21.38460235349078 a44.09539919462998,44.09539919462998 0 0,0 -0.7003368636315102,-0.29274086579697367 l 9.090124558505945 -21.231276444673835" fill="#ffcb12" stroke="none" /><path d="M 91.7346041902142 119.30500536409082 l -17.84440927454017 41.67815125758116 a66.33752567804191,66.33752567804191 0 0,0 -1.0458563450647975,-0.4584726867915886 l 18.55918629426271 -41.36481401749513" fill="#33ff53" stroke="none" /><path d="M 91.07499286063937 119.00905698771935 l -8.966231438065881 19.096859163239284 a42.09699827230303,42.09699827230303 0 0,0 -0.6532799262932979,-0.31361406437652956 l 9.293624032359421 -18.939690822363193" fill="#ffad10" stroke="none" /><path d="M 90.10565033884886 118.52300852407294 l -6.367528101152235 11.920518410423211 a34.51459112560207,34.51459112560207 0 0,0 -0.5216258990927217,-0.28443203071308876 l 6.5717768121135975 -11.809145727950357" fill="#ff3304" stroke="none" /><line stroke="#e1ed5e" stroke-width="0.3" x1="58.666819895761336" x2="56.23545636021788" y1="174.27360380694188" y2="178.64263932499728" /><path d="M 58.180547188652646 175.14741091055294 a86.0,86.0 0 0,1 -31.652253787137756,-30.449443065178592" fill="none" id="id56" stroke="none" /><text fill="#e1ed5e" style="font-size:6.75px; font-family:Arial;" text-anchor="middle"><textPath startOffset="22.20632615414155" xlink:href="#id56">August</textPath></text><path d="M 89.7882731507175 118.34994917583269 l -8.173018918303303 14.686495631688617 a37.80748024477651,37.80748024477651 0 0,0 -0.565944192121314,-0.3213578825225979 l 8.424611877345823 -14.543634583371386" fill="#ff6909" stroke="none" /><path d="M 89.4739219176387 118.17145234162733 l -14.37365467278826 24.813627527546206 a49.676088640684014,49.676088640684014 0 0,0 -0.7362283250772804,-0.43497667152910613 l 14.798650868893922 -24.562532283723353" fill="#e2ff1b" stroke="none" /><path d="M 89.1626897886671 117.98757091392108 l -10.846092422696373 18.00214746904416 a42.01701773180212,42.01701773180212 0 0,0 -0.61629121039086,-0.37857639734921433 l 11.154362833019542 -17.812782604866566" fill="#ffab0f" stroke="none" /><path d="M 87.95078237400918 117.19931262002967 l -12.165867316323395 17.365820899101003 a42.203303116685355,42.203303116685355 0 0,0 -0.5913942277023999,-0.42194407897503977 l 12.46298887187468 -17.153832558281742" fill="#ffae10" stroke="none" /><path d="M 87.65650970185807 116.9893568818739 l -10.170425145609384 13.998389293922164 a38.302960742793076,38.302960742793076 0 0,0 -0.5300674318725419,-0.39213121397675177 l 10.409877547900491 -13.821248131205646" fill="#ff710a" stroke="none" /><path d="M 87.36589467227662 116.77436683061367 l -26.945595729081305 35.775806478136666 a65.78809505165597,65.78809505165597 0 0,0 -0.8987006894028524,-0.689085366070762 l 27.557425146977643 -35.30668177023854" fill="#32ff4c" stroke="none" /><path d="M 87.07902340077011 116.55440617244103 l -6.781583354363864 8.68859133659415 a32.021864279990204,32.021864279990204 0 0,0 -0.43159755969870944,-0.34288720413811014 l 6.930138406779932 -8.57057021845091" fill="#ff0901" stroke="none" /><path d="M 86.79598089348748 116.32954008644616 l -13.355448639837064 16.516814477277308 a42.24083729159759,42.24083729159759 0 0,0 -0.5614609277794453,-0.4620441194971235 l 13.637779696161198 -16.284475238923" fill="#ffaf10" stroke="none" /><path d="M 86.51685102203217 116.09983520530335 l -10.794529716703362 12.88943330980441 a37.81247640452433,37.81247640452433 0 0,0 -0.4954056035714331,-0.4221954029586239 l 11.014800796851851 -12.701713516622835" fill="#ff6909" stroke="none" /><path d="M 86.24171649860922 115.8653595955263 l -16.52863082456789 19.059984599602245 a46.228528492005445,46.228528492005445 0 0,0 -0.5966950553158936,-0.526514009771814 l 16.85426823279037 -18.77264744805814" fill="#ffea16" stroke="none" /><path d="M 85.70375840098266 115.38237550388516 l -9.008918049272923 9.693356072491808 a34.23335771324229,34.23335771324229 0 0,0 -0.428184587607118,-0.4048752535169483 l 9.174438471270857 -9.53684618222893" fill="#ff2e04" stroke="none" /><path d="M 85.44109423537348 115.13401014063109 l -32.3350958520199 33.61239343355974 a67.64066268924279,67.64066268924279 0 0,0 -0.8321413536713672,-0.8144254571059153 l 32.90888715806706 -33.05081787353125" fill="#35ff65" stroke="none" /><path d="M 85.18274418774928 114.88116024355367 l -9.041641213904152 9.08063635221728 a33.81441502379957,33.81441502379957 0 0,0 -0.408927985883663,-0.41424189073121276 l 9.196609824843348 -8.923653967505402" fill="#ff2703" stroke="none" /><path d="M 84.67929136418377 114.36230785411682 l -15.340444652911962 14.38080926681782 a42.02705203583347,42.02705203583347 0 0,0 -0.4902227313108486,-0.5320399546726163 l 15.58571379221854 -14.11461805734386" fill="#ffac0f" stroke="none" /><path d="M 84.43433777217949 114.09645910891817 l -17.456126416321613 15.808487208978732 a44.550469577039124,44.550469577039124 0 0,0 -0.5098719574691567,-0.5728465493321124 l 17.725657223439107 -15.505666489905757" fill="#ffd213" stroke="none" /><path d="M 83.95833913139862 113.55231037782056 l -12.841335881561072 10.848612930933546 a37.81048213907877,37.81048213907877 0 0,0 -0.41574245580320407,-0.5007885700040932 l 13.026174337257812 -10.625963103815693" fill="#ff6909" stroke="none" /><path d="M 83.72743513129214 113.27417163493432 l -34.35139173068932 28.021782270408735 a65.33100941153342,65.33100941153342 0 0,0 -0.7033414769201431,-0.8775266361538258 l 34.82865111966433 -27.426327800676653" fill="#32ff45" stroke="none" /><path d="M 83.50135304334701 112.99209946851258 l -13.186207289685992 10.383670683427994 a37.7838219589118,37.7838219589118 0 0,0 -0.39797732555988274,-0.514439341169514 l 13.362991432463943 -10.155153348145227" fill="#ff6909" stroke="none" /><path d="M 83.06392112726016 112.41649034213515 l -17.330809449947747 12.705882499344352 a42.48944871972157,42.48944871972157 0 0,0 -0.4273633419250271,-0.5935703036796891 l 17.54695258424838 -12.405678590213524" fill="#ffb310" stroke="none" /><path d="M 82.85270091963577 112.12312394758628 l -17.31150400763955 12.239216673142264 a42.201098928561315,42.201098928561315 0 0,0 -0.41425220237593685,-0.5967611939117421 l 17.519617117177617 -11.939414217043511" fill="#ffae10" stroke="none" /><path d="M 82.44556493220864 111.52570212397912 l -17.854850491659136 11.722945651075115 a42.3593806281353,42.3593806281353 0 0,0 -0.39494098654045123,-0.6129571815998167 l 18.05399634157663 -11.41386686955385" fill="#ffb110" stroke="none" /><path d="M 82.24976979558568 111.22182372390057 l -30.176719167317675 19.0779397879062 a56.70157092137729,56.70157092137729 0 0,0 -0.5144597260427417,-0.8294728859237981 l 30.500643533028374 -18.55567057061714" fill="#85ff25" stroke="none" /><line stroke="#e1ed5e" stroke-width="0.3" x1="26.63291911575756" x2="22.317208475507996" y1="142.92168965132927" y2="145.44649492493687" /><path d="M 25.769776987707644 143.4266507060508 a86.0,86.0 0 0,1 -11.730757126820373,-40.83630448921669" fill="none" id="id57" stroke="none" /><text fill="#e1ed5e" style="font-size:6.75px; font-family:Arial;" text-anchor="middle"><textPath startOffset="21.46611528233685" xlink:href="#id57">September</textPath></text><path d="M 81.69416730710424 110.29060199501025 l -12.823345275694521 7.208628238363564 a35.7106255862424,35.7106255862424 0 0,0 -0.2966083588326162,-0.5384303270029231 l 12.945530043978653 -6.986827392962818" fill="#ff4706" stroke="none" /><path d="M 81.51974371655577 109.97397251340807 l -17.299704182255915 9.33681716083609 a40.65848212575035,40.65848212575035 0 0,0 -0.32710231307280113,-0.6187543046085208 l 17.457859003553605 -9.037647841141442" fill="#ff960d" stroke="none" /><path d="M 81.18737489456691 109.33194174019688 l -19.26216905568176 9.554936560423593 a42.50181316548405,42.50181316548405 0 0,0 -0.31946537124482477,-0.6581932872816892 l 19.423787683541303 -9.22195431717662" fill="#ffb310" stroke="none" /><path d="M 80.87730276802145 108.67885076344099 l -38.328515709428714 17.395426167708976 a63.091281378025755,63.091281378025755 0 0,0 -0.4403137981750979,-0.992791375436953 l 38.62227059233509 -16.733086455779326" fill="#37ff2e" stroke="none" /><path d="M 80.58989483394504 108.01547362559985 l -21.462058565020754 8.862835255516933 a44.22003028884361,44.22003028884361 0 0,0 -0.2844766899753286,-0.7060478147552169 l 21.61143786925347 -8.492088072918909" fill="#ffcd13" stroke="none" /><path d="M 80.32549172779594 107.34259656027581 l -20.591940255136027 7.684985443848587 a42.97924031315132,42.97924031315132 0 0,0 -0.2527092123381148,-0.6953472180665077 l 20.721173728479368 -7.329390428775962" fill="#ffba11" stroke="none" /><path d="M 80.20201598880116 107.00284435728193 l -13.898292239332385 4.916034750255893 a35.74211398801442,35.74211398801442 0 0,0 -0.20017144411727555,-0.581791914780819 l 13.980854514392888 -4.676070132385776" fill="#ff4706" stroke="none" /><path d="M 80.0844068197444 106.66101706037122 l -42.01070951820054 14.051002663403578 a65.29819849688698,65.29819849688698 0 0,0 -0.34734832222768464,-1.0690282129855948 l 42.24635009144448 -13.32577555044018" fill="#32ff45" stroke="none" /><path d="M 79.86692584326677 105.97154293290107 l -14.108450766505815 4.184617749532036 a35.715957622275795,35.715957622275795 0 0,0 -0.16974835958890472,-0.5909163086216367 l 14.178391762980825 -3.9411439654058027" fill="#ff4706" stroke="none" /><path d="M 79.76711848015287 105.62410040840567 l -14.233708319006134 3.956520216436995 a35.7733714748401,35.7733714748401 0 0,0 -0.1598080377997632,-0.594705158702201 l 14.29970443314767 -3.7109241245592552" fill="#ff4806" stroke="none" /><path d="M 79.58551787078972 104.9243191809786 l -27.621807424626923 6.662848229677295 a49.41404216113732,49.41404216113732 0 0,0 -0.19233694482547864,-0.8285825243826401 l 27.73240493538296 -6.186397047946081" fill="#e6ff1a" stroke="none" /><path d="M 79.50377843672027 104.57218783832718 l -13.650907471828015 3.0451716640613 a34.98643433002178,34.98643433002178 0 0,0 -0.1260610564373964,-0.588915287788886 l 13.701302566989852 -2.8097425568562504" fill="#ff3b05" stroke="none" /><path d="M 79.4281124754447 104.21870165774334 l -45.70400056946001 9.372574234509946 a67.65512636179008,67.65512636179008 0 0,0 -0.22413198454902342,-1.142844160491808 l 45.858562486984695 -8.584466346950183" fill="#35ff65" stroke="none" /><path d="M 79.23777060512086 103.15116336523772 l -21.26774189840162 3.2278869410865925 a42.51130167055135,42.51130167055135 0 0,0 -0.10357767107111426,-0.7244219902292363 l 21.320153620489336 -2.8613194788769554" fill="#ffb310" stroke="none" /><path d="M 79.1416061653843 102.43462659150553 l -13.893810602942581 1.6217087959634235 a34.98813470371746,34.98813470371746 0 0,0 -0.06467423161759465,-0.5988030620431789 l 13.919667136061229 -1.3823094120354626" fill="#ff3b05" stroke="none" /><path d="M 79.10278846688536 102.07522291339032 l -14.644094703997252 1.454249569490929 a35.716125560418575,35.716125560418575 0 0,0 -0.055488238848920235,-0.6123080919374743 l 14.666957539123247 -1.2019600890048885" fill="#ff4706" stroke="none" /><path d="M 79.07016306316243 101.71520430193888 l -23.032838844065925 1.8875457267263382 a44.110051797587886,44.110051797587886 0 0,0 -0.05550187457079489,-0.7572789820737993 l 23.061917277301056 -1.4907936081557782" fill="#ffcb12" stroke="none" /><path d="M 79.0235259727143 100.99374915477108 l -21.47013433160666 1.0171360457006438 a42.49421396452307,42.49421396452307 0 0,0 -0.02832516007943043,-0.7309465216305374 l 21.484461624537293 -0.6474122770561096" fill="#ffb310" stroke="none" /><path d="M 79.0095281055655 100.63252640178507 l -13.342821519385119 0.40207227964011977 a34.34887816320988,34.34887816320988 0 0,0 -0.012722067675893463,-0.5911444944937193 l 13.34776564974602 -0.17233796935627166" fill="#ff3004" stroke="none" /><line stroke="#e1ed5e" stroke-width="0.3" x1="15.007084014347285" x2="10.007500721073583" y1="101.09737516637583" y2="101.16192664675087" /><path d="M 14.007167355692545 101.11028546245083 a86.0,86.0 0 0,1 10.666146001902534,-42.60595125391555" fill="none" id="id58" stroke="none" /><text fill="#e1ed5e" style="font-size:6.75px; font-family:Arial;" text-anchor="middle"><textPath startOffset="22.20632615414155" xlink:href="#id58">October</textPath></text><path d="M 79.00019446554 99.90962569577889 l -21.69755406664204 -0.09337711955737578 a42.69775499357736,42.69775499357736 0 0,0 0.009489053268788135,-0.734937632971221 l 21.692732006255536 0.46685101058906875" fill="#ffb610" stroke="none" /><path d="M 79.01574976396665 99.18683210126434 l -36.078005886540986 -1.3980712156660182 a57.10508429395173,57.10508429395173 0 0,0 0.04651723541863869,-0.9819053187572768 l 36.04859504288885 2.0188876410463044" fill="#80ff26" stroke="none" /><path d="M 79.05617556472873 98.46500227214037 l -23.764498084384257 -1.7417282443325621 a44.82823926520398,44.82823926520398 0 0,0 0.06302747160801127,-0.7690947963491811 l 23.73099612895675 2.1505369578895217" fill="#ffd614" stroke="none" /><path d="M 79.12142395522702 97.74499172005258 l -12.589987872440817 -1.3597922978995183 a33.663207718490355,33.663207718490355 0 0,0 0.0671815786785139,-0.5755707390188003 l 12.564715940758715 1.5763067752431803" fill="#ff2503" stroke="none" /><path d="M 79.16333360222342 97.38593545837743 l -22.49429331490756 -2.822022170956859 a43.67062065472551,43.67062065472551 0 0,0 0.09999324593841911,-0.7450658272019232 l 22.442384069911306 3.2088063402234415" fill="#ffc512" stroke="none" /><path d="M 79.26566170972629 96.67025291283419 l -15.830103051925589 -2.5421712903859452 a37.03292853798851,37.03292853798851 0 0,0 0.10649283889827309,-0.628526763391593 l 15.783998351507092 2.8142838420933662" fill="#ff5d08" stroke="none" /><path d="M 79.32604984820605 96.31383870115002 l -45.67157377494991 -8.1432327383349 a67.3918623307082,67.3918623307082 0 0,0 0.21345337796634864,-1.1402764803202314 l 45.524634673073706 8.928187296117706" fill="#35ff62" stroke="none" /><path d="M 79.3925641242962 95.95851677861259 l -15.45954752753091 -3.031891125106973 a36.7540462596277,36.7540462596277 0 0,0 0.12710022463557255,-0.6197858340490767 l 15.405068006980343 3.2975526153194523" fill="#ff5808" stroke="none" /><path d="M 79.62865764111835 94.90015583598534 l -21.685475365888987 -5.4288295312260315 a43.35468702361297,43.35468702361297 0 0,0 0.18746498154089736,-0.7223790456558318 l 21.588814052477783 5.801305002430727" fill="#ffc011" stroke="none" /><path d="M 79.71946130924805 94.55025226153421 l -14.204408598662948 -3.8169816303798187 a35.70831643677912,35.70831643677912 0 0,0 0.16462083008966133,-0.5922287137557023 l 14.136600998006925 4.060921647554464" fill="#ff4706" stroke="none" /><path d="M 79.81627453868168 94.20196356495316 l -60.545305082441764 -17.392422697771654 a83.99389125005624,83.99389125005624 0 0,0 0.41114650948316084,-1.38618163809888 l 60.2369526758469 18.432033722617074" fill="#4dd2ff" stroke="none" /><path d="M 80.02781315780177 93.51064311812611 l -15.17674705874789 -4.931224044132016 a36.957776219092636,36.957776219092636 0 0,0 0.20179422083135215,-0.6033390354325106 l 15.089615544144767 5.191736182486848" fill="#ff5b08" stroke="none" /><path d="M 80.2630227832202 92.82701384747504 l -12.554014541014386 -4.562490571491132 a34.35738003168833,34.35738003168833 0 0,0 0.20679119938624807,-0.5540976042391881 l 12.47361875312651 4.777911312759662" fill="#ff3004" stroke="none" /><path d="M 80.52162464483688 92.15188598940014 l -20.840223777293346 -8.39682207722002 a43.468234200402854,43.468234200402854 0 0,0 0.28560350614319935,-0.6916115439926509 l 20.692598584263948 8.754308191665983" fill="#ffc112" stroke="none" /><path d="M 80.803312248108 91.48605970444005 l -17.074827550047154 -7.572872164040674 a39.678814969819456,39.678814969819456 0 0,0 0.28228204867290024,-0.6219710763472539 l 16.941943184410903 7.865665249229998" fill="#ff870c" stroke="none" /><path d="M 81.10775173730289 90.83032412892265 l -14.256186016773405 -6.919483754070393 a36.84670612990882,36.84670612990882 0 0,0 0.28185973311514084,-0.5682120226460718 l 14.134966270704851 7.163855365215427" fill="#ff5a08" stroke="none" /><path d="M 81.26839172434947 90.50648371742162 l -19.17313072748451 -9.717287809503729 a42.49499067843344,42.49499067843344 0 0,0 0.3362984089859297,-0.6496214845271383 l 19.003022885338464 10.045882016291204" fill="#ffb310" stroke="none" /><path d="M 81.43458229118936 90.18545643968196 l -19.007514062173865 -10.048256261319217 a42.50007080725266,42.50007080725266 0 0,0 0.3474722828688927,-0.6438133682620714 l 18.8317336800865 10.373950612913761" fill="#ffb310" stroke="none" /><line stroke="#e1ed5e" stroke-width="0.3" x1="26.266209847984243" x2="21.928928074336255" y1="57.711370442889674" y2="55.22380399835377" /><path d="M 25.398753493254645 57.213857153982495 a86.0,86.0 0 0,1 29.58750427330803,-30.492523968695096" fill="none" id="id59" stroke="none" /><text fill="#e1ed5e" style="font-size:6.75px; font-family:Arial;" text-anchor="middle"><textPath startOffset="21.46611528233685" xlink:href="#id59">November</textPath></text><path d="M 81.78341655067845 89.55222093294921 l -39.59076549213465 -22.706539462132046 a66.64006624226744,66.64006624226744 0 0,0 0.579261875484886,-0.990146315699422 l 39.19404394217944 23.38466519018536" fill="#34ff58" stroke="none" /><path d="M 81.96595687620814 89.24020034530311 l -10.294314144237605 -6.141981418929842 a32.98736165512369,32.98736165512369 0 0,0 0.29513352910556057,-0.485121921713115 l 10.187064816845826 6.318271113850032" fill="#ff1902" stroke="none" /><path d="M 82.34701348167596 88.62581576622439 l -18.016021807638452 -11.608095377351106 a42.431866929014475,42.431866929014475 0 0,0 0.4008869127029268,-0.6105782713167428 l 17.813538259577605 11.916491712645515" fill="#ffb210" stroke="none" /><path d="M 82.54541684631803 88.32363383020206 l -22.909760889270125 -15.325645685741003 a48.563246537525345,48.563246537525345 0 0,0 0.47077566013035316,-0.6908051905759861 l 22.64256076347103 15.717728899587405" fill="#f2ff19" stroke="none" /><path d="M 82.95767976084542 87.72973835380427 l -17.237223954702117 -12.41058993201737 a42.240165539026464,42.240165539026464 0 0,0 0.4299191728239604,-0.586409268579003 l 17.02104216936452 12.705461644267874" fill="#ffaf10" stroke="none" /><path d="M 83.39014120810768 87.1503855733568 l -49.82957637567698 -38.54884327992962 a84.0,84.0 0 0,0 0.8945836776241158,-1.1360304241878092 l 49.15863861745889 39.40086609807048" fill="#4dd2ff" stroke="none" /><path d="M 84.07557802195018 86.31012108654704 l -11.201635019636436 -9.62980177634661 a35.771923008358584,35.771923008358584 0 0,0 0.40542898721220416,-0.4634754178704946 l 11.034214168846388 9.821192750420048" fill="#ff4806" stroke="none" /><path d="M 84.31358615837235 86.03803664274999 l -15.688541181535303 -13.963856832848638 a42.00284795100471,42.00284795100471 0 0,0 0.48534562702612466,-0.5359307635815406 l 15.445851913893133 14.231840383699735" fill="#ffab0f" stroke="none" /><path d="M 84.80347519578584 85.50635884689758 l -24.54421262239163 -23.408971111325524 a54.91752204604637,54.91752204604637 0 0,0 0.6583191832315101,-0.6784557862099934 l 24.137629175457 23.827991093085643" fill="#9cff22" stroke="none" /><path d="M 85.05521093208273 85.24692304244772 l -33.39335371934589 -32.964982981919846 a67.92340754488762,67.92340754488762 0 0,0 0.828549778268839,-0.8249917222087002 l 32.820968140909734 33.53491055477866" fill="#35ff69" stroke="none" /><path d="M 85.31137513191541 84.99185889309783 l -9.186392919118365 -9.386221135862796 a34.1335814641607,34.1335814641607 0 0,0 0.42344618699686243,-0.407354896395003 l 9.023463488509075 9.54295911902011" fill="#ff2d04" stroke="none" /><line stroke="#e1ed5e" stroke-width="0.3" x1="56.762969772571076" x2="54.21961505331055" y1="26.818313649435495" y2="22.513508569990535" /><path d="M 56.25429882871897 25.957352633546506 a86.0,86.0 0 0,1 42.265352541879196,-11.944610805530505" fill="none" id="id60" stroke="none" /><text fill="#e1ed5e" style="font-size:6.75px; font-family:Arial;" text-anchor="middle"><textPath startOffset="22.20632615414155" xlink:href="#id60">December</textPath></text></svg>