<?xml version="1.0" encoding="utf-8" ?>
<svg baseProfile="full" height="200mm" version="1.1" viewBox="0,0,200,200" width="200mm" xmlns="http://www.w3.org/2000/svg" xmlns:ev="http://www.w3.org/2001/xml-events" xmlns:xlink="http://www.w3.org/1999/xlink"><defs /><rect fill="#1a1a1a" height="200" width="200" x="0" y="0" /><text alignment-baseline="middle" fill="#e1ed5e" style="dominant-baseline: central; font-size:9.0px; font-family:Arial;" text-anchor="middle" x="100.0" y="100.0">2026</text><line stroke="#e1ed5e" stroke-width="0.3" x1="100.0" x2="100.0" y1="15.0" y2="10.0" /><path d="M 100.0 14.0 a86.0,86.0 0 0,1 42.46469731375804,11.215312516191453" fill="none" id="id61" stroke="none" /><text fill="#e1ed5e" style="font-size:6.75px; font-family:Arial;" text-anchor="middle"><textPath startOffset="22.20632615414155" xlink:href="#id61">January</textPath></text><path d="M 100.0 79.0 l 0.0 -50.905697551753775 a71.90569755175378,71.90569755175378 0 0,0 1.237738381592068,0.010653605018315972 l -0.8762579023195395 50.89815532334402" fill="#3bff97" stroke="none" /><path d="M 100.72285384407766 79.0124445844662 l 0.8875352068366824 -25.768963517777035 a46.78424324124907,46.78424324124907 0 0,0 0.8045980164906932,0.03464768310697611 l -1.3309740557167071 25.749868108145865" fill="#ffdc14" stroke="none" /><path d="M 101.44485096284872 79.0497635885617 l 1.7714616578871736 -25.68606830794671 a46.74708102923259,46.74708102923259 0 0,0 0.802290791505191,0.0622732064403517 l -2.213342638754706 25.651769839317893" fill="#ffdb14" stroke="none" /><path d="M 102.52436894288641 79.15227682838746 l 2.417720029658031 -19.966953731866447 a41.11279720656242,41.11279720656242 0 0,0 0.7018253461141141,0.09111707244791484 l -2.761060104279991 19.922378336254393" fill="#ff820b" stroke="none" /><path d="M 103.59715602781102 79.31037775812273 l 4.5070827564040385 -25.923212371642293 a47.31210243668002,47.31210243668002 0 0,0 0.8011625932077499,0.14640734300629532 l -4.952640470714689 25.84178954728526" fill="#ffe415" stroke="none" /><path d="M 104.66035177308747 79.52364482259891 l 5.618568595084098 -24.686506886864134 a46.317818534242946,46.317818534242946 0 0,0 0.7758814967578512,0.18362608255681737 l -6.042673778804473 24.58613489216645" fill="#ffd513" stroke="none" /><path d="M 105.01212808612495 79.60689891045804 l 3.725391254597271 -15.157689338269579 a36.60878233800834,36.60878233800834 0 0,0 0.6106538594794747,0.15566926555667684 l -3.9857540027617704 15.091317076544033" fill="#ff3505" stroke="none" /><path d="M 105.71112130821622 79.79150937346287 l 17.13336392464865 -60.62547187961136 a84.0,84.0 0 0,0 1.3880391291062915,0.40520668432518603 l -18.174393271478365 60.321566866367476" fill="#4dd2ff" stroke="none" /><path d="M 106.40334571778207 80.00007090966166 l 7.672154661836079 -23.962871281605313 a46.16110405395435,46.16110405395435 0 0,0 0.7546619031417956,0.24880016437852218 l -8.083499387220293 23.827257392967557" fill="#ffd213" stroke="none" /><path d="M 106.74666289553966 80.11325718540242 l 5.416133645230585 -15.964819721969237 a37.85852818065612,37.85852818065612 0 0,0 0.6153236651302679,0.21467434456707007 l -5.690139314424126 15.86922452422996" fill="#ff4b07" stroke="none" /><path d="M 107.4271985657038 80.35727306442388 l 5.647915137449755 -14.937052486049918 a36.96917287685383,36.96917287685383 0 0,0 0.5932968397874968,0.23018995641811152 l -5.904195142236919 14.837619825741259" fill="#ff3b05" stroke="none" /><path d="M 108.09893153111575 80.62456947434976 l 7.26742393526966 -17.386178289973312 a39.843955163013675,39.843955163013675 0 0,0 0.6305139740258987,0.26995317849633255 l -7.565621667085874 17.25850558351419" fill="#ff6c0a" stroke="none" /><path d="M 110.05341064243156 81.56283822128135 l 7.886332191157215 -14.46291090860235 a37.47331258063937,37.47331258063937 0 0,0 0.56366270223323,0.31367768352813336 l -8.13411898246248 14.325017827514037" fill="#ff4406" stroke="none" /><line stroke="#e1ed5e" stroke-width="0.3" x1="143.23703022742887" x2="145.7803849466894" y1="26.81831364943548" y2="22.513508569990506" /><path d="M 143.74570117128098 25.957352633546492 a86.0,86.0 0 0,1 28.547481713284135,27.462654790039103" fill="none" id="id62" stroke="none" /><text fill="#e1ed5e" style="font-size:6.75px; font-family:Arial;" text-anchor="middle"><textPath startOffset="19.985693538727396" xlink:href="#id62">February</textPath></text><path d="M 110.68208982089419 81.91981866633111 l 6.4091388620854275 -10.847914103147716 a33.599773860778804,33.599773860778804 0 0,0 0.49541735970505624,0.2984834159596239 l -6.594918288008122 10.735984077729476" fill="#ff0000" stroke="none" /><path d="M 110.99172775467656 82.1063720568725 l 13.811093944795164 -22.48332400978556 a47.38647711387326,47.38647711387326 0 0,0 0.6913480487733733,0.4329220847174945 l -14.196061145940801 22.242257583745122" fill="#ffe515" stroke="none" /><path d="M 111.2981086023043 82.29822771554956 l 8.794027715613716 -13.778401462098746 a37.34561930040422,37.34561930040422 0 0,0 0.5389025757394992,0.3505172258113508 l -9.029897317137495 13.624985312127867" fill="#ff4206" stroke="none" /><path d="M 111.60114157652 82.49532879139004 l 9.03160465678773 -13.62756147405311 a37.34870986976056,37.34870986976056 0 0,0 0.5328332450929677,0.35977138560312616 l -9.26484259628724 13.470078176151315" fill="#ff4206" stroke="none" /><path d="M 111.90073688211348 82.69761687909136 l 14.260949270608934 -20.733876430691907 a46.164822787814,46.164822787814 0 0,0 0.6508555463862283,0.4559659036814043 l -14.615735956578813 20.48532568424657" fill="#ffd213" stroke="none" /><path d="M 112.19680574252982 82.90503203632743 l 9.22208600813647 -12.925619067425316 a36.878239783353045,36.878239783353045 0 0,0 0.5135816166318876,0.37313888608480944 l -9.443212941122146 12.764960946523832" fill="#ff3a05" stroke="none" /><path d="M 112.48926042617603 83.11751280151076 l 32.91780030545691 -44.496977666871885 a76.34945888114927,76.34945888114927 0 0,0 1.0498190433522876,0.7907019384216865 l -33.67886550256758 43.923759138944355" fill="#41ffd1" stroke="none" /><path d="M 112.77801427241765 83.33499621200491 l 8.175762181516014 -10.66277629841249 a34.4364387260425,34.4364387260425 0 0,0 0.4672982834842464,0.36473372242200564 l -8.358093020159691 10.520464186767262" fill="#ff0f01" stroke="none" /><line stroke="#e1ed5e" stroke-width="0.3" x1="172.23445277983987" x2="176.4835382374775" y1="55.19839476539836" y2="52.563006222186495" /><path d="M 173.08426987136738 54.67131705675599 a86.0,86.0 0 0,1 12.851231095245387,41.99856678651699" fill="none" id="id63" stroke="none" /><text fill="#e1ed5e" style="font-size:6.75px; font-family:Arial;" text-anchor="middle"><textPath startOffset="22.20632615414155" xlink:href="#id63">March</textPath></text><line stroke="#e1ed5e" stroke-width="0.3" x1="184.98032266829074" x2="189.97916517819016" y1="98.17113171792111" y2="98.06355123074" /><path d="M 185.9800911702706 98.14961562048488 a86.0,86.0 0 0,1 -9.607161424134198,41.387399972396054" fill="none" id="id64" stroke="none" /><text fill="#e1ed5e" style="font-size:6.75px; font-family:Arial;" text-anchor="middle"><textPath startOffset="21.466115282336823" xlink:href="#id64">April</textPath></text><line stroke="#e1ed5e" stroke-width="0.3" x1="174.80103733775053" x2="179.2010983576182" y1="140.37084112569926" y2="142.7455964860345" /><path d="M 175.68104954172406 140.8457921977663 a86.0,86.0 0 0,1 -30.038265399797805,32.042727171017184" fill="none" id="id65" stroke="none" /><text fill="#e1ed5e" style="font-size:6.75px; font-family:Arial;" text-anchor="middle"><textPath startOffset="22.206326154141568" xlink:href="#id65">May</textPath></text><line stroke="#e1ed5e" stroke-width="0.3" x1="143.8653032363475" x2="146.44561519142675" y1="172.8068346515853" y2="177.08958963109032" /><path d="M 144.38136562736335 173.6633856474863 a86.0,86.0 0 0,1 -40.68145358897372,12.25698825130547" fill="none" id="id66" stroke="none" /><text fill="#e1ed5e" style="font-size:6.75px; font-family:Arial;" text-anchor="middle"><textPath startOffset="21.466115282336833" xlink:href="#id66">June</textPath></text><line stroke="#e1ed5e" stroke-width="0.3" x1="102.19456741930631" x2="102.32365962044197" y1="184.97166512339345" y2="189.96999836594603" /><path d="M 102.22038585953345 185.97133177190398 a86.0,86.0 0 0,1 -42.740103519485714,-10.115201625700543" fill="none" id="id67" stroke="none" /><text fill="#e1ed5e" style="font-size:6.75px; font-family:Arial;" text-anchor="middle"><textPath startOffset="22.20632615414155" xlink:href="#id67">July</textPath></text><line stroke="#e1ed5e" stroke-width="0.3" x1="58.666819895761336" x2="56.23545636021788" y1="174.27360380694188" y2="178.64263932499728" /><path d="M 58.180547188652646 175.14741091055294 a86.0,86.0 0 0,1 -31.652253787137756,-30.449443065178592" fill="none" id="id68" stroke="none" /><text fill="#e1ed5e" style="font-size:6.75px; font-family:Arial;" text-anchor="middle"><textPath startOffset="22.20632615414155" xlink:href="#id68">August</textPath></text><line stroke="#e1ed5e" stroke-width="0.3" x1="26.63291911575756" x2="22.317208475507996" y1="142.92168965132927" y2="145.44649492493687" /><path d="M 25.769776987707644 143.4266507060508 a86.0,86.0 0 0,1 -11.730757126820373,-40.83630448921669" fill="none" id="id69" stroke="none" /><text fill="#e1ed5e" style="font-size:6.75px; font-family:Arial;" text-anchor="middle"><textPath startOffset="21.46611528233685" xlink:href="#id69">September</textPath></text><line stroke="#e1ed5e" stroke-width="0.3" x1="15.007084014347285" x2="10.007500721073583" y1="101.09737516637583" y2="101.16192664675087" /><path d="M 14.007167355692545 101.11028546245083 a86.0,86.0 0 0,1 10.666146001902534,-42.60595125391555" fill="none" id="id70" stroke="none" /><text fill="#e1ed5e" style="font-size:6.75px; font-family:Arial;" text-anchor="middle"><textPath startOffset="22.20632615414155" xlink:href="#id70">October</textPath></text><line stroke="#e1ed5e" stroke-width="0.3" x1="26.266209847984243" x2="21.928928074336255" y1="57.711370442889674" y2="55.22380399835377" /><path d="M 25.398753493254645 57.213857153982495 a86.0,86.0 0 0,1 29.58750427330803,-30.492523968695096" fill="none" id="id71" stroke="none" /><text fill="#e1ed5e" style="font-size:6.75px; font-family:Arial;" text-anchor="middle"><textPath startOffset="21.46611528233685" xlink:href="#id71">November</textPath></text><line stroke="#e1ed5e" stroke-width="0.3" x1="56.762969772571076" x2="54.21961505331055" y1="26.818313649435495" y2="22.513508569990535" /><path d="M 56.25429882871897 25.957352633546506 a86.0,86.0 0 0,1 42.265352541879196,-11.944610805530505" fill="none" id="id72" stroke="none" /><text fill="#e1ed5e" style="font-size:6.75px; font-family:Arial;" text-anchor="middle"><textPath startOffset="22.20632615414155" xlink:href="#id72">December</textPath></text></svg>