<?xml version="1.0" encoding="utf-8" ?>
<svg baseProfile="full" height="200mm" version="1.1" viewBox="0,0,200,200" width="200mm" xmlns="http://www.w3.org/2000/svg" xmlns:ev="http://www.w3.org/2001/xml-events" xmlns:xlink="http://www.w3.org/1999/xlink"><defs /><rect fill="#1a1a1a" height="200" width="200" x="0" y="0" /><text alignment-baseline="middle" fill="#e1ed5e" style="dominant-baseline: central; font-size:9.0px; font-family:Arial;" text-anchor="middle" x="100.0" y="100.0">2025</text><line stroke="#e1ed5e" stroke-width="0.3" x1="100.0" x2="100.0" y1="15.0" y2="10.0" /><path d="M 100.0 14.0 a86.0,86.0 0 0,1 42.46469731375804,11.215312516191453" fill="none" id="id13" stroke="none" /><text fill="#e1ed5e" style="font-size:6.75px; font-family:Arial;" text-anchor="middle"><textPath startOffset="22.20632615414155" xlink:href="#id13">January</textPath></text><path d="M 100.0 79.0 l 0.0 -47.35927431915039 a68.35927431915039,68.35927431915039 0 0,0 1.1766925354099391,0.01012816414736493 l -0.8152120561374108 47.35225753161158" fill="#34ff5d" stroke="none" /><path d="M 100.72285384407766 79.0124445844662 l 1.1109374448618758 -32.25529113285753 a53.27441692845579,53.27441692845579 0 0,0 0.9162163844202286,0.039454204825495824 l -1.6659946616714358 32.23138920150784" fill="#d5ff1c" stroke="none" /><path d="M 101.08401301168833 79.027996857942 l 1.0612412387027585 -20.5314459813466 a41.55885471157566,41.55885471157566 0 0,0 0.714095808890343,0.04307620930333085 l -1.4144990964327133 20.510136502662967" fill="#ff6a09" stroke="none" /><path d="M 102.16513564639614 79.11191278185805 l 3.0290281172362854 -29.22246631722577 a50.379032472094835,50.379032472094835 0 0,0 0.8618012337591058,0.09683341003855943 l -3.5315960545051164 29.16599695371661" fill="#fffc17" stroke="none" /><path d="M 102.52436894288641 79.15227682838746 l 4.240640950715616 -35.02170665656983 a56.27751369940509,56.27751369940509 0 0,0 0.9606980846397449,0.12472618360588483 l -4.842853763863208 34.94352214979981" fill="#a9ff21" stroke="none" /><path d="M 102.88285421437855 79.19881850522331 l 4.181132640189063 -30.168885567824542 a51.45724095448152,51.45724095448152 0 0,0 0.8763193117561693,0.129146687055203 l -4.699820932373889 30.09244439660837" fill="#f1ff19" stroke="none" /><path d="M 103.2404852339499 79.25152402106235 l 4.636754527429358 -29.688637036414185 a51.04853842747731,51.04853842747731 0 0,0 0.867024891732308,0.14306653609177217 l -5.147108625300541 29.604424237382787" fill="#f7ff18" stroke="none" /><path d="M 103.95276090670814 79.375362276772 l 5.823007537471833 -30.383173623319433 a51.93613835316599,51.93613835316599 0 0,0 0.87656723785356,0.175831141596994 l -6.345141184792518 30.27843852564523" fill="#e9ff1a" stroke="none" /><path d="M 104.66035177308747 79.52364482259891 l 9.481148534352586 -41.657663269157545 a63.72298077822958,63.72298077822958 0 0,0 1.0674397730439802,0.2526285066836411 l -10.196811994359091 41.488288850333035" fill="#44ff2d" stroke="none" /><path d="M 105.01212808612495 79.60689891045804 l 7.368274325936117 -29.97967342460008 a51.87186883212485,51.87186883212485 0 0,0 0.8652502180566488,0.22057154618239222 l -7.883233432677791 29.84839888224882" fill="#eaff1a" stroke="none" /><path d="M 105.36241919743992 79.69619591428918 l 11.252918041871311 -42.60708365056448 a65.06803537330967,65.06803537330967 0 0,0 1.0804457751780634,0.29532664443177303 l -11.984661706273085 42.40707046530642" fill="#33ff2f" stroke="none" /><path d="M 106.0581310904928 79.89281104454417 l 11.029304125759538 -36.60671893545905 a59.232151662157236,59.232151662157236 0 0,0 0.9737050075997058,0.30253488561433667 l -11.657794506069962 36.41144391496219" fill="#80ff26" stroke="none" /><path d="M 106.74666289553966 80.11325718540242 l 10.916727011811194 -32.17859641461963 a54.97994990969497,54.97994990969497 0 0,0 0.8936022057085089,0.31176026323244027 l -11.469011221582976 31.985915298214984" fill="#bcff1f" stroke="none" /><path d="M 107.08798089147638 80.2323363322302 l 8.916412583155862 -24.866975202889186 a47.41720782168634,47.41720782168634 0 0,0 0.7659407121728969,0.28210242833285104 l -9.343135621101336 24.709809506750013" fill="#ffcd13" stroke="none" /><path d="M 107.4271985657038 80.35727306442388 l 22.28159569711141 -58.92818080672834 a84.0,84.0 0 0,0 1.3480673400013319,0.5230291844378128 l -23.292646202112408 58.53590891839998" fill="#4dd2ff" stroke="none" /><path d="M 108.43124777332544 80.76684994638697 l 18.957096622942615 -43.244451323494864 a68.21709523723054,68.21709523723054 0 0,0 1.0713913254996796,0.4807020574441755 l -19.698670066909074 42.91172893553416" fill="#34ff5a" stroke="none" /><path d="M 110.05341064243156 81.56283822128135 l 8.437100900911238 -15.472977259770019 a38.62378213930022,38.62378213930022 0 0,0 0.5809677317492723,0.32330791371805295 l -8.702192721732546 15.325453948491786" fill="#ff3605" stroke="none" /><line stroke="#e1ed5e" stroke-width="0.3" x1="143.23703022742887" x2="145.7803849466894" y1="26.81831364943548" y2="22.513508569990506" /><path d="M 143.74570117128098 25.957352633546492 a86.0,86.0 0 0,1 28.547481713284135,27.462654790039103" fill="none" id="id14" stroke="none" /><text fill="#e1ed5e" style="font-size:6.75px; font-family:Arial;" text-anchor="middle"><textPath startOffset="19.985693538727396" xlink:href="#id14">February</textPath></text><path d="M 111.90073688211348 82.69761687909136 l 11.065615533274002 -16.088207085155098 a40.52634769599962,40.52634769599962 0 0,0 0.571361408532921,0.40027517997948464 l -11.340908081390573 15.895347062411679" fill="#ff5808" stroke="none" /><path d="M 112.19680574252982 82.90503203632743 l 17.22891427750442 -24.147940357514386 a50.66409463799069,50.66409463799069 0 0,0 0.705569131884537,0.5126259807619363 l -17.642028725742747 23.847795141935777" fill="#fdff18" stroke="none" /><path d="M 113.34407831869373 83.78471172551755 l 11.893038157117335 -14.452031648144239 a39.71645199725663,39.71645199725663 0 0,0 0.5241483490364135,0.4389591686184378 l -12.140044043112866 14.24517132213198" fill="#ff4a06" stroke="none" /><path d="M 113.6212207817346 84.01681056812373 l 25.877669090684595 -30.364949938000336 a60.895913854732534,60.895913854732534 0 0,0 0.7919548433714232,0.6867754361190815 l -26.396517732702783 29.915009508461583" fill="#69ff28" stroke="none" /><path d="M 113.89432698308785 84.25364557470407 l 31.354797342109244 -35.53419697716479 a68.38989840859219,68.38989840859219 0 0,0 0.8760062491113231,0.786487059802003 l -31.961814578816558 34.98921090859349" fill="#34ff5d" stroke="none" /><path d="M 114.42810811169701 84.74124197986012 l 28.368760938143815 -30.001997152724357 a62.290512594512975,62.290512594512975 0 0,0 0.7727486807067776,0.7433836185919428 l -28.88099286246301 29.50923044737011" fill="#57ff2a" stroke="none" /><path d="M 114.94478906791727 85.2469230424477 l 42.74328621008464 -42.19497431581639 a81.06167141821493,81.06167141821493 0 0,0 0.971719978091475,1.0014428540208045 l -43.463270451879225 41.452967266245466" fill="#48f5ff" stroke="none" /><path d="M 115.4437574822437 85.77008943001954 l 27.18271047697288 -25.046206506526875 a57.962307953407354,57.962307953407354 0 0,0 0.6697582204507634,0.739563755216169 l -27.609812338039678 24.57458996404116" fill="#91ff24" stroke="none" /><path d="M 115.68641384162765 86.03803664274999 l 34.45880746199032 -30.67065627467348 a67.13131873274043,67.13131873274043 0 0,0 0.7608476222448113,0.8697803580362052 l -34.98164694781298 30.072960360434326" fill="#32ff4a" stroke="none" /><path d="M 115.9244219780498 86.31012108654704 l 36.02269668949267 -30.967928160591917 a68.50418140903776,68.50418140903776 0 0,0 0.7610142121181737,0.9008007909090436 l -36.55042151509796 30.343268420053768" fill="#34ff5f" stroke="none" /><path d="M 116.38621287248628 86.86637796730983 l 39.85651525694463 -31.945173115857077 a72.07872251563403,72.07872251563403 0 0,0 0.7676243888867389,0.9748050204089739 l -40.40049372642534 31.254375701495064" fill="#3aff93" stroke="none" /><path d="M 116.82858285166822 87.43820079747576 l 30.547493082640802 -22.802364145985887 a59.11951133317596,59.11951133317596 0 0,0 0.6017166619916231,0.8207408507337882 l -30.93547235714605 22.273160851580606" fill="#81ff25" stroke="none" /><path d="M 117.04232023915458 87.72973835380427 l 30.34476974575326 -21.8478622129464 a58.391631873972464,58.391631873972464 0 0,0 0.5802665086264477,0.8207458253132413 l -30.71634887418359 21.322289887301363" fill="#8bff24" stroke="none" /><path d="M 117.45458315368197 88.32363383020206 l 32.62117296899599 -21.82216310298784 a60.247263960263,60.247263960263 0 0,0 0.5692028514378766,0.8669349935028753 l -32.991972455791796 21.257410045507292" fill="#72ff27" stroke="none" /><path d="M 117.65298651832404 88.62581576622439 l 33.65774417753044 -21.68638053233301 a61.03926627341261,61.03926627341261 0 0,0 0.5614810375913467,0.8881281615066734 l -34.02605281136774 21.10380472311213" fill="#67ff28" stroke="none" /><line stroke="#e1ed5e" stroke-width="0.3" x1="172.23445277983987" x2="176.4835382374775" y1="55.19839476539836" y2="52.563006222186495" /><path d="M 173.08426987136738 54.67131705675599 a86.0,86.0 0 0,1 12.851231095245387,41.99856678651699" fill="none" id="id15" stroke="none" /><text fill="#e1ed5e" style="font-size:6.75px; font-family:Arial;" text-anchor="middle"><textPath startOffset="22.20632615414155" xlink:href="#id15">March</textPath></text><path d="M 117.84615892207809 88.93136811851018 l 28.78281334468381 -17.851817123056314 a54.8694215868821,54.8694215868821 0 0,0 0.4909094034927607,0.8069259834055349 l -29.085838546462796 17.3537233664437" fill="#beff1f" stroke="none" /><path d="M 118.21658344932153 89.55222093294921 l 18.11869476192284 -10.391636850155384 a41.88715433708569,41.88715433708569 0 0,0 0.3533328247056788,0.6285396692153341 l -18.294885227920954 10.078213671005257" fill="#ff700a" stroke="none" /><path d="M 118.3937258080291 89.86733742301442 l 35.978073930961486 -19.819458391248922 a62.07593863448744,62.07593863448744 0 0,0 0.5075207569977659,0.9403588836722753 l -36.31390278717772 19.19721852424419" fill="#5aff2a" stroke="none" /><path d="M 119.04729006885535 91.15688171328212 l 36.52877464184006 -16.959277349109254 a61.273669624685894,61.273669624685894 0 0,0 0.435911632051496,0.9604734989490105 l -36.8152885908549 16.32798184131818" fill="#64ff29" stroke="none" /><path d="M 119.196687751892 91.48605970444005 l 27.44579305920294 -12.172508429081308 a51.02401568918868,51.02401568918868 0 0,0 0.34917262265091553,0.8059385547966897 l -27.65125639169654 11.698270729698017" fill="#f8ff18" stroke="none" /><path d="M 119.47837535516314 92.15188598940014 l 40.828495719361094 -16.450380662876913 a65.01796322706721,65.01796322706721 0 0,0 0.40932352915108083,1.0416837346379078 l -41.10561279839387 15.745147923343222" fill="#34ff2f" stroke="none" /><path d="M 119.61058180528143 92.48833698450437 l 27.40189742792236 -10.49605878639945 a50.34333370116509,50.34333370116509 0 0,0 0.3030079228266076,0.8119105871140971 l -27.578509939250594 10.02282506225602" fill="#fffc17" stroke="none" /><path d="M 119.85752413597 93.16781622104841 l 17.46793204605634 -6.010020240172553 a39.472925952672625,39.472925952672625 0 0,0 0.2155272624990464,0.6443990820443818 l -17.568796602327158 5.708448055205857" fill="#ff4506" stroke="none" /><path d="M 120.08093135843002 93.85539295169968 l 59.73871405170829 -18.27957662254678 a83.47284912705142,83.47284912705142 0 0,0 0.40859603054978455,1.3775826910465045 l -60.044515979369784 17.248564544753744" fill="#4cd8ff" stroke="none" /><path d="M 120.37134235888165 94.90015583598534 l 18.941549327794196 -4.741903999008238 a40.52608369522857,40.52608369522857 0 0,0 0.16358488720191378,0.6781649673100127 l -19.02036701525693 4.415153800038819" fill="#ff5808" stroke="none" /><path d="M 120.53481517161879 95.60439243477599 l 40.123930893157805 -8.588782158811448 a62.03287717538731,62.03287717538731 0 0,0 0.2145176769950069,1.0460643774299858 l -40.26582786606781 7.89684212521805" fill="#5aff2a" stroke="none" /><path d="M 120.67395015179393 96.31383870115 l 44.63759348921381 -7.958874254103812 a66.34157509285424,66.34157509285424 0 0,0 0.1907735344606574,1.1259561994573948 l -44.767978885194694 7.18933226633058" fill="#31ff3e" stroke="none" /><path d="M 120.78858239683441 97.02765380044208 l 29.256500250788168 -4.18308693073931 a50.5540356498819,50.5540356498819 0 0,0 0.1157542998961478,0.8625039860934166 l -29.324170549742153 3.6788646025812293" fill="#ffff18" stroke="none" /><path d="M 120.83666639777658 97.38593545837742 l 29.244858689495018 -3.6689145310273514 a50.47410208309179,50.47410208309179 0 0,0 0.1007310381315807,0.8630020193030811 l -29.303680080630187 3.164968773399418" fill="#fffe18" stroke="none" /><path d="M 120.87857604477298 97.74499172005257 l 30.332579313155637 -3.276095905997012 a51.508985105607294,51.508985105607294 0 0,0 0.08762138100778878,0.8823353490984642 l -30.384477819845653 2.7534850261941126" fill="#f0ff19" stroke="none" /><path d="M 120.94382443527127 98.46500227214037 l 50.50487031181322 -3.701561833373659 a71.64033456859622,71.64033456859622 0 0,0 0.07955286963740976,1.2306476823571917 l -50.56110377245504 2.8316550867634316" fill="#39ff8c" stroke="none" /><path d="M 120.96714384426684 98.82574320788733 l 29.9980984795741 -1.6800319181163281 a51.04510641745367,51.04510641745367 0 0,0 0.04158083753046789,0.8777057613614075 l -30.022572925338064 1.163415050131921" fill="#f7ff18" stroke="none" /><line stroke="#e1ed5e" stroke-width="0.3" x1="184.98032266829074" x2="189.97916517819016" y1="98.17113171792111" y2="98.06355123074" /><path d="M 185.9800911702706 98.14961562048488 a86.0,86.0 0 0,1 -9.607161424134198,41.387399972396054" fill="none" id="id16" stroke="none" /><text fill="#e1ed5e" style="font-size:6.75px; font-family:Arial;" text-anchor="middle"><textPath startOffset="21.466115282336823" xlink:href="#id16">April</textPath></text><path d="M 120.99513854157772 99.54816195383933 l 20.64292573476852 -0.44425804633612376 a41.64770563774346,41.64770563774346 0 0,0 0.009255692655944125,0.7168635963340529 l -20.64751443454218 0.08885819194160807" fill="#ff6c09" stroke="none" /><path d="M 120.99980553446 99.90962569577887 l 30.286503993026297 -0.1303403367792479 a51.28678445664032,51.28678445664032 0 0,0 -0.0037993804567557177,0.8828422130707648 l -30.28426031528004 -0.39101135449520164" fill="#f3ff19" stroke="none" /><path d="M 120.99824983174949 100.27111621757518 l 35.49083089760942 0.45823532478462287 a56.49378899773294,56.49378899773294 0 0,0 -0.020924054738608682,0.9722586042088117 l -35.477684780185804 -1.0690837447835495" fill="#a6ff21" stroke="none" /><path d="M 120.95626037817324 101.35467743843564 l 19.483013673541095 1.2594422182198484 a40.523678354870114,40.523678354870114 0 0,0 -0.050989287510245694,0.695708316899764 l -19.458447827366513 -1.5946236716163824" fill="#ff5808" stroke="none" /><path d="M 120.92983693683757 101.71520430193887 l 32.479959324448295 2.6617391300379047 a53.588841846776184,53.588841846776184 0 0,0 -0.08325512382357299,0.9187133538555532 l -32.42932960434764 -3.2204338724420287" fill="#d1ff1d" stroke="none" /><path d="M 120.89721153311464 102.0752229133903 l 47.159953697944694 4.683276347818722 a68.39192241450357,68.39192241450357 0 0,0 -0.12641985828807864,1.170490879482979 l -47.072351538155566 -5.494363549186493" fill="#34ff5d" stroke="none" /><path d="M 120.76222939487914 103.15116336523771 l 21.06129073876878 3.1965530549911656 a42.30248621678514,42.30248621678514 0 0,0 -0.11546210933818578,0.718982665066073 l -21.003146875069305 -3.5586149497504436" fill="#ff770b" stroke="none" /><path d="M 120.49622156327973 104.57218783832717 l 20.053147916963503 4.473349331389882 a41.54603600747025,41.54603600747025 0 0,0 -0.16171187957521393,0.6966505448169222 l -19.973175471457736 -4.81786853355537" fill="#ff6a09" stroke="none" /><path d="M 120.41448212921028 104.9243191809786 l 32.704484736133715 7.888876165010761 a54.64249825745523,54.64249825745523 0 0,0 -0.2284282431264963,0.9124572821269454 l -32.56384517871216 -8.450661286535103" fill="#c1ff1e" stroke="none" /><path d="M 120.13307415673323 105.97154293290107 l 28.490369605062686 8.450347122669967 a50.717158792971716,50.717158792971716 0 0,0 -0.2554532178500757,0.8348358963583138 l -28.340689614706477 -8.939509991580339" fill="#fcff18" stroke="none" /><path d="M 119.9155931802556 106.66101706037122 l 28.510677449186083 9.535749559297447 a51.06308780330406,51.06308780330406 0 0,0 -0.28597558695330655,0.8311789178912924 l -28.342311031289544 -10.025101180278039" fill="#f7ff19" stroke="none" /><path d="M 119.79798401119884 107.00284435728193 l 38.37651926305069 13.57435136937976 a61.70651355553166,61.70651355553166 0 0,0 -0.36282177914572694,0.9983297104553768 l -38.13717322289973 -14.23292887684127" fill="#5eff29" stroke="none" /><path d="M 119.67450827220406 107.3425965602758 l 38.13819005442404 14.233308361987705 a61.70759889203486,61.70759889203486 0 0,0 -0.37995931091854723,0.9919538634887701 l -37.88753646391198 -14.88768579230962" fill="#5eff29" stroke="none" /><path d="M 119.41010516605496 108.01547362559984 l 28.106473873180512 11.606670757924492 a51.40869414602735,51.40869414602735 0 0,0 -0.344803053745364,0.8150125658785371 l -27.90251983824284 -12.088757849469193" fill="#f2ff19" stroke="none" /><path d="M 119.26925614724726 108.34839909993367 l 57.09665128908054 24.737106019480738 a83.2250110698736,83.2250110698736 0 0,0 -0.5808270164584991,1.3096115882597246 l -56.66238318789077 -25.71626594423315" fill="#4cdbff" stroke="none" /><path d="M 118.97047184881838 109.00673069616215 l 27.123852698714554 12.877762801398623 a51.02565836065299,51.02565836065299 0 0,0 -0.38353495244377384,0.7901956013346253 l -26.898164489656065 -13.342747358698523" fill="#f7ff18" stroke="none" /><path d="M 118.81262510543309 109.33194174019688 l 29.903425029862753 14.833497114149827 a54.38034549180271,54.38034549180271 0 0,0 -0.42318611417869834,0.8349863509516265 l -29.643660245897784 -15.346037676804148" fill="#c5ff1e" stroke="none" /><path d="M 118.64920377521936 109.65438752849418 l 29.30496129828951 15.170698775738115 a53.998952377892664,53.998952377892664 0 0,0 -0.4344279791775434,0.821774018145399 l -29.03948081088707 -15.672887808969648" fill="#caff1d" stroke="none" /><line stroke="#e1ed5e" stroke-width="0.3" x1="174.80103733775053" x2="179.2010983576182" y1="140.37084112569926" y2="142.7455964860345" /><path d="M 175.68104954172406 140.8457921977663 a86.0,86.0 0 0,1 -30.038265399797805,32.042727171017184" fill="none" id="id17" stroke="none" /><text fill="#e1ed5e" style="font-size:6.75px; font-family:Arial;" text-anchor="middle"><textPath startOffset="22.206326154141568" xlink:href="#id17">May</textPath></text><path d="M 118.30583269289576 110.29060199501025 l 35.25921024456139 19.820922946923996 a61.44849680195892,61.44849680195892 0 0,0 -0.5262566423461524,0.9175728142349099 l -34.91280160606286 -20.42491560701722" fill="#62ff29" stroke="none" /><path d="M 117.94076556474637 110.91462005526583 l 27.96424018858018 17.012599361551423 a53.73266360016036,53.73266360016036 0 0,0 -0.48752249622174704,0.7860414944516615 l -27.66725305269047 -17.49143718736836" fill="#ceff1d" stroke="none" /><path d="M 117.75023020441432 111.22182372390056 l 52.332963840371384 33.08527767825005 a82.9142528289289,82.9142528289289 0 0,0 -0.7730574981252345,1.1998024044458597 l -51.7557014788691 -33.98120168261737" fill="#4bdfff" stroke="none" /><path d="M 117.14729908036423 112.12312394758627 l 23.970080157009775 16.946823602661222 a50.35574173740444,50.35574173740444 0 0,0 -0.5064833440407186,0.7034610665874445 l -23.674817020593455 -17.356918274699797" fill="#fffc17" stroke="none" /><path d="M 116.93607887273984 112.41649034213515 l 16.661730798636416 12.215355224727798 a41.659820339792745,41.659820339792745 0 0,0 -0.4289746085708011,0.57468159020923 l -16.448994923370524 -12.500349694446342" fill="#ff6c0a" stroke="none" /><path d="M 116.71984013943494 112.70617746262583 l 40.09620884593439 30.47095791145333 a71.36055241812134,71.36055241812134 0 0,0 -0.7516413197352916,0.9715977280274111 l -39.56576070898103 -31.156633633593994" fill="#39ff88" stroke="none" /><path d="M 116.498646956653 112.99209946851258 l 16.25897067419007 12.803362894526668 a41.69493244234238,41.69493244234238 0 0,0 -0.4488798753950749,0.560046662991429 l -16.036172886740143 -13.081337391096346" fill="#ff6d0a" stroke="none" /><path d="M 115.80600337817218 113.82643327865902 l 24.7188109212437 21.62298601064117 a53.841637251765945,53.841637251765945 0 0,0 -0.6162076682812528,0.6923158476866281 l -24.34294440331411 -22.045276028068663" fill="#cdff1d" stroke="none" /><path d="M 115.56566222782051 114.09645910891815 l 24.508775029095933 22.195454324444757 a54.06536323852121,54.06536323852121 0 0,0 -0.6306430918234198,0.6844385226509955 l -24.12308552927679 -22.614044101897086" fill="#c9ff1d" stroke="none" /><path d="M 115.07121518719521 114.62390073753431 l 37.92865052128888 36.80292620353612 a73.84919968655147,73.84919968655147 0 0,0 -0.8930807901212167,0.9046861252993088 l -37.28952910611213 -37.450352822816086" fill="#3dffab" stroke="none" /><path d="M 114.55890576462653 115.13401014063108 l 22.683708495840396 23.579757981349513 a53.719346227931844,53.719346227931844 0 0,0 -0.6719117740014777,0.6353345209367575 l -22.274460887448107 -23.96672713903219" fill="#cfff1d" stroke="none" /><path d="M 114.0293411484842 115.62618273729858 l 13.724986396572142 15.287185850701595 a41.54442266942494,41.54442266942494 0 0,0 -0.5362349266013592,0.4731649757598647 l -13.459809117064195 -15.521173968233748" fill="#ff6a09" stroke="none" /><path d="M 112.34349029814194 116.9893568818739 l 8.633858583957789 11.883486858864345 a35.68879756728178,35.68879756728178 0 0,0 -0.5001065631421066,0.3568127541490894 l -8.428024692966797 -12.030343874857653" fill="#ff0000" stroke="none" /><line stroke="#e1ed5e" stroke-width="0.3" x1="143.8653032363475" x2="146.44561519142675" y1="172.8068346515853" y2="177.08958963109032" /><path d="M 144.38136562736335 173.6633856474863 a86.0,86.0 0 0,1 -40.68145358897372,12.25698825130547" fill="none" id="id18" stroke="none" /><text fill="#e1ed5e" style="font-size:6.75px; font-family:Arial;" text-anchor="middle"><textPath startOffset="21.466115282336833" xlink:href="#id18">June</textPath></text><path d="M 109.89434966115114 118.52300852407294 l 14.86600789589056 27.83034766354514 a52.55196415176832,52.55196415176832 0 0,0 -0.801565343233946,0.4193411032622967 l -14.384751650130118 -28.082118185752154" fill="#e0ff1b" stroke="none" /><path d="M 109.2508944713604 118.85261126421891 l 12.941059447766932 26.372883602899844 a50.37686179908843,50.37686179908843 0 0,0 -0.7817705279155203,0.37529736151619353 l -12.485176251851179 -26.591735240915597" fill="#fffc17" stroke="none" /><path d="M 108.2653958097858 119.30500536409082 l 15.645829111570016 36.5430551513219 a60.75156409980626,60.75156409980626 0 0,0 -0.9648752622597533,0.4033179378782777 l -15.014482389812802 -36.806958132220146" fill="#6bff28" stroke="none" /><path d="M 107.59598834532513 119.57807347666477 l 14.992014968867963 38.64076105440522 a62.44718238542157,62.44718238542157 0 0,0 -1.00548819019645,0.38018959732792973 l -14.324656557911238 -38.89309890183978" fill="#55ff2b" stroke="none" /><path d="M 107.2578585660854 119.70592522655815 l 11.277865912502298 30.6207100019017 a53.63155130484826,53.63155130484826 0 0,0 -0.869036563910604,0.3116055929783843 l -10.74910978796196 -30.810303135920044" fill="#d0ff1d" stroke="none" /><path d="M 106.2309692047433 120.05430185196036 l 18.41297368072716 59.26194144955915 a83.05654924452477,83.05654924452477 0 0,0 -1.3689500109602912,0.4124534086341616 l -17.39014869532662 -59.57011022729904" fill="#4bddff" stroke="none" /><line stroke="#e1ed5e" stroke-width="0.3" x1="102.19456741930631" x2="102.32365962044197" y1="184.97166512339345" y2="189.96999836594603" /><path d="M 102.22038585953345 185.97133177190398 a86.0,86.0 0 0,1 -42.740103519485714,-10.115201625700543" fill="none" id="id19" stroke="none" /><text fill="#e1ed5e" style="font-size:6.75px; font-family:Arial;" text-anchor="middle"><textPath startOffset="22.20632615414155" xlink:href="#id19">July</textPath></text><line stroke="#e1ed5e" stroke-width="0.3" x1="58.666819895761336" x2="56.23545636021788" y1="174.27360380694188" y2="178.64263932499728" /><path d="M 58.180547188652646 175.14741091055294 a86.0,86.0 0 0,1 -31.652253787137756,-30.449443065178592" fill="none" id="id20" stroke="none" /><text fill="#e1ed5e" style="font-size:6.75px; font-family:Arial;" text-anchor="middle"><textPath startOffset="22.20632615414155" xlink:href="#id20">August</textPath></text><line stroke="#e1ed5e" stroke-width="0.3" x1="26.63291911575756" x2="22.317208475507996" y1="142.92168965132927" y2="145.44649492493687" /><path d="M 25.769776987707644 143.4266507060508 a86.0,86.0 0 0,1 -11.730757126820373,-40.83630448921669" fill="none" id="id21" stroke="none" /><text fill="#e1ed5e" style="font-size:6.75px; font-family:Arial;" text-anchor="middle"><textPath startOffset="21.46611528233685" xlink:href="#id21">September</textPath></text><line stroke="#e1ed5e" stroke-width="0.3" x1="15.007084014347285" x2="10.007500721073583" y1="101.09737516637583" y2="101.16192664675087" /><path d="M 14.007167355692545 101.11028546245083 a86.0,86.0 0 0,1 10.666146001902534,-42.60595125391555" fill="none" id="id22" stroke="none" /><text fill="#e1ed5e" style="font-size:6.75px; font-family:Arial;" text-anchor="middle"><textPath startOffset="22.20632615414155" xlink:href="#id22">October</textPath></text><line stroke="#e1ed5e" stroke-width="0.3" x1="26.266209847984243" x2="21.928928074336255" y1="57.711370442889674" y2="55.22380399835377" /><path d="M 25.398753493254645 57.213857153982495 a86.0,86.0 0 0,1 29.58750427330803,-30.492523968695096" fill="none" id="id23" stroke="none" /><text fill="#e1ed5e" style="font-size:6.75px; font-family:Arial;" text-anchor="middle"><textPath startOffset="21.46611528233685" xlink:href="#id23">November</textPath></text><line stroke="#e1ed5e" stroke-width="0.3" x1="56.762969772571076" x2="54.21961505331055" y1="26.818313649435495" y2="22.513508569990535" /><path d="M 56.25429882871897 25.957352633546506 a86.0,86.0 0 0,1 42.265352541879196,-11.944610805530505" fill="none" id="id24" stroke="none" /><text fill="#e1ed5e" style="font-size:6.75px; font-family:Arial;" text-anchor="middle"><textPath startOffset="22.20632615414155" xlink:href="#id24">December</textPath></text></svg>