<?xml version="1.0" encoding="utf-8" ?>
<svg baseProfile="full" height="200mm" version="1.1" viewBox="0,0,200,200" width="200mm" xmlns="http://www.w3.org/2000/svg" xmlns:ev="http://www.w3.org/2001/xml-events" xmlns:xlink="http://www.w3.org/1999/xlink"><defs /><rect fill="#1a1a1a" height="200" width="200" x="0" y="0" /><text alignment-baseline="middle" fill="#e1ed5e" style="dominant-baseline: central; font-size:9.0px; font-family:Arial;" text-anchor="middle" x="100.0" y="100.0">2025</text><line stroke="#e1ed5e" stroke-width="0.3" x1="100.0" x2="100.0" y1="15.0" y2="10.0" /><path d="M 100.0 14.0 a86.0,86.0 0 0,1 42.46469731375804,11.215312516191453" fill="none" id="id49" stroke="none" /><text fill="#e1ed5e" style="font-size:6.75px; font-family:Arial;" text-anchor="middle"><textPath startOffset="22.20632615414155" xlink:href="#id49">January</textPath></text><path d="M 100.0 79.0 l 0.0 -33.8956389832892 a54.8956389832892,54.8956389832892 0 0,0 0.9449381852214797,0.008133381287833258 l -0.5834577059489513 33.89061697860993" fill="#9cff22" stroke="none" /><path d="M 100.72285384407766 79.0124445844662 l 0.7951121529079086 -23.08552483664496 a44.09921341342716,44.09921341342716 0 0,0 0.7584207242227894,0.0326591917654056 l -1.1923737095200295 23.068417918355358" fill="#ffcb12" stroke="none" /><path d="M 101.08401301168833 79.027996857942 l 0.7595439418864107 -14.694618758278159 a35.71423553742418,35.71423553742418 0 0,0 0.6136691227896982,0.03701819734435633 l -1.0123751135157208 14.679367291553499" fill="#ff4706" stroke="none" /><path d="M 102.16513564639614 79.11191278185805 l 2.16791420493867 -20.91489328605453 a42.02694968765141,42.02694968765141 0 0,0 0.7189276037012351,0.08077989298481332 l -2.5276085121496306 20.874477439599115" fill="#ffac0f" stroke="none" /><path d="M 102.52436894288641 79.15227682838746 l 3.0350810224532063 -25.065483846101365 a46.24856822182248,46.24856822182248 0 0,0 0.789496692148735,0.10249932934768756 l -3.4660924431097873 25.00952619358954" fill="#ffeb16" stroke="none" /><path d="M 102.88285421437855 79.19881850522331 l 2.9924901627090175 -21.59225766095923 a42.798637303078436,42.798637303078436 0 0,0 0.728862871188767,0.10741544077458788 l -3.36372201432644 21.537547736023672" fill="#ffb711" stroke="none" /><path d="M 103.2404852339499 79.25152402106235 l 3.318584580852099 -21.24853763828232 a42.50612367177706,42.50612367177706 0 0,0 0.7219377559034226,0.11912591552545537 l -3.6838515428943963 21.188265459817238" fill="#ffb310" stroke="none" /><path d="M 103.95276090670814 79.375362276772 l 4.167601048044477 -21.74562636586247 a43.14139030276451,43.14139030276451 0 0,0 0.7281313269328079,0.14605629427884023 l -4.54129878444441 21.67066611550642" fill="#ffbd11" stroke="none" /><path d="M 104.66035177308747 79.52364482259891 l 6.785779395640074 -29.81492295560415 a51.577384336383396,51.577384336383396 0 0,0 0.8639858141890401,0.20447752795644994 l -7.2979888967916375 29.693699515506832" fill="#c8ff1d" stroke="none" /><path d="M 105.01212808612495 79.60689891045804 l 5.2735682729998725 -21.456836107521326 a43.09539178369602,43.09539178369602 0 0,0 0.7188539371650058,0.18325187453394498 l -5.642131098849903 21.362881236818513" fill="#ffbc11" stroke="none" /><path d="M 105.36241919743992 79.69619591428918 l 8.053857516595794 -30.494435278252496 a52.54005713116508,52.54005713116508 0 0,0 0.8724204200925755,0.23846545668359537 l -8.57757582591208 30.351283280742607" fill="#bbff1f" stroke="none" /><path d="M 106.0581310904928 79.89281104454417 l 7.8938141738476295 -26.199897427425707 a48.36324044076041,48.36324044076041 0 0,0 0.7950332392028107,0.24702069744381844 l -8.343632785761159 26.060136595099365" fill="#f5ff19" stroke="none" /><path d="M 106.74666289553966 80.11325718540242 l 7.813241292040808 -23.03063344485972 a45.31988520448118,45.31988520448118 0 0,0 0.7365948759083816,0.25698348878491034 l -8.208518172012463 22.892729102902603" fill="#ffdd14" stroke="none" /><path d="M 107.08798089147638 80.2323363322302 l 6.381590644907714 -17.79761253104137 a39.907133864344814,39.907133864344814 0 0,0 0.6446288159307382,0.23742223315365707 l -6.687001786611029 17.68512703008139" fill="#ff8b0c" stroke="none" /><path d="M 107.4271985657038 80.35727306442388 l 15.947223317471797 -42.17565347615927 a66.08990660534108,66.08990660534108 0 0,0 1.060638626171412,0.4115113089447948 l -16.670845108642876 41.894899463323924" fill="#33ff50" stroke="none" /><path d="M 108.43124777332544 80.76684994638697 l 13.567836765665229 -30.950607482152414 a54.7938795940035,54.7938795940035 0 0,0 0.8605714899371693,0.3861133424779819 l -14.098590374069177 30.712473809157903" fill="#9dff22" stroke="none" /><path d="M 110.05341064243156 81.56283822128135 l 6.03854113717344 -11.074207929358673 a33.61356651895119,33.61356651895119 0 0,0 0.5056055211291166,0.2813689251008706 l -6.228270747374592 10.968623606697621" fill="#ff2403" stroke="none" /><line stroke="#e1ed5e" stroke-width="0.3" x1="143.23703022742887" x2="145.7803849466894" y1="26.81831364943548" y2="22.513508569990506" /><path d="M 143.74570117128098 25.957352633546492 a86.0,86.0 0 0,1 28.547481713284135,27.462654790039103" fill="none" id="id50" stroke="none" /><text fill="#e1ed5e" style="font-size:6.75px; font-family:Arial;" text-anchor="middle"><textPath startOffset="19.985693538727396" xlink:href="#id50">February</textPath></text><path d="M 111.90073688211348 82.69761687909136 l 7.919802713110102 -11.514535792333815 a34.97525704692127,34.97525704692127 0 0,0 0.4930992617452792,0.34544754475042594 l -8.116833114439032 11.376503404819452" fill="#ff3b05" stroke="none" /><path d="M 112.19680574252982 82.90503203632743 l 12.330954534668285 -17.282990086216994 a42.23097232950793,42.23097232950793 0 0,0 0.5881259834618164,0.4272985388099846 l -12.62662583448389 17.068172312590335" fill="#ffaf10" stroke="none" /><path d="M 113.34407831869373 83.78471172551755 l 8.511999678701244 -10.343504083686621 a34.3956043260262,34.3956043260262 0 0,0 0.4539277381283114,0.3801514264195629 l -8.688784953788673 10.195451499873238" fill="#ff3104" stroke="none" /><path d="M 113.6212207817346 84.01681056812373 l 18.520979086712543 -21.732583440957026 a49.55401634356545,49.55401634356545 0 0,0 0.6444528173993964,0.5588631327052401 l -18.892325702758704 21.410555314832116" fill="#e4ff1a" stroke="none" /><path d="M 113.89432698308785 84.25364557470407 l 22.441029901350834 -25.432279730097676 a54.91755703619085,54.91755703619085 0 0,0 0.703439020514565,0.6315544981051778 l -22.87547990946139 25.042226223223203" fill="#9cff22" stroke="none" /><path d="M 114.42810811169701 84.74124197986012 l 20.303885416034174 -21.472813485556355 a50.55214851703571,50.55214851703571 0 0,0 0.6271277028610212,0.6032963532796746 l -20.670496362507613 21.120134045514376" fill="#d6ff1c" stroke="none" /><path d="M 114.94478906791727 85.2469230424477 l 30.591917193937775 -30.199483351030583 a63.986907219174526,63.986907219174526 0 0,0 0.7670376762942737,0.7904997499365114 l -31.10721913393516 29.668419405543958" fill="#30ff32" stroke="none" /><path d="M 115.4437574822437 85.77008943001954 l 19.45501391566244 -17.92589066979973 a47.45439704026974,47.45439704026974 0 0,0 0.5483386296453823,0.6054892104164018 l -19.76069618592386 17.58834867211378" fill="#fffc17" stroke="none" /><path d="M 115.68641384162765 86.03803664274999 l 24.66260968559641 -21.95138138015152 a54.016775448261704,54.016775448261704 0 0,0 0.6122110504749815,0.6998630620738358 l -25.03681259964924 21.523602761874734" fill="#a7ff21" stroke="none" /><path d="M 115.9244219780498 86.31012108654704 l 25.781905228599275 -22.164142674952412 a54.99935084280465,54.99935084280465 0 0,0 0.6109888007964143,0.7232180243547314 l -26.159604642882808 21.717065700968575" fill="#9bff22" stroke="none" /><path d="M 116.38621287248628 86.86637796730983 l 28.525818262698184 -22.863569401356326 a57.55769567857256,57.55769567857256 0 0,0 0.6129782747108182,0.7784201599643304 l -28.915150618002965 22.369156847438955" fill="#7aff26" stroke="none" /><path d="M 116.82858285166822 87.43820079747576 l 21.86323190672344 -16.31994396386479 a48.28262231514516,48.28262231514516 0 0,0 0.49141912164906715,0.6702951296614109 l -22.140913640886133 15.941186390531888" fill="#f6ff19" stroke="none" /><path d="M 117.04232023915458 87.72973835380427 l 21.718140218993554 -15.636794709652596 a47.7616696669637,47.7616696669637 0 0,0 0.474631319837667,0.6713323421711673 l -21.984084158635106 15.260635867149636" fill="#fdff18" stroke="none" /><path d="M 117.45458315368197 88.32363383020206 l 23.347391151249305 -15.618401527622886 a49.08976930926075,49.08976930926075 0 0,0 0.46378930478383845,0.7063829299410369 l -23.61277709139107 15.214200533704176" fill="#ebff1a" stroke="none" /><path d="M 117.65298651832404 88.62581576622439 l 24.08927843668746 -15.521220203345754 a49.65661550499298,49.65661550499298 0 0,0 0.45677560854237337,0.7225093178143727 l -24.35288164147579 15.104263237817175" fill="#e3ff1b" stroke="none" /><line stroke="#e1ed5e" stroke-width="0.3" x1="172.23445277983987" x2="176.4835382374775" y1="55.19839476539836" y2="52.563006222186495" /><path d="M 173.08426987136738 54.67131705675599 a86.0,86.0 0 0,1 12.851231095245387,41.99856678651699" fill="none" id="id51" stroke="none" /><text fill="#e1ed5e" style="font-size:6.75px; font-family:Arial;" text-anchor="middle"><textPath startOffset="22.20632615414155" xlink:href="#id51">March</textPath></text><path d="M 117.84615892207809 88.93136811851018 l 20.600228024615205 -12.776774076416475 a45.24077866872122,45.24077866872122 0 0,0 0.4047632183372531,0.6653243056241307 l -20.817107041238682 12.420281997585263" fill="#ffdc14" stroke="none" /><path d="M 118.21658344932153 89.55222093294921 l 12.967781819456878 -7.437427540478206 a35.94920378270696,35.94920378270696 0 0,0 0.3032441310346524,0.5394374722212117 l -13.093883591783964 7.2131065583222" fill="#ff4b07" stroke="none" /><path d="M 118.3937258080291 89.86733742301442 l 25.749968149001752 -14.185040124283455 a50.39857518659937,50.39857518659937 0 0,0 0.41204891287944573,0.7634640561812447 l -25.990325161099662 13.739695084769751" fill="#d8ff1c" stroke="none" /><path d="M 119.04729006885535 91.15688171328212 l 26.144111698541582 -12.137971932784328 a49.824380984626174,49.824380984626174 0 0,0 0.354459384658982,0.7810042687241414 l -26.349173400163913 11.686145655218125" fill="#e0ff1b" stroke="none" /><path d="M 119.196687751892 91.48605970444005 l 19.64330548807904 -8.712020130476244 a42.48857243401291,42.48857243401291 0 0,0 0.2907620278233256,0.6711188486502938 l -19.790358225745045 8.372602137239348" fill="#ffb310" stroke="none" /><path d="M 119.47837535516314 92.15188598940014 l 29.221477124167613 -11.77374805891157 a52.50421985501268,52.50421985501268 0 0,0 0.3305426915839032,0.8411950960661682 l -29.419813365633217 11.269003957949618" fill="#bcff1f" stroke="none" /><path d="M 119.61058180528143 92.48833698450437 l 19.611888822764364 -7.51216365718922 a42.00139962023637,42.00139962023637 0 0,0 0.25279924707178364,0.6773762982742384 l -19.738292658337773 7.173464221885648" fill="#ffab0f" stroke="none" /><path d="M 119.85752413597 93.16781622104841 l 12.502022611827377 -4.301448433739522 a34.221309617990315,34.221309617990315 0 0,0 0.18685276054632968,0.5586659709652567 l -12.574212666145476 4.085609359851952" fill="#ff2e04" stroke="none" /><path d="M 120.08093135843002 93.85539295169968 l 42.755762497058804 -13.08292702691763 a65.71261797632243,65.71261797632243 0 0,0 0.32166045777702335,1.0844791576450032 l -42.97462885194753 12.345018482526097" fill="#32ff4b" stroke="none" /><path d="M 120.37134235888165 94.90015583598534 l 13.556709367471454 -3.3938414039170617 a34.97506809818936,34.97506809818936 0 0,0 0.14117802777955524,0.5852740692105576 l -13.61312019551183 3.159982103047098" fill="#ff3b05" stroke="none" /><path d="M 120.53481517161879 95.60439243477599 l 28.717211057327706 -6.147101355467111 a50.36775554899438,50.36775554899438 0 0,0 0.17417818434044255,0.84935468496711 l -28.818768537583146 5.65187101433659" fill="#d9ff1c" stroke="none" /><path d="M 120.67395015179393 96.31383870115 l 31.947697166917965 -5.696268203193564 a53.45154581390249,53.45154581390249 0 0,0 0.15370663574133747,0.9071852649791396 l -32.041015664179525 5.145497149898587" fill="#afff20" stroke="none" /><path d="M 120.78858239683441 97.02765380044208 l 20.93925180805042 -2.9938888734771174 a42.15220170260469,42.15220170260469 0 0,0 0.09651650030392013,0.719160033887328 l -20.987684307412177 2.6330104975251247" fill="#ffad10" stroke="none" /><path d="M 120.83666639777658 97.38593545837742 l 20.930919793582987 -2.6258891039206684 a42.09499222544283,42.09499222544283 0 0,0 0.08400886973737991,0.7197366925577091 l -20.973019016323956 2.2652086730381065" fill="#ffad10" stroke="none" /><path d="M 120.87857604477298 97.74499172005257 l 21.70941537030617 -2.3447437846277075 a42.83567125453294,42.83567125453294 0 0,0 0.07286730002585953,0.7337637670931502 l -21.74655979601426 1.9707044868301222" fill="#ffb811" stroke="none" /><path d="M 120.94382443527127 98.46500227214037 l 36.14698230911939 -2.6492551962017994 a57.243935812082995,57.243935812082995 0 0,0 0.0635664167485214,0.9833443319376194 l -36.187229316872326 2.026651800011145" fill="#7eff26" stroke="none" /><path d="M 120.96714384426684 98.82574320788733 l 21.47002315526699 -1.2024203536802742 a42.50366733826222,42.50366733826222 0 0,0 0.034623065952450176,0.7308382001732026 l -21.487539829452935 0.8326710468840718" fill="#ffb310" stroke="none" /><line stroke="#e1ed5e" stroke-width="0.3" x1="184.98032266829074" x2="189.97916517819016" y1="98.17113171792111" y2="98.06355123074" /><path d="M 185.9800911702706 98.14961562048488 a86.0,86.0 0 0,1 -9.607161424134198,41.387399972396054" fill="none" id="id52" stroke="none" /><text fill="#e1ed5e" style="font-size:6.75px; font-family:Arial;" text-anchor="middle"><textPath startOffset="21.466115282336823" xlink:href="#id52">April</textPath></text><path d="M 120.99513854157772 99.54816195383933 l 14.77440624510642 -0.3179611717137636 a35.77782728286392,35.77782728286392 0 0,0 0.007951184060606107,0.6158279680062123 l -14.777690436284741 0.06359694564708855" fill="#ff4806" stroke="none" /><path d="M 120.99980553446 99.90962569577887 l 21.676438673775323 -0.09328624781404744 a42.676639405174726,42.676639405174726 0 0,0 -0.0031615315998825156,0.7346286022423715 l -21.674832844885938 -0.2798518326320088" fill="#ffb510" stroke="none" /><path d="M 120.99824983174949 100.27111621757518 l 25.401242071732735 0.3279648888540759 a46.40335922186446,46.40335922186446 0 0,0 -0.017186781868225857,0.7986022192538814 l -25.391833227179504 -0.7651569238980721" fill="#ffed16" stroke="none" /><path d="M 120.95626037817324 101.35467743843564 l 13.94424233223097 0.9013989205453422 a34.97334656529861,34.97334656529861 0 0,0 -0.04400553196571216,0.6004205211142172 l -13.92666024160092 -1.1412925781563297" fill="#ff3b05" stroke="none" /><path d="M 120.92983693683757 101.71520430193887 l 23.246322737851603 1.9050407743046187 a44.32425135313285,44.32425135313285 0 0,0 -0.06886174262439756,0.7598835917037634 l -23.210086398950132 -2.3049057545569527" fill="#ffce13" stroke="none" /><path d="M 120.89721153311464 102.0752229133903 l 33.75298266273867 3.351880843335699 a54.9190056431355,54.9190056431355 0 0,0 -0.10151568585320304,0.9399091726939426 l -33.69028467538441 -3.932386337914433" fill="#9cff22" stroke="none" /><path d="M 120.76222939487914 103.15116336523771 l 15.073835434905067 2.287813947755069 a36.24646212660964,36.24646212660964 0 0,0 -0.09893255331939368,0.6160531039583613 l -15.032221127224386 -2.546946281406635" fill="#ff5007" stroke="none" /><path d="M 120.49622156327973 104.57218783832717 l 14.352294709824989 3.2016333899275358 a35.705061026774736,35.705061026774736 0 0,0 -0.1389767372258877,0.5987081466099817 l -14.29505740666855 -3.4482101938860823" fill="#ff4706" stroke="none" /><path d="M 120.41448212921028 104.9243191809786 l 23.40701844965194 5.646169674625977 a45.078366736492164,45.078366736492164 0 0,0 -0.18844621759628066,0.7527489647582031 l -23.306360917760596 -6.048246478781576" fill="#ffda14" stroke="none" /><path d="M 120.13307415673323 105.97154293290107 l 20.390922295935308 6.048021627680977 a42.268951024621984,42.268951024621984 0 0,0 -0.2129011129835465,0.6957731556061861 l -20.28379441044563 -6.39812175583922" fill="#ffaf10" stroke="none" /><path d="M 119.9155931802556 106.66101706037122 l 20.40545687998103 6.824858048264196 a42.5165368463357,42.5165368463357 0 0,0 -0.2381111699842406,0.6920625173422426 l -20.284954879053558 -7.175093268695739" fill="#ffb310" stroke="none" /><path d="M 119.79798401119884 107.00284435728193 l 27.466566181095693 9.715337071006624 a50.13417292774561,50.13417292774561 0 0,0 -0.29477876434024497,0.8111045570227216 l -27.29526315575022 -10.186689425035476" fill="#dcff1b" stroke="none" /><path d="M 119.67450827220406 107.3425965602758 l 27.29599091509092 10.186961027413426 a50.13494971697679,50.13494971697679 0 0,0 -0.3087017043189047,0.8059227382122243 l -27.116594931178508 -10.655307332458795" fill="#dcff1b" stroke="none" /><path d="M 119.41010516605496 108.01547362559984 l 20.116163205510606 8.307042864662835 a42.7638917307104,42.7638917307104 0 0,0 -0.2868215328889949,0.6779613780384566 l -19.970190691429302 -8.652078768367454" fill="#ffb711" stroke="none" /><path d="M 119.26925614724726 108.34839909993367 l 40.86480435083124 17.704663493727093 a65.53523710566532,65.53523710566532 0 0,0 -0.4573701553373878,1.0312489580911068 l -40.55399311076258 -18.40546078831089" fill="#32ff48" stroke="none" /><path d="M 118.97047184881838 109.00673069616215 l 19.412888650191558 9.216779714298406 a42.489748115011466,42.489748115011466 0 0,0 -0.3193746841531258,0.6580064450121594 l -19.251360709423718 -9.549575115275841" fill="#ffb310" stroke="none" /><path d="M 118.81262510543309 109.33194174019688 l 21.402264155179846 10.616523801708128 a44.890740645704795,44.890740645704795 0 0,0 -0.34933831193336556,0.6892776311787707 l -21.21634717346021 -10.983355644589594" fill="#ffd714" stroke="none" /><path d="M 118.64920377521936 109.65438752849418 l 20.973936000206493 10.857863348187207 a44.61777271100442,44.61777271100442 0 0,0 -0.3589552756245719,0.6790081056541255 l -20.78392821635703 -11.217286468927465" fill="#ffd313" stroke="none" /><line stroke="#e1ed5e" stroke-width="0.3" x1="174.80103733775053" x2="179.2010983576182" y1="140.37084112569926" y2="142.7455964860345" /><path d="M 175.68104954172406 140.8457921977663 a86.0,86.0 0 0,1 -30.038265399797805,32.042727171017184" fill="none" id="id53" stroke="none" /><text fill="#e1ed5e" style="font-size:6.75px; font-family:Arial;" text-anchor="middle"><textPath startOffset="22.206326154141568" xlink:href="#id53">May</textPath></text><path d="M 118.30583269289576 110.29060199501025 l 25.235468204846967 14.186088325531191 a49.94950703375818,49.94950703375818 0 0,0 -0.4277771015806708,0.7458654340450983 l -24.987539107113914 -14.618373605434606" fill="#deff1b" stroke="none" /><path d="M 117.94076556474637 110.91462005526583 l 20.014364736387396 12.176135179784746 a44.42718642341711,44.42718642341711 0 0,0 -0.4030928558916365,0.6499140312567928 l -19.801807240827795 -12.518845542406812" fill="#ffd013" stroke="none" /><path d="M 117.75023020441432 111.22182372390056 l 37.45537225306409 23.67955683371541 a65.31282345390284,65.31282345390284 0 0,0 -0.6089491995898808,0.9451026807516475 l -37.04221819009716 -24.32078111438851" fill="#32ff45" stroke="none" /><path d="M 117.14729908036423 112.12312394758627 l 17.15569326352556 12.129058627002925 a42.01028021063618,42.01028021063618 0 0,0 -0.42254381468807994,0.5868764018753347 l -16.944369656461877 -12.42256863432939" fill="#ffab0f" stroke="none" /><path d="M 116.93607887273984 112.41649034213515 l 11.925014057045251 8.742686130699072 a35.786497930228265,35.786497930228265 0 0,0 -0.36849652294529855,0.493661311326366 l -11.772756267404862 -8.946660321534752" fill="#ff4806" stroke="none" /><path d="M 116.71984013943494 112.70617746262583 l 28.697370033197345 21.808454704804916 a57.04369214486469,57.04369214486469 0 0,0 -0.6008417058645376,0.776668899106943 l -28.31772151011474 -22.299201598025114" fill="#80ff25" stroke="none" /><path d="M 116.498646956653 112.99209946851258 l 11.636753479336665 9.163530748388839 a35.8116281115724,35.8116281115724 0 0,0 -0.38554131696092264,0.4810220725962504 l -11.477294250320888 -9.36248065456334" fill="#ff4906" stroke="none" /><path d="M 115.80600337817218 113.82643327865902 l 17.69156945768196 15.475847932514398 a44.50518026108916,44.50518026108916 0 0,0 -0.5093536295503922,0.572264202420619 l -17.422556978483232 -15.778086304675883" fill="#ffd113" stroke="none" /><path d="M 115.56566222782051 114.09645910891815 l 17.541244080527793 15.88557083416393 a44.665303814231734,44.665303814231734 0 0,0 -0.5209965051075449,0.5654388082347934 l -17.265201167424525 -16.18516089720006" fill="#ffd313" stroke="none" /><path d="M 115.07121518719521 114.62390073753431 l 27.14602078843709 26.340325481281006 a58.82484885767662,58.82484885767662 0 0,0 -0.7113867546237213,0.72063102660895 l -26.688593408757836 -26.80369700187062" fill="#6aff28" stroke="none" /><path d="M 114.55890576462653 115.13401014063108 l 16.235020595876595 16.876334685009454 a44.417655009607394,44.417655009607394 0 0,0 -0.5555679186388328,0.5253241438740706 l -15.942116842846954 -17.153293465629442" fill="#ffd013" stroke="none" /><path d="M 114.0293411484842 115.62618273729858 l 9.823148488587536 10.941234639152803 a35.703906340079726,35.703906340079726 0 0,0 -0.4608484211707417,0.4066451497560346 l -9.633357714510206 -11.108702930681128" fill="#ff4706" stroke="none" /><path d="M 112.34349029814194 116.9893568818739 l 6.179363130069509 8.50516369225383 a31.512960483388838,31.512960483388838 0 0,0 -0.44159062327806375,0.31506318475065964 l -6.032045178942561 -8.61027113884871" fill="#ff0000" stroke="none" /><line stroke="#e1ed5e" stroke-width="0.3" x1="143.8653032363475" x2="146.44561519142675" y1="172.8068346515853" y2="177.08958963109032" /><path d="M 144.38136562736335 173.6633856474863 a86.0,86.0 0 0,1 -40.68145358897372,12.25698825130547" fill="none" id="id54" stroke="none" /><text fill="#e1ed5e" style="font-size:6.75px; font-family:Arial;" text-anchor="middle"><textPath startOffset="21.466115282336833" xlink:href="#id54">June</textPath></text><path d="M 109.89434966115114 118.52300852407294 l 10.639792184443943 19.91853614195909 a43.58214471140164,43.58214471140164 0 0,0 -0.6647503542127963,0.3477659672821434 l -10.295350927704652 -20.09873152818595" fill="#ffc312" stroke="none" /><path d="M 109.2508944713604 118.85261126421891 l 9.262081934507583 18.87541045346484 a42.02539610918904,42.02539610918904 0 0,0 -0.6521687721074769,0.3130806428426025 l -8.935800494399874 -19.032045372807005" fill="#ffac0f" stroke="none" /><path d="M 108.2653958097858 119.30500536409082 l 11.197920212759028 26.154332442014805 a49.45070337581736,49.45070337581736 0 0,0 -0.7853914725600161,0.3282936992272212 l -10.74605728070155 -26.343211184262" fill="#e5ff1a" stroke="none" /><path d="M 107.59598834532513 119.57807347666477 l 10.729977059875111 27.655687414324323 a50.66427909227296,50.66427909227296 0 0,0 -0.8157667383242896,0.3084531780491968 l -10.252340100790546 -27.83628884248015" fill="#d5ff1c" stroke="none" /><path d="M 107.2578585660854 119.70592522655815 l 8.071713027020452 21.915634193253673 a44.354819059095306,44.354819059095306 0 0,0 -0.7187179675055982,0.25770669238704097 l -7.69327549888512 -22.051328426680676" fill="#ffcf13" stroke="none" /><path d="M 106.2309692047433 120.05430185196036 l 13.178401009374461 42.41453024145736 a65.41466682040273,65.41466682040273 0 0,0 -1.0781739631045093,0.3248449706875066 l -12.446352071829706 -42.635090581250594" fill="#32ff46" stroke="none" /><path d="M 105.18746579009965 120.34920634021253 l 6.397350797779397 25.09530022601562 a46.89788004188197,46.89788004188197 0 0,0 -0.7839688924385515,0.19268047989300688 l -5.964428620597634 -25.201701964222657" fill="#fff417" stroke="none" /><path d="M 104.83641907484287 120.43548508189849 l 3.9824360033587474 16.8271215287309 a38.29195811536469,38.29195811536469 0 0,0 -0.6427211274265967,0.1462812360819548 l -3.6921947265392885 -16.893179498390538" fill="#ff710a" stroke="none" /><path d="M 104.48393922423573 120.51570834832081 l 4.935607925170677 22.582262526477802 a44.11533703855021,44.11533703855021 0 0,0 -0.7432563298171371,0.1557565904591142 l -4.546160133924161 -22.663875097663457" fill="#ffcb12" stroke="none" /><path d="M 103.7750983002368 120.6578951692458 l 8.849287058613127 48.42460509383983 a70.22654019875941,70.22654019875941 0 0,0 -1.1910121200832187,0.20707272355518494 l -8.014425967057857 -48.569756395916016" fill="#39ff88" stroke="none" /><path d="M 103.06178313531738 120.77559828337769 l 3.4271649655327674 23.254881037612794 a44.506062021838076,44.506062021838076 0 0,0 -0.7588737299469458,0.10517298409747111 l -3.0263626443989913 -23.310428587202868" fill="#ffd113" stroke="none" /><path d="M 102.70371172650421 120.8252237178851 l 3.2440767360318024 24.987362048837714 a46.197069195225026,46.197069195225026 0 0,0 -0.7894695842649573,0.0955937722055658 l -2.8134797287154645 -25.03950134976863" fill="#ffea16" stroke="none" /><path d="M 101.98527174616119 120.90594882070398 l 2.382434064880699 25.088275559961374 a46.20114209011288,46.20114209011288 0 0,0 -0.7923620881230752,0.06836833504904635 l -1.9502276590160823 -25.125568147289083" fill="#ffea16" stroke="none" /><path d="M 101.62511606390274 120.93702456842531 l 4.1170131541784105 53.041138089890154 a74.20067788273448,74.20067788273448 0 0,0 -1.2742632199981547,0.08788065223607007 l -3.2033871734013255 -53.104147086642506" fill="#3fffbb" stroke="none" /><path d="M 100.90346689309514 120.98055641714683 l 0.7454000640467974 17.309885084446353 a38.32592689850154,38.32592689850154 0 0,0 -0.6593513043635058,0.022709392090707093 l -0.4473284080086393 -17.320151274963152" fill="#ff710a" stroke="none" /><line stroke="#e1ed5e" stroke-width="0.3" x1="102.19456741930631" x2="102.32365962044197" y1="184.97166512339345" y2="189.96999836594603" /><path d="M 102.22038585953345 185.97133177190398 a86.0,86.0 0 0,1 -42.740103519485714,-10.115201625700543" fill="none" id="id55" stroke="none" /><text fill="#e1ed5e" style="font-size:6.75px; font-family:Arial;" text-anchor="middle"><textPath startOffset="22.20632615414155" xlink:href="#id55">July</textPath></text><path d="M 100.54218724476979 120.99299961872073 l 0.6511702029520529 25.212721166280573 a46.22112866708834,46.22112866708834 0 0,0 -0.7955323370925382,0.013695810633992474 l -0.21707817596684664 -25.220194454193727" fill="#ffea16" stroke="none" /><path d="M 99.81925306533755 120.99922214144158 l -0.21915096163849654 25.461011189770606 a46.46195432306034,46.46195432306034 0 0,0 -0.7996772942247441,-0.013767169829994715 l 0.6573879457559085 -25.453466542661452" fill="#ffee16" stroke="none" /><path d="M 99.45781275523022 120.99299961872073 l -0.5553575561696216 21.502942161379963 a42.51011258945073,42.51011258945073 0 0,0 -0.7313351679327661,-0.02518866189904684 l 0.9254130757770307 -21.490196701054824" fill="#ffb310" stroke="none" /><path d="M 99.09653310690486 120.98055641714683 l -1.915699155475329 44.48689212289523 a65.52812003676335,65.52812003676335 0 0,0 -1.1264968184621285,-0.05822701820931591 l 2.6811840423509468 -44.447325297923705" fill="#32ff48" stroke="none" /><path d="M 98.37488393609728 120.93702456842531 l -1.8212723115601914 23.464184484986504 a44.534761234784966,44.534761234784966 0 0,0 -0.7637832055586439,-0.06590242880772086 l 2.224899834860377 -23.42935780390012" fill="#ffd113" stroke="none" /><path d="M 98.01472825383883 120.90594882070398 l -2.3839424621293106 25.104159771149135 a46.21709776080756,46.21709776080756 0 0,0 -0.7913410397275724,-0.08202573436605448 l 2.8157160984624765 -25.059404668327318" fill="#ffea16" stroke="none" /><path d="M 97.65516085044442 120.86867818915974 l -3.2676714214350455 29.081731825727385 a50.26473650149593,50.26473650149593 0 0,0 -0.8589826437111779,-0.10401083563962747 l 3.767781488197613 -29.02117546136241" fill="#daff1c" stroke="none" /><path d="M 96.93821686468263 120.77559828337769 l -3.064328827560407 20.792871969023334 a42.01746026244879,42.01746026244879 0 0,0 -0.7146252337143321,-0.11160976449595787 l 3.421789924883256 -20.73704389718027" fill="#ffab0f" stroke="none" /><path d="M 96.58105272829116 120.7198165907248 l -7.263986037132713 44.02187177684934 a65.61715687810042,65.61715687810042 0 0,0 -1.1128389481531102,-0.19348131558581497 l 8.020673956757873 -43.890311882742516" fill="#32ff49" stroke="none" /><path d="M 95.86986931433489 120.58985236759428 l -4.169792582726634 20.78757797660468 a42.20166428175821,42.20166428175821 0 0,0 -0.7110147221322153,-0.14900004808946282 l 4.526998766288236 -20.712721947788676" fill="#ffae10" stroke="none" /><path d="M 95.16358092515715 120.4354850818985 l -5.903298360911505 24.94340621058004 a46.632449062154464,46.632449062154464 0 0,0 -0.7795318127451846,-0.1915899536579896 l 6.3317834583999 -24.838094998608018" fill="#fff016" stroke="none" /><path d="M 94.81253420990036 120.34920634021253 l -6.947519014611724 27.253480543563924 a49.12508172782452,49.12508172782452 0 0,0 -0.8176040743591119,-0.2159366671260361 l 7.415613531782325 -27.129852527134307" fill="#eaff1a" stroke="none" /><path d="M 94.11515582081647 120.15858648285463 l -13.795286673687624 47.25587815069161 a70.22832471456078,70.22832471456078 0 0,0 -1.157513366040289,-0.34874928196101057 l 14.60667501416816 -47.01141349962487" fill="#39ff88" stroke="none" /><path d="M 92.7421414339146 119.70592522655815 l -7.36942270904055 20.008834774742557 a42.322801413216546,42.322801413216546 0 0,0 -0.6814571189836807,-0.2576687724318663 l 7.712750048784514 -19.879017752204057" fill="#ffb010" stroke="none" /><path d="M 92.06813273071674 119.44442032107085 l -8.724162167522216 21.386676097243267 a44.09763884066123,44.09763884066123 0 0,0 -0.7003724343873219,-0.2927557343757879 l 9.091006061407 -21.233335319847505" fill="#ffcb12" stroke="none" /><path d="M 91.7346041902142 119.30500536409082 l -17.846139712714244 41.68219294160956 a66.34192222510292,66.34192222510292 0 0,0 -1.045925659628359,-0.4585030722592867 l 18.560986047000345 -41.36882531605582" fill="#33ff53" stroke="none" /><path d="M 91.07499286063937 119.00905698771935 l -8.967100926594155 19.09871105609786 a42.09904412602714,42.09904412602714 0 0,0 -0.653311674760527,-0.3136293055701507 l 9.294525269354923 -18.941527474028145" fill="#ffad10" stroke="none" /><path d="M 90.10565033884886 118.52300852407294 l -6.368145583834415 11.921674387054034 a34.51590168534271,34.51590168534271 0 0,0 -0.5216457058434534,-0.284442830932829 l 6.572414101546508 -11.81029090436144" fill="#ff3304" stroke="none" /><line stroke="#e1ed5e" stroke-width="0.3" x1="58.666819895761336" x2="56.23545636021788" y1="174.27360380694188" y2="178.64263932499728" /><path d="M 58.180547188652646 175.14741091055294 a86.0,86.0 0 0,1 -31.652253787137756,-30.449443065178592" fill="none" id="id56" stroke="none" /><text fill="#e1ed5e" style="font-size:6.75px; font-family:Arial;" text-anchor="middle"><textPath startOffset="22.20632615414155" xlink:href="#id56">August</textPath></text><path d="M 89.7882731507175 118.34994917583269 l -8.173811486088322 14.687919835330975 a37.809110128118576,37.809110128118576 0 0,0 -0.5659685900183784,-0.3213717362852971 l 8.425428843027907 -14.545044933251045" fill="#ff6909" stroke="none" /><path d="M 89.4739219176387 118.17145234162733 l -14.37504853908913 24.816033796515395 a49.67886946675135,49.67886946675135 0 0,0 -0.7362695385257203,-0.4350010211608902 l 14.800085948643233 -24.564914203060756" fill="#e2ff1b" stroke="none" /><path d="M 89.1626897886671 117.98757091392108 l -10.847144208276887 18.00389320367266 a42.01905582951826,42.01905582951826 0 0,0 -0.6163211045093905,-0.3785947607584345 l 11.155444512718587 -17.814509976085848" fill="#ffab0f" stroke="none" /><path d="M 87.95078237400918 117.19931262002967 l -12.167047085342416 17.367504926795366 a42.20535927918225,42.20535927918225 0 0,0 -0.5914230406753683,-0.4219646362662209 l 12.46419745386667 -17.155496028684926" fill="#ffae10" stroke="none" /><path d="M 87.65650970185807 116.9893568818739 l -10.17141140924231 13.99974676935534 a38.30463867470627,38.30463867470627 0 0,0 -0.530090652455046,-0.39214839200856266 l 10.410887032115921 -13.822588428607013" fill="#ff710a" stroke="none" /><path d="M 87.36589467227662 116.77436683061367 l -26.948208742869287 35.77927579002509 a65.79243831840294,65.79243831840294 0 0,0 -0.8987600207578141,-0.6891308588237278 l 27.560097492120587 -35.310105589374" fill="#32ff4c" stroke="none" /><path d="M 87.07902340077011 116.55440617244103 l -6.782240989510898 8.689433901337896 a32.02293311081593,32.02293311081593 0 0,0 -0.4316119656299844,-0.3428986490811754 l 6.93081044785824 -8.57140133825159" fill="#ff0901" stroke="none" /><path d="M 86.79598089348748 116.32954008644616 l -13.356743766943973 16.518416173687978 a42.24289709392185,42.24289709392185 0 0,0 -0.5614883064631593,-0.46206665028988875 l 13.639102201951822 -16.286054404540906" fill="#ffaf10" stroke="none" /><path d="M 86.51685102203217 116.09983520530335 l -10.795576502058125 12.890683245686196 a37.814106772362436,37.814106772362436 0 0,0 -0.4954269640703922,-0.42221360683924297 l 11.015868942705575 -12.702945248624001" fill="#ff6909" stroke="none" /><path d="M 86.24171649860922 115.8653595955263 l -16.530233666853334 19.061832916598394 a46.230974995451234,46.230974995451234 0 0,0 -0.5967266335762565,-0.5265418739150428 l 16.855902653336177 -18.774467900911063" fill="#ffea16" stroke="none" /><path d="M 85.70375840098266 115.38237550388516 l -9.009791677279305 9.694296072977375 a34.2346410007418,34.2346410007418 0 0,0 -0.4282006387328463,-0.4048904308581852 l 9.175328150402969 -9.53777100537326" fill="#ff2e04" stroke="none" /><path d="M 85.44109423537348 115.13401014063109 l -32.33823150551024 33.615652951306984 a67.64518560630549,67.64518560630549 0 0,0 -0.8321969963303458,-0.814479915158953 l 32.91207845421638 -33.05402293322546" fill="#35ff65" stroke="none" /><path d="M 85.18274418774928 114.88116024355367 l -9.04251801519648 9.081516935011978 a33.8156576848815,33.8156576848815 0 0,0 -0.40894301376135994,-0.41425711389197883 l 9.197501654013374 -8.924519327139334" fill="#ff2703" stroke="none" /><path d="M 84.67929136418377 114.36230785411682 l -15.341932272402538 14.382203826926059 a42.02909110661307,42.02909110661307 0 0,0 -0.4902465159637921,-0.5320657682158606 l 15.58722519636206 -14.115986803908854" fill="#ffac0f" stroke="none" /><path d="M 84.43433777217949 114.09645910891817 l -17.45781920127501 15.810020216282023 a44.552753352923574,44.552753352923574 0 0,0 -0.5098980948655002,-0.572875914973985 l 17.72737614578885 -15.507170131567173" fill="#ffd213" stroke="none" /><path d="M 83.95833913139862 113.55231037782056 l -12.842581153257862 10.849664960937039 a37.812112313525596,37.812112313525596 0 0,0 -0.41576038026990136,-0.5008101611789182 l 13.0274375334213 -10.62699354264436" fill="#ff6909" stroke="none" /><path d="M 83.72743513129214 113.27417163493432 l -34.35472291182672 28.024499645974394 a65.33530835300022,65.33530835300022 0 0,0 -0.7033877585231321,-0.8775843795696763 l 34.83202858240471 -27.42898743282646" fill="#32ff45" stroke="none" /><path d="M 83.50135304334701 112.99209946851258 l -13.187486004835051 10.38467762626713 a37.78544954802264,37.78544954802264 0 0,0 -0.39799446897015356,-0.514461501338244 l 13.364287291023272 -10.156138130815634" fill="#ff6909" stroke="none" /><path d="M 83.06392112726016 112.41649034213515 l -17.33249008245277 12.707114635627141 a42.49153263081284,42.49153263081284 0 0,0 -0.42738430212185424,-0.5935994155598513 l 17.548654176950233 -12.406881614616152" fill="#ffb310" stroke="none" /><path d="M 82.85270091963577 112.12312394758628 l -17.313182768024635 12.240403555118915 a42.203154877309956,42.203154877309956 0 0,0 -0.4142723838716495,-0.5967902668615233 l 17.52131605905842 -11.94057202607038" fill="#ffae10" stroke="none" /><path d="M 82.44556493220864 111.52570212397912 l -17.856581942356545 11.724082468346854 a42.36145192604407,42.36145192604407 0 0,0 -0.39496029844792907,-0.6129871541090836 l 18.055747104181517 -11.414973714316321" fill="#ffb110" stroke="none" /><path d="M 82.24976979558568 111.22182372390057 l -30.179645515061218 19.079789846083177 a56.705033034370004,56.705033034370004 0 0,0 -0.5144911381830549,-0.8295235322958262 l 30.503601292912226 -18.557469982422084" fill="#85ff25" stroke="none" /><line stroke="#e1ed5e" stroke-width="0.3" x1="26.63291911575756" x2="22.317208475507996" y1="142.92168965132927" y2="145.44649492493687" /><path d="M 25.769776987707644 143.4266507060508 a86.0,86.0 0 0,1 -11.730757126820373,-40.83630448921669" fill="none" id="id57" stroke="none" /><text fill="#e1ed5e" style="font-size:6.75px; font-family:Arial;" text-anchor="middle"><textPath startOffset="21.46611528233685" xlink:href="#id57">September</textPath></text><path d="M 81.69416730710424 110.29060199501025 l -12.824588802775919 7.209327285627863 a35.71205212985544,35.71205212985544 0 0,0 -0.29662020754019053,-0.5384518358488602 l 12.946785419767625 -6.98750493138118" fill="#ff4706" stroke="none" /><path d="M 81.51974371655577 109.97397251340807 l -17.301381798368418 9.337722586428542 a40.66038848125875,40.66038848125875 0 0,0 -0.32711764992906667,-0.6187833161607298 l 17.45955195652237 -9.038524255181686" fill="#ff960d" stroke="none" /><path d="M 81.18737489456691 109.33194174019688 l -19.264036979250225 9.555863137858605 a42.503898275601216,42.503898275601216 0 0,0 -0.3194810439991864,-0.6582255777977907 l 19.42567127986413 -9.22284860409553" fill="#ffb310" stroke="none" /><path d="M 80.87730276802145 108.67885076344099 l -38.332232566945194 17.397113066335418 a63.095363124805466,63.095363124805466 0 0,0 -0.4403422846694044,-0.9928556049613991 l 38.62601593634587 -16.73470912488132" fill="#37ff2e" stroke="none" /><path d="M 80.58989483394504 108.01547362559985 l -21.464139819987718 8.863694717336077 a44.22228202081169,44.22228202081169 0 0,0 -0.28449117583734196,-0.7060837674767573 l 21.613533610082445 -8.492911582016514" fill="#ffcd13" stroke="none" /><path d="M 80.32549172779594 107.34259656027581 l -20.593937131521653 7.685730685227814 a42.981371721139666,42.981371721139666 0 0,0 -0.2527217445846129,-0.6953817014264848 l 20.72318313711149 -7.330101186795212" fill="#ffba11" stroke="none" /><path d="M 80.20201598880116 107.00284435728193 l -13.899640007985036 4.916511476275006 a35.74354358517389,35.74354358517389 0 0,0 -0.20017945048556182,-0.5818151850347568 l 13.982210289413826 -4.676523588150952" fill="#ff4706" stroke="none" /><path d="M 80.0844068197444 106.66101706037122 l -42.014783451629874 14.052365240949221 a65.30249425655839,65.30249425655839 0 0,0 -0.3473711731630688,-1.0690985409332356 l 42.25044687580919 -13.327067800038181" fill="#32ff45" stroke="none" /><path d="M 79.86692584326677 105.97154293290107 l -14.109818915005873 4.185023547347266 a35.71738468295602,35.71738468295602 0 0,0 -0.16975514202526173,-0.5909399191723674 l 14.179766693917237 -3.9415261526703027" fill="#ff4706" stroke="none" /><path d="M 79.76711848015287 105.62410040840567 l -14.235088614192986 3.9569038947932627 a35.77480410315334,35.77480410315334 0 0,0 -0.15981443768633236,-0.5947289750609411 l 14.301091128221092 -3.711283986556783" fill="#ff4806" stroke="none" /><path d="M 79.58551787078972 104.9243191809786 l -27.624486013156762 6.66349435064142 a49.41679757559116,49.41679757559116 0 0,0 -0.19234766987395882,-0.8286287276107922 l 27.735094248961275 -6.186996965682053" fill="#e6ff1a" stroke="none" /><path d="M 79.50377843672027 104.57218783832718 l -13.652231250667455 3.045466965587566 a34.987790646138016,34.987790646138016 0 0,0 -0.12606594343562158,-0.5889381182176285 l 13.702631232827517 -2.8100150279537734" fill="#ff3b05" stroke="none" /><path d="M 79.4281124754447 104.21870165774334 l -45.70843265494271 9.373483127597702 a67.65965068144844,67.65965068144844 0 0,0 -0.22414697298816014,-1.1429205862200538 l 45.86300956090654 -8.585298814309693" fill="#35ff66" stroke="none" /><path d="M 79.23777060512086 103.15116336523772 l -21.269804309764815 3.22819996118709 a42.51338770080385,42.51338770080385 0 0,0 -0.10358275362908936,-0.7244575376278763 l 21.322221114410503 -2.861596951578813" fill="#ffb310" stroke="none" /><path d="M 79.1416061653843 102.43462659150553 l -13.895157936994428 1.6218660590459157 a34.98949118472521,34.98949118472521 0 0,0 -0.06467673902096506,-0.5988262774842968 l 13.921016977516445 -1.3824434596768367" fill="#ff3b05" stroke="none" /><path d="M 79.10278846688536 102.07522291339032 l -14.64551479586528 1.454390593434673 a35.71755263738439,35.71755263738439 0 0,0 -0.055490455942356104,-0.6123325573787917 l 14.668379848084712 -1.202076647507315" fill="#ff4706" stroke="none" /><path d="M 79.07016306316243 101.71520430193888 l -23.035072423389277 1.8877287689963613 a44.11229286453609,44.11229286453609 0 0,0 -0.05550469441370132,-0.7573174565898819 l 23.064153676467313 -1.4909381759097187" fill="#ffcb12" stroke="none" /><path d="M 79.0235259727143 100.99374915477108 l -21.472216369710488 1.0172346811339958 a42.496298337717704,42.496298337717704 0 0,0 -0.028326549449862192,-0.7309823751078525 l 21.486545052011554 -0.6474750590121466" fill="#ffb310" stroke="none" /><path d="M 79.0095281055655 100.63252640178507 l -13.344115421993592 0.4021112700718411 a34.35017265315344,34.35017265315344 0 0,0 -0.012722547126447553,-0.5911667726770031 l 13.349060031805047 -0.17235468160470915" fill="#ff3004" stroke="none" /><line stroke="#e1ed5e" stroke-width="0.3" x1="15.007084014347285" x2="10.007500721073583" y1="101.09737516637583" y2="101.16192664675087" /><path d="M 14.007167355692545 101.11028546245083 a86.0,86.0 0 0,1 10.666146001902534,-42.60595125391555" fill="none" id="id58" stroke="none" /><text fill="#e1ed5e" style="font-size:6.75px; font-family:Arial;" text-anchor="middle"><textPath startOffset="22.20632615414155" xlink:href="#id58">October</textPath></text><path d="M 79.00019446554 99.90962569577889 l -21.699658158476257 -0.09338617468101598 a42.699859104896206,42.699859104896206 0 0,0 0.009489520881766638,-0.7349738501117337 l 21.694835630476774 0.46689628285322166" fill="#ffb610" stroke="none" /><path d="M 79.01574976396665 99.18683210126434 l -36.08150450382049 -1.398206791787617 a57.10858553712426,57.10858553712426 0 0,0 0.04652008749660913,-0.9819655216154966 l 36.052090808090384 2.0190834200261225" fill="#80ff26" stroke="none" /><path d="M 79.05617556472873 98.46500227214037 l -23.76680261540236 -1.7418971461435708 a44.83054997743945,44.83054997743945 0 0,0 0.06303072041617779,-0.7691344400377419 l 23.733297411166685 2.150745503389091" fill="#ffd614" stroke="none" /><path d="M 79.12142395522702 97.74499172005258 l -12.59120876999424 -1.3599241619732956 a33.66443571644227,33.66443571644227 0 0,0 0.06718402939092709,-0.5755917352261317 l 12.565934387599725 1.576459635524289" fill="#ff2503" stroke="none" /><path d="M 79.16333360222342 97.38593545837743 l -22.4964746694849 -2.8222958328538477 a43.672819108415254,43.672819108415254 0 0,0 0.09999827976933764,-0.7451033350892019 l 22.444560390657728 3.209117510007709" fill="#ffc512" stroke="none" /><path d="M 79.26566170972629 96.67025291283419 l -15.831638155396885 -2.5424178141110088 a37.03448331019517,37.03448331019517 0 0,0 0.10649730984109787,-0.6285531511492304 l 15.785528984035563 2.814556753576067" fill="#ff5d08" stroke="none" /><path d="M 79.32604984820605 96.31383870115002 l -45.67600271588678 -8.144022417644202 a67.3963611206826,67.3963611206826 0 0,0 0.2134676271929405,-1.14035260025846 l 45.52904936478398 8.929053095365234" fill="#35ff62" stroke="none" /><path d="M 79.3925641242962 95.95851677861259 l -15.461046696866473 -3.0321851387704024 a36.75557398759137,36.75557398759137 0 0,0 0.12710550771559026,-0.6198115962234908 l 15.406561893235889 3.297872391157296" fill="#ff5808" stroke="none" /><path d="M 79.62865764111835 94.90015583598534 l -21.68757828640705 -5.429355984846146 a43.3568548400534,43.3568548400534 0 0,0 0.18747435514492702,-0.7224151659758918 l 21.590907599391816 5.801867576370902" fill="#ffc011" stroke="none" /><path d="M 79.71946130924805 94.55025226153421 l -14.205786052547866 -3.8173517771648053 a35.70974275646542,35.70974275646542 0 0,0 0.16462740564275824,-0.5922523695187712 l 14.137971876338748 4.061315450102519" fill="#ff4706" stroke="none" /><path d="M 79.81627453868168 94.20196356495316 l -60.551176383954946 -17.394109305140535 a84.0,84.0 0 0,0 0.4111764115531722,-1.3862824530138431 l 60.24279407529007 18.433821144900918" fill="#4dd2ff" stroke="none" /><path d="M 80.02781315780177 93.51064311812611 l -15.178218803879073 -4.931702243112972 a36.95932370350178,36.95932370350178 0 0,0 0.20180267029564733,-0.6033642982552849 l 15.091078839811653 5.192239644290579" fill="#ff5b08" stroke="none" /><path d="M 80.2630227832202 92.82701384747504 l -12.555231950101197 -4.56293301302743 a34.35867534608943,34.35867534608943 0 0,0 0.20679899566228363,-0.5541184943828987 l 12.474828365937286 4.77837464443967" fill="#ff3004" stroke="none" /><line stroke="#e1ed5e" stroke-width="0.3" x1="26.266209847984243" x2="21.928928074336255" y1="57.711370442889674" y2="55.22380399835377" /><path d="M 25.398753493254645 57.213857153982495 a86.0,86.0 0 0,1 29.58750427330803,-30.492523968695096" fill="none" id="id59" stroke="none" /><text fill="#e1ed5e" style="font-size:6.75px; font-family:Arial;" text-anchor="middle"><textPath startOffset="21.46611528233685" xlink:href="#id59">November</textPath></text><line stroke="#e1ed5e" stroke-width="0.3" x1="56.762969772571076" x2="54.21961505331055" y1="26.818313649435495" y2="22.513508569990535" /><path d="M 56.25429882871897 25.957352633546506 a86.0,86.0 0 0,1 42.265352541879196,-11.944610805530505" fill="none" id="id60" stroke="none" /><text fill="#e1ed5e" style="font-size:6.75px; font-family:Arial;" text-anchor="middle"><textPath startOffset="22.20632615414155" xlink:href="#id60">December</textPath></text></svg>