<?xml version="1.0" encoding="utf-8" ?>
<svg baseProfile="full" height="200mm" version="1.1" viewBox="0,0,200,200" width="200mm" xmlns="http://www.w3.org/2000/svg" xmlns:ev="http://www.w3.org/2001/xml-events" xmlns:xlink="http://www.w3.org/1999/xlink"><defs /><rect fill="#1a1a1a" height="200" width="200" x="0" y="0" /><text alignment-baseline="middle" fill="#e1ed5e" style="dominant-baseline: central; font-size:9.0px; font-family:Arial;" text-anchor="middle" x="100.0" y="100.0">2025</text><line stroke="#e1ed5e" stroke-width="0.3" x1="100.0" x2="100.0" y1="15.0" y2="10.0" /><path d="M 100.0 14.0 a86.0,86.0 0 0,1 42.46469731375804,11.215312516191453" fill="none" id="id13" stroke="none" /><text fill="#e1ed5e" style="font-size:6.75px; font-family:Arial;" text-anchor="middle"><textPath startOffset="22.20632615414155" xlink:href="#id13">January</textPath></text><path d="M 100.0 79.0 l 0.0 -47.35927431915039 a68.35927431915039,68.35927431915039 0 0,0 1.1766925354099391,0.01012816414736493 l -0.8152120561374108 47.35225753161158" fill="#32ff4d" stroke="none" /><path d="M 100.72285384407766 79.0124445844662 l 1.1109374448618758 -32.25529113285753 a53.27441692845579,53.27441692845579 0 0,0 0.9162163844202286,0.039454204825495824 l -1.6659946616714358 32.23138920150784" fill="#f3ff19" stroke="none" /><path d="M 101.08401301168833 79.027996857942 l 1.0612412387027585 -20.5314459813466 a41.55885471157566,41.55885471157566 0 0,0 0.714095808890343,0.04307620930333085 l -1.4144990964327133 20.510136502662967" fill="#ff3a05" stroke="none" /><path d="M 102.16513564639614 79.11191278185805 l 3.0290281172362854 -29.22246631722577 a50.379032472094835,50.379032472094835 0 0,0 0.8618012337591058,0.09683341003855943 l -3.5315960545051164 29.16599695371661" fill="#ffda14" stroke="none" /><path d="M 102.52436894288641 79.15227682838746 l 4.240640950715616 -35.02170665656983 a56.27751369940509,56.27751369940509 0 0,0 0.9606980846397449,0.12472618360588483 l -4.842853763863208 34.94352214979981" fill="#c3ff1e" stroke="none" /><path d="M 102.88285421437855 79.19881850522331 l 4.181132640189063 -30.168885567824542 a51.45724095448152,51.45724095448152 0 0,0 0.8763193117561693,0.129146687055203 l -4.699820932373889 30.09244439660837" fill="#ffec16" stroke="none" /><path d="M 103.2404852339499 79.25152402106235 l 4.636754527429358 -29.688637036414185 a51.04853842747731,51.04853842747731 0 0,0 0.867024891732308,0.14306653609177217 l -5.147108625300541 29.604424237382787" fill="#ffe515" stroke="none" /><path d="M 103.95276090670814 79.375362276772 l 5.823007537471833 -30.383173623319433 a51.93613835316599,51.93613835316599 0 0,0 0.87656723785356,0.175831141596994 l -6.345141184792518 30.27843852564523" fill="#fff417" stroke="none" /><path d="M 104.66035177308747 79.52364482259891 l 9.481148534352586 -41.657663269157545 a63.72298077822958,63.72298077822958 0 0,0 1.0674397730439802,0.2526285066836411 l -10.196811994359091 41.488288850333035" fill="#55ff2b" stroke="none" /><path d="M 105.01212808612495 79.60689891045804 l 7.368274325936117 -29.97967342460008 a51.87186883212485,51.87186883212485 0 0,0 0.8652502180566488,0.22057154618239222 l -7.883233432677791 29.84839888224882" fill="#fff316" stroke="none" /><path d="M 105.36241919743992 79.69619591428918 l 11.252918041871311 -42.60708365056448 a65.06803537330967,65.06803537330967 0 0,0 1.0804457751780634,0.29532664443177303 l -11.984661706273085 42.40707046530642" fill="#43ff2d" stroke="none" /><path d="M 106.0581310904928 79.89281104454417 l 11.029304125759538 -36.60671893545905 a59.232151662157236,59.232151662157236 0 0,0 0.9737050075997058,0.30253488561433667 l -11.657794506069962 36.41144391496219" fill="#96ff23" stroke="none" /><path d="M 106.74666289553966 80.11325718540242 l 10.916727011811194 -32.17859641461963 a54.97994990969497,54.97994990969497 0 0,0 0.8936022057085089,0.31176026323244027 l -11.469011221582976 31.985915298214984" fill="#d8ff1c" stroke="none" /><path d="M 107.08798089147638 80.2323363322302 l 8.916412583155862 -24.866975202889186 a47.41720782168634,47.41720782168634 0 0,0 0.7659407121728969,0.28210242833285104 l -9.343135621101336 24.709809506750013" fill="#ffa60f" stroke="none" /><path d="M 107.4271985657038 80.35727306442388 l 22.28159569711141 -58.92818080672834 a84.0,84.0 0 0,0 1.3480673400013319,0.5230291844378128 l -23.292646202112408 58.53590891839998" fill="#4dd2ff" stroke="none" /><path d="M 108.43124777332544 80.76684994638697 l 18.957096622942615 -43.244451323494864 a68.21709523723054,68.21709523723054 0 0,0 1.0713913254996796,0.4807020574441755 l -19.698670066909074 42.91172893553416" fill="#32ff4b" stroke="none" /><path d="M 110.05341064243156 81.56283822128135 l 8.437100900911238 -15.472977259770019 a38.62378213930022,38.62378213930022 0 0,0 0.5809677317492723,0.32330791371805295 l -8.702192721732546 15.325453948491786" fill="#ff0000" stroke="none" /><line stroke="#e1ed5e" stroke-width="0.3" x1="143.23703022742887" x2="145.7803849466894" y1="26.81831364943548" y2="22.513508569990506" /><path d="M 143.74570117128098 25.957352633546492 a86.0,86.0 0 0,1 28.547481713284135,27.462654790039103" fill="none" id="id14" stroke="none" /><text fill="#e1ed5e" style="font-size:6.75px; font-family:Arial;" text-anchor="middle"><textPath startOffset="19.985693538727396" xlink:href="#id14">February</textPath></text><path d="M 111.90073688211348 82.69761687909136 l 11.065615533274002 -16.088207085155098 a40.52634769599962,40.52634769599962 0 0,0 0.571361408532921,0.40027517997948464 l -11.340908081390573 15.895347062411679" fill="#ff2603" stroke="none" /><path d="M 112.19680574252982 82.90503203632743 l 17.22891427750442 -24.147940357514386 a50.66409463799069,50.66409463799069 0 0,0 0.705569131884537,0.5126259807619363 l -17.642028725742747 23.847795141935777" fill="#ffdf14" stroke="none" /><path d="M 113.34407831869373 83.78471172551755 l 11.893038157117335 -14.452031648144239 a39.71645199725663,39.71645199725663 0 0,0 0.5241483490364135,0.4389591686184378 l -12.140044043112866 14.24517132213198" fill="#ff1602" stroke="none" /><path d="M 113.6212207817346 84.01681056812373 l 25.877669090684595 -30.364949938000336 a60.895913854732534,60.895913854732534 0 0,0 0.7919548433714232,0.6867754361190815 l -26.396517732702783 29.915009508461583" fill="#7dff26" stroke="none" /><path d="M 113.89432698308785 84.25364557470407 l 31.354797342109244 -35.53419697716479 a68.38989840859219,68.38989840859219 0 0,0 0.8760062491113231,0.786487059802003 l -31.961814578816558 34.98921090859349" fill="#33ff4e" stroke="none" /><path d="M 114.42810811169701 84.74124197986012 l 28.368760938143815 -30.001997152724357 a62.290512594512975,62.290512594512975 0 0,0 0.7727486807067776,0.7433836185919428 l -28.88099286246301 29.50923044737011" fill="#69ff28" stroke="none" /><path d="M 114.94478906791727 85.2469230424477 l 42.74328621008464 -42.19497431581639 a81.06167141821493,81.06167141821493 0 0,0 0.971719978091475,1.0014428540208045 l -43.463270451879225 41.452967266245466" fill="#48f7ff" stroke="none" /><path d="M 115.4437574822437 85.77008943001954 l 27.18271047697288 -25.046206506526875 a57.962307953407354,57.962307953407354 0 0,0 0.6697582204507634,0.739563755216169 l -27.609812338039678 24.57458996404116" fill="#a9ff21" stroke="none" /><path d="M 115.68641384162765 86.03803664274999 l 34.45880746199032 -30.67065627467348 a67.13131873274043,67.13131873274043 0 0,0 0.7608476222448113,0.8697803580362052 l -34.98164694781298 30.072960360434326" fill="#30ff39" stroke="none" /><path d="M 115.9244219780498 86.31012108654704 l 36.02269668949267 -30.967928160591917 a68.50418140903776,68.50418140903776 0 0,0 0.7610142121181737,0.9008007909090436 l -36.55042151509796 30.343268420053768" fill="#33ff50" stroke="none" /><path d="M 116.38621287248628 86.86637796730983 l 39.85651525694463 -31.945173115857077 a72.07872251563403,72.07872251563403 0 0,0 0.7676243888867389,0.9748050204089739 l -40.40049372642534 31.254375701495064" fill="#39ff88" stroke="none" /><path d="M 116.82858285166822 87.43820079747576 l 30.547493082640802 -22.802364145985887 a59.11951133317596,59.11951133317596 0 0,0 0.6017166619916231,0.8207408507337882 l -30.93547235714605 22.273160851580606" fill="#98ff23" stroke="none" /><path d="M 117.04232023915458 87.72973835380427 l 30.34476974575326 -21.8478622129464 a58.391631873972464,58.391631873972464 0 0,0 0.5802665086264477,0.8207458253132413 l -30.71634887418359 21.322289887301363" fill="#a3ff22" stroke="none" /><path d="M 117.45458315368197 88.32363383020206 l 32.62117296899599 -21.82216310298784 a60.247263960263,60.247263960263 0 0,0 0.5692028514378766,0.8669349935028753 l -32.991972455791796 21.257410045507292" fill="#87ff25" stroke="none" /><path d="M 117.65298651832404 88.62581576622439 l 33.65774417753044 -21.68638053233301 a61.03926627341261,61.03926627341261 0 0,0 0.5614810375913467,0.8881281615066734 l -34.02605281136774 21.10380472311213" fill="#7bff26" stroke="none" /><line stroke="#e1ed5e" stroke-width="0.3" x1="172.23445277983987" x2="176.4835382374775" y1="55.19839476539836" y2="52.563006222186495" /><path d="M 173.08426987136738 54.67131705675599 a86.0,86.0 0 0,1 12.851231095245387,41.99856678651699" fill="none" id="id15" stroke="none" /><text fill="#e1ed5e" style="font-size:6.75px; font-family:Arial;" text-anchor="middle"><textPath startOffset="22.20632615414155" xlink:href="#id15">March</textPath></text><line stroke="#e1ed5e" stroke-width="0.3" x1="184.98032266829074" x2="189.97916517819016" y1="98.17113171792111" y2="98.06355123074" /><path d="M 185.9800911702706 98.14961562048488 a86.0,86.0 0 0,1 -9.607161424134198,41.387399972396054" fill="none" id="id16" stroke="none" /><text fill="#e1ed5e" style="font-size:6.75px; font-family:Arial;" text-anchor="middle"><textPath startOffset="21.466115282336823" xlink:href="#id16">April</textPath></text><line stroke="#e1ed5e" stroke-width="0.3" x1="174.80103733775053" x2="179.2010983576182" y1="140.37084112569926" y2="142.7455964860345" /><path d="M 175.68104954172406 140.8457921977663 a86.0,86.0 0 0,1 -30.038265399797805,32.042727171017184" fill="none" id="id17" stroke="none" /><text fill="#e1ed5e" style="font-size:6.75px; font-family:Arial;" text-anchor="middle"><textPath startOffset="22.206326154141568" xlink:href="#id17">May</textPath></text><line stroke="#e1ed5e" stroke-width="0.3" x1="143.8653032363475" x2="146.44561519142675" y1="172.8068346515853" y2="177.08958963109032" /><path d="M 144.38136562736335 173.6633856474863 a86.0,86.0 0 0,1 -40.68145358897372,12.25698825130547" fill="none" id="id18" stroke="none" /><text fill="#e1ed5e" style="font-size:6.75px; font-family:Arial;" text-anchor="middle"><textPath startOffset="21.466115282336833" xlink:href="#id18">June</textPath></text><line stroke="#e1ed5e" stroke-width="0.3" x1="102.19456741930631" x2="102.32365962044197" y1="184.97166512339345" y2="189.96999836594603" /><path d="M 102.22038585953345 185.97133177190398 a86.0,86.0 0 0,1 -42.740103519485714,-10.115201625700543" fill="none" id="id19" stroke="none" /><text fill="#e1ed5e" style="font-size:6.75px; font-family:Arial;" text-anchor="middle"><textPath startOffset="22.20632615414155" xlink:href="#id19">July</textPath></text><line stroke="#e1ed5e" stroke-width="0.3" x1="58.666819895761336" x2="56.23545636021788" y1="174.27360380694188" y2="178.64263932499728" /><path d="M 58.180547188652646 175.14741091055294 a86.0,86.0 0 0,1 -31.652253787137756,-30.449443065178592" fill="none" id="id20" stroke="none" /><text fill="#e1ed5e" style="font-size:6.75px; font-family:Arial;" text-anchor="middle"><textPath startOffset="22.20632615414155" xlink:href="#id20">August</textPath></text><line stroke="#e1ed5e" stroke-width="0.3" x1="26.63291911575756" x2="22.317208475507996" y1="142.92168965132927" y2="145.44649492493687" /><path d="M 25.769776987707644 143.4266507060508 a86.0,86.0 0 0,1 -11.730757126820373,-40.83630448921669" fill="none" id="id21" stroke="none" /><text fill="#e1ed5e" style="font-size:6.75px; font-family:Arial;" text-anchor="middle"><textPath startOffset="21.46611528233685" xlink:href="#id21">September</textPath></text><line stroke="#e1ed5e" stroke-width="0.3" x1="15.007084014347285" x2="10.007500721073583" y1="101.09737516637583" y2="101.16192664675087" /><path d="M 14.007167355692545 101.11028546245083 a86.0,86.0 0 0,1 10.666146001902534,-42.60595125391555" fill="none" id="id22" stroke="none" /><text fill="#e1ed5e" style="font-size:6.75px; font-family:Arial;" text-anchor="middle"><textPath startOffset="22.20632615414155" xlink:href="#id22">October</textPath></text><line stroke="#e1ed5e" stroke-width="0.3" x1="26.266209847984243" x2="21.928928074336255" y1="57.711370442889674" y2="55.22380399835377" /><path d="M 25.398753493254645 57.213857153982495 a86.0,86.0 0 0,1 29.58750427330803,-30.492523968695096" fill="none" id="id23" stroke="none" /><text fill="#e1ed5e" style="font-size:6.75px; font-family:Arial;" text-anchor="middle"><textPath startOffset="21.46611528233685" xlink:href="#id23">November</textPath></text><line stroke="#e1ed5e" stroke-width="0.3" x1="56.762969772571076" x2="54.21961505331055" y1="26.818313649435495" y2="22.513508569990535" /><path d="M 56.25429882871897 25.957352633546506 a86.0,86.0 0 0,1 42.265352541879196,-11.944610805530505" fill="none" id="id24" stroke="none" /><text fill="#e1ed5e" style="font-size:6.75px; font-family:Arial;" text-anchor="middle"><textPath startOffset="22.20632615414155" xlink:href="#id24">December</textPath></text></svg>