<?xml version="1.0" encoding="utf-8" ?>
<svg baseProfile="full" height="200mm" version="1.1" viewBox="0,0,200,200" width="200mm" xmlns="http://www.w3.org/2000/svg" xmlns:ev="http://www.w3.org/2001/xml-events" xmlns:xlink="http://www.w3.org/1999/xlink"><defs /><rect fill="#1a1a1a" height="200" width="200" x="0" y="0" /><text alignment-baseline="middle" fill="#e1ed5e" style="dominant-baseline: central; font-size:9.0px; font-family:Arial;" text-anchor="middle" x="100.0" y="100.0">2025</text><line stroke="#e1ed5e" stroke-width="0.3" x1="100.0" x2="100.0" y1="15.0" y2="10.0" /><path d="M 100.0 14.0 a86.0,86.0 0 0,1 42.46469731375804,11.215312516191453" fill="none" id="id13" stroke="none" /><text fill="#e1ed5e" style="font-size:6.75px; font-family:Arial;" text-anchor="middle"><textPath startOffset="22.20632615414155" xlink:href="#id13">January</textPath></text><path d="M 100.0 79.0 l 0.0 -43.37955191092297 a64.37955191092297,64.37955191092297 0 0,0 1.1081881561957645,0.00953852532786415 l -0.7467076769232361 43.373124762203666" fill="#36ff2f" stroke="none" /><path d="M 100.72285384407766 79.0124445844662 l 1.0175824957623298 -29.54479552770369 a50.562314133191634,50.562314133191634 0 0,0 0.8695734897529823,0.03744566366518897 l -1.5259968179046437 29.522902137514308" fill="#f2ff19" stroke="none" /><path d="M 101.08401301168833 79.027996857942 l 0.9720623904429873 -18.80613543087992 a39.83124093456166,39.83124093456166 0 0,0 0.6844106367144291,0.04128551865099089 l -1.2956350759970283 18.786616642848625" fill="#ff5f08" stroke="none" /><path d="M 102.16513564639614 79.11191278185805 l 2.7744910440522546 -26.7668268316497 a47.9102363272612,47.9102363272612 0 0,0 0.8195691491176265,0.09208814325467057 l -3.2348268966796065 26.71510273492443" fill="#ffe415" stroke="none" /><path d="M 102.52436894288641 79.15227682838746 l 3.8842889149331445 -32.07874199422576 a53.31305290910743,53.31305290910743 0 0,0 0.9100925831522353,0.11815613712518855 l -4.435896226593226 32.00712753393643" fill="#c9ff1d" stroke="none" /><path d="M 102.88285421437855 79.19881850522331 l 3.829781241774519 -27.633716022860234 a48.897840159982465,48.897840159982465 0 0,0 0.8327325919643405,0.1227231375736364 l -4.304882814167516 27.56369840112563" fill="#fff316" stroke="none" /><path d="M 103.2404852339499 79.25152402106235 l 4.2471160424748104 -27.19382401864437 a48.523481964229134,48.523481964229134 0 0,0 0.8241385158613133,0.1359899166084098 l -4.714583764474999 27.116687839096336" fill="#ffed16" stroke="none" /><path d="M 103.95276090670814 79.375362276772 l 5.333685141524917 -27.829996898377622 a49.33649457065273,49.33649457065273 0 0,0 0.8326909959515297,0.1670299802377 l -5.811942546943572 27.734062962062715" fill="#fffa17" stroke="none" /><path d="M 104.66035177308747 79.52364482259891 l 8.68442308151688 -38.15706199580524 a60.132858117067144,60.132858117067144 0 0,0 1.0073007200394082,0.23839553585233275 l -9.339947488518812 38.00192054781204" fill="#6bff28" stroke="none" /><path d="M 105.01212808612495 79.60689891045804 l 6.749099161906262 -27.460403865797392 a49.277625783823225,49.277625783823225 0 0,0 0.8219768713704239,0.2095402065908171 l -7.220784921961711 27.340160663037707" fill="#fff917" stroke="none" /><path d="M 105.36241919743992 79.69619591428918 l 10.307306211179192 -39.02670012503385 a61.364884292913935,61.364884292913935 0 0,0 1.0189554609753257,0.27851901875008894 l -10.977559561378229 38.84349456545746" fill="#5cff2a" stroke="none" /><path d="M 106.0581310904928 79.89281104454417 l 10.102483151252091 -33.53056158859235 a56.019404995912154,56.019404995912154 0 0,0 0.9208913341252926,0.2861254201820472 l -10.678159858088101 33.35169603352779" fill="#a3ff22" stroke="none" /><path d="M 106.74666289553966 80.11325718540242 l 9.999366183589238 -29.474545665159884 a52.124526763327715,52.124526763327715 0 0,0 0.8471923340004416,0.2955687702752144 l -10.505240521652953 29.29805604171246" fill="#dbff1b" stroke="none" /><path d="M 107.08798089147638 80.2323363322302 l 8.167143354090891 -22.777338909628746 a45.19730146876628,45.19730146876628 0 0,0 0.73008207074241,0.268895388070479 l -8.558007750605876 22.63338025375194" fill="#ffb911" stroke="none" /><path d="M 107.4271985657038 80.35727306442388 l 20.40921553585118 -53.97629324079527 a78.70594692754942,78.70594692754942 0 0,0 1.2631061490108042,0.4900655622847851 l -21.335304849861654 53.61698497461994" fill="#45ffed" stroke="none" /><path d="M 108.43124777332544 80.76684994638697 l 17.36408272418973 -39.610508142612524 a64.24932050528051,64.24932050528051 0 0,0 1.009074989476213,0.452742533948041 l -18.04333983213272 39.305745278147945" fill="#37ff2e" stroke="none" /><path d="M 110.05341064243156 81.56283822128135 l 7.728109473180367 -14.172742929578847 a37.1428101078278,37.1428101078278 0 0,0 0.5586913798683109,0.3109111480143924 l -7.970924942120712 14.037616384004275" fill="#ff3004" stroke="none" /><line stroke="#e1ed5e" stroke-width="0.3" x1="143.23703022742887" x2="145.7803849466894" y1="26.81831364943548" y2="22.513508569990506" /><path d="M 143.74570117128098 25.957352633546492 a86.0,86.0 0 0,1 28.547481713284135,27.462654790039103" fill="none" id="id14" stroke="none" /><text fill="#e1ed5e" style="font-size:6.75px; font-family:Arial;" text-anchor="middle"><textPath startOffset="19.985693538727396" xlink:href="#id14">February</textPath></text><path d="M 111.90073688211348 82.69761687909136 l 10.135743217202796 -14.736273400244203 a38.885498156098905,38.885498156098905 0 0,0 0.5482278631332498,0.38406865305952126 l -10.387902219919695 14.559619904420746" fill="#ff4f07" stroke="none" /><path d="M 112.19680574252982 82.90503203632743 l 15.78112401455506 -22.118726423497687 a48.17134398148721,48.17134398148721 0 0,0 0.6708540554723175,0.4874040013855032 l -16.159523386381167 21.84380318729551" fill="#ffe815" stroke="none" /><path d="M 113.34407831869373 83.78471172551755 l 10.89363537622116 -13.237590020366286 a38.1436600892971,38.1436600892971 0 0,0 0.5033918050734292,0.42157615997568676 l -11.119884718253708 13.04811270299678" fill="#ff4206" stroke="none" /><path d="M 113.6212207817346 84.01681056812373 l 23.703101573900494 -27.81330459650702 a57.543356944877445,57.543356944877445 0 0,0 0.748354648968039,0.648965777175917 l -24.1783500215153 27.40117382591143" fill="#8eff24" stroke="none" /><path d="M 113.89432698308785 84.25364557470407 l 28.71997256107656 -32.548166426624725 a64.40760257885998,64.40760257885998 0 0,0 0.824997019476072,0.7406904697898972 l -29.27598056814862 32.04897694806553" fill="#36ff2f" stroke="none" /><path d="M 114.42810811169701 84.74124197986012 l 25.98486052534705 -27.4808516732635 a58.820763942702804,58.820763942702804 0 0,0 0.7297045062186933,0.7019751568382604 l -26.45404827517816 27.02949342966294" fill="#7dff26" stroke="none" /><path d="M 114.94478906791727 85.2469230424477 l 39.151457230923796 -38.6492214044097 a76.01453370221306,76.01453370221306 0 0,0 0.911217838609116,0.9390900809960282 l -39.81093933323602 37.96956712786356" fill="#41ffcb" stroke="none" /><path d="M 115.4437574822437 85.77008943001954 l 24.898476954462517 -22.941508942890206 a54.856269540937504,54.856269540937504 0 0,0 0.6338677455328261,0.6999325963945019 l -25.28968834061138 22.509523559226157" fill="#b3ff20" stroke="none" /><path d="M 115.68641384162765 86.03803664274999 l 31.56314467600409 -28.09332163840347 a63.25478461094263,63.25478461094263 0 0,0 0.7169120669064315,0.8195544232557459 l -32.04204860648837 27.545851658944777" fill="#44ff2d" stroke="none" /><path d="M 115.9244219780498 86.31012108654704 l 32.995616243667854 -28.3656129982743 a64.51228208296212,64.51228208296212 0 0,0 0.7166681290323939,0.8483090160101203 l -33.47899498618737 27.793445032635073" fill="#34ff2f" stroke="none" /><path d="M 116.38621287248628 86.86637796730983 l 36.50726911324303 -29.260737530397254 a67.78644524784445,67.78644524784445 0 0,0 0.7219124700343376,0.9167555255844639 l -37.00553566387133 28.62798961085975" fill="#34ff5a" stroke="none" /><path d="M 116.82858285166822 87.43820079747576 l 27.980508168199254 -20.886222463982815 a55.91623012533921,55.91623012533921 0 0,0 0.5691137592893745,0.7762705280878001 l -28.335884540002255 20.40148949222352" fill="#a4ff21" stroke="none" /><path d="M 117.04232023915458 87.72973835380427 l 27.794820198049916 -20.011929799058684 a55.24951626117333,55.24951626117333 0 0,0 0.5490417526498588,0.7765806223707635 l -28.135174570503658 19.530522676356128" fill="#aeff20" stroke="none" /><path d="M 117.45458315368197 88.32363383020206 l 29.87993136608401 -19.98839025183085 a56.94921478003904,56.94921478003904 0 0,0 0.5380436107659018,0.8194773322468315 l -30.219571612207837 19.471094855606346" fill="#96ff23" stroke="none" /><path d="M 117.65298651832404 88.62581576622439 l 30.829396812850906 -19.864017842054757 a57.67466308875504,57.67466308875504 0 0,0 0.5305311097409269,0.8391728082885594 l -31.16675551883779 19.33039738605199" fill="#8cff24" stroke="none" /><line stroke="#e1ed5e" stroke-width="0.3" x1="172.23445277983987" x2="176.4835382374775" y1="55.19839476539836" y2="52.563006222186495" /><path d="M 173.08426987136738 54.67131705675599 a86.0,86.0 0 0,1 12.851231095245387,41.99856678651699" fill="none" id="id15" stroke="none" /><text fill="#e1ed5e" style="font-size:6.75px; font-family:Arial;" text-anchor="middle"><textPath startOffset="22.20632615414155" xlink:href="#id15">March</textPath></text><path d="M 117.84615892207809 88.93136811851018 l 26.36411903641088 -16.351682721641364 a52.02328642157802,52.02328642157802 0 0,0 0.4654454114212054,0.7650698757457973 l -26.64168024611831 15.895445072688485" fill="#dcff1b" stroke="none" /><path d="M 118.21658344932153 89.55222093294921 l 16.59613394171408 -9.51840070738783 a40.131952692752385,40.131952692752385 0 0,0 0.3385270837873644,0.6022019081906204 l -16.757518666793874 9.231315289262417" fill="#ff6509" stroke="none" /><path d="M 118.3937258080291 89.86733742301442 l 32.95474325103989 -18.153978000923562 a58.62422118795253,58.62422118795253 0 0,0 0.47930018893317705,0.8880704570100904 l -33.262351539191535 17.584026560581012" fill="#7fff26" stroke="none" /><path d="M 119.04729006885535 91.15688171328212 l 33.4591671557212 -15.534145375195072 a57.8893689196791,57.8893689196791 0 0,0 0.41183512328829003,0.9074241033514615 l -33.721604595972835 14.955899263001548" fill="#89ff24" stroke="none" /><path d="M 119.196687751892 91.48605970444005 l 25.13945202633126 -11.149621037836729 a48.50101993511481,48.50101993511481 0 0,0 0.33190700698958764,0.7660871333761816 l -25.327649743163526 10.715234759873946" fill="#ffed16" stroke="none" /><path d="M 119.47837535516314 92.15188598940014 l 37.39757154147824 -15.068012594761274 a61.31901983872956,61.31901983872956 0 0,0 0.3860366636958105,0.9824212020740809 l -37.65140175505576 14.422042387791409" fill="#5cff2a" stroke="none" /><path d="M 119.61058180528143 92.48833698450437 l 25.099245058568904 -9.614047798038184 a47.87753741645723,47.87753741645723 0 0,0 0.2881667163467593,0.7721435323317359 l -25.261016363417287 9.180581128677115" fill="#ffe315" stroke="none" /><path d="M 119.85752413597 93.16781622104841 l 16.000056501329627 -5.504982682744366 a37.920598168594864,37.920598168594864 0 0,0 0.20705135275258796,0.6190571907366267 l -16.092445147853986 5.228752389085425" fill="#ff3e05" stroke="none" /><path d="M 120.08093135843002 93.85539295169968 l 54.718715279173495 -16.743496483154885 a78.22309390695924,78.22309390695924 0 0,0 0.382898703014902,1.2909440774246972 l -54.9988198793001 15.799123018983657" fill="#44ffe7" stroke="none" /><path d="M 120.37134235888165 94.90015583598534 l 17.349841908496057 -4.343429531782601 a38.885256339996005,38.885256339996005 0 0,0 0.15696163290865137,0.6507073023135383 l -17.422036341665528 4.044136997809656" fill="#ff4f07" stroke="none" /><path d="M 120.53481517161879 95.60439243477599 l 36.752213121352774 -7.86704456235963 a58.58477829472308,58.58477829472308 0 0,0 0.2025937070679332,0.9879188653538479 l -36.8821861243357 7.23325004084237" fill="#80ff26" stroke="none" /><path d="M 120.67395015179393 96.31383870115 l 40.88658096606505 -7.2900694493707 a62.53140517332926,62.53140517332926 0 0,0 0.17981691214009762,1.061289594302623 l -41.006009739725364 6.585194066752238" fill="#4dff2c" stroke="none" /><path d="M 120.78858239683441 97.02765380044208 l 26.798000805679653 -3.8315713082312417 a48.07053353503156,48.07053353503156 0 0,0 0.11006778951375115,0.8201328787032027 l -26.85998459425124 3.3697200874633744" fill="#ffe615" stroke="none" /><path d="M 120.83666639777658 97.38593545837742 l 26.787337514915595 -3.360606146177449 a47.997316992763004,47.997316992763004 0 0,0 0.09578812437816861,0.820654152850405 l -26.841215992297354 2.899008255002191" fill="#ffe515" stroke="none" /><path d="M 120.87857604477298 97.74499172005257 l 27.783654159057814 -3.000797087000404 a48.945236116151904,48.945236116151904 0 0,0 0.08326021515385411,0.8384190041156603 l -27.831191499893897 2.522102552180309" fill="#fff417" stroke="none" /><path d="M 120.94382443527127 98.46500227214037 l 46.260815330099355 -3.3905100112016324 a67.38489617474221,67.38489617474221 0 0,0 0.07482742638208621,1.1575471667280273 l -46.31232334748586 2.59370378022057" fill="#33ff54" stroke="none" /><path d="M 120.96714384426684 98.82574320788733 l 27.47728061570959 -1.5388544873557126 a48.520338354891365,48.520338354891365 0 0,0 0.039524186502003754,0.8342931087069211 l -27.499698410445088 1.0656502720257919" fill="#ffed16" stroke="none" /><line stroke="#e1ed5e" stroke-width="0.3" x1="184.98032266829074" x2="189.97916517819016" y1="98.17113171792111" y2="98.06355123074" /><path d="M 185.9800911702706 98.14961562048488 a86.0,86.0 0 0,1 -9.607161424134198,41.387399972396054" fill="none" id="id16" stroke="none" /><text fill="#e1ed5e" style="font-size:6.75px; font-family:Arial;" text-anchor="middle"><textPath startOffset="21.466115282336823" xlink:href="#id16">April</textPath></text><path d="M 120.99513854157772 99.54816195383933 l 18.90824725206184 -0.4069258927620498 a39.912625487417245,39.912625487417245 0 0,0 0.008870092336336245,0.6869984266339612 l -18.912450351515893 0.08139120806762591" fill="#ff6108" stroke="none" /><path d="M 120.99980553446 99.90962569577887 l 27.741450667342683 -0.11938750090003485 a48.74170756287325,48.74170756287325 0 0,0 -0.003610838408086352,0.8390316809593552 l -27.739395531645094 -0.35815365826300505" fill="#fff116" stroke="none" /><path d="M 120.99824983174949 100.27111621757518 l 32.508444510985406 0.419728624323013 a53.51115403429865,53.51115403429865 0 0,0 -0.019819352463413587,0.920927430324734 l -32.49640309583699 -0.9792458704378618" fill="#c6ff1e" stroke="none" /><path d="M 120.95626037817324 101.35467743843564 l 17.84580560371559 1.153608028617614 a38.88305312661397,38.88305312661397 0 0,0 -0.0489249558686917,0.6675421517698851 l -17.82330408918256 -1.4606233168842695" fill="#ff4f07" stroke="none" /><path d="M 120.92983693683757 101.71520430193887 l 29.75058426961234 2.438066301157919 a50.85031711175188,50.85031711175188 0 0,0 -0.07900057739093569,0.8717647884970369 l -29.70420909594433 -2.9498124782035267" fill="#edff19" stroke="none" /><path d="M 120.89721153311464 102.0752229133903 l 43.19698071744896 4.289728513877375 a64.40945650231559,64.40945650231559 0 0,0 -0.11905842204704761,1.1023331224920838 l -43.11673999390086 -5.03265795825425" fill="#36ff2f" stroke="none" /><path d="M 120.76222939487914 103.15116336523771 l 19.2914559618584 2.927938427657399 a40.512383159534224,40.512383159534224 0 0,0 -0.11057612996894213,0.6885576668697613 l -19.238198077528168 -3.259575324220365" fill="#ff6b09" stroke="none" /><path d="M 120.49622156327973 104.57218783832717 l 18.36802999089832 4.097442208024972 a39.81949941934282,39.81949941934282 0 0,0 -0.1549915879745601,0.6676997044876775 l -18.294777836993205 -4.413010569861215" fill="#ff5f08" stroke="none" /><path d="M 120.41448212921028 104.9243191809786 l 29.95624222978067 7.225953480890803 a51.81543204690294,51.81543204690294 0 0,0 -0.2166099370776759,0.8652490242116603 l -29.827420978407932 -7.740530344499859" fill="#dfff1b" stroke="none" /><path d="M 120.13307415673323 105.97154293290107 l 26.096250101206575 7.740242580637509 a48.21994901817118,48.21994901817118 0 0,0 -0.2428752208210335,0.7937302743093663 l -25.959148107879408 -8.188299827498932" fill="#ffe915" stroke="none" /><path d="M 119.9155931802556 106.66101706037122 l 26.11485142462242 8.734435841003513 a48.5368087183448,48.5368087183448 0 0,0 -0.2718273210491373,0.7900574345173087 l -25.96063327263005 -9.182665978610123" fill="#ffed16" stroke="none" /><path d="M 119.79798401119884 107.00284435728193 l 35.151641013613975 12.433663487259306 a58.28583985462033,58.28583985462033 0 0,0 -0.3427089118562025,0.9429877378073857 l -34.932407840752546 -13.036899022072822" fill="#84ff25" stroke="none" /><path d="M 119.67450827220406 107.3425965602758 l 34.933339225291846 13.037246618100124 a58.286833987487825,58.286833987487825 0 0,0 -0.35889624090313277,0.9369648341945154 l -34.70374870479521 -13.636635019127784" fill="#84ff25" stroke="none" /><path d="M 119.41010516605496 108.01547362559984 l 25.744614121369978 10.63133217083064 a48.85337286550376,48.85337286550376 0 0,0 -0.327664268264404,0.7745015397169341 l -25.557798871913267 -11.072908236213738" fill="#fff216" stroke="none" /><path d="M 119.26925614724726 108.34839909993367 l 52.298671889340916 22.658382969862203 a77.99608232324287,77.99608232324287 0 0,0 -0.5443343438335627,1.2273302452747088 l -51.90089646077608 -23.5552615516296" fill="#44ffe5" stroke="none" /><path d="M 118.97047184881838 109.00673069616215 l 24.844565147661747 11.795611059731414 a48.502524568644,48.502524568644 0 0,0 -0.36456978805358403,0.7511217453946949 l -24.63784210299345 -12.221521761091383" fill="#ffed16" stroke="none" /><path d="M 118.81262510543309 109.33194174019688 l 27.390562821035125 13.586999955858529 a51.575308656717944,51.575308656717944 0 0,0 -0.4013574069935524,0.7919162407853463 l -27.152626744255304 -14.05647040834657" fill="#e3ff1b" stroke="none" /><path d="M 118.64920377521936 109.65438752849418 l 26.842389545920383 13.895865688993375 a51.22596499338738,51.22596499338738 0 0,0 -0.41211896663772524,0.7795737737909484 l -26.599218071057766 -14.355854477870459" fill="#e8ff1a" stroke="none" /><line stroke="#e1ed5e" stroke-width="0.3" x1="174.80103733775053" x2="179.2010983576182" y1="140.37084112569926" y2="142.7455964860345" /><path d="M 175.68104954172406 140.8457921977663 a86.0,86.0 0 0,1 -30.038265399797805,32.042727171017184" fill="none" id="id17" stroke="none" /><text fill="#e1ed5e" style="font-size:6.75px; font-family:Arial;" text-anchor="middle"><textPath startOffset="22.206326154141568" xlink:href="#id17">May</textPath></text><path d="M 118.30583269289576 110.29060199501025 l 32.29628754095185 18.15531948619433 a58.04950491671419,58.04950491671419 0 0,0 -0.49714702779112746,0.866817747601511 l -31.978988517008343 -18.708557079654156" fill="#87ff25" stroke="none" /><path d="M 117.94076556474637 110.91462005526583 l 25.61433270145163 15.582986600910282 a50.982053150923534,50.982053150923534 0 0,0 -0.46256589845610874,0.7458035124997299 l -25.34230216332756 -16.021586444775284" fill="#ebff1a" stroke="none" /><path d="M 117.75023020441432 111.22182372390056 l 47.93528942752116 30.30503615530687 a77.71143790166741,77.71143790166741 0 0,0 -0.7245486476725161,1.124515591302955 l -47.4065359164716 -31.125673346531276" fill="#43ffe1" stroke="none" /><path d="M 117.14729908036423 112.12312394758627 l 21.95581227602399 15.522738149296988 a47.88890277329378,47.88890277329378 0 0,0 -0.48167161841331824,0.6689997497858343 l -21.68536086523507 -15.898371504533953" fill="#ffe315" stroke="none" /><path d="M 116.93607887273984 112.41649034213515 l 15.261602431543311 11.188867306338187 a39.92372215969502,39.92372215969502 0 0,0 -0.4110978623156921,0.5507327672243906 l -15.066743302532528 -11.449912953071893" fill="#ff6108" stroke="none" /><path d="M 116.71984013943494 112.70617746262583 l 36.726820629514734 27.91040444555426 a67.12862484257431,67.12862484257431 0 0,0 -0.7070663897477739,0.9139786222575136 l -36.24094742254889 -28.538461061925027" fill="#33ff50" stroke="none" /><path d="M 116.498646956653 112.99209946851258 l 14.892687282879278 11.727463169614463 a39.955883701381424,39.955883701381424 0 0,0 -0.4301576006143687,0.5366877465211494 l -14.688611770210056 -11.982078749713864" fill="#ff6209" stroke="none" /><path d="M 115.80600337817218 113.82643327865902 l 22.641625256085995 19.805950526114326 a51.08186946451167,51.08186946451167 0 0,0 -0.5846226318673408,0.6568297244449258 l -22.297343774570315 -20.19275442030012" fill="#eaff1a" stroke="none" /><path d="M 115.56566222782051 114.09645910891815 l 22.449239223623145 20.33031284570248 a51.286795177496,51.286795177496 0 0,0 -0.5982326048150157,0.6492633401522984 l -22.095960210812407 -20.71372744065611" fill="#e7ff1a" stroke="none" /><path d="M 115.07121518719521 114.62390073753431 l 34.74140784150897 33.710281052059884 a69.40814463929524,69.40814463929524 0 0,0 -0.8393737632690665,0.8502811906487463 l -34.15599345318437 -34.3033027366893" fill="#36ff71" stroke="none" /><path d="M 114.55890576462653 115.13401014063108 l 20.777537755253455 21.59828988311452 a50.96985487195475,50.96985487195475 0 0,0 -0.6375216381506488,0.6028165009657479 l -20.402680282711998 -21.952741020826192" fill="#ecff1a" stroke="none" /><path d="M 114.0293411484842 115.62618273729858 l 12.571640263205232 14.002564053526516 a39.8180216542695,39.8180216542695 0 0,0 -0.5139513934057539,0.45350234857672145 l -12.32874651689289 -14.216889543875526" fill="#ff5f08" stroke="none" /><path d="M 112.34349029814194 116.9893568818739 l 7.908333098822779 10.884886698283442 a34.45445988646158,34.45445988646158 0 0,0 -0.48280980849106975,0.34447197896289417 l -7.719795962482825 -11.019402939090554" fill="#ff0000" stroke="none" /><line stroke="#e1ed5e" stroke-width="0.3" x1="143.8653032363475" x2="146.44561519142675" y1="172.8068346515853" y2="177.08958963109032" /><path d="M 144.38136562736335 173.6633856474863 a86.0,86.0 0 0,1 -40.68145358897372,12.25698825130547" fill="none" id="id18" stroke="none" /><text fill="#e1ed5e" style="font-size:6.75px; font-family:Arial;" text-anchor="middle"><textPath startOffset="21.466115282336833" xlink:href="#id18">June</textPath></text><path d="M 109.89434966115114 118.52300852407294 l 13.616778772457002 25.4916915118696 a49.90057093336324,49.90057093336324 0 0,0 -0.7611241351941984,0.3981841745854312 l -13.175963734736309 -25.722305105399748" fill="#fcff18" stroke="none" /><path d="M 109.2508944713604 118.85261126421891 l 11.853588725065086 24.156701928815497 a47.9082480615262,47.9082480615262 0 0,0 -0.7434614829311331,0.3569066918868579 l -11.43601457413372 -24.357162897201917" fill="#ffe415" stroke="none" /><path d="M 108.2653958097858 119.30500536409082 l 14.331069592853446 33.472247637026875 a57.41113727349998,57.41113727349998 0 0,0 -0.9118215630200647,0.38114148729330544 l -13.75277657033592 -33.71397416734015" fill="#90ff24" stroke="none" /><path d="M 107.59598834532513 119.57807347666477 l 13.732197144928907 35.393677883263905 a58.96426836554918,58.96426836554918 0 0,0 -0.9494083354988122,0.35898499484369956 l -13.12091858866982 -35.62481112821424" fill="#7bff26" stroke="none" /><path d="M 107.2578585660854 119.70592522655815 l 10.330157647664702 28.047572480216203 a50.889437583510784,50.889437583510784 0 0,0 -0.8246038181058446,0.2956735911741724 l -9.845834268929123 -28.22123361243034" fill="#edff1a" stroke="none" /><path d="M 106.2309692047433 120.05430185196036 l 16.86568384124454 54.28200711288575 a77.8417767811334,77.8417767811334 0 0,0 -1.282999379904118,0.3865571885607142 l -15.928809486900175 -54.564279670552196" fill="#43ffe3" stroke="none" /><path d="M 105.18746579009965 120.34920634021253 l 8.187313157349603 32.116900920833515 a54.14404051251366,54.14404051251366 0 0,0 -0.9050994082213536,0.22245141358161255 l -7.633260464385038 -32.25307359272916" fill="#bdff1f" stroke="none" /><path d="M 104.83641907484287 120.43548508189849 l 5.096711391834198 21.535307011821306 a43.13020368421973,43.13020368421973 0 0,0 -0.7239298929175809,0.16476408671466175 l -4.725261349523755 -21.619847832113653" fill="#ff970d" stroke="none" /><path d="M 104.48393922423573 120.51570834832081 l 6.316578374800937 28.900721712795807 a50.58294910730622,50.58294910730622 0 0,0 -0.852222823821341,0.17859157873907136 l -5.818164089550217 -29.00516927226142" fill="#f1ff19" stroke="none" /><path d="M 103.7750983002368 120.6578951692458 l 11.32529490071043 61.973685507737414 a84.0,84.0 0 0,0 -1.4246041141118002,0.24768568591597528 l -10.256841815126581 -62.15944977217439" fill="#4dd2ff" stroke="none" /><path d="M 103.06178313531738 120.77559828337769 l 4.386076940544477 29.761537159715488 a51.08299793965857,51.08299793965857 0 0,0 -0.8710171923168467,0.12071504612838305 l -3.8731311570408 -29.83262677133647" fill="#eaff1a" stroke="none" /><line stroke="#e1ed5e" stroke-width="0.3" x1="102.19456741930631" x2="102.32365962044197" y1="184.97166512339345" y2="189.96999836594603" /><path d="M 102.22038585953345 185.97133177190398 a86.0,86.0 0 0,1 -42.740103519485714,-10.115201625700543" fill="none" id="id19" stroke="none" /><text fill="#e1ed5e" style="font-size:6.75px; font-family:Arial;" text-anchor="middle"><textPath startOffset="22.20632615414155" xlink:href="#id19">July</textPath></text><line stroke="#e1ed5e" stroke-width="0.3" x1="58.666819895761336" x2="56.23545636021788" y1="174.27360380694188" y2="178.64263932499728" /><path d="M 58.180547188652646 175.14741091055294 a86.0,86.0 0 0,1 -31.652253787137756,-30.449443065178592" fill="none" id="id20" stroke="none" /><text fill="#e1ed5e" style="font-size:6.75px; font-family:Arial;" text-anchor="middle"><textPath startOffset="22.20632615414155" xlink:href="#id20">August</textPath></text><line stroke="#e1ed5e" stroke-width="0.3" x1="26.63291911575756" x2="22.317208475507996" y1="142.92168965132927" y2="145.44649492493687" /><path d="M 25.769776987707644 143.4266507060508 a86.0,86.0 0 0,1 -11.730757126820373,-40.83630448921669" fill="none" id="id21" stroke="none" /><text fill="#e1ed5e" style="font-size:6.75px; font-family:Arial;" text-anchor="middle"><textPath startOffset="21.46611528233685" xlink:href="#id21">September</textPath></text><line stroke="#e1ed5e" stroke-width="0.3" x1="15.007084014347285" x2="10.007500721073583" y1="101.09737516637583" y2="101.16192664675087" /><path d="M 14.007167355692545 101.11028546245083 a86.0,86.0 0 0,1 10.666146001902534,-42.60595125391555" fill="none" id="id22" stroke="none" /><text fill="#e1ed5e" style="font-size:6.75px; font-family:Arial;" text-anchor="middle"><textPath startOffset="22.20632615414155" xlink:href="#id22">October</textPath></text><line stroke="#e1ed5e" stroke-width="0.3" x1="26.266209847984243" x2="21.928928074336255" y1="57.711370442889674" y2="55.22380399835377" /><path d="M 25.398753493254645 57.213857153982495 a86.0,86.0 0 0,1 29.58750427330803,-30.492523968695096" fill="none" id="id23" stroke="none" /><text fill="#e1ed5e" style="font-size:6.75px; font-family:Arial;" text-anchor="middle"><textPath startOffset="21.46611528233685" xlink:href="#id23">November</textPath></text><line stroke="#e1ed5e" stroke-width="0.3" x1="56.762969772571076" x2="54.21961505331055" y1="26.818313649435495" y2="22.513508569990535" /><path d="M 56.25429882871897 25.957352633546506 a86.0,86.0 0 0,1 42.265352541879196,-11.944610805530505" fill="none" id="id24" stroke="none" /><text fill="#e1ed5e" style="font-size:6.75px; font-family:Arial;" text-anchor="middle"><textPath startOffset="22.20632615414155" xlink:href="#id24">December</textPath></text></svg>