<?xml version="1.0" encoding="utf-8" ?>
<svg baseProfile="full" height="200mm" version="1.1" viewBox="0,0,200,200" width="200mm" xmlns="http://www.w3.org/2000/svg" xmlns:ev="http://www.w3.org/2001/xml-events" xmlns:xlink="http://www.w3.org/1999/xlink"><defs /><rect fill="#1a1a1a" height="200" width="200" x="0" y="0" /><text alignment-baseline="middle" fill="#e1ed5e" style="dominant-baseline: central; font-size:9.0px; font-family:Arial;" text-anchor="middle" x="100.0" y="100.0">2025</text><line stroke="#e1ed5e" stroke-width="0.3" x1="100.0" x2="100.0" y1="15.0" y2="10.0" /><path d="M 100.0 14.0 a86.0,86.0 0 0,1 42.46469731375804,11.215312516191453" fill="none" id="id49" stroke="none" /><text fill="#e1ed5e" style="font-size:6.75px; font-family:Arial;" text-anchor="middle"><textPath startOffset="22.20632615414155" xlink:href="#id49">January</textPath></text><path d="M 100.0 79.0 l 0.0 -30.816947085123537 a51.81694708512354,51.81694708512354 0 0,0 0.8919435650842713,0.007677239861313621 l -0.530463085811743 30.812381221870783" fill="#bdff1f" stroke="none" /><path d="M 100.72285384407766 79.0124445844662 l 0.7228932652658296 -20.988699982140208 a42.00114524527791,42.00114524527791 0 0,0 0.7223380312133026,0.03110539510245613 l -1.0840721288684638 20.973146860513555" fill="#ffb710" stroke="none" /><path d="M 101.08401301168833 79.027996857942 l 0.6905556634432944 -13.35992777516827 a34.37776279061735,34.37776279061735 0 0,0 0.5907048328973424,0.03563292866529399 l -0.9204225451802488 13.346061577122672" fill="#ff4006" stroke="none" /><path d="M 102.16513564639614 79.11191278185805 l 1.971005691074883 -19.01522375799163 a40.117102238590945,40.117102238590945 0 0,0 0.6862570896574479,0.07710898006586422 l -2.2980294842420563 18.978478824455166" fill="#ff9a0e" stroke="none" /><path d="M 102.52436894288641 79.15227682838746 l 2.7594089999045313 -22.788822176479513 a43.95527726297286,43.95527726297286 0 0,0 0.7503485477680821,0.09741677664781202 l -3.151272276180459 22.737947076667563" fill="#ffd313" stroke="none" /><path d="M 102.88285421437855 79.19881850522331 l 2.7206866063926793 -19.63106410574483 a40.81869858325888,40.81869858325888 0 0,0 0.6951444186622027,0.10244621736707547 l -3.058200005483538 19.581323404216786" fill="#ffa50f" stroke="none" /><path d="M 103.2404852339499 79.25152402106235 l 3.0171623398527814 -19.318563675935735 a40.55275354230727,40.55275354230727 0 0,0 0.6887610856756798,0.11365148066919793 l -3.349252631667336 19.263765932326912" fill="#ffa10e" stroke="none" /><path d="M 103.95276090670814 79.375362276772 l 3.7890638684466276 -19.77050255285148 a41.13031982337773,41.13031982337773 0 0,0 0.6941889016554876,0.1392477630819682 l -4.12881917956924 19.7023508336923" fill="#ffaa0f" stroke="none" /><path d="M 104.66035177308747 79.52364482259891 l 6.1694368608852 -27.106876596215393 a48.80008471179357,48.80008471179357 0 0,0 0.8174625655157746,0.19346697810136737 l -6.635123113363497 26.996663705973155" fill="#e6ff1a" stroke="none" /><path d="M 105.01212808612495 79.60689891045804 l 4.794577688856807 -19.507942696275652 a41.08849928331278,41.08849928331278 0 0,0 0.6853779083912469,0.17471808942464057 l -5.129664485933079 19.422521610682143" fill="#ffa90f" stroke="none" /><path d="M 105.36241919743992 79.69619591428918 l 7.322337278917183 -27.7246697967232 a49.6753193280137,49.6753193280137 0 0,0 0.8248518430078368,0.2254631676529267 l -7.7984870111487306 27.594520088243982" fill="#daff1c" stroke="none" /><path d="M 106.0581310904928 79.89281104454417 l 7.176830441673962 -23.820198611824278 a45.87787686068273,45.87787686068273 0 0,0 0.7541768648230549,0.2343264230453886 l -7.585792679207735 23.69313205389637" fill="#ffef16" stroke="none" /><path d="M 106.74666289553966 80.11325718540242 l 7.103575878266532 -20.93879429613416 a43.11094518183496,43.11094518183496 0 0,0 0.700692448209618,0.24445783672345903 l -7.462950330539424 20.813415606238493" fill="#ffc712" stroke="none" /><path d="M 107.08798089147638 80.2323363322302 l 5.801959990192123 -16.181081108429087 a38.18982622266295,38.18982622266295 0 0,0 0.616888763352438,0.2272053376811352 l -6.079631079317138 16.078812502941627" fill="#ff7c0b" stroke="none" /><path d="M 107.4271985657038 80.35727306442388 l 14.498760072688478 -38.34489982903348 a61.994455558575204,61.994455558575204 0 0,0 0.9949131047580864,0.3860108277436645 l -15.156656342446231 38.08964629739927" fill="#3fff2d" stroke="none" /><path d="M 108.43124777332544 80.76684994638697 l 12.335489762362494 -28.13940853866633 a51.72443035408985,51.72443035408985 0 0,0 0.8123639068046896,0.3644840051437578 l -12.818035787633963 27.92290420300604" fill="#beff1e" stroke="none" /><path d="M 110.05341064243156 81.56283822128135 l 5.490069173422548 -10.068353629118837 a32.46789450291356,32.46789450291356 0 0,0 0.48837265485813736,0.27177885367869903 l -5.662565917352721 9.97235937787996" fill="#ff2003" stroke="none" /><line stroke="#e1ed5e" stroke-width="0.3" x1="143.23703022742887" x2="145.7803849466894" y1="26.81831364943548" y2="22.513508569990506" /><path d="M 143.74570117128098 25.957352633546492 a86.0,86.0 0 0,1 28.547481713284135,27.462654790039103" fill="none" id="id50" stroke="none" /><text fill="#e1ed5e" style="font-size:6.75px; font-family:Arial;" text-anchor="middle"><textPath startOffset="19.985693538727396" xlink:href="#id50">February</textPath></text><path d="M 111.90073688211348 82.69761687909136 l 7.20045847947747 -10.468687148722946 a33.70590464833244,33.70590464833244 0 0,0 0.47520327516828137,0.3329102624960794 l -7.379592894229402 10.34319204346293" fill="#ff3505" stroke="none" /><path d="M 112.19680574252982 82.90503203632743 l 11.210951756692964 -15.713201076464255 a40.30259379876949,40.30259379876949 0 0,0 0.5612705866448042,0.40778695091596556 l -11.479767659691557 15.517894890731615" fill="#ff9d0e" stroke="none" /><path d="M 113.34407831869373 83.78471172551755 l 7.738867050609295 -9.404018557634462 a33.17890094628163,33.17890094628163 0 0,0 0.43787058710676013,0.36670402421795606 l -7.899595174675173 9.269413376022687" fill="#ff2c04" stroke="none" /><path d="M 113.6212207817346 84.01681056812373 l 16.838745325358488 -19.75864429796374 a46.960496309310756,46.960496309310756 0 0,0 0.6107239409856434,0.5296137834491008 l -17.1763630649909 19.46586552109497" fill="#ffff18" stroke="none" /><path d="M 113.89432698308785 84.25364557470407 l 20.402743590305224 -23.12230252047681 a51.83687435295914,51.83687435295914 0 0,0 0.6639785542053921,0.5961265018352865 l -20.797733132106607 22.76767700987223" fill="#bdff1f" stroke="none" /><path d="M 114.42810811169701 84.74124197986012 l 18.459712849691762 -19.522468872156487 a47.867969580104,47.867969580104 0 0,0 0.5938289604699108,0.5712629894819855 l -18.79302505377409 19.2018227959122" fill="#f3ff19" stroke="none" /><path d="M 114.94478906791727 85.2469230424477 l 27.8132975709012 -27.456507926745356 a60.082468567107284,60.082468567107284 0 0,0 0.7202335458702647,0.7422639793353547 l -28.281795380474573 26.973679751859887" fill="#56ff2b" stroke="none" /><path d="M 115.4437574822437 85.77008943001954 l 17.687943120791772 -16.29770792924942 a45.05158239267189,45.05158239267189 0 0,0 0.5205739508520224,0.5748307586291759 l -17.96586071225983 15.990824383350695" fill="#ffe315" stroke="none" /><path d="M 115.68641384162765 86.03803664274999 l 22.422540493683524 -19.95756913657838 a51.01790945472691,51.01790945472691 0 0,0 0.5782227406416015,0.6610085484608449 l -22.762755097902975 19.568645031914585" fill="#c8ff1d" stroke="none" /><path d="M 115.9244219780498 86.31012108654704 l 23.440172040276856 -20.15100563048469 a51.91123894633799,51.91123894633799 0 0,0 0.5766829089007075,0.6826106689855335 l -23.78356556266468 19.74453601187005" fill="#bcff1f" stroke="none" /><path d="M 116.38621287248628 86.86637796730983 l 25.934859419372877 -20.786904438238004 a54.23721301834847,54.23721301834847 0 0,0 0.5776157795956937,0.7335133822857263 l -26.288829279562535 20.337398661999238" fill="#9eff22" stroke="none" /><path d="M 116.82858285166822 87.43820079747576 l 19.8774261524159 -14.837627041477255 a45.804581162896596,45.804581162896596 0 0,0 0.4661976910792895,0.6358931267086478 l -20.129886456008816 14.493271471097113" fill="#ffee16" stroke="none" /><path d="M 117.04232023915458 87.72973835380427 l 19.745512932975863 -14.216527246642947 a45.33094589079632,45.33094589079632 0 0,0 0.45047601617915356,0.6371663781836414 l -19.9873015689589 13.874534368127513" fill="#ffe715" stroke="none" /><path d="M 117.45458315368197 88.32363383020206 l 21.22678135787462 -14.199804690752616 a46.53841616213765,46.53841616213765 0 0,0 0.43968468341339223,0.6696699378708315 l -21.46806267664594 13.83231668890411" fill="#fff917" stroke="none" /><path d="M 117.65298651832404 88.62581576622439 l 21.901284093454997 -14.11145020569962 a47.053776537196384,47.053776537196384 0 0,0 0.4328329104474227,0.6846377192795452 l -22.140944600148377 13.73236483870587" fill="#feff18" stroke="none" /><line stroke="#e1ed5e" stroke-width="0.3" x1="172.23445277983987" x2="176.4835382374775" y1="55.19839476539836" y2="52.563006222186495" /><path d="M 173.08426987136738 54.67131705675599 a86.0,86.0 0 0,1 12.851231095245387,41.99856678651699" fill="none" id="id51" stroke="none" /><text fill="#e1ed5e" style="font-size:6.75px; font-family:Arial;" text-anchor="middle"><textPath startOffset="22.20632615414155" xlink:href="#id51">March</textPath></text><path d="M 117.84615892207809 88.93136811851018 l 18.729139087450886 -11.616278153824508 a43.039023778382315,43.039023778382315 0 0,0 0.385064410721028,0.6329446453557706 l -18.92631929645814 11.292165735261657" fill="#ffc612" stroke="none" /><path d="M 118.21658344932153 89.55222093294921 l 11.789936939635481 -6.761896746580117 a34.59138920978985,34.59138920978985 0 0,0 0.29179048931398366,0.5190627216318295 l -11.904585070241897 6.557950515013493" fill="#ff4306" stroke="none" /><path d="M 118.3937258080291 89.86733742301442 l 23.411135759459267 -12.896633431985466 a47.72834509330568,47.72834509330568 0 0,0 0.39021763286793854,0.7230140099167367 l -23.62966149154567 12.49173843873627" fill="#f5ff19" stroke="none" /><path d="M 119.04729006885535 91.15688171328212 l 23.769479820065417 -11.035497485612865 a47.20630412079248,47.20630412079248 0 0,0 0.3358339266842858,0.7399655409749106 l -23.95591606371305 10.624709935795892" fill="#fcff18" stroke="none" /><path d="M 119.196687751892 91.48605970444005 l 17.859132441830905 -7.920719933846917 a40.53679645810175,40.53679645810175 0 0,0 0.27740544020216834,0.6402900028986248 l -17.992828591875753 7.61213078636169" fill="#ffa10e" stroke="none" /><path d="M 119.47837535516314 92.15188598940014 l 26.567332591917875 -10.704355539777024 a49.642737099857214,49.642737099857214 0 0,0 0.31252809743467297,0.7953499189020915 l -26.74765423923425 10.24545661597915" fill="#daff1b" stroke="none" /><path d="M 119.61058180528143 92.48833698450437 l 17.83056930681904 -6.829844689829288 a40.09387284687071,40.09387284687071 0 0,0 0.2413181693830351,0.6466127181010937 l -17.9454920647037 6.521908834698861" fill="#ff9a0e" stroke="none" /><path d="M 119.85752413597 93.16781622104841 l 11.366481967655053 -3.910754089553829 a33.02043717466172,33.02043717466172 0 0,0 0.18029584225171238,0.5390616198446643 l -11.432115103678536 3.714519366786851" fill="#ff2904" stroke="none" /><path d="M 120.08093135843002 93.85539295169968 l 38.872318386018854 -11.894623674326416 a61.65143551042037,61.65143551042037 0 0,0 0.301781143098543,1.0174559910858643 l -39.0713054262291 11.223738296494021" fill="#43ff2d" stroke="none" /><path d="M 120.37134235888165 94.90015583598534 l 12.325373049663796 -3.0855836944503685 a33.70573286154075,33.70573286154075 0 0,0 0.13605431380141367,0.5640329669184898 l -12.376660163726028 2.8729654958724726" fill="#ff3505" stroke="none" /><path d="M 120.53481517161879 95.60439243477599 l 26.10886828309366 -5.588769023994914 a47.70032475883953,47.70032475883953 0 0,0 0.16495386519382058,0.8043736288579147 l -26.201201444202475 5.138519738973587" fill="#f5ff19" stroke="none" /><path d="M 120.67395015179393 96.31383870115 l 29.04593400849717 -5.178884395335668 a50.50401881110815,50.50401881110815 0 0,0 0.14523065151192668,0.8571595262592003 l -29.13077652152932 4.67813908076063" fill="#cfff1d" stroke="none" /><path d="M 120.78858239683441 97.02765380044208 l 19.03736983064095 -2.721958274283324 a40.23097779405763,40.23097779405763 0 0,0 0.09211744638826849,0.6863819725911733 l -19.081403276087055 2.393857959627486" fill="#ff9c0e" stroke="none" /><path d="M 120.83666639777658 97.38593545837742 l 19.02979460100501 -2.387383391911295 a40.17896457101929,40.17896457101929 0 0,0 0.08018505818346315,0.6869766103261131 l -19.06807001219206 2.0594630432603287" fill="#ff9b0e" stroke="none" /><path d="M 120.87857604477298 97.74499172005257 l 19.737580549684385 -2.131774095619439 a40.85236879442938,40.85236879442938 0 0,0 0.06949352552507829,0.699790318287753 l -19.771351200891694 1.7917082466272514" fill="#ffa50f" stroke="none" /><path d="M 120.94382443527127 98.46500227214037 l 32.86380415062271 -2.4086271758024536 a53.95195150704281,53.95195150704281 0 0,0 0.059910839204889155,0.9267941653345471 l -32.90039558083202 1.8425739462148714" fill="#a1ff22" stroke="none" /><path d="M 120.96714384426684 98.82574320788733 l 19.51993198353433 -1.0932062508604394 a40.55052031401535,40.55052031401535 0 0,0 0.03303205175367172,0.69725440504997 l -19.5358576435215 0.7570407391874695" fill="#ffa10e" stroke="none" /><line stroke="#e1ed5e" stroke-width="0.3" x1="184.98032266829074" x2="189.97916517819016" y1="98.17113171792111" y2="98.06355123074" /><path d="M 185.9800911702706 98.14961562048488 a86.0,86.0 0 0,1 -9.607161424134198,41.387399972396054" fill="none" id="id52" stroke="none" /><text fill="#e1ed5e" style="font-size:6.75px; font-family:Arial;" text-anchor="middle"><textPath startOffset="21.466115282336823" xlink:href="#id52">April</textPath></text><path d="M 120.99513854157772 99.54816195383933 l 13.432468279887882 -0.28908121804866144 a34.435578589730426,34.435578589730426 0 0,0 0.007652885722648507,0.592724432995094 l -13.435454172728246 0.05782052699310472" fill="#ff4006" stroke="none" /><path d="M 120.99980553446 99.90962569577887 l 19.70759907883694 -0.08481319275534291 a40.70778157809346,40.70778157809346 0 0,0 -0.0030156764828266334,0.7007370097064494 l -19.70613910506461 -0.25443329515479113" fill="#ffa30f" stroke="none" /><path d="M 120.99824983174949 100.27111621757518 l 23.094083967761232 0.298176312019881 a44.09600882020649,44.09600882020649 0 0,0 -0.016332190116424974,0.7588926986015023 l -23.085529714959797 -0.6956588264114981" fill="#ffd614" stroke="none" /><path d="M 120.95626037817324 101.35467743843564 l 12.677706955350686 0.8195261594191576 a33.704167692994275,33.704167692994275 0 0,0 -0.04240857608586474,0.578631326921053 l -12.661721820600484 -1.037630622836981" fill="#ff3405" stroke="none" /><path d="M 120.92983693683757 101.71520430193887 l 21.134892842387714 1.7320086742041192 a42.205743314176225,42.205743314176225 0 0,0 -0.06557044833576799,0.7235644334878656 l -21.10194779777487 -2.0955544962405552" fill="#ffba11" stroke="none" /><path d="M 120.89721153311464 102.0752229133903 l 30.68724803198187 3.04743435093938 a51.838191385028736,51.838191385028736 0 0,0 -0.09582091828165787,0.8871826976485451 l -30.630244812199162 -3.5752133704727167" fill="#bdff1f" stroke="none" /><path d="M 120.76222939487914 103.15116336523771 l 13.704700749153785 2.0800151135470344 a34.86164800795491,34.86164800795491 0 0,0 -0.09515278589953617,0.5925164886268388 l -13.66686620889296 -2.3156108318670783" fill="#ff4706" stroke="none" /><path d="M 120.49622156327973 104.57218783832717 l 13.048696525261828 2.9108336565657877 a34.36942158750992,34.36942158750992 0 0,0 -0.13377795570749054,0.5763119318934803 l -12.996658003623784 -3.1350142458078327" fill="#ff3f05" stroke="none" /><path d="M 120.41448212921028 104.9243191809786 l 21.280992794944993 5.133336243708521 a42.89136348721733,42.89136348721733 0 0,0 -0.1793036394588393,0.7162289097740069 l -21.189477841191092 -5.498892992879924" fill="#ffc412" stroke="none" /><path d="M 120.13307415673323 105.97154293290107 l 18.53884429558927 5.498688564679807 a40.337122943898436,40.337122943898436 0 0,0 -0.20317084198062207,0.6639740669789167 l -18.441446681102516 -5.816989604210781" fill="#ff9d0e" stroke="none" /><path d="M 119.9155931802556 106.66101706037122 l 18.55205872437351 6.20496605597337 a40.56222090327131,40.56222090327131 0 0,0 -0.22716614740623112,0.6602511584790433 l -18.44250174602405 -6.523389917541714" fill="#ffa10e" stroke="none" /><path d="M 119.79798401119884 107.00284435728193 l 24.971817673364075 8.832907046801955 a47.48795810947273,47.48795810947273 0 0,0 -0.2792195581390467,0.7682923039701867 l -24.816073854219802 -9.261447147778274" fill="#f8ff18" stroke="none" /><path d="M 119.67450827220406 107.3425965602758 l 24.816735512231443 9.26169408090479 a47.488664344060766,47.488664344060766 0 0,0 -0.2924074263881393,0.7633835202440997 l -24.653633806249797 -9.687501167982035" fill="#f8ff18" stroke="none" /><path d="M 119.41010516605496 108.01547362559984 l 18.289041176227833 7.552526167757936 a40.78710890100991,40.78710890100991 0 0,0 -0.2735630604147471,0.646622265598789 l -18.156327134620778 -7.866222959022888" fill="#ffa40f" stroke="none" /><path d="M 119.26925614724726 108.34839909993367 l 37.153113235137745 16.096574497831213 a61.49016588786958,61.49016588786958 0 0,0 -0.4291396196295358,0.9675965527136711 l -36.870532530776934 -16.73371938703757" fill="#45ff2d" stroke="none" /><path d="M 118.97047184881838 109.00673069616215 l 17.649644032298312 8.379632934219185 a40.53786535369446,40.53786535369446 0 0,0 -0.30470333475580347,0.6277791197435268 l -17.502787440927793 -8.682201009927986" fill="#ffa10e" stroke="none" /><path d="M 118.81262510543309 109.33194174019688 l 19.458327435490382 9.652240289274106 a42.720779203072894,42.720779203072894 0 0,0 -0.33245174119682214,0.6559588250861896 l -19.28929702450729 -9.985753326062989" fill="#ffc112" stroke="none" /><path d="M 118.64920377521936 109.65438752849418 l 19.0689037077539 9.871659313563928 a42.472604551350166,42.472604551350166 0 0,0 -0.34169714324317146,0.6463622230855155 l -18.896154056285834 -10.198436551735577" fill="#ffbe11" stroke="none" /><line stroke="#e1ed5e" stroke-width="0.3" x1="174.80103733775053" x2="179.2010983576182" y1="140.37084112569926" y2="142.7455964860345" /><path d="M 175.68104954172406 140.8457921977663 a86.0,86.0 0 0,1 -30.038265399797805,32.042727171017184" fill="none" id="id53" stroke="none" /><text fill="#e1ed5e" style="font-size:6.75px; font-family:Arial;" text-anchor="middle"><textPath startOffset="22.206326154141568" xlink:href="#id53">May</textPath></text><path d="M 118.30583269289576 110.29060199501025 l 22.94336710160526 12.897586426628878 a47.32006515173137,47.32006515173137 0 0,0 -0.405258059975154,0.706601586870214 l -22.71795704547773 -13.290607859357406" fill="#faff18" stroke="none" /><path d="M 117.94076556474637 110.91462005526583 l 18.196488914921794 11.070194420047061 a42.29932894080264,42.29932894080264 0 0,0 -0.38378656578758075,0.6187861443524586 l -18.00323770946625 -11.381776895764792" fill="#ffbb11" stroke="none" /><path d="M 117.75023020441432 111.22182372390056 l 34.05335492702584 21.52877691149432 a61.28795374663357,61.28795374663357 0 0,0 -0.5714230131982447,0.8868612061245239 l -33.67772705045054 -22.111759717540295" fill="#48ff2c" stroke="none" /><path d="M 117.14729908036423 112.12312394758627 l 15.597466440190837 11.027393762512839 a40.10194682607997,40.10194682607997 0 0,0 -0.40334959689272126,0.5602173121313111 l -15.405337050922514 -11.294244680095282" fill="#ff9a0e" stroke="none" /><path d="M 116.93607887273984 112.41649034213515 l 10.841882265930861 7.9486005855922715 a34.44346169472669,34.44346169472669 0 0,0 -0.35466716797637227,0.4751346303845993 l -10.703453831259397 -8.134048095486186" fill="#ff4106" stroke="none" /><path d="M 116.71984013943494 112.70617746262583 l 26.090829390508055 19.827624284576018 a53.76989568269798,53.76989568269798 0 0,0 -0.5663587792337337,0.732095068091341 l -25.745663794056252 -20.27379734678061" fill="#a4ff21" stroke="none" /><path d="M 116.498646956653 112.99209946851258 l 10.579803979861307 8.331220494920384 a34.46630933802096,34.46630933802096 0 0,0 -0.3710578656620507,0.4629517401684645 l -10.434828202144402 -8.512100068667099" fill="#ff4106" stroke="none" /><path d="M 115.80600337817218 113.82643327865902 l 16.084669774154733 14.070199032649567 a42.37023871092646,42.37023871092646 0 0,0 -0.48491961487897967,0.544812327914076 l -15.840091309627416 -14.344985530304509" fill="#ffbc11" stroke="none" /><path d="M 115.56566222782051 114.09645910891815 l 15.947998233736362 14.442707395330734 a42.5158184731699,42.5158184731699 0 0,0 -0.4959239262859432,0.5382274758184022 l -15.697027899454696 -14.71508612595047" fill="#ffbe11" stroke="none" /><path d="M 115.07121518719521 114.62390073753431 l 24.680386955423927 23.947871788514036 a55.38927250566034,55.38927250566034 0 0,0 -0.6698392868650527,0.6785436611226919 l -24.26450704350334 -24.369155943617393" fill="#8fff24" stroke="none" /><path d="M 114.55890576462653 115.13401014063108 l 14.76041714026038 15.343481597593518 a42.29066325153313,42.29066325153313 0 0,0 -0.5289638940963469,0.5001683781296636 l -14.494117411773225 -15.595284612469104" fill="#ffbb11" stroke="none" /><path d="M 114.0293411484842 115.62618273729858 l 8.93092610914803 9.947458110670892 a34.3683717793385,34.3683717793385 0 0,0 -0.4436099994732917,0.39143424688495787 l -8.758373756768151 -10.09971549932814" fill="#ff3f05" stroke="none" /><path d="M 112.34349029814194 116.9893568818739 l 5.618100508239374 7.732651966930584 a30.55808347747366,30.55808347747366 0 0,0 -0.42820994670157253,0.3055164272923309 l -5.484163233688918 -7.828212656067135" fill="#ff0000" stroke="none" /><line stroke="#e1ed5e" stroke-width="0.3" x1="143.8653032363475" x2="146.44561519142675" y1="172.8068346515853" y2="177.08958963109032" /><path d="M 144.38136562736335 173.6633856474863 a86.0,86.0 0 0,1 -40.68145358897372,12.25698825130547" fill="none" id="id54" stroke="none" /><text fill="#e1ed5e" style="font-size:6.75px; font-family:Arial;" text-anchor="middle"><textPath startOffset="21.466115282336833" xlink:href="#id54">June</textPath></text><path d="M 109.89434966115114 118.52300852407294 l 9.673395238436722 18.109364293220608 a41.53104114611784,41.53104114611784 0 0,0 -0.633465252697523,0.3313990807945639 l -9.360239083212704 -18.27319279295989" fill="#ffb010" stroke="none" /><path d="M 109.2508944713604 118.85261126421891 l 8.420820419243826 17.160984203342128 a40.11568976941486,40.11568976941486 0 0,0 -0.6225331004897603,0.29885371950930023 l -8.124174650753835 -17.303392199350988" fill="#ff9a0e" stroke="none" /><path d="M 108.2653958097858 119.30500536409082 l 10.180829304624114 23.7787722281814 a46.86656710910097,46.86656710910097 0 0,0 -0.744349415536321,0.3111381160627072 l -9.770008429590332 -23.95049538726408" fill="#fffd17" stroke="none" /><path d="M 107.59598834532513 119.57807347666477 l 9.75538875198019 25.14376129832283 a47.96991549725914,47.96991549725914 0 0,0 -0.7723836636779288,0.29204941136007745 l -9.321134867541986 -25.307958959789538" fill="#f1ff19" stroke="none" /><path d="M 107.2578585660854 119.70592522655815 l 7.338570999137232 19.92506881499966 a42.233534599586804,42.233534599586804 0 0,0 -0.6843450337955569,0.24538178128902424 l -6.994506404711941 -20.04843813732864" fill="#ffba11" stroke="none" /><path d="M 106.2309692047433 120.05430185196036 l 11.98142589294896 38.56207976299744 a61.38054682735246,61.38054682735246 0 0,0 -1.0116830161661456,0.3048117938085323 l -11.31586790234257 -38.762606925911705" fill="#47ff2c" stroke="none" /><path d="M 105.18746579009965 120.34920634021253 l 5.816288671157235 22.815930377700933 a44.54561302889199,44.54561302889199 0 0,0 -0.7446471968044073,0.1830161637982359 l -5.422688189609616 -22.9126677998132" fill="#ffdc14" stroke="none" /><path d="M 104.83641907484287 120.43548508189849 l 3.620717097143455 15.298738401170056 a36.72135455248632,36.72135455248632 0 0,0 -0.616358931750101,0.14028128617392482 l -3.356838016000492 -15.358796420921665" fill="#ff6509" stroke="none" /><path d="M 104.48393922423573 120.51570834832081 l 4.487313790953689 20.53114826022092 a42.015804384835135,42.015804384835135 0 0,0 -0.7078833498222691,0.14834383857614722 l -4.133238979702042 -20.60534807952361" fill="#ffb711" stroke="none" /><path d="M 103.7750983002368 120.6578951692458 l 8.04551910529836 44.026268203133135 a65.7553647015409,65.7553647015409 0 0,0 -1.1151828937944883,0.19388884058043174 l -7.286487240031823 -44.15823562223458" fill="#33ff50" stroke="none" /><path d="M 103.06178313531738 120.77559828337769 l 3.115880525128361 21.142673804151237 a42.37104038262099,42.37104038262099 0 0,0 -0.7224694344135617,0.10012768045324046 l -2.7514824995279685 -21.19317605009708" fill="#ffbc11" stroke="none" /><path d="M 102.70371172650421 120.8252237178851 l 2.949421934888424 22.71779606914885 a43.908455818527706,43.908455818527706 0 0,0 -0.7503590804490311,0.09085803486097192 l -2.557935431388013 -22.765199632735175" fill="#ffd313" stroke="none" /><path d="M 101.98527174616119 120.90594882070398 l 2.1660410221922817 22.809543751911374 a43.91215877825961,43.91215877825961 0 0,0 -0.7531054049631352,0.06498110324249864 l -1.7730912994876047 -22.843449107432534" fill="#ffd313" stroke="none" /><path d="M 101.62511606390274 120.93702456842531 l 3.743070799863762 48.22348817960707 a69.36853720365642,69.36853720365642 0 0,0 -1.1912798926633672,0.08215763613040943 l -2.912428146421464 -48.280774160253756" fill="#38ff80" stroke="none" /><path d="M 100.90346689309514 120.98055641714683 l 0.6776964535851557 15.73765324087683 a36.752238000147244,36.752238000147244 0 0,0 -0.6322778866601275,0.021776928844190857 l -0.40669821525037597 -15.746986968147114" fill="#ff6609" stroke="none" /><line stroke="#e1ed5e" stroke-width="0.3" x1="102.19456741930631" x2="102.32365962044197" y1="184.97166512339345" y2="189.96999836594603" /><path d="M 102.22038585953345 185.97133177190398 a86.0,86.0 0 0,1 -42.740103519485714,-10.115201625700543" fill="none" id="id55" stroke="none" /><text fill="#e1ed5e" style="font-size:6.75px; font-family:Arial;" text-anchor="middle"><textPath startOffset="22.20632615414155" xlink:href="#id55">July</textPath></text><path d="M 100.54218724476979 120.99299961872073 l 0.5920253545795605 22.922686143674674 a43.930330003335754,43.930330003335754 0 0,0 -0.7561043856915766,0.0130170226942748 l -0.19736127899531594 -22.92948064364811" fill="#ffd313" stroke="none" /><path d="M 99.81925306533755 120.99922214144158 l -0.19924579654028776 23.148424343194346 a44.14928181305052,44.14928181305052 0 0,0 -0.7598728623583322,-0.013081900437642385 l 0.5976783487912878 -23.141564965477546" fill="#ffd614" stroke="none" /><path d="M 99.45781275523022 120.99299961872073 l -0.5049152320226294 19.549861003901185 a40.55638015235398,40.55638015235398 0 0,0 -0.697723559942473,-0.024031010159224278 l 0.8413591436397455 -19.538273195315867" fill="#ffa10e" stroke="none" /><path d="M 99.09653310690486 120.98055641714683 l -1.7416989700180676 40.446212010009596 a61.483695252049394,61.483695252049394 0 0,0 -1.0569689325723215,-0.05463322068462532 l 2.437655971003878 -40.410238982562774" fill="#45ff2d" stroke="none" /><path d="M 98.37488393609728 120.93702456842531 l -1.6558487798569481 21.33296652191441 a42.397132887536,42.397132887536 0 0,0 -0.7271223009958595,-0.06273917170100245 l 2.0228153985943496 -21.301303097934746" fill="#ffbd11" stroke="none" /><path d="M 98.01472825383883 120.90594882070398 l -2.167412413898947 22.82398522315502 a43.926665218446445,43.926665218446445 0 0,0 -0.7521236643986755,-0.07796069306304132 l 2.5599686749032156 -22.783295161636218" fill="#ffd313" stroke="none" /><path d="M 97.65516085044442 120.86867818915974 l -2.9708735491188074 26.440280156955648 a47.60666278252792,47.60666278252792 0 0,0 -0.8135583691756815,-0.09851058858882741 l 3.425559341345878 -26.38522403964147" fill="#f6ff19" stroke="none" /><path d="M 96.93821686468263 120.77559828337769 l -2.786000269146836 18.904285460824212 a40.10847472416404,40.10847472416404 0 0,0 -0.6821575588969366,-0.10653898142093787 l 3.11099369165229 -18.85352817205617" fill="#ff9a0e" stroke="none" /><path d="M 96.58105272829116 120.7198165907248 l -6.604208684301735 40.02342878988304 a61.564645005776214,61.564645005776214 0 0,0 -1.0441100780840629,-0.18153192055272863 l 7.292167733857848 -39.903818290809305" fill="#44ff2d" stroke="none" /><path d="M 95.86986931433489 120.58985236759428 l -3.7910563492011145 18.89947231408534 a40.27594775863683,40.27594775863683 0 0,0 -0.6785702007633173,-0.1422009831844376 l 4.115818011393818 -18.83141535017436" fill="#ff9d0e" stroke="none" /><path d="M 95.16358092515715 120.4354850818985 l -5.367110303056836 22.677832676149038 a44.304290761415416,44.304290761415416 0 0,0 -0.740613130646505,-0.18202468848496525 l 5.756676718446552 -22.582086729350046" fill="#ffd914" stroke="none" /><path d="M 94.81253420990036 120.34920634021253 l -6.316485904034221 24.77808629630835 a46.570521204761675,46.570521204761675 0 0,0 -0.7750877259197334,-0.20470771307811855 l 6.7420640727654435 -24.665687233926647" fill="#fff917" stroke="none" /><path d="M 94.11515582081647 120.15858648285463 l -12.542280723981422 42.96369503902453 a65.75698713235127,65.75698713235127 0 0,0 -1.0838161358055958,-0.3265449110388955 l 13.279971834227263 -42.74143475887991" fill="#33ff50" stroke="none" /><path d="M 92.7421414339146 119.70592522655815 l -6.700068695691911 18.191461231700483 a40.38608217952901,40.38608217952901 0 0,0 -0.6502731929391055,-0.2458776799042905 l 7.0122121093912995 -18.07343530168956" fill="#ff9e0e" stroke="none" /><path d="M 92.06813273071674 119.44442032107085 l -7.931759127217366 19.44415521832616 a41.99971368868053,41.99971368868053 0 0,0 -0.6670525337195272,-0.2788280131943257 l 8.265283120434356 -19.30474216211186" fill="#ffb710" stroke="none" /><path d="M 91.7346041902142 119.30500536409082 l -16.22520063632884 37.8962596016192 a62.22358096384206,62.22358096384206 0 0,0 -0.9809972002803865,-0.4300403437526684 l 16.87511851126697 -37.61135470457208" fill="#3dff2e" stroke="none" /><path d="M 91.07499286063937 119.00905698771935 l -8.152632109931641 17.36400273498304 a40.182648443329896,40.182648443329896 0 0,0 -0.6235721949467146,-0.2993525479943085 l 8.450316972878596 -17.22109591048917" fill="#ff9b0e" stroke="none" /><path d="M 90.10565033884886 118.52300852407294 l -5.789736124583443 10.838845933337987 a33.28827187032188,33.28827187032188 0 0,0 -0.5030922916169042,-0.27432603018674406 l 5.975451228068987 -10.737579251391479" fill="#ff2e04" stroke="none" /><line stroke="#e1ed5e" stroke-width="0.3" x1="58.666819895761336" x2="56.23545636021788" y1="174.27360380694188" y2="178.64263932499728" /><path d="M 58.180547188652646 175.14741091055294 a86.0,86.0 0 0,1 -31.652253787137756,-30.449443065178592" fill="none" id="id56" stroke="none" /><text fill="#e1ed5e" style="font-size:6.75px; font-family:Arial;" text-anchor="middle"><textPath startOffset="22.20632615414155" xlink:href="#id56">August</textPath></text><path d="M 89.7882731507175 118.34994917583269 l -7.431396002734846 13.353837305710162 a36.28236295004277,36.28236295004277 0 0,0 -0.5431145491599166,-0.3083946154320348 l 7.660159318815969 -13.223939524483493" fill="#ff5e08" stroke="none" /><path d="M 89.4739219176387 118.17145234162733 l -13.069383657100902 22.562029314357574 a47.07400920377276,47.07400920377276 0 0,0 -0.6976640049390348,-0.4121921914403291 l 13.455815533068318 -22.333718550623495" fill="#feff18" stroke="none" /><path d="M 89.1626897886671 117.98757091392108 l -9.861913777638877 16.368625605710772 a40.10992536818273,40.10992536818273 0 0,0 -0.5883186334553824,-0.3613933559196754 l 10.142211611026568 -16.196443782962717" fill="#ff9a0e" stroke="none" /><path d="M 87.95078237400918 117.19931262002967 l -11.06193178408755 15.790039556225489 a40.27930714478536,40.27930714478536 0 0,0 -0.5644333021853052,-0.402708174475563 l 11.332092414121743 -15.597287119905706" fill="#ff9d0e" stroke="none" /><path d="M 87.65650970185807 116.9893568818739 l -9.247556812077688 12.728170004673776 a36.7328833549506,36.7328833549506 0 0,0 -0.508339427752876,-0.3760573559722381 l 9.46528121024913 -12.567102699961772" fill="#ff6509" stroke="none" /><path d="M 87.36589467227662 116.77436683061367 l -24.50054189204959 32.52949588319721 a61.72400588619716,61.72400588619716 0 0,0 -0.8431830500499471,-0.6465168076085436 l 25.056853670593025 -32.102939733761296" fill="#43ff2d" stroke="none" /><path d="M 87.07902340077011 116.55440617244103 l -6.166219843070543 7.900185179256454 a31.02173602823484,31.02173602823484 0 0,0 -0.4181176164615169,-0.3321779219731044 l 6.301294952249418 -7.7928733432782185" fill="#ff0801" stroke="none" /><path d="M 86.79598089348748 116.32954008644616 l -12.143570035614166 15.018072307341818 a40.31343545406703,40.31343545406703 0 0,0 -0.5358420979150341,-0.4409615666397707 l 12.400282262073889 -14.806815621844866" fill="#ff9d0e" stroke="none" /><path d="M 86.51685102203217 116.09983520530335 l -9.815029891643148 11.719841117886816 a36.2869057563118,36.2869057563118 0 0,0 -0.47541812008362433,-0.40516163591111914 l 10.015313488303828 -11.549155091752745" fill="#ff5e08" stroke="none" /><path d="M 86.24171649860922 115.8653595955263 l -15.028816434683245 17.330474183592905 a43.93928200392474,43.93928200392474 0 0,0 -0.5671465902360835,-0.5004409248800061 l 15.324905377825916 -17.06921011694061" fill="#ffd313" stroke="none" /><path d="M 85.70375840098266 115.38237550388516 l -8.191445321434665 8.81377717221233 a33.032557687186255,33.032557687186255 0 0,0 -0.41316520013533253,-0.3906734851994767 l 8.341946355960815 -8.671469050266923" fill="#ff2904" stroke="none" /><path d="M 85.44109423537348 115.13401014063109 l -29.40099667756958 30.562391779751554 a63.4084708157873,63.4084708157873 0 0,0 -0.7800753073827005,-0.7634678723623364 l 29.922721937328074 -30.05177380446665" fill="#2fff2f" stroke="none" /><path d="M 85.18274418774928 114.88116024355367 l -8.221199173379473 8.256655877674786 a32.65163002033265,32.65163002033265 0 0,0 -0.39486607385150785,-0.39999724808366083 l 8.362105872286515 -8.113918135610461" fill="#ff2303" stroke="none" /><path d="M 84.67929136418377 114.36230785411682 l -13.948446738392153 13.07588904048542 a40.119049155563395,40.119049155563395 0 0,0 -0.46796691421196046,-0.5078856607890344 l 14.171460060599841 -12.83385212489504" fill="#ff9a0e" stroke="none" /><path d="M 84.43433777217949 114.09645910891817 l -15.872150715688882 14.374018930874787 a42.41349080758879,42.41349080758879 0 0,0 -0.48541462719645334,-0.5453684795003519 l 16.117224192533673 -14.098676281633571" fill="#ffbd11" stroke="none" /><path d="M 83.95833913139862 113.55231037782056 l -11.676108068989924 9.864205573978248 a36.28509245128845,36.28509245128845 0 0,0 -0.3989701424397786,-0.48058523809106307 l 11.844174211323239 -9.661759078773423" fill="#ff5e08" stroke="none" /><path d="M 83.72743513129214 113.27417163493432 l -31.234333083963865 25.479074848030802 a61.30839637484423,61.30839637484423 0 0,0 -0.660034774332999,-0.8234948659664326 l 31.668285770351723 -24.93765214848611" fill="#47ff2c" stroke="none" /><path d="M 83.50135304334701 112.99209946851258 l -11.989685711402757 9.441452366852106 a36.260851426239384,36.260851426239384 0 0,0 -0.38193586368345867,-0.4937035892834137 l 12.150428392304283 -9.23367078345544" fill="#ff5e08" stroke="none" /><path d="M 83.06392112726016 112.41649034213515 l -15.758205059586208 11.552945779360565 a40.53948778450483,40.53948778450483 0 0,0 -0.4077504298490302,-0.5663296841998956 l 15.954735281810846 -11.27998248970953" fill="#ffa10e" stroke="none" /><path d="M 82.85270091963577 112.12312394758628 l -15.740651400621974 11.128625391739213 a40.277302965549026,40.277302965549026 0 0,0 -0.39536793787019864,-0.5695570024362254 l 15.929880245654306 -10.856027127115976" fill="#ff9d0e" stroke="none" /><path d="M 82.44556493220864 111.52570212397912 l -16.234694413345288 10.659201003019687 a40.4212221221395,40.4212221221395 0 0,0 -0.37687041466052795,-0.5849112527474053 l 16.415769691382863 -10.378168150350833" fill="#ff9f0e" stroke="none" /><path d="M 82.24976979558568 111.22182372390057 l -27.438471932744687 17.346800111126434 a53.46199648973233,53.46199648973233 0 0,0 -0.4850667031067441,-0.7820819740087209 l 27.733003275519387 -16.87192180575245" fill="#a8ff21" stroke="none" /><line stroke="#e1ed5e" stroke-width="0.3" x1="26.63291911575756" x2="22.317208475507996" y1="142.92168965132927" y2="145.44649492493687" /><path d="M 25.769776987707644 143.4266507060508 a86.0,86.0 0 0,1 -11.730757126820373,-40.83630448921669" fill="none" id="id57" stroke="none" /><text fill="#e1ed5e" style="font-size:6.75px; font-family:Arial;" text-anchor="middle"><textPath startOffset="21.46611528233685" xlink:href="#id57">September</textPath></text><path d="M 81.69416730710424 110.29060199501025 l -11.659749937697203 6.554514508195648 a34.37577769880231,34.37577769880231 0 0,0 -0.28552126543436107,-0.5183040320211175 l 11.770847612583081 -6.352839957776709" fill="#ff3f06" stroke="none" /><path d="M 81.51974371655577 109.97397251340807 l -15.729922295983227 8.489590740077187 a38.87466381143082,38.87466381143082 0 0,0 -0.31275128307342986,-0.5916075641765731 l 15.873726087281543 -8.217568160814489" fill="#ff870c" stroke="none" /><path d="M 81.18737489456691 109.33194174019688 l -17.51431234348747 8.687917900507887 a40.55073027564963,40.55073027564963 0 0,0 -0.30480003409077205,-0.6279783490149596 l 17.66126563419296 -8.385150595527643" fill="#ffa10e" stroke="none" /><path d="M 80.87730276802145 108.67885076344099 l -34.850571285957464 15.81695843124491 a59.271902134246375,59.271902134246375 0 0,0 -0.41365836584328025,-0.932690412357326 l 35.11767073653203 -15.214719682394888" fill="#5fff29" stroke="none" /><path d="M 80.58989483394504 108.01547362559985 l -19.514583023095057 8.058618137203457 a42.11303570892955,42.11303570892955 0 0,0 -0.270921953807698,-0.6724060712029805 l 19.650407591160143 -7.721512698157672" fill="#ffb811" stroke="none" /><path d="M 80.32549172779594 107.34259656027581 l -18.723419587084546 6.987646875574317 a40.98483549824078,40.98483549824078 0 0,0 -0.24098251670117105,-0.6630803880890094 l 18.840926364790942 -6.66431869047919" fill="#ffa70f" stroke="none" /><path d="M 80.20201598880116 107.00284435728193 l -12.637155795750536 4.469951844910371 a34.404408830750015,34.404408830750015 0 0,0 -0.1926797111654268,-0.5600174320202858 l 12.71222633785919 -4.251761709800788" fill="#ff4006" stroke="none" /><path d="M 80.0844068197444 106.66101706037122 l -38.19864139632038 12.77600921654431 a61.278562735354726,61.278562735354726 0 0,0 -0.32596620495838213,-1.0032208226759114 l 38.41289985229502 -12.116589493890595" fill="#48ff2c" stroke="none" /><path d="M 79.86692584326677 105.97154293290107 l -12.828244456426429 3.80490390731916 a34.380625903812124,34.380625903812124 0 0,0 -0.16340188636499015,-0.5688234027501222 l 12.891838979677523 -3.583523029064442" fill="#ff4006" stroke="none" /><path d="M 79.76711848015287 105.62410040840567 l -12.942136089893548 3.5975040330964227 a34.432830001063444,34.432830001063444 0 0,0 -0.15381952473316224,-0.5724196737998365 l 13.002143690968486 -3.3741934261210473" fill="#ff4006" stroke="none" /><path d="M 79.58551787078972 104.9243191809786 l -25.11539387532671 6.058258789780435 a46.83574092370394,46.83574092370394 0 0,0 -0.1823012836822237,-0.7853491588351521 l 25.21595572493949 -5.625040973596709" fill="#fffd17" stroke="none" /><path d="M 79.50377843672027 104.57218783832718 l -12.412218818270603 2.768851602835205 a33.71729983884763,33.71729983884763 0 0,0 -0.12148818590107928,-0.5675523590302022 l 12.458041042896122 -2.554785424388839" fill="#ff3505" stroke="none" /><path d="M 79.4281124754447 104.21870165774334 l -41.55680178107129 8.522103202978052 a63.421622049061945,63.421622049061945 0 0,0 -0.21010697603548523,-1.0713309442375738 l 41.69733869008244 -7.8055085316725235" fill="#2fff2f" stroke="none" /><path d="M 79.23777060512086 103.15116336523772 l -19.337898726385024 2.9349872245555364 a40.55935779007654,40.55935779007654 0 0,0 -0.0988218110231697,-0.6911595161307573 l 19.385554588424792 -2.6016822364443786" fill="#ffa10e" stroke="none" /><path d="M 79.1416061653843 102.43462659150553 l -12.633080824789896 1.4745543090489257 a33.71884591997281,33.71884591997281 0 0,0 -0.06232799974542816,-0.5770798688304064 l 12.656591126036377 -1.2568781183337372" fill="#ff3505" stroke="none" /><path d="M 79.10278846688536 102.07522291339032 l -13.315283854689483 1.322290397920342 a34.380778603182506,34.380778603182506 0 0,0 -0.053413656297015194,-0.5894152463493777 l 13.336072107263574 -1.092893763022398" fill="#ff4006" stroke="none" /><path d="M 79.07016306316243 101.71520430193888 l -20.942830088659704 1.7162690933162967 a42.01303670874686,42.01303670874686 0 0,0 -0.052863286228890395,-0.7212775405167126 l 20.96926993355293 -1.3555184163028235" fill="#ffb711" stroke="none" /><path d="M 79.0235259727143 100.99374915477108 l -19.521925991479865 0.9248407252954781 a40.54382062913959,40.54382062913959 0 0,0 -0.02702509594625894,-0.6973976430585005 l 19.534953220277323 -0.5886658352229808" fill="#ffa10e" stroke="none" /><path d="M 79.0095281055655 100.63252640178507 l -12.13208870498339 0.3655880845982877 a33.137595766591744,33.137595766591744 0 0,0 -0.012273435363910137,-0.5702983138226747 l 12.136584203032308 -0.1566999549854841" fill="#ff2b04" stroke="none" /><line stroke="#e1ed5e" stroke-width="0.3" x1="15.007084014347285" x2="10.007500721073583" y1="101.09737516637583" y2="101.16192664675087" /><path d="M 14.007167355692545 101.11028546245083 a86.0,86.0 0 0,1 10.666146001902534,-42.60595125391555" fill="none" id="id58" stroke="none" /><text fill="#e1ed5e" style="font-size:6.75px; font-family:Arial;" text-anchor="middle"><textPath startOffset="22.20632615414155" xlink:href="#id58">October</textPath></text><path d="M 79.00019446554 99.90962569577889 l -19.72870957130251 -0.08490404340941286 a40.72889226604957,40.72889226604957 0 0,0 0.009051497633761117,-0.7010484668351514 l 19.72432506655103 0.4244887683050363" fill="#ffa30f" stroke="none" /><path d="M 79.01574976396665 99.18683210126434 l -32.80427359974149 -1.2712096897722525 a53.828894901931555,53.828894901931555 0 0,0 0.04384848402620286,-0.925572194849753 l 32.77753150748179 1.8356929912450146" fill="#a3ff22" stroke="none" /><path d="M 79.05617556472873 98.46500227214037 l -21.608098284930367 -1.5836831459911034 a42.666055566210176,42.666055566210176 0 0,0 0.059987491141827394,-0.7319993346735775 l 21.57763630996904 1.9553963978724593" fill="#ffc111" stroke="none" /><path d="M 79.12142395522702 97.74499172005258 l -11.447567475979843 -1.236404215892591 a32.514143324719754,32.514143324719754 0 0,0 0.06488839376808195,-0.5559241311306441 l 11.424588729208171 1.4332720853480967" fill="#ff2103" stroke="none" /><path d="M 79.16333360222342 97.38593545837743 l -20.453152390286153 -2.565950781529764 a41.613479718705946,41.613479718705946 0 0,0 0.09528298085719372,-0.7099688812417446 l 20.405953410371126 2.917638004836168" fill="#ffb110" stroke="none" /><path d="M 79.26566170972629 96.67025291283419 l -14.393673343825096 -2.3114936787107423 a35.57809436639305,35.57809436639305 0 0,0 0.10230928044972937,-0.603835164610622 l 14.351752201855144 2.5589146316371925" fill="#ff5307" stroke="none" /><path d="M 79.32604984820605 96.31383870115002 l -41.52731740650756 -7.4043126323222035 a63.18224669855781,63.18224669855781 0 0,0 0.20012006670967183,-1.0690493984364562 l 41.39371161588802 8.118040108221232" fill="#32ff2f" stroke="none" /><path d="M 79.3925641242962 95.95851677861259 l -14.056742171842744 -2.7567761451511035 a35.324517974442855,35.324517974442855 0 0,0 0.1221567317508319,-0.5956796070973177 l 14.007206144176918 2.9983314084118238" fill="#ff4f07" stroke="none" /><path d="M 79.62865764111835 94.90015583598534 l -19.717726896553835 -4.936215428002126 a41.326214028163946,41.326214028163946 0 0,0 0.17869389636524038,-0.6885804765232024 l 19.629836668318287 5.274892330074192" fill="#ffac10" stroke="none" /><path d="M 79.71946130924805 94.55025226153421 l -12.915495037570517 -3.470627232612048 a34.37367808245948,34.37367808245948 0 0,0 0.15846794203215267,-0.570093501716032 l 12.853840324972003 3.692432037747023" fill="#ff3f05" stroke="none" /><path d="M 79.81627453868168 94.20196356495316 l -55.05140054997266 -15.814227497337912 a78.27780105635244,78.27780105635244 0 0,0 0.38316649217409654,-1.2918469293444033 l 54.77102816068686 16.759503813428854" fill="#45ffed" stroke="none" /><path d="M 80.02781315780177 93.51064311812611 l -13.799603127593224 -4.483762856352251 a35.50976139814452,35.50976139814452 0 0,0 0.1938878733061858,-0.5797000626711709 l 13.720377960515266 4.720636021945745" fill="#ff5207" stroke="none" /><path d="M 80.2630227832202 92.82701384747504 l -11.414858378638987 -4.148488402438855 a33.14532617221762,33.14532617221762 0 0,0 0.1994960543231057,-0.5345502423879015 l 11.341757735814253 4.344361781856098" fill="#ff2b04" stroke="none" /><path d="M 80.52162464483688 92.15188598940014 l -18.949173765870643 -7.634891175962511 a41.42945788996738,41.42945788996738 0 0,0 0.27220793870842486,-0.6591731149224668 l 18.81494414027602 7.959938861338289" fill="#ffae10" stroke="none" /><path d="M 80.803312248108 91.48605970444005 l -15.525451056847565 -6.885706798382986 a37.98389203427374,37.98389203427374 0 0,0 0.2702240696492714,-0.5954029179143758 l 15.404624670234943 7.151931725139432" fill="#ff790b" stroke="none" /><path d="M 81.10775173730289 90.83032412892265 l -12.962574152622642 -6.291607106870904 a35.408769852054306,35.408769852054306 0 0,0 0.27086020620807577,-0.5460376476016586 l 12.852353933461153 6.513804342971524" fill="#ff5007" stroke="none" /><path d="M 81.26839172434947 90.50648371742162 l -17.43335338782259 -8.835537334099463 a40.544526863727626,40.544526863727626 0 0,0 0.32086275722561325,-0.6198047183954846 l 17.27868119743686 9.134314774755284" fill="#ffa10e" stroke="none" /><path d="M 81.43458229118936 90.18545643968196 l -17.282764843139358 -9.136473579865983 a40.54914601968186,40.54914601968186 0 0,0 0.3315219026279484,-0.6142597361185319 l 17.12293484129294 9.432614299316988" fill="#ffa10e" stroke="none" /><line stroke="#e1ed5e" stroke-width="0.3" x1="26.266209847984243" x2="21.928928074336255" y1="57.711370442889674" y2="55.22380399835377" /><path d="M 25.398753493254645 57.213857153982495 a86.0,86.0 0 0,1 29.58750427330803,-30.492523968695096" fill="none" id="id59" stroke="none" /><text fill="#e1ed5e" style="font-size:6.75px; font-family:Arial;" text-anchor="middle"><textPath startOffset="21.46611528233685" xlink:href="#id59">November</textPath></text><path d="M 81.78341655067845 89.55222093294921 l -35.99828403242461 -20.646139239557673 a62.498668879595634,62.498668879595634 0 0,0 0.5432632077358456,-0.9286129233767125 l 35.63756115021843 21.262731575288278" fill="#3aff2e" stroke="none" /><path d="M 81.96595687620814 89.24020034530311 l -9.360204074783367 -5.584655636033006 a31.899623796015455,31.899623796015455 0 0,0 0.2854016834230648,-0.4691253262276214 l 9.262686593074084 5.744948735467703" fill="#ff1702" stroke="none" /><path d="M 82.34701348167596 88.62581576622439 l -16.381240981424543 -10.554772287804772 a40.48713098788312,40.48713098788312 0 0,0 0.38251347679526765,-0.5825942679003958 l 16.197130869271355 10.835184619682835" fill="#ffa00e" stroke="none" /><path d="M 82.54541684631803 88.32363383020206 l -20.830920275353634 -13.934990635258394 a46.06214682589818,46.06214682589818 0 0,0 0.4465298167870075,-0.6552274072495547 l 20.58796599289789 14.291496065778365" fill="#fff216" stroke="none" /><path d="M 82.95767976084542 87.72973835380427 l -15.67311154857954 -11.284448174447814 a40.31282465658548,40.31282465658548 0 0,0 0.4103027535378364,-0.559652494718105 l 15.47654618252807 11.552563112837419" fill="#ff9d0e" stroke="none" /><path d="M 83.39014120810768 87.1503855733568 l -45.30802123397635 -35.050906247014005 a78.28335549595027,78.28335549595027 0 0,0 0.8337025244800386,-1.0587175422727315 l 44.697964628902334 35.82561618323979" fill="#45ffed" stroke="none" /><path d="M 84.07557802195018 86.31012108654704 l -10.185194301043174 -8.75598981761899 a34.43151296899384,34.43151296899384 0 0,0 0.3902371540926446,-0.4461085264409448 l 10.032965283372686 8.930013900262878" fill="#ff4006" stroke="none" /><path d="M 84.31358615837235 86.03803664274999 l -14.264956852614963 -12.69677103254957 a40.09704135880625,40.09704135880625 0 0,0 0.4633239084855142,-0.5116138319442605 l 14.044289303513404 12.940437651763387" fill="#ff9a0e" stroke="none" /><path d="M 84.80347519578584 85.50635884689758 l -22.317061222486505 -21.284831967690323 a51.8398329032604,51.8398329032604 0 0,0 0.6214256431147414,-0.6404337500859301 l 21.947371315668647 21.665829913326377" fill="#bdff1f" stroke="none" /><path d="M 85.05521093208273 85.24692304244772 l -30.363227814401657 -29.973727604305815 a63.665559293256415,63.665559293256415 0 0,0 0.7766112882503574,-0.7732762725723558 l 29.84278072598399 30.49193972752828" fill="#30ff33" stroke="none" /><path d="M 85.31137513191541 84.99185889309783 l -8.352816052560916 -8.534511779194139 a32.94183517375461,32.94183517375461 0 0,0 0.4086619070914569,-0.39313243083957267 l 8.204670901857032 8.677027296796025" fill="#ff2803" stroke="none" /><path d="M 86.10567301691215 84.25364557470407 l -12.651933815280115 -14.33835796892357 a40.12223675492024,40.12223675492024 0 0,0 0.521791984282432,-0.45249286694612706 l 12.40324803235091 14.554015829289376" fill="#ff9a0e" stroke="none" /><path d="M 86.93701828274178 83.55741782278169 l -39.18894515177469 -49.32774653165494 a84.0,84.0 0 0,0 1.1398697793622974,-0.889686443107113 l 38.334042817252964 49.99501136398527" fill="#4dd2ff" stroke="none" /><path d="M 87.51073957382395 83.11751280151077 l -11.375115426264305 -15.376430149758942 a40.12662686181889,40.12662686181889 0 0,0 0.55881999831729,-0.40600649427739655 l 11.108750111593233 15.569955878853007" fill="#ff9a0e" stroke="none" /><line stroke="#e1ed5e" stroke-width="0.3" x1="56.762969772571076" x2="54.21961505331055" y1="26.818313649435495" y2="22.513508569990535" /><path d="M 56.25429882871897 25.957352633546506 a86.0,86.0 0 0,1 42.265352541879196,-11.944610805530505" fill="none" id="id60" stroke="none" /><text fill="#e1ed5e" style="font-size:6.75px; font-family:Arial;" text-anchor="middle"><textPath startOffset="22.20632615414155" xlink:href="#id60">December</textPath></text></svg>