<?xml version="1.0" encoding="utf-8" ?>
<svg baseProfile="full" height="200mm" version="1.1" viewBox="0,0,200,200" width="200mm" xmlns="http://www.w3.org/2000/svg" xmlns:ev="http://www.w3.org/2001/xml-events" xmlns:xlink="http://www.w3.org/1999/xlink"><defs /><rect fill="#1a1a1a" height="200" width="200" x="0" y="0" /><text alignment-baseline="middle" fill="#e1ed5e" style="dominant-baseline: central; font-size:9.0px; font-family:Arial;" text-anchor="middle" x="100.0" y="100.0">2024</text><line stroke="#e1ed5e" stroke-width="0.3" x1="100.0" x2="100.0" y1="15.0" y2="10.0" /><path d="M 100.0 14.0 a86.0,86.0 0 0,1 42.35913384403234,11.155469271406648" fill="none" id="id37" stroke="none" /><text fill="#e1ed5e" style="font-size:6.75px; font-family:Arial;" text-anchor="middle"><textPath startOffset="22.145653131862478" xlink:href="#id37">January</textPath></text><path d="M 100.0 79.0 l 0.0 -10.865284103636228 a31.865284103636228,31.865284103636228 0 0,0 0.5470099746504543,0.004695422742640353 l -0.18651704980159958 10.863683079088021" fill="#ff4706" stroke="none" /><path d="M 104.64783097203109 79.52079915486377 l 2.4108042099476164 -10.622448172258327 a31.892583812439334,31.892583812439334 0 0,0 0.5328610568543237,0.12575375851218465 l -2.592797420541825 10.579498270099915" fill="#ff4706" stroke="none" /><path d="M 106.72888874123014 80.10723608172694 l 4.060168157997912 -12.003165714518342 a33.67126483984171,33.67126483984171 0 0,0 0.545946253614744,0.18990844690614103 l -4.265620183657674 11.93169883504361" fill="#ff6209" stroke="none" /><path d="M 109.3889696526874 81.21577127319529 l 4.760156838906226 -9.523502380464594 a31.646886433211378,31.646886433211378 0 0,0 0.48385494053457273,0.24705978023989889 l -4.9229390011543765 9.440384648551861" fill="#ff4406" stroke="none" /><line stroke="#e1ed5e" stroke-width="0.3" x1="143.13028292997686" x2="145.6673583964461" y1="26.7553504044142" y2="22.446841604673864" /><path d="M 143.63769802327073 25.89364864446614 a86.0,86.0 0 0,1 29.32050498858742,28.57503671076993" fill="none" id="id38" stroke="none" /><text fill="#e1ed5e" style="font-size:6.75px; font-family:Arial;" text-anchor="middle"><textPath startOffset="20.669276256404974" xlink:href="#id38">February</textPath></text><path d="M 111.5731344415666 82.4767994020092 l 3.489262815328966 -5.28318862628221 a27.331432464720375,27.331432464720375 0 0,0 0.38928251913447603,0.26192665200051524 l -3.5794416225604433 5.222512300224576" fill="#ff0000" stroke="none" /><path d="M 113.59037401385872 83.9905735841838 l 7.2802857028432895 -8.576158251931384 a32.24958000447995,32.24958000447995 0 0,0 0.4189689140119753,0.36189536921924487 l -7.4264340966181255 8.449918750247418" fill="#ff4d07" stroke="none" /><path d="M 114.39649973595853 84.71141617570332 l 7.4990567225224245 -7.963738367533555 a31.938783319644592,31.938783319644592 0 0,0 0.3959306698137863,0.37929262536751596 l -7.634659878201522 7.833833611860459" fill="#ff4806" stroke="none" /><path d="M 115.6541949942343 86.00192230759917 l 9.600615383399807 -8.584929476168348 a33.87916262226536,33.87916262226536 0 0,0 0.3839459936403254,0.436860060768755 l -9.746572440998722 8.418857137588295" fill="#ff6509" stroke="none" /><path d="M 116.1254893667686 86.54754324733833 l 8.078783999055078 -6.739608943921431 a31.520887777197043,31.520887777197043 0 0,0 0.34305710294765,0.41847388529144414 l -8.193287921241357 6.599932776931492" fill="#ff4206" stroke="none" /><line stroke="#e1ed5e" stroke-width="0.3" x1="172.87174338648825" x2="177.1583165268699" y1="56.24261187166439" y2="53.66864786411523" /><path d="M 173.72905801456457 55.72781907015455 a86.0,86.0 0 0,1 12.242430191666344,42.057860355516425" fill="none" id="id39" stroke="none" /><text fill="#e1ed5e" style="font-size:6.75px; font-family:Arial;" text-anchor="middle"><textPath startOffset="22.145653131862474" xlink:href="#id39">March</textPath></text><path d="M 118.36410011445183 89.81374322990088 l 14.74805148936705 -8.180495553447368 a37.864920107518856,37.864920107518856 0 0,0 0.31041057537871153,0.5711204964250906 l -14.886307414361104 7.926120223547675" fill="#ffa00e" stroke="none" /><path d="M 118.8641267826498 90.77261029715802 l 17.017147254391016 -8.323939462246146 a39.943897931755394,39.943897931755394 0 0,0 0.2960047160053958,0.618536010771163 l -17.157531228356323 8.030590949409879" fill="#ffbd11" stroke="none" /><path d="M 119.16976305983485 91.42560881287824 l 19.641129725723044 -8.785227501231608 a42.51637049204808,42.51637049204808 0 0,0 0.29228206469834356,0.6687985632850627 l -19.789045672438355 8.446766868170696" fill="#ffe115" stroke="none" /><path d="M 119.71291397450082 92.76114493625339 l 9.89183471950084 -3.6324187251883133 a31.537687597998953,31.537687597998953 0 0,0 0.1822575430523997,0.5098067855285587 l -9.952732432597184 3.4620769832788376" fill="#ff4206" stroke="none" /><path d="M 119.83427380445688 93.10060997987247 l 22.230016959854375 -7.7327538518511805 a44.53654894347794,44.53654894347794 0 0,0 0.24498193694417086,0.7242455661379649 l -22.35948431837091 7.350006611239054" fill="#fffc17" stroke="none" /><path d="M 120.05942366710727 93.78553927170692 l 12.05157318908403 -3.7336081804045564 a33.6166654222355,33.6166654222355 0 0,0 0.1660402022286229,0.5526938315699949 l -12.113889711316281 3.526176745243838" fill="#ff6109" stroke="none" /><path d="M 120.26092885502905 94.47779374421319 l 33.77258206757255 -9.204867422518532 a56.00452661838274,56.00452661838274 0 0,0 0.244847841243763,0.9297271344067033 l -33.92561938962104 8.62375978373903" fill="#73ff27" stroke="none" /><path d="M 120.592083275326 95.88100663000786 l 10.398891132534215 -2.080069464438408 a31.6048868812066,31.6048868812066 0 0,0 0.10184856558353661,0.5329147322403573 l -10.433065990399909 1.9012521671647362" fill="#ff4306" stroke="none" /><path d="M 120.77682067341334 96.94652285012252 l 44.30543263651094 -6.511372856201141 a65.78135033226312,65.78135033226312 0 0,0 0.15460334987141794,1.1186328240970163 l -44.41068050293757 5.7498517239040385" fill="#34ff5e" stroke="none" /><path d="M 120.96210409425399 98.7389718711861 l 15.08626539647037 -0.9075522637498918 a36.113538788919584,36.113538788919584 0 0,0 0.03191475614384557,0.6191377430949806 l -15.099621742070788 0.6484427272781806" fill="#ff860c" stroke="none" /><line stroke="#e1ed5e" stroke-width="0.3" x1="184.99686870605535" x2="189.99668451229388" y1="99.2704041080226" y2="99.22748670261217" /><path d="M 185.99683186730306 99.26182062694052 a86.0,86.0 0 0,1 -10.086455211305974,41.156179273409016" fill="none" id="id40" stroke="none" /><text fill="#e1ed5e" style="font-size:6.75px; font-family:Arial;" text-anchor="middle"><textPath startOffset="21.40746469413373" xlink:href="#id40">April</textPath></text><path d="M 120.99922638620191 99.81974689727618 l 10.593996709207296 -0.09093672033248774 a31.594386993205404,31.594386993205404 0 0,0 0.0,0.5423796461126279 l -10.593996709207296 -0.09093672033248645" fill="#ff4306" stroke="none" /><path d="M 120.99303781780057 100.54070618675476 l 12.608284025008096 0.3247446718217396 a33.61246546703502,33.61246546703502 0 0,0 -0.019807846712489044,0.5766838447775182 l -12.600851491298762 -0.5411347811633686" fill="#ff6109" stroke="none" /><path d="M 120.98066250479742 100.90099992219065 l 12.751910650035606 0.547621911407085 a33.76366385425222,33.76366385425222 0 0,0 -0.029838092155118602,0.5788510164989205 l -12.740630968423915 -0.7664447212827362" fill="#ff6409" stroke="none" /><path d="M 120.86939407059847 102.33845913500097 l 12.665500162777805 1.419195710944512 a33.74476405585007,33.74476405585007 0 0,0 -0.06944658581684432,0.5751173536341154 l -12.639271490701297 -1.6364067415020358" fill="#ff6309" stroke="none" /><path d="M 120.77682067341334 103.0534771498775 l 11.1528783734523 1.6390890504376974 a32.27267975808258,32.27267975808258 0 0,0 -0.08525905322275995,0.5474242824081271 l -11.123097828091272 -1.8303015147772752" fill="#ff4d07" stroke="none" /><path d="M 120.65975698304385 103.76489593502545 l 8.2824082288145 1.50933068082444 a29.41881019935787,29.41881019935787 0 0,0 -0.0948038077541894,0.4960535824459232 l -8.255278128778151 -1.6512868283036777" fill="#ff2103" stroke="none" /><path d="M 120.51834098615036 104.47187691870673 l 28.594054995045877 6.231941199870228 a50.265287836929744,50.265287836929744 0 0,0 -0.19098209571736435,0.8415023522922493 l -28.482862037770847 -6.7218778861014945" fill="#b8ff1f" stroke="none" /><path d="M 120.35273937422433 105.17358676015961 l 11.509351349709462 2.925632106127794 a32.875373329351156,32.875373329351156 0 0,0 -0.14372881400505014,0.5457617175540094 l -11.457433054899681 -3.1227743280546063" fill="#ff5608" stroke="none" /><path d="M 120.16314734710363 105.8691983318838 l 14.34592631425022 4.175890070307905 a35.94134062569999,35.94134062569999 0 0,0 -0.1775222911286024,0.5909139711710126 l -14.272127703117988 -4.421541645069642" fill="#ff840c" stroke="none" /><path d="M 119.94978838288452 106.5578916946017 l 26.223717109652533 8.6202566831493 a48.604205555140744,48.604205555140744 0 0,0 -0.26735687211962855,0.7903930862187749 l -26.07187481596054 -9.069151443842236" fill="#cdff1d" stroke="none" /><path d="M 119.4528033332814 107.91128576633889 l 21.621560274966 8.793300334082106 a44.34125102665571,44.34125102665571 0 0,0 -0.2928088351579607,0.7026346110654564 l -21.467425595271553 -9.163167454588839" fill="#fffa17" stroke="none" /><path d="M 119.0197475246899 108.90220220490707 l 37.704345313261925 17.647537410608738 a62.629955947136565,62.629955947136565 0 0,0 -0.46412001040149603,0.9698323176296252 l -37.395846044900516 -18.292182230303464" fill="#30ff35" stroke="none" /><path d="M 118.8641267826498 109.22738970284198 l 12.006888623677956 5.873170898702662 a34.366357425520796,34.366357425520796 0 0,0 -0.26377011773533665,0.5277169280676649 l -11.904298592730887 -6.078419682934072" fill="#ff6d0a" stroke="none" /><path d="M 118.5362547648365 109.86951160357373 l 13.392301216381393 7.13064607335723 a36.17233816172627,36.17233816172627 0 0,0 -0.2965350585632247,0.5455911083166167 l -13.267920808202827 -7.35949201514845" fill="#ff870c" stroke="none" /><line stroke="#e1ed5e" stroke-width="0.3" x1="174.33088141563837" x2="178.70328620479359" y1="141.23008692659167" y2="143.65538615756765" /><path d="M 175.20536237346943 141.71514677278685 a86.0,86.0 0 0,1 -30.301960400862466,31.631185727798858" fill="none" id="id41" stroke="none" /><text fill="#e1ed5e" style="font-size:6.75px; font-family:Arial;" text-anchor="middle"><textPath startOffset="22.145653131862474" xlink:href="#id41">May</textPath></text><path d="M 118.18653347947321 110.5 l 22.341918065740142 12.899112409467628 a46.79822481893527,46.79822481893527 0 0,0 -0.40764883993528384,0.6922768507589552 l -22.117195515675093 -13.280740428520133" fill="#e4ff1a" stroke="none" /><path d="M 117.423217284605 111.72311816256416 l 10.636760693470622 7.1568872981142375 a33.82036324945867,33.82036324945867 0 0,0 -0.3282351016606495,0.47890482274774404 l -10.512335854994653 -7.338426855932026" fill="#ff6509" stroke="none" /><path d="M 115.16444852881244 114.52719865689866 l 7.726204112586071 7.401528766049696 a31.699385873217352,31.699385873217352 0 0,0 -0.37980875624357774,0.38971724323110735 l -7.5980085551916865 -7.53306870134854" fill="#ff4406" stroke="none" /><path d="M 114.65682725009322 115.03919595460226 l 10.26827310441461 10.536152790617168 a35.71217007018592,35.71217007018592 0 0,0 -0.4427076408917478,0.42410390552230887 l -10.085892977657549 -10.710868826445056" fill="#ff810b" stroke="none" /><path d="M 112.45986205192187 116.90419585922612 l 4.692483513940918 6.366255104213753 a28.908767639811842,28.908767639811842 0 0,0 -0.4019956722624565,0.29101386569577026 l -4.582506831304493 -6.445869741282601" fill="#ff1902" stroke="none" /><line stroke="#e1ed5e" stroke-width="0.3" x1="143.1302829299769" x2="145.66735839644613" y1="173.24464959558577" y2="177.55315839532614" /><path d="M 143.63769802327073 174.10635135553383 a86.0,86.0 0 0,1 -40.68552437913181,11.842963189579606" fill="none" id="id42" stroke="none" /><text fill="#e1ed5e" style="font-size:6.75px; font-family:Arial;" text-anchor="middle"><textPath startOffset="21.407464694133747" xlink:href="#id42">June</textPath></text><path d="M 107.74402155503746 119.51999308798841 l 2.4355230082980803 6.139108982294826 a27.604576551183456,27.604576551183456 0 0,0 -0.4419725866013612,0.17096449114994963 l -2.32977815920319 -6.180013361582817" fill="#ff0400" stroke="none" /><path d="M 105.69591212413111 120.21278271476187 l 3.4323200345877045 12.180092942924112 a33.6544650190398,33.6544650190398 0 0,0 -0.5574118512007015,0.1519250787451538 l -3.2227267824523076 -12.237218515813408" fill="#ff6209" stroke="none" /><path d="M 104.9986988182912 120.39639698878246 l 5.007593074849812 20.43268859071408 a42.037365601433585,42.037365601433585 0 0,0 -0.7023599967154425,0.1657550467977249 l -4.65610092439449 -20.51563978115803" fill="#ffda14" stroke="none" /><path d="M 104.64783097203109 120.47920084513623 l 2.8129441996474376 12.394351166683444 a33.709547431494066,33.709547431494066 0 0,0 -0.5654175963872422,0.12323013348990693 l -2.59976418664106 -12.44081275830707" fill="#ff6309" stroke="none" /><path d="M 103.94208987418118 120.62667999033965 l 4.149679426696954 21.712876248097515 a43.10585520421115,43.10585520421115 0 0,0 -0.7280071248338618,0.132667149338019 l -3.7763375683120346 -21.7809115713669" fill="#ffe915" stroke="none" /><path d="M 103.2317021107853 120.74984581791261 l 3.303481757952425 21.210722643970072 a42.466433024714405,42.466433024714405 0 0,0 -0.7212719292527765,0.10600213523716302 l -2.938884723091963 -21.264305852506116" fill="#ffe015" stroke="none" /><path d="M 102.875027216393 120.80226474461374 l 1.8435426625942586 13.338956346781867 a34.4657493653401,34.4657493653401 0 0,0 -0.5867747515839533,0.07596973923232633 l -1.61429008911953 -13.368637682214587" fill="#ff6e0a" stroke="none" /><path d="M 102.15924093988457 120.88869738790638 l 1.2277831238476002 11.87768796816255 a32.94097662958262,32.94097662958262 0 0,0 -0.56297766166101,0.0533145698849659 l -1.023705898801575 -11.897014293552699" fill="#ff5708" stroke="none" /><path d="M 101.80034050326958 120.92268563240118 l 2.2076673981086192 25.65644158293496 a46.75124832001792,46.75124832001792 0 0,0 -0.8001832466274575,0.06193924400150692 l -1.7669151567059258 -25.69055859393152" fill="#e5ff1a" stroke="none" /><path d="M 100.72087961077811 120.9876233191556 l 0.5872936335558916 17.09841334741705 a38.10849650937057,38.10849650937057 0 0,0 -0.6539902267980326,0.01684446837927606 l -0.29369009268711516 -17.105975533146374" fill="#ffa30f" stroke="none" /><line stroke="#e1ed5e" stroke-width="0.3" x1="101.45913802915013" x2="101.54496967792366" y1="184.9874750549273" y2="189.98673829345242" /><path d="M 101.47630435890484 185.9873277026323 a86.0,86.0 0 0,1 -42.54439059252881,-10.42667462771756" fill="none" id="id43" stroke="none" /><text fill="#e1ed5e" style="font-size:6.75px; font-family:Arial;" text-anchor="middle"><textPath startOffset="22.145653131862474" xlink:href="#id43">July</textPath></text><path d="M 100.0 121.0 l 2.2282556180284193e-15 18.195087919062196 a39.195087919062196,39.195087919062196 0 0,0 -0.6728358039833638,-0.005775486156545888 l 0.31234287913450953 -18.192406831100087" fill="#ffb310" stroke="none" /><path d="M 98.55909050195518 120.95050786540614 l -1.4430223291352555 20.98122796575837 a42.03079267154484,42.03079267154484 0 0,0 -0.7193890504917619,-0.05568526224239581 l 1.8029803744022534 -20.95336493652092" fill="#ffda14" stroke="none" /><path d="M 97.84075906011543 120.88869738790638 l -1.6634744318054386 16.09260614536184 a37.178353430896735,37.178353430896735 0 0,0 -0.6342699653279548,-0.07107127257554287 l 1.9394802987341926 -16.06167911227933" fill="#ff960d" stroke="none" /><path d="M 97.12497278360702 120.80226474461374 l -2.590225266512526 18.74157970921144 a39.91972718957665,39.91972718957665 0 0,0 -0.6780173561672515,-0.09964520254662043 l 2.9115677282874626 -18.694353433365936" fill="#ffbd11" stroke="none" /><path d="M 96.05791012581884 120.62667999033965 l -3.5009523842175696 18.31846223589008 a39.650006066601954,39.650006066601954 0 0,0 -0.6674484044410773,-0.13350837387098222 l 3.814897274189605 -18.255664465356237" fill="#ffb911" stroke="none" /><path d="M 95.70440661134978 120.55596938700252 l -4.95216497094626 23.697902089877427 a45.20980176211454,45.20980176211454 0 0,0 -0.758313872276911,-0.16527097901624596 l 5.358241259842307 -23.609399652727465" fill="#f9ff18" stroke="none" /><path d="M 94.6519064749342 120.30758222061772 l -2.791888963676409 10.601257142375092 a31.962723064287314,31.962723064287314 0 0,0 -0.5293918837396534,-0.1442881120143808 l 2.973462248350758 -10.551768536216567" fill="#ff4806" stroke="none" /><path d="M 94.30408787586889 120.21278271476187 l -5.698938519824848 20.223522325421797 a42.0111578809826,42.0111578809826 0 0,0 -0.6924638889884609,-0.20156614600769285 l 6.0452624211949155 -20.122712485111588" fill="#ffda14" stroke="none" /><path d="M 93.61358852112213 120.00534299687104 l -3.2036069639878075 10.035253186191753 a31.53420163518256,31.53420163518256 0 0,0 -0.5142736688800653,-0.1690519697338913 l 3.3754033705156163 -9.97878029505584" fill="#ff4206" stroke="none" /><path d="M 92.93061703081489 119.77432235084164 l -5.316769663850619 14.871951011345075 a36.79376353318898,36.79376353318898 0 0,0 -0.5929242252906775,-0.2177299883830157 l 5.571283040795415 -14.77849017395334" fill="#ff900d" stroke="none" /><path d="M 91.92203290615298 119.3841803445677 l -4.80603219374601 11.532727690402654 a33.494068729933545,33.494068729933545 0 0,0 -0.5288313514608013,-0.2257266576826595 l 5.003298620377243 -11.44852638306059" fill="#ff6008" stroke="none" /><path d="M 91.26138138417905 119.09545874513695 l -2.8665771352925127 6.263988375419976 a27.888745520047785,27.888745520047785 0 0,0 -0.43361857944102505,-0.20295538986401415 l 2.973684428605028 -6.213856753985436" fill="#ff0901" stroke="none" /><path d="M 90.93487009805054 118.94263497670748 l -6.828598865451615 14.269145297387476 a36.818921264839844,36.818921264839844 0 0,0 -0.5677823945164394,-0.27773082109661706 l 7.072541509230123 -14.149820726193639" fill="#ff910d" stroke="none" /><path d="M 90.28995756902619 118.62028667847754 l -20.628774814381607 39.558395712491276 a65.61404511685208,65.61404511685208 0 0,0 -0.994243952269879,-0.529378903570392 l 21.30480758243805 -39.19844634119831" fill="#34ff5c" stroke="none" /><line stroke="#e1ed5e" stroke-width="0.3" x1="58.13341422392154" x2="55.67067388415222" y1="173.97424548756322" y2="178.32567169271397" /><path d="M 57.64086615596768 174.84453072859336 a86.0,86.0 0 0,1 -31.369924170532247,-30.572349798747897" fill="none" id="id44" stroke="none" /><text fill="#e1ed5e" style="font-size:6.75px; font-family:Arial;" text-anchor="middle"><textPath startOffset="22.145653131862474" xlink:href="#id44">August</textPath></text><path d="M 89.65649057296885 118.27599006163327 l -8.290348153988853 14.648250822280966 a37.831551463451056,37.831551463451056 0 0,0 -0.5624426342579208,-0.3247264062925353 l 8.540583256107174 -14.50377751871226" fill="#ff9f0e" stroke="none" /><path d="M 89.03521579738668 117.91015095944536 l -23.13828773822004 37.79465411055101 a65.31496630702605,65.31496630702605 0 0,0 -0.9512218868371373,-0.5936328094529376 l 23.78367375384689 -37.39188550425652" fill="#34ff58" stroke="none" /><path d="M 88.1277618465304 117.32195027204791 l -9.698553468857227 14.150479355844652 a38.155116012095874,38.155116012095874 0 0,0 -0.5370875995242859,-0.37492885679298643 l 9.940036159555278 -13.981905683246536" fill="#ffa40f" stroke="none" /><path d="M 87.54013794807813 116.9041958592261 l -8.314551696764763 11.280286232550468 a35.01344452325842,35.01344452325842 0 0,0 -0.48076295601048874,-0.36077348498952894 l 8.506967641686018 -11.135893720296924" fill="#ff760a" stroke="none" /><path d="M 86.40962598614128 116.0094264158162 l -11.211096373216607 13.206643337748314 a38.32351321585903,38.32351321585903 0 0,0 -0.49787813394597485,-0.43005527399442567 l 11.436153986925445 -13.012243931289166" fill="#ffa60f" stroke="none" /><path d="M 85.86807049272751 115.53346607816431 l -11.316332747848302 12.438632019602249 a37.8160326289853,37.8160326289853 0 0,0 -0.4764284000309103,-0.44097501440559445 l 11.528190919193179 -12.242539259064277" fill="#ff9f0e" stroke="none" /><path d="M 85.34317274990678 115.03919595460226 l -10.466416638477588 10.739465512058413 a35.99606604196222,35.99606604196222 0 0,0 -0.4388230357275147,-0.43507243402758816 l 10.649231594335065 -10.558213067802164" fill="#ff850c" stroke="none" /><path d="M 85.08716467003676 114.78537596483092 l -12.595395497154959 12.487743191061812 a38.73662080937804,38.73662080937804 0 0,0 -0.4641259559264633,-0.47623411804562327 l 12.807908254232231 -12.269686380948452" fill="#ffac0f" stroke="none" /><path d="M 84.83555147118756 114.52719865689866 l -11.102229277620491 10.635684505373828 a36.37456600462929,36.37456600462929 0 0,0 -0.4280838946866543,-0.4546102613679896 l 11.283169006043398 -10.443532784061349" fill="#ff8a0c" stroke="none" /><path d="M 84.3458050057657 113.99807769240083 l -12.526509760232127 11.201282269891855 a37.80423075487195,37.80423075487195 0 0,0 -0.42842803120075384,-0.48747245405751277 l 12.716948855391474 -10.984597538023042" fill="#ff9f0e" stroke="none" /><path d="M 84.1078160697243 113.72728997021213 l -8.187740639001131 7.0723753541725145 a31.819315593966998,31.819315593966998 0 0,0 -0.35350568159787726,-0.4164288040449057 l 8.30794088410612 -6.930779767678055" fill="#ff4606" stroke="none" /><path d="M 83.20337586046588 112.60449989151573 l -6.732502243868053 5.052195196934258 a29.417319215261706,29.417319215261706 0 0,0 -0.2996335794953456,-0.40651049688058566 l 6.818237842947229 -4.935878390784793" fill="#ff2103" stroke="none" /><path d="M 82.78059297857968 112.02048342749411 l -9.55777098938043 6.6720664444898485 a32.65621966699022,32.65621966699022 0 0,0 -0.31693679642599215,-0.462420257756436 l 9.670897522621747 -6.507011451663361" fill="#ff5307" stroke="none" /><path d="M 82.37810715431573 111.42229804090323 l -13.697139743412308 8.878320497532277 a37.32287388934518,37.32287388934518 0 0,0 -0.3438721807269669,-0.5406241837538692 l 13.847529615765163 -8.641882639099736" fill="#ff980e" stroke="none" /><path d="M 81.99639281039703 110.81064883170644 l -23.659296044035415 14.206727487653486 a48.59698163219592,48.59698163219592 0 0,0 -0.4233174070890149,-0.7188855032619546 l 23.8996871612542 -13.798490816097972" fill="#cdff1d" stroke="none" /><line stroke="#e1ed5e" stroke-width="0.3" x1="26.387840678322732" x2="22.057713659400548" y1="142.50000000000003" y2="145.00000000000006" /><path d="M 25.521815274538298 143.00000000000003 a86.0,86.0 0 0,1 -11.493303480769221,-40.785679425670985" fill="none" id="id45" stroke="none" /><text fill="#e1ed5e" style="font-size:6.75px; font-family:Arial;" text-anchor="middle"><textPath startOffset="21.40746469413373" xlink:href="#id45">September</textPath></text><path d="M 81.81346652052679 110.50000000000001 l -16.408151961696646 9.473250951989856 a39.946501903979694,39.946501903979694 0 0,0 -0.33776980582175137,-0.5968068824093419 l 16.568355132539775 -9.190187299481392" fill="#ffbd11" stroke="none" /><path d="M 81.4637452351635 109.86951160357371 l -13.137004102674515 6.99471473997543 a35.88310824684537,35.88310824684537 0 0,0 -0.2848297430879799,-0.5461985885805675 l 13.255141914737445 -6.768169908290361" fill="#ff830c" stroke="none" /><path d="M 81.29705330413844 109.54985784667822 l -9.980721043222053 5.096227280122177 a32.20653046367505,32.20653046367505 0 0,0 -0.24719292263257053,-0.49455143323937356 l 10.066733879066359 -4.92414399071905" fill="#ff4c07" stroke="none" /><path d="M 81.1358732173502 109.22738970284198 l -21.259134788518796 10.398908133894166 a44.666180560740685,44.666180560740685 0 0,0 -0.3309992458551914,-0.6916611189931201 l 21.434513292333897 -10.032434512835941" fill="#fffe18" stroke="none" /><path d="M 80.68587082218212 108.24405325689762 l -21.46448987895083 9.161914371860018 a44.33805906070335,44.33805906070335 0 0,0 -0.2927877569111649,-0.7025840309464054 l 21.61860348039848 -8.792097831472331" fill="#fff917" stroke="none" /><path d="M 79.83685265289637 105.86919833188381 l -6.369309002475236 1.8540130233165244 a27.633661240946765,27.633661240946765 0 0,0 -0.1286695745542926,-0.4566029278170209 l 6.400197069104104 -1.744402171596508" fill="#ff0500" stroke="none" /><path d="M 79.56144815229197 104.8234425847677 l -15.338560779352948 3.6198585791916225 a36.75991189427313,36.75991189427313 0 0,0 -0.13966865234572115,-0.6154058528310878 l 15.398440293256336 -3.3560183924215083" fill="#ff900d" stroke="none" /><path d="M 79.407916724674 104.11899336999214 l -10.317079658337073 2.0637048783350163 a31.52145477114911,31.52145477114911 0 0,0 -0.10157970081066454,-0.5315079181372518 l 10.350985651429895 -1.88629439516445" fill="#ff4206" stroke="none" /><path d="M 79.2786578344484 103.40968896794605 l -31.092290924412982 5.116224639607836 a52.510415888897185,52.510415888897185 0 0,0 -0.13872378670071545,-0.8907062243485592 l 31.175536203251966 -4.581730233327827" fill="#9dff22" stroke="none" /><path d="M 79.22317932658666 103.0534771498775 l -10.8131186490837 1.589156071224201 a31.92927042111551,31.92927042111551 0 0,0 -0.07504212274635755,-0.542967418001025 l 10.83880528838527 -1.4033003450230903" fill="#ff4806" stroke="none" /><path d="M 79.13060592940153 102.33845913500099 l -13.905838499694163 1.5581782086941849 a34.99286474277608,34.99286474277608 0 0,0 -0.061766751248922336,-0.5975372880535502 l 13.930537643424753 -1.3192363983577031" fill="#ff760a" stroke="none" /><path d="M 79.06263194458094 101.62068470465958 l -17.06676696328418 1.3210757007361784 a38.11782040991562,38.11782040991562 0 0,0 -0.044899232664890924,-0.6528249889204732 l 17.086930157114136 -1.027907287661362" fill="#ffa30f" stroke="none" /><path d="M 79.03789590574601 101.26102812881392 l -21.177620174976852 1.2739930410565663 a42.215905697005894,42.215905697005894 0 0,0 -0.037307624256554664,-0.7237579437652422 l 21.19636938868998 -0.9102633039145933" fill="#ffdd14" stroke="none" /><path d="M 79.00696218219943 100.54070618675478 l -10.502263942302736 0.2705010650587952 a31.50574693869932,31.50574693869932 0 0,0 -0.009284546188821864,-0.5407782689882266 l 10.505359920090225 -0.09017588010151624" fill="#ff4106" stroke="none" /><line stroke="#e1ed5e" stroke-width="0.3" x1="15.003131293944662" x2="10.003315487706104" y1="100.72959589197737" y2="100.7725132973878" /><path d="M 14.003168132696942 100.73817937305945 a86.0,86.0 0 0,1 10.791469493833604,-42.45332614584628" fill="none" id="id46" stroke="none" /><text fill="#e1ed5e" style="font-size:6.75px; font-family:Arial;" text-anchor="middle"><textPath startOffset="22.145653131862435" xlink:href="#id46">October</textPath></text><path d="M 79.00077361379809 100.18025310272382 l -62.99767915860572 0.5407593081714642 a84.0,84.0 0 0,0 0.0,-1.4420248217905405 l 62.99767915860572 0.540759308171441" fill="#4dd2ff" stroke="none" /><path d="M 79.06263194458094 98.37931529534042 l -21.091912099688983 -1.6326473910909243 a42.15500634659897,42.15500634659897 0 0,0 0.06204088244414384,-0.7210090965449024 l 21.060777594547098 1.9944775350115074" fill="#ffdc14" stroke="none" /><path d="M 79.17382384314186 97.30363454192245 l -14.58739370697198 -1.88863016516379 a35.70914610244158,35.70914610244158 0 0,0 0.08392581758508184,-0.607245408446376 l 14.55282337283169 2.138763881810233" fill="#ff810b" stroke="none" /><path d="M 79.2786578344484 96.59031103205396 l -22.238736052572044 -3.6593755546191575 a43.5377995968043,43.5377995968043 0 0,0 0.12768015876931998,-0.7364252260996141 l 22.17264107631049 4.040593813639364" fill="#ffef16" stroke="none" /><path d="M 79.407916724674 95.88100663000787 l -20.605598401821023 -4.121696773804329 a42.0137828529829,42.0137828529829 0 0,0 0.1475329773574726,-0.7059987041945159 l 20.531807713639186 4.474811929284254" fill="#ffda14" stroke="none" /><path d="M 79.64726062577567 94.8264132398404 l -15.468873501843726 -3.9321271536093825 a36.960816751287986,36.960816751287986 0 0,0 0.16159008456272117,-0.6135838711335215 l 15.399093936476278 4.1970915291156885" fill="#ff930d" stroke="none" /><path d="M 79.83685265289637 94.1308016681162 l -20.16317423101334 -5.869206157398104 a42.00002799970134,42.00002799970134 0 0,0 0.2074474982895055,-0.6905252531635047 l 20.059450412720203 6.214469014152331" fill="#ffda14" stroke="none" /><path d="M 80.28708602549916 92.7611449362534 l -13.799621964000021 -5.067412329861793 a35.7006201933846,35.7006201933846 0 0,0 0.2161915932092028,-0.5734738860938127 l 13.710599686976382 5.303554496149751" fill="#ff800b" stroke="none" /><path d="M 80.83023694016515 91.42560881287825 l -19.170306197328085 -8.574634125614034 a42.0005949936534,42.0005949936534 0 0,0 0.3000353206847314,-0.6556313234504237 l 19.020286411788305 8.902454431279128" fill="#ffda14" stroke="none" /><path d="M 81.1358732173502 90.77261029715801 l -39.856286720587754 -19.495707059036704 a65.3689777309042,65.3689777309042 0 0,0 0.5017227382822245,-1.0037815673026913 l 39.515744069093785 20.177020482503163" fill="#34ff59" stroke="none" /><path d="M 81.63589988554816 89.8137432299009 l -11.04390509437608 -6.12586798889156 a33.62909728962891,33.62909728962891 0 0,0 0.2843526496708765,-0.5024238858237905 l 10.937119079683836 6.314548644814456" fill="#ff6209" stroke="none" /><line stroke="#e1ed5e" stroke-width="0.3" x1="26.387840678322718" x2="22.05771365940052" y1="57.49999999999999" y2="54.99999999999999" /><path d="M 25.521815274538284 56.99999999999999 a86.0,86.0 0 0,1 29.574782752854787,-30.34633250058573" fill="none" id="id47" stroke="none" /><text fill="#e1ed5e" style="font-size:6.75px; font-family:Arial;" text-anchor="middle"><textPath startOffset="21.40746469413373" xlink:href="#id47">November</textPath></text><path d="M 82.18462484594161 88.88188828441811 l -19.793597063964864 -12.352668496023398 a44.33184312700665,44.33184312700665 0 0,0 0.4084489210805796,-0.642149545501225 l 19.578630451258395 12.690631716203294" fill="#fff917" stroke="none" /><path d="M 82.576782715395 88.27688183743585 l -16.835457126689633 -11.327646897416269 a41.291579556484734,41.291579556484734 0 0,0 0.4007451284151705,-0.5846991187709915 l 16.63852226145915 11.614980751257296" fill="#ffd013" stroke="none" /><path d="M 82.98947788004972 87.6856937992154 l -11.908922497148437 -8.621141498020448 a35.70192217949675,35.70192217949675 0 0,0 0.36364614529381056,-0.49335583635542796 l 11.759174332270808 8.82430364364474" fill="#ff800b" stroke="none" /><path d="M 83.2033758604659 87.39550010848427 l -8.416245074187982 -6.315707206597927 a31.52242076084522,31.52242076084522 0 0,0 0.32850568821507264,-0.430024491047787 l 8.306587408618602 6.459252610886598" fill="#ff4206" stroke="none" /><path d="M 83.64595745247003 86.82634096563983 l -16.551570017806874 -13.33277318217927 a42.25364229448219,42.25364229448219 0 0,0 0.45986687357890765,-0.5609628124585568 l 16.320256324989337 13.61493827633632" fill="#ffdd14" stroke="none" /><path d="M 84.34580500576568 86.00192230759919 l -18.471533904771583 -16.51735951877707 a45.77944168595535,45.77944168595535 0 0,0 0.5288665622470712,-0.5813169956949371 l 18.185269641682645 16.832014090029666" fill="#f1ff19" stroke="none" /><path d="M 84.83555147118756 85.47280134310135 l -10.099627293110704 -9.675214483987869 a34.986144814455315,34.986144814455315 0 0,0 0.4191893243888746,-0.43012517538688616 l 9.932051167571027 9.847162351442487" fill="#ff760a" stroke="none" /><path d="M 85.34317274990677 84.96080404539775 l -14.658136579361393 -15.040539441776994 a42.00187597998955,42.00187597998955 0 0,0 0.5206782839459346,-0.4987980178009193 l 14.397785809550157 15.289949589883483" fill="#ffda14" stroke="none" /><path d="M 85.86807049272753 84.46653392183569 l -14.402190355030358 -15.830530092582336 a42.40160671619503,42.40160671619503 0 0,0 0.5426092687391314,-0.48520455400131784 l 14.128316059467835 16.075430176467055" fill="#ffdf14" stroke="none" /><path d="M 86.40962598614128 83.9905735841838 l -9.664079829606827 -11.384261739293763 a35.93304571417905,35.93304571417905 0 0,0 0.4736756812103894,-0.39515710012509636 l 9.467229814234528 11.54848102333074" fill="#ff840c" stroke="none" /><path d="M 86.96720088162412 83.53348406188908 l -16.951437637146405 -21.417587694756808 a48.31417764877175,48.31417764877175 0 0,0 0.6547492615222179,-0.5091369859751811 l 16.58127843098894 21.705425732352793" fill="#d1ff1d" stroke="none" /><path d="M 87.83215693770416 82.88440491214696 l -8.520343877960132 -11.984930696247622 a35.70492514746509,35.70492514746509 0 0,0 0.5025976734697118,-0.35085220978425347 l 8.313351113316655 12.129427721837002" fill="#ff800b" stroke="none" /><path d="M 88.4268655584334 82.4767994020092 l -11.58281333642968 -17.537855678436724 a42.01756281266333,42.01756281266333 0 0,0 0.6052817356368354,-0.39233630823333143 l 11.280045968535818 17.734105828373963" fill="#ffda14" stroke="none" /><path d="M 88.72937992617638 82.28071324371311 l -8.758857691936576 -13.77037909931788 a37.31995492048085,37.31995492048085 0 0,0 0.5435133774587827,-0.339192545609875 l 8.521180185688095 13.91870744176929" fill="#ff980e" stroke="none" /><line stroke="#e1ed5e" stroke-width="0.3" x1="56.869717070023135" x2="54.33264160355391" y1="26.7553504044142" y2="22.446841604673864" /><path d="M 56.362301976729285 25.89364864446614 a86.0,86.0 0 0,1 42.16139366436587,-11.88097634709845" fill="none" id="id48" stroke="none" /><text fill="#e1ed5e" style="font-size:6.75px; font-family:Arial;" text-anchor="middle"><textPath startOffset="22.145653131862474" xlink:href="#id48">December</textPath></text><path d="M 89.34428304082924 81.90426304109057 l -12.801833604761226 -21.74031220903549 a46.22950888523856,46.22950888523856 0 0,0 0.6872952800517169,-0.39681011495061586 l 12.426745856849111 21.95686922126228" fill="#ecff1a" stroke="none" /><path d="M 89.97174638481275 81.54914285379989 l -6.047854905823724 -11.127371842621212 a33.66471290972896,33.66471290972896 0 0,0 0.5101184838671557,-0.27160936012138825 l 5.855947606170006 11.229551670465176" fill="#ff6209" stroke="none" /><path d="M 90.61103034731259 81.2157712731953 l -10.497056550130202 -21.00114479967572 a44.478421563503325,44.478421563503325 0 0,0 0.6858990929686781,-0.335507617212846 l 10.13499720789947 21.17824616698578" fill="#fffb17" stroke="none" /><path d="M 91.26138138417902 80.90454125486306 l -17.03498628658441 -37.22451936173504 a61.93721533636974,61.93721533636974 0 0,0 0.9706051157926047,-0.4341393226953719 l 16.393467767936187 37.511462435340256" fill="#32ff2f" stroke="none" /><path d="M 91.92203290615298 80.6158196554323 l -4.898216970916707 -11.753937596922524 a33.73371817367281,33.73371817367281 0 0,0 0.5364392710265231,-0.21816518147369163 l 4.695723238699743 11.836290034975507" fill="#ff6309" stroke="none" /><path d="M 92.93061703081487 80.22567764915836 l -7.071393008968942 -19.77994478985739 a42.00597093631002,42.00597093631002 0 0,0 0.6810852687361365,-0.2369168113892852 l 6.730801968187801 19.89842003381526" fill="#ffda14" stroke="none" /><path d="M 93.27111125876988 80.10723608172694 l -6.825516795817858 -20.178427591981578 a42.301563783319644,42.301563783319644 0 0,0 0.6898725598919015,-0.2267748130466402 l 6.478121498278195 20.292623326430245" fill="#ffde14" stroke="none" /><path d="M 93.61358852112211 79.99465700312896 l -6.410905234436487 -20.082069337297394 a42.080541140894496,42.080541140894496 0 0,0 0.6900394531284928,-0.21377598646921933 l 6.065225148436378 20.189161911573258" fill="#ffdb14" stroke="none" /><path d="M 94.6519064749342 79.69241777938228 l -5.36126217355678 -20.357585723868265 a42.05170844844322,42.05170844844322 0 0,0 0.69964973060551,-0.17784822556093316 l 5.0110071497258915 20.44661918126446" fill="#ffdb14" stroke="none" /><path d="M 95.35216902796891 79.52079915486377 l -4.659623942692438 -20.531162849819236 a42.05328343164339,42.05328343164339 0 0,0 0.705368901390159,-0.15373186903509062 l 4.306492624683161 20.60812617698804" fill="#ffdb14" stroke="none" /><path d="M 96.05791012581881 79.37332000966035 l -4.420096023442349 -23.12781014944656 a44.54639783842306,44.54639783842306 0 0,0 0.7523361932717028,-0.13710071605130203 l 4.0224250966196085 23.200279039429223" fill="#fffc17" stroke="none" /><path d="M 96.76829788921471 79.25015418208739 l -3.2355197874902886 -20.774358040975137 a42.02480773538416,42.02480773538416 0 0,0 0.7137711362321663,-0.10489977696712208 l 2.8784235456504375 20.826838891241145" fill="#ffda14" stroke="none" /><path d="M 97.48249496171623 79.15144685158666 l -3.313441850383414 -27.440051746227642 a48.63938017994475,48.63938017994475 0 0,0 0.8297973184220886,-0.0929805203207713 l 2.841908630360526 27.492888027055383" fill="#cdff1d" stroke="none" /><path d="M 98.1996594967304 79.07731436759882 l -1.8108855852298686 -21.04523546918044 a42.12300268797132,42.12300268797132 0 0,0 0.7209672952011315,-0.05580742836441522 l 1.44934929525352 21.073220664539907" fill="#ffdc14" stroke="none" /><path d="M 98.9189461498227 79.02784411241856 l -2.4029981620477514 -46.61752237760603 a67.67941508623908,67.67941508623908 0 0,0 1.1607800881746448,-0.04984889151554033 l 1.6023923132722866 46.6519038375474" fill="#37ff76" stroke="none" /></svg>