<?xml version="1.0" encoding="utf-8" ?>
<svg baseProfile="full" height="200mm" version="1.1" viewBox="0,0,200,200" width="200mm" xmlns="http://www.w3.org/2000/svg" xmlns:ev="http://www.w3.org/2001/xml-events" xmlns:xlink="http://www.w3.org/1999/xlink"><defs /><rect fill="#1a1a1a" height="200" width="200" x="0" y="0" /><text alignment-baseline="middle" fill="#e1ed5e" style="dominant-baseline: central; font-size:9.0px; font-family:Arial;" text-anchor="middle" x="100.0" y="100.0">2025</text><line stroke="#e1ed5e" stroke-width="0.3" x1="100.0" x2="100.0" y1="15.0" y2="10.0" /><path d="M 100.0 14.0 a86.0,86.0 0 0,1 42.46469731375804,11.215312516191453" fill="none" id="id49" stroke="none" /><text fill="#e1ed5e" style="font-size:6.75px; font-family:Arial;" text-anchor="middle"><textPath startOffset="22.20632615414155" xlink:href="#id49">January</textPath></text><path d="M 100.0 79.0 l 0.0 -23.81341653651537 a44.81341653651537,44.81341653651537 0 0,0 0.7713892994028106,0.0066395912362532915 l -0.4099088201302823 23.809888321887676" fill="#fff617" stroke="none" /><path d="M 100.72285384407766 79.0124445844662 l 0.5586068726946347 -16.21875956284895 a37.22837648675079,37.22837648675079 0 0,0 0.6402556887357855,0.027570756770580265 l -0.8377033938197518 16.206741079554174" fill="#ff8a0c" stroke="none" /><path d="M 101.08401301168833 79.027996857942 l 0.5336183889274106 -10.323719741902126 a31.337501530560523,31.337501530560523 0 0,0 0.5384647546082374,0.032481664481429494 l -0.71124519237526 10.313004808040391" fill="#ff3004" stroke="none" /><path d="M 102.16513564639614 79.11191278185805 l 1.5230703868153908 -14.693780102010475 a35.77250544387894,35.77250544387894 0 0,0 0.6119369073486157,0.06875824162904356 l -1.775773997673732 14.665385906910831" fill="#ff740a" stroke="none" /><path d="M 102.52436894288641 79.15227682838746 l 2.1322993393157033 -17.6097818309542 a38.73840795015863,38.73840795015863 0 0,0 0.6612927948184014,0.08585478399772004 l -2.435106862641951 17.570468723792345" fill="#ffa00e" stroke="none" /><path d="M 102.88285421437855 79.19881850522331 l 2.102377086360486 -15.169663150403633 a36.31465538332376,36.31465538332376 0 0,0 0.6184403442914324,0.09114203069022497 l -2.3631864110805743 15.131226635552437" fill="#ff7c0b" stroke="none" /><path d="M 103.2404852339499 79.25152402106235 l 2.3314750600939873 -14.928182289813249 a36.10914962642617,36.10914962642617 0 0,0 0.6132894791860743,0.10119801893273506 l -2.588093745418937 14.885838007940889" fill="#ff790b" stroke="none" /><path d="M 103.95276090670814 79.375362276772 l 2.9279524650362716 -15.2774124940678 a36.55545686090289,36.55545686090289 0 0,0 0.6169753251799723,0.12375944602859373 l -3.190494199683369 15.224749091961998" fill="#ff800b" stroke="none" /><path d="M 104.66035177308747 79.52364482259891 l 4.767356395108732 -20.946505233193815 a42.48217327185962,42.48217327185962 0 0,0 0.7116296325425717,0.16841974219153535 l -5.1272097146138265 20.86133957886141" fill="#ffd614" stroke="none" /><path d="M 105.01212808612495 79.60689891045804 l 3.704950892963271 -15.074522596728617 a36.523140553333626,36.523140553333626 0 0,0 0.6092253091971555,0.1553050962817148 l -3.9638850908454515 15.008514504278034" fill="#ff7f0b" stroke="none" /><path d="M 105.36241919743992 79.69619591428918 l 5.658246002177292 -21.423897324515586 a43.158500048345815,43.158500048345815 0 0,0 0.7166409554665125,0.19588504439792445 l -6.026184846867515 21.32332573929137" fill="#ffdf14" stroke="none" /><path d="M 106.0581310904928 79.89281104454417 l 5.545807384730449 -18.40676527623089 a40.224073124153215,40.224073124153215 0 0,0 0.6612351624576842,0.205448983703443 l -5.861827919898851 18.308576157644925" fill="#ffb610" stroke="none" /><path d="M 106.74666289553966 80.11325718540242 l 5.489200822542342 -16.180195558273166 a38.085960727280224,38.085960727280224 0 0,0 0.61902018041715,0.21596398616768292 l -5.766903007022766 16.083310718933273" fill="#ff970d" stroke="none" /><path d="M 107.08798089147638 80.2323363322302 l 4.483393166526176 -12.503731254812482 a34.28322662526798,34.28322662526798 0 0,0 0.5537845905159565,0.20396353826743732 l -4.697960082814709 12.42470444873872" fill="#ff5d08" stroke="none" /><path d="M 107.4271985657038 80.35727306442388 l 11.203738382008664 -29.630549358360323 a52.677960935178916,52.677960935178916 0 0,0 0.8453980794592942,0.3280013207830189 l -11.712119626467626 29.433305333686757" fill="#a2ff22" stroke="none" /><path d="M 108.43124777332544 80.76684994638697 l 9.532097877237911 -21.744381582363758 a44.741925371390664,44.741925371390664 0 0,0 0.702699382938547,0.3152807299291626 l -9.904979378643239 21.577080521918063" fill="#fff517" stroke="none" /><path d="M 110.05341064243156 81.56283822128135 l 4.242383376908395 -7.7801963362842255 a29.86167431966438,29.86167431966438 0 0,0 0.44917064655039063,0.2499629784985518 l -4.375678112530822 7.706017960225494" fill="#ff1802" stroke="none" /><line stroke="#e1ed5e" stroke-width="0.3" x1="143.23703022742887" x2="145.7803849466894" y1="26.81831364943548" y2="22.513508569990506" /><path d="M 143.74570117128098 25.957352633546492 a86.0,86.0 0 0,1 28.547481713284135,27.462654790039103" fill="none" id="id50" stroke="none" /><text fill="#e1ed5e" style="font-size:6.75px; font-family:Arial;" text-anchor="middle"><textPath startOffset="19.985693538727396" xlink:href="#id50">February</textPath></text><path d="M 111.90073688211348 82.69761687909136 l 5.564065660107348 -8.089549135882729 a30.818331420961854,30.818331420961854 0 0,0 0.43449277446369233,0.304389955115807 l -5.702489574154691 7.992574338002987" fill="#ff2703" stroke="none" /><path d="M 112.19680574252982 82.90503203632743 l 8.663124975211609 -12.142182719212242 a35.91584176380507,35.91584176380507 0 0,0 0.5001788638533807,0.36340121619888227 l -8.870849155418778 11.991262268196683" fill="#ff760a" stroke="none" /><path d="M 113.34407831869373 83.78471172551755 l 5.980114256218337 -7.266839587045755 a30.411095797051537,30.411095797051537 0 0,0 0.40134314252224274,0.33611333985149267 l -6.104314935699697 7.162825089800442" fill="#ff2103" stroke="none" /><path d="M 113.6212207817346 84.01681056812373 l 13.011933183304658 -15.268249173565682 a41.0606539771981,41.0606539771981 0 0,0 0.5339961539424861,0.4630762026134435 l -13.272823135893907 15.042007977532567" fill="#ffc212" stroke="none" /><path d="M 113.89432698308785 84.25364557470407 l 15.765968973552193 -17.867474661993313 a44.82881508745207,44.82881508745207 0 0,0 0.5742123189340816,0.5155334894913118 l -16.071192280082265 17.593442163732703" fill="#fff617" stroke="none" /><path d="M 114.42810811169701 84.74124197986012 l 14.264515885364279 -15.085747520338913 a41.76189277718247,41.76189277718247 0 0,0 0.5180796593770264,0.49839222184672327 l -14.522078788353724 14.837972211729888" fill="#ffcc13" stroke="none" /><path d="M 114.94478906791727 85.2469230424477 l 21.492383346098936 -21.216678540274753 a51.20049652202801,51.20049652202801 0 0,0 0.6137616519399584,0.632535333496472 l -21.854409261742003 20.843579011228165" fill="#b4ff20" stroke="none" /><path d="M 115.4437574822437 85.77008943001954 l 13.6681403270131 -12.593853195050512 a39.585564244795094,39.585564244795094 0 0,0 0.4574137573239051,0.5050876954169069 l -13.882897724953041 12.356712712364056" fill="#ffac10" stroke="none" /><path d="M 115.68641384162765 86.03803664274999 l 17.326742169107636 -15.421965894054074 a44.195970042921246,44.195970042921246 0 0,0 0.5009047841564255,0.5726207584380671 l -17.58963881684191 15.121429579413057" fill="#ffee16" stroke="none" /><path d="M 115.9244219780498 86.31012108654704 l 18.113104420786478 -15.571441563724733 a44.88627941163732,44.88627941163732 0 0,0 0.4986425041327005,0.590235444950997 l -18.378457538406295 15.25734716914463" fill="#fff717" stroke="none" /><path d="M 116.38621287248628 86.86637796730983 l 20.040843386061184 -16.06282454018489 a46.683647245541245,46.683647245541245 0 0,0 0.4971717718788633,0.6313576617022383 l -20.314369238534013 15.715474484529615" fill="#efff19" stroke="none" /><path d="M 116.82858285166822 87.43820079747576 l 15.36003638951656 -11.465593661051827 a40.16743477588028,40.16743477588028 0 0,0 0.40882297957266484,0.5576340846926096 l -15.55512198160285 11.199497132687723" fill="#ffb510" stroke="none" /><path d="M 117.04232023915458 87.72973835380427 l 15.258102072904302 -10.985646439664885 a39.8014389493062,39.8014389493062 0 0,0 0.39552657249363843,0.5594442869760566 l -15.444941265201823 10.721375652357034" fill="#ffb010" stroke="none" /><path d="M 117.45458315368197 88.32363383020206 l 16.40273401542174 -10.972724290437327 a40.73449673882328,40.73449673882328 0 0,0 0.3848505338087702,0.5861537660682259 l -16.589181184588433 10.688752460391427" fill="#ffbd11" stroke="none" /><path d="M 117.65298651832404 88.62581576622439 l 16.923947701937376 -10.904449449661422 a41.13273512511732,41.13273512511732 0 0,0 0.3783671103379678,0.5984859034965758 l -17.1091424085213 10.61151589845064" fill="#ffc312" stroke="none" /><line stroke="#e1ed5e" stroke-width="0.3" x1="172.23445277983987" x2="176.4835382374775" y1="55.19839476539836" y2="52.563006222186495" /><path d="M 173.08426987136738 54.67131705675599 a86.0,86.0 0 0,1 12.851231095245387,41.99856678651699" fill="none" id="id51" stroke="none" /><text fill="#e1ed5e" style="font-size:6.75px; font-family:Arial;" text-anchor="middle"><textPath startOffset="22.20632615414155" xlink:href="#id51">March</textPath></text><path d="M 117.84615892207809 88.93136811851018 l 14.472711694245083 -8.976335959462478 a38.03038434803741,38.03038434803741 0 0,0 0.34025278114757584,0.5592861087616642 l -14.625080273678883 8.725882077493733" fill="#ff960d" stroke="none" /><path d="M 118.21658344932153 89.55222093294921 l 9.110528648644799 -5.225172479234727 a31.502578716464335,31.502578716464335 0 0,0 0.2657352904383472,0.4727134301492908 l -9.19912158037558 5.067575539150643" fill="#ff3204" stroke="none" /><path d="M 118.3937258080291 89.86733742301442 l 18.090666992190116 -9.965714740863293 a41.653999673636505,41.653999673636505 0 0,0 0.34055497043429034,0.6309966388784443 l -18.25953006184287 9.652837118652391" fill="#ffca12" stroke="none" /><path d="M 119.04729006885535 91.15688171328212 l 18.367572954193072 -8.527544846888057 a41.2505989378905,41.2505989378905 0 0,0 0.2934639954854791,0.6466090139255493 l -18.5116392666419 8.210113824120445" fill="#ffc412" stroke="none" /><path d="M 119.196687751892 91.48605970444005 l 13.800424767689453 -6.120638833326568 a36.09681898602092,36.09681898602092 0 0,0 0.247021344448491,0.5701593207316998 l -13.903736821980626 5.882180368008266" fill="#ff790b" stroke="none" /><path d="M 119.47837535516314 92.15188598940014 l 20.529579245080004 -8.27165898424504 a43.133322532590114,43.133322532590114 0 0,0 0.27154778351625725,0.6910594899162394 l -20.66892057847796 7.917050489433016" fill="#ffdf14" stroke="none" /><path d="M 119.61058180528143 92.48833698450437 l 13.778352956690545 -5.277678416014338 a35.754555217355986,35.754555217355986 0 0,0 0.21520055807805102,0.5766305046631243 l -13.867158103270222 5.039724774321881" fill="#ff740a" stroke="none" /><path d="M 119.85752413597 93.16781622104841 l 8.78330903132274 -3.0219870855209643 a30.28864486805105,30.28864486805105 0 0,0 0.16537990421697724,0.49446486365723424 l -8.834026229311489 2.8703491189414163" fill="#ff1f03" stroke="none" /><path d="M 120.08093135843002 93.85539295169968 l 30.038105556314907 -9.191424034295979 a52.412896415175574,52.412896415175574 0 0,0 0.2565588888940594,0.864989031095143 l -30.19187034232067 8.673005616454306" fill="#a5ff21" stroke="none" /><path d="M 120.37134235888165 94.90015583598534 l 9.524280312025859 -2.3843468196658995 a30.81819867483309,30.81819867483309 0 0,0 0.12439868584149173,0.5157128641900414 l -9.56391179812817 2.220048723816452" fill="#ff2703" stroke="none" /><path d="M 120.53481517161879 95.60439243477599 l 20.17530659363923 -4.318652471549059 a41.632347305078,41.632347305078 0 0,0 0.14397001780981644,0.7020489367517951 l -20.246655907364044 3.9707278786338516" fill="#ffca12" stroke="none" /><path d="M 120.67395015179393 96.31383870115 l 22.444887980820823 -4.0019191699920915 a43.79886737350663,43.79886737350663 0 0,0 0.12594914610517638,0.7433589898851207 l -22.51044898844622 3.614974391791133" fill="#ffe815" stroke="none" /><path d="M 120.78858239683441 97.02765380044208 l 14.710893207055868 -2.1033597520701166 a35.86050137768006,35.86050137768006 0 0,0 0.08211030390623021,0.611817137523219 l -14.744919510019935 1.8498242724822331" fill="#ff750a" stroke="none" /><path d="M 120.83666639777658 97.38593545837742 l 14.705039541597637 -1.8448211299745199 a35.82030879980409,35.82030879980409 0 0,0 0.07148649986201082,0.6124526747479542 l -14.734616394463236 1.5914247169017128" fill="#ff750a" stroke="none" /><path d="M 120.87857604477298 97.74499172005257 l 15.251972421354926 -1.64730219254084 a36.34067362456164,36.34067362456164 0 0,0 0.06181872935777918,0.6225061682589892 l -15.278068276394935 1.3845204935774158" fill="#ff7d0b" stroke="none" /><path d="M 120.94382443527127 98.46500227214037 l 25.395100139268195 -1.8612370024882539 a46.46321492394256,46.46321492394256 0 0,0 0.05159498628862674,0.7981516014035893 l -25.42337571656124 1.4238263368316293" fill="#f2ff19" stroke="none" /><path d="M 120.96714384426684 98.82574320788733 l 15.083787170882514 -0.8447616741578214 a36.10742392675223,36.10742392675223 0 0,0 0.029412749493821277,0.6208566546859612 l -15.096093528609831 0.5849939128488606" fill="#ff790b" stroke="none" /><line stroke="#e1ed5e" stroke-width="0.3" x1="184.98032266829074" x2="189.97916517819016" y1="98.17113171792111" y2="98.06355123074" /><path d="M 185.9800911702706 98.14961562048488 a86.0,86.0 0 0,1 -9.607161424134198,41.387399972396054" fill="none" id="id52" stroke="none" /><text fill="#e1ed5e" style="font-size:6.75px; font-family:Arial;" text-anchor="middle"><textPath startOffset="21.466115282336823" xlink:href="#id52">April</textPath></text><path d="M 120.99513854157772 99.54816195383933 l 10.37977452402852 -0.2233839529678513 a31.382177977674772,31.382177977674772 0 0,0 0.006974304821542473,0.5401675943820411 l -10.382081835967778 0.04468010052534746" fill="#ff3004" stroke="none" /><path d="M 120.99980553446 99.90962569577887 l 15.228804608797258 -0.06553835074239805 a36.228945632851364,36.228945632851364 0 0,0 -0.0026838794723559444,0.623639069569037 l -15.227676432035398 -0.19661019703032367" fill="#ff7b0b" stroke="none" /><path d="M 120.99824983174949 100.27111621757518 l 17.845669122722416 0.23041207488327473 a38.84715652875663,38.84715652875663 0 0,0 -0.014388130873636782,0.6685599046232464 l -17.839058929163773 -0.5375617952966361" fill="#ffa20e" stroke="none" /><path d="M 120.95626037817324 101.35467743843564 l 9.796542000793517 0.6332787522044991 a30.816989210104346,30.816989210104346 0 0,0 -0.03877575745404433,0.5290644029777044 l -9.784189684675136 -0.8018162916789738" fill="#ff2703" stroke="none" /><path d="M 120.92983693683757 101.71520430193887 l 16.33172829612815 1.3383883838250457 a37.386477126109526,37.386477126109526 0 0,0 -0.05808328142939102,0.6409441705715514 l -16.306270418421683 -1.6193139429451677" fill="#ff8c0c" stroke="none" /><path d="M 120.89721153311464 102.0752229133903 l 23.713193189656167 2.35486738404522 a44.829832807772604,44.829832807772604 0 0,0 -0.08286623493763665,0.7672384190668249 l -23.66914465321748 -2.762702124996836" fill="#fff617" stroke="none" /><path d="M 120.76222939487914 103.15116336523771 l 10.59013881376449 1.6073060762418565 a31.711417876150904,31.711417876150904 0 0,0 -0.08655442092271651,0.5389744617084025 l -10.560902638480485 -1.7893597676434638" fill="#ff3505" stroke="none" /><path d="M 120.49622156327973 104.57218783832717 l 10.083219624459275 2.249310878875832 a31.331055968530507,31.331055968530507 0 0,0 -0.12195156112694565,0.5253641335659955 l -10.043007497401776 -2.4225436697903926" fill="#ff2f04" stroke="none" /><path d="M 120.41448212921028 104.9243191809786 l 16.444625236133316 3.9667223964710305 a37.91628167557923,37.91628167557923 0 0,0 -0.15850573976749371,0.6331516389139187 l -16.37390818207076 -4.2492018747823455" fill="#ff940d" stroke="none" /><path d="M 120.13307415673323 105.97154293290107 l 14.32566373615848 4.249043905406996 a35.94252373568677,35.94252373568677 0 0,0 -0.18103603522850106,0.5916362378016377 l -14.250400928423847 -4.495007115760691" fill="#ff770a" stroke="none" /><path d="M 119.9155931802556 106.66101706037122 l 14.33587502334608 4.79481114328689 a36.11646541307809,36.11646541307809 0 0,0 -0.2022679755476028,0.5878854164819647 l -14.251216216855248 -5.040869262858155" fill="#ff790b" stroke="none" /><path d="M 119.79798401119884 107.00284435728193 l 19.29666473084223 6.825520196819118 a41.46824359078512,41.46824359078512 0 0,0 -0.243824858199403,0.6709012911550299 l -19.1763156116376 -7.156669284980279" fill="#ffc712" stroke="none" /><path d="M 119.67450827220406 107.3425965602758 l 19.176826899721803 7.156860099514317 a41.468789324870045,41.468789324870045 0 0,0 -0.2553405560970199,0.6666136184779728 l -19.050792064031278 -7.485897284825433" fill="#ffc712" stroke="none" /><path d="M 119.41010516605496 108.01547362559984 l 14.132631450479986 5.8361216326510394 a36.290244845200924,36.290244845200924 0 0,0 -0.24340216089225805,0.5753308085133135 l -14.030078308395419 -6.078526966830517" fill="#ff7c0b" stroke="none" /><path d="M 119.26925614724726 108.34839909993367 l 28.709610937540102 12.438429811658574 a52.288277299405266,52.288277299405266 0 0,0 -0.36491967629863065,0.822797534072386 l -28.4912501765102 -12.930775682223647" fill="#a7ff21" stroke="none" /><path d="M 118.97047184881838 109.00673069616215 l 13.638545177800427 6.4752582056381875 a36.097644961933234,36.097644961933234 0 0,0 -0.2713283667199727,0.5590168002507201 l -13.52506355446574 -6.709063961854183" fill="#ff790b" stroke="none" /><path d="M 118.81262510543309 109.33194174019688 l 15.036183014667357 7.458649874827416 a37.784464769715896,37.784464769715896 0 0,0 -0.29403749971813453,0.5801638822887055 l -14.905566845162951 -7.716367968818816" fill="#ff920d" stroke="none" /><path d="M 118.64920377521936 109.65438752849418 l 14.735260622446747 7.628203225034898 a37.59269086236053,37.59269086236053 0 0,0 -0.3024376585844187,0.5720980734342431 l -14.601770455637435 -7.880716313555276" fill="#ff8f0d" stroke="none" /><line stroke="#e1ed5e" stroke-width="0.3" x1="174.80103733775053" x2="179.2010983576182" y1="140.37084112569926" y2="142.7455964860345" /><path d="M 175.68104954172406 140.8457921977663 a86.0,86.0 0 0,1 -30.038265399797805,32.042727171017184" fill="none" id="id53" stroke="none" /><text fill="#e1ed5e" style="font-size:6.75px; font-family:Arial;" text-anchor="middle"><textPath startOffset="22.206326154141568" xlink:href="#id53">May</textPath></text><path d="M 118.30583269289576 110.29060199501025 l 17.72920451956311 9.966451155743645 a41.33850637427244,41.33850637427244 0 0,0 -0.35403085016452535,0.6172826286110179 l -17.555021673246202 -10.270153630212977" fill="#ffc612" stroke="none" /><path d="M 117.94076556474637 110.91462005526583 l 14.061112829774656 8.554356475890092 a37.45879426714655,37.45879426714655 0 0,0 -0.33986785063306735,0.5479751915000419 l -13.911780339473625 -8.795127998755408" fill="#ff8d0d" stroke="none" /><path d="M 117.75023020441432 111.22182372390056 l 26.314310859641516 16.63609736224051 a52.13202035627937,52.13202035627937 0 0,0 -0.4860569546708625,0.7543711875584962 l -26.024049041593603 -17.08659014972046" fill="#a9ff21" stroke="none" /><path d="M 117.14729908036423 112.12312394758627 l 12.052750203601 8.521282794610638 a35.760794285407925,35.760794285407925 0 0,0 -0.35968582827510565,0.49957215646256736 l -11.904284582950291 -8.727488556524337" fill="#ff740a" stroke="none" /><path d="M 116.93607887273984 112.41649034213515 l 8.377931069074155 6.142183263781918 a31.388269550028085,31.388269550028085 0 0,0 -0.3232076022919565,0.43298940110157547 l -8.270962200087107 -6.285485544392809" fill="#ff3004" stroke="none" /><path d="M 116.71984013943494 112.70617746262583 l 20.161367261433092 15.321552609150785 a46.32253352659171,46.32253352659171 0 0,0 -0.4879156488223597,0.6306967477942479 l -19.894644795392665 -15.666327351058285" fill="#f4ff19" stroke="none" /><path d="M 116.498646956653 112.99209946851258 l 8.175413299416073 6.437848089075158 a31.405924785153786,31.405924785153786 0 0,0 -0.3381103356797991,0.4218446306012787 l -8.06338505168142 -6.577620553254687" fill="#ff3104" stroke="none" /><path d="M 115.80600337817218 113.82643327865902 l 12.429230582971934 10.872573113444622 a37.51358891918664,37.51358891918664 0 0,0 -0.42933614831698413,0.48236371399539063 l -12.240235585006612 -11.084910997180879" fill="#ff8e0d" stroke="none" /><path d="M 115.56566222782051 114.09645910891815 l 12.323619332393484 11.160424365528714 a37.62608388852978,37.62608388852978 0 0,0 -0.43888782864522197,0.47632605659549304 l -12.12968509575254 -11.370901676925543" fill="#ff900d" stroke="none" /><path d="M 115.07121518719521 114.62390073753431 l 19.071465230753056 18.505423151998247 a47.573887033746786,47.573887033746786 0 0,0 -0.5753254578461378,0.5828016513200648 l -18.750099147851383 -18.830965297298977" fill="#e3ff1b" stroke="none" /><path d="M 114.55890576462653 115.13401014063108 l 11.405930660257429 11.856486542764493 a37.452097962428866,37.452097962428866 0 0,0 -0.4684440029340529,0.4429430435745705 l -11.200150822932569 -12.051064223084985" fill="#ff8d0d" stroke="none" /><path d="M 114.0293411484842 115.62618273729858 l 6.901263220737688 7.686775812497539 a31.330244742188054,31.330244742188054 0 0,0 -0.4043953534608688,0.35683188118770504 l -6.767925514370232 -7.804430835457533" fill="#ff2f04" stroke="none" /><path d="M 112.34349029814194 116.9893568818739 l 4.341318014959905 5.975311626806615 a28.38589135747783,28.38589135747783 0 0,0 -0.39777105243601213,0.28379908443662166 l -4.2378196346750086 -6.049154973087456" fill="#ff0000" stroke="none" /><line stroke="#e1ed5e" stroke-width="0.3" x1="143.8653032363475" x2="146.44561519142675" y1="172.8068346515853" y2="177.08958963109032" /><path d="M 144.38136562736335 173.6633856474863 a86.0,86.0 0 0,1 -40.68145358897372,12.25698825130547" fill="none" id="id54" stroke="none" /><text fill="#e1ed5e" style="font-size:6.75px; font-family:Arial;" text-anchor="middle"><textPath startOffset="21.466115282336833" xlink:href="#id54">June</textPath></text><path d="M 109.89434966115114 118.52300852407294 l 7.4749971013981344 13.993788350765568 a36.86510933060131,36.86510933060131 0 0,0 -0.5622966618069986,0.29416703767597163 l -7.23300953706464 -14.120384807386257" fill="#ff840c" stroke="none" /><path d="M 109.2508944713604 118.85261126421891 l 6.507085327717283 13.26093930985209 a35.771413975709095,35.771413975709095 0 0,0 -0.5551166982096678,0.26648974952683613 l -6.277855961507383 -13.370983335878487" fill="#ff740a" stroke="none" /><path d="M 108.2653958097858 119.30500536409082 l 7.867110530076189 18.374753548185137 a40.98807134390354,40.98807134390354 0 0,0 -0.6509853149212422,0.27211191443355154 l -7.549653755657486 -18.507450505638662" fill="#ffc111" stroke="none" /><path d="M 107.59598834532513 119.57807347666477 l 7.538356579736775 19.4295320505878 a41.84067022981937,41.84067022981937 0 0,0 -0.6736941232405221,0.25473347169494287 l -7.202792235735978 -19.556413772389373" fill="#ffcd13" stroke="none" /><path d="M 107.2578585660854 119.70592522655815 l 5.670790409657678 15.396851670598162 a37.407952499829676,37.407952499829676 0 0,0 -0.6061521196468597,0.2173445842459328 l -5.404918729381083 -15.492183795884054" fill="#ff8d0d" stroke="none" /><path d="M 106.2309692047433 120.05430185196036 l 9.258499380294486 29.798372479079294 a52.20357051968354,52.20357051968354 0 0,0 -0.8604267704969473,0.25923952776230585 l -8.744197635357292 -29.953327375947325" fill="#a8ff21" stroke="none" /><path d="M 105.18746579009965 120.34920634021253 l 4.494465478371298 17.63072935977522 a39.19458264687353,39.19458264687353 0 0,0 -0.6551966425736043,0.16103139388947646 l -4.190315551054482 -17.705482011978727" fill="#ffa70f" stroke="none" /><path d="M 104.83641907484287 120.43548508189849 l 2.7978645696796565 11.821911788468952 a33.14848321744776,33.14848321744776 0 0,0 -0.5563891624923432,0.12663236193566518 l -2.5939552577944514 -11.868320883982301" fill="#ff4c07" stroke="none" /><path d="M 104.48393922423573 120.51570834832081 l 3.467516497947146 15.865192101706004 a37.23970415640538,37.23970415640538 0 0,0 -0.6274154906847669,0.13148101631954404 l -3.193909545833001 -15.92252909875209" fill="#ff8a0c" stroke="none" /><path d="M 103.7750983002368 120.6578951692458 l 6.217075856921935 34.0207568379043 a55.584157182654224,55.584157182654224 0 0,0 -0.9426835595457879,0.16389762021246543 l -5.630543325904097 -34.12273303663777" fill="#7fff26" stroke="none" /><path d="M 103.06178313531738 120.77559828337769 l 2.4077583226508774 16.337740938555626 a37.51420840112087,37.51420840112087 0 0,0 -0.6396554977476281,0.08865042343365152 l -2.126174233716419 -16.37676592748188" fill="#ff8e0d" stroke="none" /><path d="M 102.70371172650421 120.8252237178851 l 2.2791294959693964 17.554897280769513 a38.70222725528532,38.70222725528532 0 0,0 -0.6613889537502546,0.08008499154903508 l -1.9766131191677614 -17.5915278010439" fill="#ffa00e" stroke="none" /><path d="M 101.98527174616119 120.90594882070398 l 1.6737815382609487 17.625794173308837 a38.705088671838695,38.705088671838695 0 0,0 -0.663802743689533,0.05727569386181057 l -1.3701344768298742 -17.65199411944931" fill="#ffa00e" stroke="none" /><path d="M 101.62511606390274 120.93702456842531 l 2.892411887414129 37.264106911455436 a58.3761917593919,58.3761917593919 0 0,0 -1.0025061253498502,0.06913869189956517 l -2.2505430012853487 -37.30837394787128" fill="#5eff2a" stroke="none" /><path d="M 100.90346689309514 120.98055641714683 l 0.5236815927925936 12.161077828282181 a33.172348021485675,33.172348021485675 0 0,0 -0.5706902013013518,0.019655724433862633 l -0.31427103981658955 -12.168290351142137" fill="#ff4c07" stroke="none" /><line stroke="#e1ed5e" stroke-width="0.3" x1="102.19456741930631" x2="102.32365962044197" y1="184.97166512339345" y2="189.96999836594603" /><path d="M 102.22038585953345 185.97133177190398 a86.0,86.0 0 0,1 -42.740103519485714,-10.115201625700543" fill="none" id="id55" stroke="none" /><text fill="#e1ed5e" style="font-size:6.75px; font-family:Arial;" text-anchor="middle"><textPath startOffset="22.20632615414155" xlink:href="#id55">July</textPath></text><path d="M 100.54218724476979 120.99299961872073 l 0.45748030555521735 17.713223563882625 a38.719130262348024,38.719130262348024 0 0,0 -0.6664121166242503,0.011472888942316066 l -0.1525084990382992 -17.7184739301041" fill="#ffa00e" stroke="none" /><path d="M 99.81925306533755 120.99922214144158 l -0.15396473677478967 17.88765997896672 a38.888322578243546,38.888322578243546 0 0,0 -0.6693241605825861,-0.011523022419928041 l 0.4618485872500438 -17.882359479267635" fill="#ffa20f" stroke="none" /><path d="M 99.45781275523022 120.99299961872073 l -0.3901670305813806 15.106914452976913 a36.1119520447001,36.1119520447001 0 0,0 -0.6212625397643526,-0.02139753802473514 l 0.6501499220203762 -15.097960116526083" fill="#ff790b" stroke="none" /><path d="M 99.09653310690486 120.98055641714683 l -1.345876440638142 31.254312481313978 a52.283277195221785,52.283277195221785 0 0,0 -0.8988041376152381,-0.0464579074080096 l 1.8836686466668693 -31.226514767143765" fill="#a7ff21" stroke="none" /><path d="M 98.37488393609728 120.93702456842531 l -1.2795367629147547 16.48478729390819 a37.534371063123245,37.534371063123245 0 0,0 -0.6437246199229185,-0.055543268858888294 l 1.563105700579215 -16.46031977277064" fill="#ff8e0d" stroke="none" /><path d="M 98.01472825383883 120.90594882070398 l -1.6748412643219155 17.636953642453363 a38.71629834493437,38.71629834493437 0 0,0 -0.6629104221395817,-0.06871337573194712 l 1.9781842830670906 -17.605510898265656" fill="#ffa00e" stroke="none" /><path d="M 97.65516085044442 120.86867818915974 l -2.2957059668195985 20.431401039841937 a41.559971165761525,41.559971165761525 0 0,0 -0.7102254261984187,-0.08599840824752024 l 2.647058816069406 -20.388857102869068" fill="#ffc912" stroke="none" /><path d="M 96.93821686468263 120.77559828337769 l -2.1528474153127344 14.60805389840561 a35.76583863830098,35.76583863830098 0 0,0 -0.6082988033126618,-0.09500376278070068 l 2.4039820822339135 -14.568831828277803" fill="#ff740a" stroke="none" /><path d="M 96.58105272829116 120.7198165907248 l -5.103320970079762 30.92761195196846 a52.34583012100968,52.34583012100968 0 0,0 -0.8877629160355689,-0.15434896236146908 l 5.634932857587382 -30.835184411085983" fill="#a6ff21" stroke="none" /><path d="M 95.86986931433489 120.58985236759428 l -2.9294921300140038 14.604334598507814 a35.89525136427668,35.89525136427668 0 0,0 -0.6047641155628354,-0.1267342004275514 l 3.180447707006226 -14.55174441735372" fill="#ff760a" stroke="none" /><path d="M 95.16358092515715 120.4354850818985 l -4.1473684233249 17.52401606073534 a39.00810383509887,39.00810383509887 0 0,0 -0.6520793676051062,-0.16026524354514254 l 4.448401075673217 -17.45002955887617" fill="#ffa40f" stroke="none" /><path d="M 94.81253420990036 120.34920634021253 l -4.880986733186384 19.146961193847563 a40.759305515332414,40.759305515332414 0 0,0 -0.6783698486654788,-0.17916364264016277 l 5.209847024663351 -19.060106201903817" fill="#ffbd11" stroke="none" /><path d="M 94.11515582081647 120.15858648285463 l -9.691893047454341 33.19966650447356 a55.585410896092554,55.585410896092554 0 0,0 -0.9161667508171177,-0.2760335265907425 l 10.261934772711705 -33.027917608777095" fill="#7fff26" stroke="none" /><path d="M 92.7421414339146 119.70592522655815 l -5.177395613947758 14.05722774945077 a35.980356382384706,35.980356382384706 0 0,0 -0.5793347600258135,-0.21905483453689775 l 5.418600594733855 -13.966024664807238" fill="#ff770b" stroke="none" /><path d="M 92.06813273071674 119.44442032107085 l -6.129169234122969 15.025231608298474 a37.227270269011086,37.227270269011086 0 0,0 -0.5912551009388944,-0.24714468014466723 l 6.386895794559326 -14.917501885133834" fill="#ff8a0c" stroke="none" /><path d="M 91.7346041902142 119.30500536409082 l -12.537824076933026 29.283868144905192 a52.85501477181128,52.85501477181128 0 0,0 -0.8332953634098234,-0.36529219902548365 l 13.040040115000593 -29.063711392585258" fill="#a0ff22" stroke="none" /><path d="M 91.07499286063937 119.00905698771935 l -6.29984611280628 13.417819381237573 a35.8231554667876,35.8231554667876 0 0,0 -0.5559196456611406,-0.266875213098583 l 6.529878426467663 -13.307389891639428" fill="#ff750a" stroke="none" /><path d="M 90.10565033884886 118.52300852407294 l -4.473947324839724 8.375584780437006 a30.495610832365053,30.495610832365053 0 0,0 -0.4608862483963927,-0.25131193023032955 l 4.617456385104757 -8.29733219844691" fill="#ff2203" stroke="none" /><line stroke="#e1ed5e" stroke-width="0.3" x1="58.666819895761336" x2="56.23545636021788" y1="174.27360380694188" y2="178.64263932499728" /><path d="M 58.180547188652646 175.14741091055294 a86.0,86.0 0 0,1 -31.652253787137756,-30.449443065178592" fill="none" id="id56" stroke="none" /><text fill="#e1ed5e" style="font-size:6.75px; font-family:Arial;" text-anchor="middle"><textPath startOffset="22.20632615414155" xlink:href="#id56">August</textPath></text><path d="M 89.7882731507175 118.34994917583269 l -5.742519788611655 10.31901340659551 a32.80925786017455,32.80925786017455 0 0,0 -0.4911252697498068,-0.2788737457461289 l 5.9192938252826695 -10.218636495054747" fill="#ff4706" stroke="none" /><path d="M 89.4739219176387 118.17145234162733 l -10.099205350951548 17.434530438325975 a41.14836966917183,41.14836966917183 0 0,0 -0.6098426045641665,-0.36030576012151855 l 10.397815826544097 -17.258106105910706" fill="#ffc312" stroke="none" /><path d="M 89.1626897886671 117.98757091392108 l -7.620672482105893 12.648653956615611 a35.76695960561055,35.76695960561055 0 0,0 -0.5246175006528075,-0.3222629173269067 l 7.837269182691009 -12.515602572460326" fill="#ff740a" stroke="none" /><path d="M 87.95078237400918 117.19931262002967 l -8.547971625656551 12.201558708648585 a35.89784728857252,35.89784728857252 0 0,0 -0.5030359736228964,-0.3589028107464636 l 8.756734927128335 -12.052611636057904" fill="#ff760a" stroke="none" /><path d="M 87.65650970185807 116.9893568818739 l -7.145935699042764 9.835536701012 a33.157391957644855,33.157391957644855 0 0,0 -0.45885887831496275,-0.33945282841093877 l 7.31417954777629 -9.711073923861294" fill="#ff4c07" stroke="none" /><path d="M 87.36589467227662 116.77436683061367 l -18.932492171730072 25.13676754059078 a52.46897427979372,52.46897427979372 0 0,0 -0.7167543507755698,-0.5495766722012567 l 19.36237525099913 -24.807151526562155" fill="#a4ff21" stroke="none" /><path d="M 87.07902340077011 116.55440617244103 l -4.764870484190488 6.104770854477555 a28.744173159013705,28.744173159013705 0 0,0 -0.3874201352711265,-0.30778998635362814 l 4.869248112178973 -6.021846954118796" fill="#ff0601" stroke="none" /><path d="M 86.79598089348748 116.32954008644616 l -9.383794270718807 11.60503051916129 a35.92421951948711,35.92421951948711 0 0,0 -0.4775010846003247,-0.39295088451773025 l 9.582165483863822 -11.441784515786377" fill="#ff760a" stroke="none" /><path d="M 86.51685102203217 116.09983520530335 l -7.584443536292966 9.056362965192786 a32.81276825780188,32.81276825780188 0 0,0 -0.42990120746656213,-0.36637113551052747 l 7.7392102203365845 -8.924467439459308" fill="#ff4706" stroke="none" /><path d="M 86.24171649860922 115.8653595955263 l -11.61333291131571 13.391910605851294 a38.72604781061365,38.72604781061365 0 0,0 -0.49985673337009173,-0.44106544985327173 l 11.84213199759239 -13.190022014225733" fill="#ffa00e" stroke="none" /><path d="M 85.70375840098266 115.38237550388516 l -6.329838544246299 6.810737821698189 a30.29801084491389,30.29801084491389 0 0,0 -0.3789619875332041,-0.3583322128272746 l 6.44613636617032 -6.7007709721249835" fill="#ff1f03" stroke="none" /><path d="M 85.44109423537348 115.13401014063109 l -22.7192582879065 23.616712057591528 a53.77062382018074,53.77062382018074 0 0,0 -0.6615068202250927,-0.6474236523200916 l 23.122415060507386 -23.222138302348867" fill="#94ff23" stroke="none" /><path d="M 85.18274418774928 114.88116024355367 l -6.352830467098701 6.380229198908962 a30.003653679163143,30.003653679163143 0 0,0 -0.3628432921147868,-0.36755833925127257 l 6.461714384269021 -6.269930365677025" fill="#ff1a02" stroke="none" /><path d="M 84.67929136418377 114.36230785411682 l -10.778490526697155 10.104232305887653 a35.77400990000494,35.77400990000494 0 0,0 -0.4172843916858363,-0.4528797925066955 l 10.95082132637872 -9.917201258579613" fill="#ff740a" stroke="none" /><path d="M 84.43433777217949 114.09645910891817 l -12.265009096423759 11.107346200101587 a37.54701144449561,37.54701144449561 0 0,0 -0.429718662992242,-0.4827934732880573 l 12.45438660906434 -10.894578557072666" fill="#ff8f0d" stroke="none" /><path d="M 83.95833913139862 113.55231037782056 l -9.022568789964568 7.622443439517593 a32.81136704866492,32.81136704866492 0 0,0 -0.36077504288086387,-0.4345767801568868 l 9.152439832738969 -7.466005402246944" fill="#ff4706" stroke="none" /><path d="M 83.72743513129214 113.27417163493432 l -24.13594642954596 19.688641468775046 a52.14781714560237,52.14781714560237 0 0,0 -0.5614136848599574,-0.7004498931630875 l 24.47127802646078 -19.2702637420337" fill="#a8ff21" stroke="none" /><path d="M 83.50135304334701 112.99209946851258 l -9.264882053335166 7.2957661023487095 a32.792635094939236,32.792635094939236 0 0,0 -0.3454051108788609,-0.4464826668884368 l 9.389093981432096 -7.13520544134702" fill="#ff4606" stroke="none" /><path d="M 83.06392112726016 112.41649034213515 l -12.176958993219042 8.92739664664896 a36.098898675371565,36.098898675371565 0 0,0 -0.36308651777256623,-0.5042954167418304 l 12.328825303367216 -8.716467624455992" fill="#ff790b" stroke="none" /><path d="M 82.85270091963577 112.12312394758628 l -12.163394619321112 8.599508290042708 a35.896298583736936,35.896298583736936 0 0,0 -0.35236335363279575,-0.5076056914087927 l 12.30961888011604 -8.388861336446903" fill="#ff760a" stroke="none" /><path d="M 82.44556493220864 111.52570212397912 l -12.545160276264285 8.236766371769646 a36.00751034050201,36.00751034050201 0 0,0 -0.33571882888433485,-0.5210430777658884 l 12.685083968525667 -8.01960169408231" fill="#ff780b" stroke="none" /><path d="M 82.24976979558568 111.22182372390057 l -21.202741447914445 13.404526265398196 a46.084608215135816,46.084608215135816 0 0,0 -0.41813083009676105,-0.6741600338706765 l 21.430336917679163 -13.037569900162255" fill="#f7ff19" stroke="none" /><line stroke="#e1ed5e" stroke-width="0.3" x1="26.63291911575756" x2="22.317208475507996" y1="142.92168965132927" y2="145.44649492493687" /><path d="M 25.769776987707644 143.4266507060508 a86.0,86.0 0 0,1 -11.730757126820373,-40.83630448921669" fill="none" id="id57" stroke="none" /><text fill="#e1ed5e" style="font-size:6.75px; font-family:Arial;" text-anchor="middle"><textPath startOffset="21.46611528233685" xlink:href="#id57">September</textPath></text><path d="M 81.69416730710424 110.29060199501025 l -9.009928245359143 5.064920407175709 a31.3359675752948,31.3359675752948 0 0,0 -0.260272951323513,-0.47247100804134445 l 9.095777606134172 -4.9090788807365415" fill="#ff3004" stroke="none" /><path d="M 81.51974371655577 109.97397251340807 l -12.155103835775277 6.560226746652488 a34.812426442373315,34.812426442373315 0 0,0 -0.2800701014306964,-0.5297870847333913 l 12.26622644543086 -6.350024646832971" fill="#ff6609" stroke="none" /><path d="M 81.18737489456691 109.33194174019688 l -13.533969281059557 6.7134816186810164 a36.10758617202072,36.10758617202072 0 0,0 -0.27140308994080364,-0.5591707522179192 l 13.647525627615078 -6.479521910497812" fill="#ff790b" stroke="none" /><path d="M 80.87730276802145 108.67885076344099 l -26.93034998812895 12.222359937977412 a50.57414128823679,50.57414128823679 0 0,0 -0.35295672799290356,-0.7958242437691087 l 27.13674780085313 -11.756987357715607" fill="#bcff1f" stroke="none" /><path d="M 80.58989483394504 108.01547362559985 l -15.079653827543023 6.227197972591587 a37.314838465286186,37.314838465286186 0 0,0 -0.24005414886038245,-0.5957947107740029 l 15.184610590660794 -5.9667038939747785" fill="#ff8b0c" stroke="none" /><path d="M 80.32549172779594 107.34259656027581 l -14.468292020737895 5.399618112673418 a36.44303563940907,36.44303563940907 0 0,0 -0.21427765508518948,-0.5896000782035151 l 14.559093936828308 -5.149770237463786" fill="#ff7e0b" stroke="none" /><path d="M 80.20201598880116 107.00284435728193 l -9.76520659135371 3.454100267849076 a31.35809193008891,31.35809193008891 0 0,0 -0.17561900643350525,-0.5104310381304583 l 9.823216428730444 -3.2854965266293212" fill="#ff3004" stroke="none" /><path d="M 80.0844068197444 106.66101706037122 l -29.517529954765475 9.872503863135652 a52.12476356790691,52.12476356790691 0 0,0 -0.27727333354671896,-0.8533595739544435 l 29.68309553932844 -9.362945389203405" fill="#a9ff21" stroke="none" /><path d="M 79.86692584326677 105.97154293290107 l -9.91286800179487 2.940192660101159 a31.339713966039938,31.339713966039938 0 0,0 -0.1489492481759135,-0.5185118732059423 l 9.962009886856887 -2.7691233113906213" fill="#ff3004" stroke="none" /><path d="M 79.76711848015287 105.62410040840567 l -10.000876359672922 2.779926960165193 a31.380054039614535,31.380054039614535 0 0,0 -0.14018205875977605,-0.5216695896509995 l 10.047246494774473 -2.6073664373386545" fill="#ff3004" stroke="none" /><path d="M 79.58551787078972 104.9243191809786 l -19.407611473640053 4.681444909145148 a40.964250788575214,40.964250788575214 0 0,0 -0.15944736554937844,-0.6868950776614627 l 19.485319405119984 -4.346681174135112" fill="#ffc011" stroke="none" /><path d="M 79.50377843672027 104.57218783832718 l -9.591389310738649 2.139595994502083 a30.827136914169913,30.827136914169913 0 0,0 -0.11107452133256875,-0.5189031850535671 l 9.626797870795658 -1.9741789900323519" fill="#ff2703" stroke="none" /><path d="M 79.4281124754447 104.21870165774334 l -32.11250705673486 6.585350352165639 a53.78078627381617,53.78078627381617 0 0,0 -0.17816823360432135,-0.9084759846727829 l 32.22110522331485 -6.031610640424901" fill="#94ff23" stroke="none" /><path d="M 79.23777060512086 103.15116336523772 l -14.943123212054237 2.267975251235435 a36.11425297759868,36.11425297759868 0 0,0 -0.08799142978216436,-0.6154118549561424 l 14.979948692853002 -2.010417924298892" fill="#ff790b" stroke="none" /><path d="M 79.1416061653843 102.43462659150553 l -9.76205770770239 1.1394436921380369 a30.828331629328794,30.828331629328794 0 0,0 -0.05698499440061291,-0.5276102751303084 l 9.780225003604054 -0.9712370951229464" fill="#ff2703" stroke="none" /><path d="M 79.10278846688536 102.07522291339032 l -10.28922170187085 1.0217836290186024 a31.339831962598836,31.339831962598836 0 0,0 -0.0486892700184955,-0.5372820374426713 l 10.30528556816642 -0.8445202030273649" fill="#ff3004" stroke="none" /><path d="M 79.07016306316243 101.71520430193888 l -16.183314167271007 1.3262258164313132 a37.23756546877528,37.23756546877528 0 0,0 -0.04685450603081693,-0.6392925087120993 l 16.20374523196616 -1.0474601712224532" fill="#ff8a0c" stroke="none" /><path d="M 79.0235259727143 100.99374915477108 l -15.085328015978329 0.7146592866762524 a36.10224682773041,36.10224682773041 0 0,0 -0.024064497850844066,-0.620997761337761 l 15.095394646680374 -0.45488427832449474" fill="#ff790b" stroke="none" /><path d="M 79.0095281055655 100.63252640178507 l -9.37492221379672 0.2825036923767344 a30.379177727868562,30.379177727868562 0 0,0 -0.011251778097541873,-0.5228259151796854 l 9.37839605457927 -0.12108796140692019" fill="#ff2003" stroke="none" /><line stroke="#e1ed5e" stroke-width="0.3" x1="15.007084014347285" x2="10.007500721073583" y1="101.09737516637583" y2="101.16192664675087" /><path d="M 14.007167355692545 101.11028546245083 a86.0,86.0 0 0,1 10.666146001902534,-42.60595125391555" fill="none" id="id58" stroke="none" /><text fill="#e1ed5e" style="font-size:6.75px; font-family:Arial;" text-anchor="middle"><textPath startOffset="22.20632615414155" xlink:href="#id58">October</textPath></text><path d="M 79.00019446554 99.90962569577889 l -15.245117482002541 -0.06560855446705666 a36.24525865711956,36.24525865711956 0 0,0 0.00805506496044456,-0.6238736581794527 l 15.241729409924382 0.32801847070698137" fill="#ff7b0b" stroke="none" /><path d="M 79.01574976396665 99.18683210126434 l -25.349098638831872 -0.9823116405458105 a46.36812444703746,46.36812444703746 0 0,0 0.03777101439375735,-0.7972864164070169 l 25.328434016204614 1.4185091635758365" fill="#f3ff19" stroke="none" /><path d="M 79.05617556472873 98.46500227214037 l -16.69739197720232 -1.2237716576263524 a37.74217775291942,37.74217775291942 0 0,0 0.05306463237767808,-0.6475229227927176 l 16.67385286100514 1.5110084976268485" fill="#ff920d" stroke="none" /><path d="M 79.12142395522702 97.74499172005258 l -8.845966859805221 -0.955416139023296 a29.89741252744181,29.89741252744181 0 0,0 0.059666190720531656,-0.5111834845648906 l 8.828210316081101 1.1075433619130484" fill="#ff1902" stroke="none" /><path d="M 79.16333360222342 97.38593545837743 l -15.804921753259281 -1.98280688232945 a36.928812722838494,36.928812722838494 0 0,0 0.08455643170276396,-0.6300436308534417 l 15.768449322498684 2.254568855247551" fill="#ff850c" stroke="none" /><path d="M 79.26566170972629 96.67025291283419 l -11.122533905784229 -1.7861782882196382 a32.26504298094894,32.26504298094894 0 0,0 0.09278218493283337,-0.547605707571945 l 11.090139859331172 1.9773697841074112" fill="#ff3e05" stroke="none" /><path d="M 79.32604984820605 96.31383870115002 l -32.08972336921171 -5.721591447492481 a53.59581191816751,53.59581191816751 0 0,0 0.1697565062476249,-0.9068460443198877 l 31.986481139054224 6.2731155692749425" fill="#97ff23" stroke="none" /><path d="M 79.3925641242962 95.95851677861259 l -10.862174489895644 -2.1302648332126046 a32.069094945322405,32.069094945322405 0 0,0 0.1108990597284858,-0.5407832002355163 l 10.823896134252164 2.3169236896115235" fill="#ff3b05" stroke="none" /><path d="M 79.62865764111835 94.90015583598534 l -15.236630755275439 -3.8143997124794016 a36.70683169640422,36.70683169640422 0 0,0 0.15871976016441772,-0.611611981778481 l 15.168714663240713 4.076108119806746" fill="#ff820c" stroke="none" /><path d="M 79.71946130924805 94.55025226153421 l -9.980289814413036 -2.681884474308011 a31.334345122609896,31.334345122609896 0 0,0 0.14445614969086032,-0.5196856295702292 l 9.932646894155814 2.8532814072971826" fill="#ff2f04" stroke="none" /><path d="M 79.81627453868168 94.20196356495316 l -42.54029215138897 -12.220249642415641 a65.2607157380954,65.2607157380954 0 0,0 0.3194484156259726,-1.077021251176738 l 42.323637838651294 12.950700280338918" fill="#33ff53" stroke="none" /><path d="M 80.02781315780177 93.51064311812611 l -10.663473458557238 -3.464772556942074 a32.21223952084032,32.21223952084032 0 0,0 0.17588297891101984,-0.5258677201358396 l 10.602253185874446 3.647813380000236" fill="#ff3d05" stroke="none" /><path d="M 80.2630227832202 92.82701384747504 l -8.820691307448923 -3.20569334954886 a30.385151303662973,30.385151303662973 0 0,0 0.18288303345079945,-0.4900356059244473 l 8.764203685496497 3.357052092502649" fill="#ff2003" stroke="none" /><path d="M 80.52162464483688 92.15188598940014 l -14.642740783603426 -5.899768178916353 a36.78661211979179,36.78661211979179 0 0,0 0.24170260406955008,-0.5853020274329932 l 14.539016492647676 6.150944776802657" fill="#ff830c" stroke="none" /><path d="M 80.803312248108 91.48605970444005 l -11.997101202554497 -5.320845172796661 a34.12409351601885,34.12409351601885 0 0,0 0.24276478604853008,-0.5349000263661142 l 11.903734099542614 5.526567208004846" fill="#ff5b08" stroke="none" /><path d="M 81.10775173730289 90.83032412892265 l -10.01666962107623 -4.861761948909696 a32.13419954669655,32.13419954669655 0 0,0 0.2458113047111325,-0.4955405906885093 l 9.931498303411686 5.033462128097167" fill="#ff3c05" stroke="none" /><path d="M 81.26839172434947 90.50648371742162 l -13.471409244587294 -6.8275527189522585 a36.10279256181533,36.10279256181533 0 0,0 0.285711598111948,-0.5519038673771135 l 13.351888213315231 7.058429308589708" fill="#ff790b" stroke="none" /><path d="M 81.43458229118936 90.18545643968196 l -13.355043800266547 -7.060097498666431 a36.106361957722115,36.106361957722115 0 0,0 0.2951985673727223,-0.5469581124491607 l 13.231537133675353 7.288936594448064" fill="#ff790b" stroke="none" /><line stroke="#e1ed5e" stroke-width="0.3" x1="26.266209847984243" x2="21.928928074336255" y1="57.711370442889674" y2="55.22380399835377" /><path d="M 25.398753493254645 57.213857153982495 a86.0,86.0 0 0,1 29.58750427330803,-30.492523968695096" fill="none" id="id59" stroke="none" /><text fill="#e1ed5e" style="font-size:6.75px; font-family:Arial;" text-anchor="middle"><textPath startOffset="21.46611528233685" xlink:href="#id59">November</textPath></text><path d="M 81.78341655067845 89.55222093294921 l -27.817230885850442 -15.954049965573047 a53.06758557267312,53.06758557267312 0 0,0 0.46128449264331606,-0.7884847254926476 l 27.538486718736802 16.430514103419586" fill="#9dff22" stroke="none" /><path d="M 81.96595687620814 89.24020034530311 l -7.232982484731784 -4.315473901632882 a29.422550125710817,29.422550125710817 0 0,0 0.2632396353691878,-0.43269674634522587 l 7.157627051076379 4.439338421185183" fill="#ff1101" stroke="none" /><path d="M 82.34701348167596 88.62581576622439 l -12.658402332916708 -8.156070367492624 a36.05844060523806,36.05844060523806 0 0,0 0.3406721876107534,-0.5188671139065306 l 12.516133509948034 8.372755545376823" fill="#ff780b" stroke="none" /><path d="M 82.54541684631803 88.32363383020206 l -16.096837236528327 -10.76809248863072 a40.36646547160814,40.36646547160814 0 0,0 0.3913154655927128,-0.5742071599650138 l 15.909097305266872 11.04357767186615" fill="#ffb811" stroke="none" /><path d="M 82.95767976084542 87.72973835380427 l -12.11120402999835 -8.719918427369718 a35.9237475332515,35.9237475332515 0 0,0 0.365630854594142,-0.4987200747621951 l 11.959310562890574 8.927100945803415" fill="#ff760a" stroke="none" /><path d="M 83.39014120810768 87.1503855733568 l -35.01121571548549 -27.085156363377237 a65.26500786292546,65.26500786292546 0 0,0 0.6950596518355082,-0.8826551734183322 l 34.539801983056016 27.683803930748617" fill="#33ff53" stroke="none" /><path d="M 84.07557802195018 86.31012108654704 l -7.870483527330605 -6.76608335473645 a31.379036319294006,31.379036319294006 0 0,0 0.35564123605134906,-0.40655941161060744 l 7.7528504277014125 6.90055832255" fill="#ff3004" stroke="none" /><path d="M 84.31358615837235 86.03803664274999 l -11.023069821563336 -9.811273531790642 a35.7570036459532,35.7570036459532 0 0,0 0.4131744917717052,-0.4562375934535944 l 10.852551689175586 9.999563912513793" fill="#ff740a" stroke="none" /><path d="M 84.80347519578584 85.50635884689758 l -17.24523436062666 -16.447591909616175 a44.83110127078079,44.83110127078079 0 0,0 0.5374090613047652,-0.553847277264709 l 16.959561035618776 16.742003382431008" fill="#fff617" stroke="none" /><path d="M 85.05521093208273 85.24692304244772 l -23.462810554861857 -23.161829061839466 a53.96928577666201,53.96928577666201 0 0,0 0.658333281262868,-0.6555061889354975 l 23.060641473431676 23.562271101425072" fill="#92ff23" stroke="none" /><path d="M 85.31137513191541 84.99185889309783 l -6.454535790423766 -6.594938926700379 a30.22790613935628,30.22790613935628 0 0,0 0.3749940980863374,-0.36074402525161814 l 6.340058448725001 6.70506603871431" fill="#ff1e03" stroke="none" /><path d="M 86.10567301691215 84.25364557470407 l -9.776626124043647 -11.079789630701917 a35.77647307817202,35.77647307817202 0 0,0 0.46527507905693016,-0.4034819636614043 l 9.584457246339943 11.246436587783002" fill="#ff740a" stroke="none" /><path d="M 86.93701828274178 83.55741782278169 l -30.28277499221738 -38.117408960766355 a69.68247453767708,69.68247453767708 0 0,0 0.9455827009128676,-0.7380422966467606 l 29.622159736145086 38.63302964663634" fill="#39ff8b" stroke="none" /><path d="M 87.51073957382395 83.11751280151077 l -8.789980430194436 -11.881947130889042 a35.77986547924045,35.77986547924045 0 0,0 0.4982852018874053,-0.3620253902469382 l 8.58414991195325 12.031491755952647" fill="#ff740a" stroke="none" /><path d="M 88.09926311788651 82.69761687909137 l -8.596685353087185 -12.498649875418673 a36.16968186114287,36.16968186114287 0 0,0 0.5160127090670164,-0.3484140845931542 l 8.38026794961363 12.644775872310493" fill="#ff7a0b" stroke="none" /><path d="M 88.70189139769569 82.29822771554957 l -16.758440564225516 -26.25697000734377 a52.14921835473933,52.14921835473933 0 0,0 0.7608343677452409,-0.4764344112829929 l 16.303987044108034 26.541548759949695" fill="#a8ff21" stroke="none" /><line stroke="#e1ed5e" stroke-width="0.3" x1="56.762969772571076" x2="54.21961505331055" y1="26.818313649435495" y2="22.513508569990535" /><path d="M 56.25429882871897 25.957352633546506 a86.0,86.0 0 0,1 42.265352541879196,-11.944610805530505" fill="none" id="id60" stroke="none" /><text fill="#e1ed5e" style="font-size:6.75px; font-family:Arial;" text-anchor="middle"><textPath startOffset="22.20632615414155" xlink:href="#id60">December</textPath></text><path d="M 89.3179101791058 81.91981866633112 l -5.29332663031541 -8.959324152774217 a31.406190277411312,31.406190277411312 0 0,0 0.467807568551912,-0.27098433859447857 l 5.138322329298179 9.049112648758742" fill="#ff3104" stroke="none" /><path d="M 89.94658935756843 81.56283822128135 l -7.435385730603331 -13.635910685247117 a36.531356063747175,36.531356063747175 0 0,0 0.5546763732363817,-0.29628890892359316 l 7.199564310838644 13.76187832067246" fill="#ff800b" stroke="none" /><path d="M 90.26544431104013 81.39251694778311 l -4.954888164242922 -9.471207571018732 a31.688998529959537,31.688998529959537 0 0,0 0.4855049017061697,-0.24869446776658888 l 4.791122774947989 9.555094564097827" fill="#ff3505" stroke="none" /><path d="M 90.91171255644093 81.06846463323043 l -19.32588186825949 -40.257157176763684 a65.65566497031006,65.65566497031006 0 0,0 1.0230459109475474,-0.48033377273787764 l 18.630057746012334 40.58385593214157" fill="#34ff58" stroke="none" /><path d="M 91.90106846888425 80.62456947434976 l -3.9887812932289854 -9.542537127527039 a31.34264913044262,31.34264913044262 0 0,0 0.4995662016090888,-0.2037855969966532 l 3.8239312220315163 9.60978361070727" fill="#ff3004" stroke="none" /><path d="M 92.57280143429618 80.3572730644239 l -4.202276320912287 -11.113768609967874 a32.881707747340336,32.881707747340336 0 0,0 0.5311455441275654,-0.19562538642382069 l 4.0103484510121525 11.184457264198016" fill="#ff4806" stroke="none" /><path d="M 93.25333710446033 80.11325718540243 l -6.896936199112237 -20.329694624450614 a42.46774819253386,42.46774819253386 0 0,0 0.6942813073895594,-0.2288936312861695 l 6.5459720694802686 20.445401979996017" fill="#ffd614" stroke="none" /><path d="M 94.28887869178378 79.79150937346287 l -2.478304444173989 -8.769344832116316 a30.1128152457173,30.1128152457173 0 0,0 0.5000191541713187,-0.1366741231679985 l 2.3269874007789477 8.810705496110609" fill="#ff1c02" stroke="none" /><path d="M 94.98787191387505 79.60689891045804 l -2.2896165420047856 -9.315879561547796 a30.593120238727643,30.593120238727643 0 0,0 0.5124730972329281,-0.12128582477332997 l 2.1289197578093235 9.353911298461997" fill="#ff2403" stroke="none" /><path d="M 95.692805502759 79.44645832069477 l -1.8220798572299632 -8.694799901092804 a29.883665928329734,29.883665928329734 0 0,0 0.5043702387267861,-0.10117192501973782 l 1.6721432090360406 8.724875782189752" fill="#ff1802" stroke="none" /><path d="M 96.04723909329186 79.375362276772 l -11.858282720124423 -61.87391316968403 a84.0,84.0 0 0,0 1.4224195155884267,-0.2599380745970552 l 10.791468083433102 62.06886672563182" fill="#4dd2ff" stroke="none" /><path d="M 98.19473922651362 79.07773832637324 l -0.641970091877418 -7.4401806354891615 a28.467825218065364,28.467825218065364 0 0,0 0.4885754045766241,-0.037922854597145846 l 0.5138044979384597 7.450128752274769" fill="#ff0100" stroke="none" /><path d="M 99.27714615592234 79.0124445844662 l -0.4572051904975854 -13.274632694360864 a34.28250389634471,34.28250389634471 0 0,0 0.5899420850936551,-0.015236463559283361 l 0.22863647020905128 13.280535950062507" fill="#ff5d08" stroke="none" /><path d="M 99.63851952072746 79.00311137660856 l -0.12698872249703985 -7.37624357493114 a28.377336606957442,28.377336606957442 0 0,0 0.48846920176957376,-0.004204408634861366 l 1.8069263323886056e-15 7.377336606957442" fill="#ff0000" stroke="none" /></svg>