<?xml version="1.0" encoding="utf-8" ?>
<svg baseProfile="full" height="200mm" version="1.1" viewBox="0,0,200,200" width="200mm" xmlns="http://www.w3.org/2000/svg" xmlns:ev="http://www.w3.org/2001/xml-events" xmlns:xlink="http://www.w3.org/1999/xlink"><defs /><rect fill="#1a1a1a" height="200" width="200" x="0" y="0" /><text alignment-baseline="middle" fill="#e1ed5e" style="dominant-baseline: central; font-size:9.0px; font-family:Arial;" text-anchor="middle" x="100.0" y="100.0">2025</text><line stroke="#e1ed5e" stroke-width="0.3" x1="100.0" x2="100.0" y1="15.0" y2="10.0" /><path d="M 100.0 14.0 a86.0,86.0 0 0,1 42.46469731375804,11.215312516191453" fill="none" id="id49" stroke="none" /><text fill="#e1ed5e" style="font-size:6.75px; font-family:Arial;" text-anchor="middle"><textPath startOffset="22.20632615414155" xlink:href="#id49">January</textPath></text><path d="M 100.0 79.0 l 0.0 -40.13906102200704 a61.13906102200704,61.13906102200704 0 0,0 1.0524084324051173,0.009058411634910762 l -0.6909279531325889 40.13311398698069" fill="#59ff2a" stroke="none" /><path d="M 100.72285384407766 79.0124445844662 l 0.9415681834658521 -27.33777317489094 a48.35398312505698,48.35398312505698 0 0,0 0.8315944902907565,0.03581020805739798 l -1.4120035061459402 27.317515240309348" fill="#fff517" stroke="none" /><path d="M 101.08401301168833 79.027996857942 l 0.8994484702679572 -17.401300483653543 a38.4245305840091,38.4245305840091 0 0,0 0.6602394709635007,0.039827447924304434 l -1.1988499900710696 17.383239766348936" fill="#ff5708" stroke="none" /><path d="M 102.16513564639614 79.11191278185805 l 2.5672341095386852 -24.767321197030395 a45.90001787650061,45.90001787650061 0 0,0 0.7851816538446598,0.08822430748892023 l -2.9931824668930704 24.719460936070874" fill="#ffd013" stroke="none" /><path d="M 102.52436894288641 79.15227682838746 l 3.5941290980543403 -29.682431599558026 a50.89923928189347,50.89923928189347 0 0,0 0.8688870291768421,0.11280647361186498 l -4.1045308557390285 29.616166802782022" fill="#e3ff1b" stroke="none" /><path d="M 102.88285421437855 79.19881850522331 l 3.543693196282594 -25.569452999054754 a46.81384682956513,46.81384682956513 0 0,0 0.7972420843673389,0.11749275931245802 l -3.9833042610785885 25.50466575558133" fill="#ffde14" stroke="none" /><path d="M 103.2404852339499 79.25152402106235 l 3.929852718315327 -25.162421316556724 a46.46745352208498,46.46745352208498 0 0,0 0.7892182636393795,0.13022777578352387 l -4.362400188093582 25.091047277833578" fill="#ffd914" stroke="none" /><path d="M 103.95276090670814 79.375362276772 l 4.935254144797501 -25.751071519596955 a47.21973336784984,47.21973336784984 0 0,0 0.7969647448367623,0.1598636303591983 l -5.377785299101388 25.66230393316055" fill="#ffe415" stroke="none" /><path d="M 104.66035177308747 79.52364482259891 l 8.03568899756567 -35.30669572187256 a57.209599009965466,57.209599009965466 0 0,0 0.9583324671465769,0.2268063324933971 l -8.64224515167477 35.16314347723829" fill="#8bff24" stroke="none" /><path d="M 105.01212808612495 79.60689891045804 l 6.244935486185112 -25.40908741338697 a47.16526213145502,47.16526213145502 0 0,0 0.7867415279756897,0.20055793301185196 l -6.681385902845826 25.29782648420625" fill="#ffe415" stroke="none" /><path d="M 105.36241919743992 79.69619591428918 l 9.537341322303002 -36.11137111381411 a58.34959174097779,58.34959174097779 0 0,0 0.9688869430006517,0.26483340143838674 l -10.157526154527364 35.94185117154943" fill="#7cff26" stroke="none" /><path d="M 106.0581310904928 79.89281104454417 l 9.347818726080472 -31.025798986360204 a53.40342447454729,53.40342447454729 0 0,0 0.8778877750453405,0.2727640050453068 l -9.880491873836531 30.860294846432378" fill="#bfff1e" stroke="none" /><path d="M 106.74666289553966 80.11325718540242 l 9.25240468708987 -27.272771039202134 a49.799497090234496,49.799497090234496 0 0,0 0.809403073595032,0.2823848393313457 l -9.720489764748176 27.10946534669858" fill="#f3ff19" stroke="none" /><path d="M 107.08798089147638 80.2323363322302 l 7.557050523216402 -21.075851550746716 a43.38974165102309,43.38974165102309 0 0,0 0.7008841546756581,0.25814154917174426 l -7.918717003664637 20.942646733768647" fill="#ffa90f" stroke="none" /><path d="M 107.4271985657038 80.35727306442388 l 18.884629087156352 -49.94421640368509 a74.39526166185159,74.39526166185159 0 0,0 1.1939264582999445,0.4632249170599514 l -19.741538710455963 49.61174878273459" fill="#3effb9" stroke="none" /><path d="M 108.43124777332544 80.76684994638697 l 16.066970389381332 -36.65156815620972 a61.0185580175316,61.0185580175316 0 0,0 0.9583338828359113,0.4299764784662947 l -16.695486390684025 36.369571347226895" fill="#5aff2a" stroke="none" /><path d="M 110.05341064243156 81.56283822128135 l 7.1508128614539554 -13.11402649957618 a35.93692791745082,35.93692791745082 0 0,0 0.540552849613209,0.3008170755655982 l -7.375489800139199 12.988994026450401" fill="#ff2c04" stroke="none" /><line stroke="#e1ed5e" stroke-width="0.3" x1="143.23703022742887" x2="145.7803849466894" y1="26.81831364943548" y2="22.513508569990506" /><path d="M 143.74570117128098 25.957352633546492 a86.0,86.0 0 0,1 28.547481713284135,27.462654790039103" fill="none" id="id50" stroke="none" /><text fill="#e1ed5e" style="font-size:6.75px; font-family:Arial;" text-anchor="middle"><textPath startOffset="19.985693538727396" xlink:href="#id50">February</textPath></text><path d="M 111.90073688211348 82.69761687909136 l 9.378594235692297 -13.635460745744622 a37.54943562743163,37.54943562743163 0 0,0 0.5293913626424162,0.3708724807042481 l -9.611916737918365 13.472003422276437" fill="#ff4806" stroke="none" /><path d="M 112.19680574252982 82.90503203632743 l 14.60226009518983 -20.466437999750266 a46.141620558054626,46.141620558054626 0 0,0 0.6425872877728279,0.46686699252257585 l -14.952392699316446 20.212051772411016" fill="#ffd413" stroke="none" /><path d="M 113.34407831869373 83.78471172551755 l 10.07987118021691 -12.248730339651141 a36.863013520238134,36.863013520238134 0 0,0 0.4864907791480073,0.4074220368106314 l -10.289219496324035 12.07340714544669" fill="#ff3c05" stroke="none" /><path d="M 113.6212207817346 84.01681056812373 l 21.93245892533195 -25.73562614743733 a54.81353586527196,54.81353586527196 0 0,0 0.7128531696620846,0.6181792441591796 l -22.3722058936408 25.35428190985848" fill="#acff21" stroke="none" /><path d="M 113.89432698308785 84.25364557470407 l 26.574565213273832 -30.11678961173793 a61.16501628024355,61.16501628024355 0 0,0 0.783462729661805,0.7034005743009941 l -27.08903893053163 29.654890028667637" fill="#58ff2a" stroke="none" /><path d="M 114.42810811169701 84.74124197986012 l 24.043768465312752 -25.42800775155307 a55.99551943073014,55.99551943073014 0 0,0 0.6946557663967441,0.6682582968986254 l -24.477907475321913 25.010366367892143" fill="#9cff22" stroke="none" /><path d="M 114.94478906791727 85.2469230424477 l 36.22680875356956 -35.762090387430526 a71.90489938450379,71.90489938450379 0 0,0 0.8619539423767583,0.888319305509849 l -36.83702695964942 35.133206886370566" fill="#3bff98" stroke="none" /><path d="M 115.4437574822437 85.77008943001954 l 23.038538707878118 -21.22775793734559 a52.32717626663688,52.32717626663688 0 0,0 0.6046439090335757,0.6676629062238265 l -23.40052625752773 20.828042243852217" fill="#ceff1d" stroke="none" /><path d="M 115.68641384162765 86.03803664274999 l 29.20534985695774 -25.994725668680967 a60.09831483398335,60.09831483398335 0 0,0 0.6811375197975305,0.7786579316544996 l -29.648479240333117 25.48815218082352" fill="#66ff29" stroke="none" /><path d="M 115.9244219780498 86.31012108654704 l 30.530814531761532 -26.246676623178224 a61.26187613281964,61.26187613281964 0 0,0 0.6805593095073195,0.8055675630003991 l -30.97808445475597 25.71725011054872" fill="#57ff2a" stroke="none" /><path d="M 116.38621287248628 86.86637796730983 l 33.78014382657363 -27.074934561179926 a64.29145641389506,64.29145641389506 0 0,0 0.6846915180780309,0.8694886964468054 l -34.24118942524562 26.48945347078008" fill="#32ff2f" stroke="none" /><path d="M 116.82858285166822 87.43820079747576 l 25.8903394644636 -19.32600317593237 a53.307956858045195,53.307956858045195 0 0,0 0.5425668300511854,0.7400605464409493 l -26.219168907028415 18.877480185819927" fill="#c1ff1e" stroke="none" /><path d="M 117.04232023915458 87.72973835380427 l 25.718522549890995 -18.51702094622782 a52.69104710911729,52.69104710911729 0 0,0 0.5236169800472322,0.7406190845895478 l -26.03345214974211 18.07157536130648" fill="#c9ff1d" stroke="none" /><path d="M 117.45458315368197 88.32363383020206 l 27.647874069778744 -18.495239823994268 a54.26377664555556,54.26377664555556 0 0,0 0.5126721840316323,0.7808349086970028 l -27.9621428891683 18.01658685131959" fill="#b3ff20" stroke="none" /><path d="M 117.65298651832404 88.62581576622439 l 28.526413608046028 -18.38015814321279 a54.935033324085964,54.935033324085964 0 0,0 0.5053301160724863,0.7993108883368065 l -28.83857132036447 17.886399607161774" fill="#aaff21" stroke="none" /><line stroke="#e1ed5e" stroke-width="0.3" x1="172.23445277983987" x2="176.4835382374775" y1="55.19839476539836" y2="52.563006222186495" /><path d="M 173.08426987136738 54.67131705675599 a86.0,86.0 0 0,1 12.851231095245387,41.99856678651699" fill="none" id="id51" stroke="none" /><text fill="#e1ed5e" style="font-size:6.75px; font-family:Arial;" text-anchor="middle"><textPath startOffset="22.20632615414155" xlink:href="#id51">March</textPath></text><path d="M 117.84615892207809 88.93136811851018 l 24.394696030216284 -15.130197562303408 a49.70581949154182,49.70581949154182 0 0,0 0.4447113436046374,0.730988519911415 l -24.651523172107147 14.708041269184912" fill="#f4ff19" stroke="none" /><path d="M 118.21658344932153 89.55222093294921 l 15.35638806006491 -8.807367757285487 a38.70277890793918,38.70277890793918 0 0,0 0.326471502109039,0.5807563735828325 l -15.505717203466382 8.541727873767861" fill="#ff5b08" stroke="none" /><path d="M 118.3937258080291 89.86733742301442 l 30.49299478782746 -16.797859790427243 a55.81365859356533,55.81365859356533 0 0,0 0.456321577785757,0.8454945804001366 l -30.777624464831682 16.27048422669465" fill="#9eff22" stroke="none" /><path d="M 119.04729006885535 91.15688171328212 l 30.959737780759664 -14.373730978596846 a55.1337004395725,55.1337004395725 0 0,0 0.3922308144242395,0.8642286074191408 l -31.20257091214725 13.838680362335642" fill="#a7ff21" stroke="none" /><path d="M 119.196687751892 91.48605970444005 l 23.261512728780502 -10.316734486537946 a46.446669426409,46.446669426409 0 0,0 0.3178484711162334,0.7336380942782452 l -23.435651909739416 9.914797247673098" fill="#ffd914" stroke="none" /><path d="M 119.47837535516314 92.15188598940014 l 34.603939876112264 -13.942418729069466 a58.3071534020796,58.3071534020796 0 0,0 0.3670753222758132,0.9341666563725635 l -34.83880874826978 13.344703067801117" fill="#7dff26" stroke="none" /><path d="M 119.61058180528143 92.48833698450437 l 23.224309257065595 -8.895869925682145 a45.86976160324981,45.86976160324981 0 0,0 0.27608225681786236,0.7397631888095708 l -23.37399610238508 8.49478359984324" fill="#ffd013" stroke="none" /><path d="M 119.85752413597 93.16781622104841 l 14.804838131597155 -5.093755608206945 a36.656614522269265,36.656614522269265 0 0,0 0.20014983915659182,0.5984225435258292 l -14.890325264525517 4.8381599617588025" fill="#ff3905" stroke="none" /><path d="M 120.08093135843002 93.85539295169968 l 50.63117885926182 -15.492742489345247 a73.94847818889345,73.94847818889345 0 0,0 0.3619746416848644,1.2203985445278887 l -50.890359398058386 14.618914558070829" fill="#3effb3" stroke="none" /><path d="M 120.37134235888165 94.90015583598534 l 16.053793375213342 -4.018971504800403 a37.54921187520546,37.54921187520546 0 0,0 0.15156864490830246,0.6283498853570096 l -16.120594820382465 3.7420363877839873" fill="#ff4806" stroke="none" /><path d="M 120.53481517161879 95.60439243477599 l 34.00679030067002 -7.2793693766092025 a55.77716211934005,55.77716211934005 0 0,0 0.1928846088080875,0.940573854122776 l -34.1270542053931 6.692919866323015" fill="#9eff22" stroke="none" /><path d="M 120.67395015179393 96.31383870115 l 37.83231721130054 -6.745494814788046 a59.428972480054675,59.428972480054675 0 0,0 0.1708954771350665,1.0086347798894502 l -37.94282454995583 6.093274246582758" fill="#6eff28" stroke="none" /><path d="M 120.78858239683441 97.02765380044208 l 24.79616644763271 -3.5453495431920174 a46.04834074109736,46.04834074109736 0 0,0 0.10543754569428598,0.7856321840900774 l -24.853519992384832 3.1179990170372758" fill="#ffd213" stroke="none" /><path d="M 120.83666639777658 97.38593545837742 l 24.786299714118428 -3.109565895225 a45.98059353928272,45.98059353928272 0 0,0 0.09176335447222854,0.7861723821818706 l -24.836153421594243 2.6824497747182763" fill="#ffd113" stroke="none" /><path d="M 120.87857604477298 97.74499172005257 l 25.7081906238859 -2.776634890952876 a46.85770226589578,46.85770226589578 0 0,0 0.07970913375543541,0.8026600990480455 l -25.752176883323564 2.3336992612003957" fill="#ffdf14" stroke="none" /><path d="M 120.94382443527127 98.46500227214037 l 42.80509151582772 -3.1372359150874534 a63.91990341164925,63.91990341164925 0 0,0 0.07097973193402406,1.0980250366463788 l -42.85275183876616 2.3999518141880394" fill="#37ff2e" stroke="none" /><path d="M 120.96714384426684 98.82574320788733 l 25.424703455156376 -1.4239006963187901 a46.464544743144685,46.464544743144685 0 0,0 0.03784955741087928,0.7989443353603918 l -25.44544662080075 0.9860452543353986" fill="#ffd914" stroke="none" /><line stroke="#e1ed5e" stroke-width="0.3" x1="184.98032266829074" x2="189.97916517819016" y1="98.17113171792111" y2="98.06355123074" /><path d="M 185.9800911702706 98.14961562048488 a86.0,86.0 0 0,1 -9.607161424134198,41.387399972396054" fill="none" id="id52" stroke="none" /><text fill="#e1ed5e" style="font-size:6.75px; font-family:Arial;" text-anchor="middle"><textPath startOffset="21.466115282336823" xlink:href="#id52">April</textPath></text><path d="M 120.99513854157772 99.54816195383933 l 17.495784461494207 -0.37652816872222716 a38.499835638796824,38.499835638796824 0 0,0 0.008556117090256473,0.6626806978122217 l -17.49967358570218 0.07531121284954277" fill="#ff5808" stroke="none" /><path d="M 120.99980553446 99.90962569577887 l 25.669139770323053 -0.11046914900669523 a46.66937747553031,46.66937747553031 0 0,0 -0.0034573179540899773,0.8033589340732693 l -25.66723815507946 -0.3313992632702588" fill="#ffdc14" stroke="none" /><path d="M 120.99824983174949 100.27111621757518 l 30.080034958323527 0.3883745249139442 a51.0825420778492,51.0825420778492 0 0,0 -0.018919848103427624,0.8791309972506994 l -30.06889304753509 -0.9060953379547585" fill="#e0ff1b" stroke="none" /><path d="M 120.95626037817324 101.35467743843564 l 16.512708143812056 1.0674324887274858 a37.5471732438114,37.5471732438114 0 0,0 -0.04724407283465717,0.6446078382382721 l -16.49188751231306 -1.351513463462528" fill="#ff4806" stroke="none" /><path d="M 120.92983693683757 101.71520430193887 l 27.52818931579703 2.255940592443859 a48.62047202643354,48.62047202643354 0 0,0 -0.07553631090769329,0.8335368965271271 l -27.48527840861226 -2.7294588775195567" fill="#fff917" stroke="none" /><path d="M 120.89721153311464 102.0752229133903 l 39.970128058135906 3.9692820004212903 a61.16673171397757,61.16673171397757 0 0,0 -0.1130643690399633,1.046835636013796 l -39.89588138759489 -4.6567139583198776" fill="#58ff2a" stroke="none" /><path d="M 120.76222939487914 103.15116336523771 l 17.850367141791914 2.7092188378927675 a39.054790882432215,39.054790882432215 0 0,0 -0.1065977189127506,0.6637840974251668 l -17.801087668517876 -3.0160821650111393" fill="#ff6109" stroke="none" /><path d="M 120.49622156327973 104.57218783832717 l 16.99592190746159 3.7913596516576438 a38.41366617036029,38.41366617036029 0 0,0 -0.14951958729990084,0.6441264687968085 l -16.928141754231135 -4.0833547778030175" fill="#ff5708" stroke="none" /><path d="M 120.41448212921028 104.9243191809786 l 27.718484444474463 6.686168365852285 a49.51349202246362,49.51349202246362 0 0,0 -0.2069868756816224,0.8268096774522438 l -27.59928625449778 -7.162305882701924" fill="#f7ff18" stroke="none" /><path d="M 120.13307415673323 105.97154293290107 l 24.14683714135215 7.1620396150545655 a46.18659475551617,46.18659475551617 0 0,0 -0.23263358067820333,0.7602600017452645 l -24.019976788167813 -7.576626589351887" fill="#ffd413" stroke="none" /><path d="M 119.9155931802556 106.66101706037122 l 24.164048929459405 8.081965759691638 a46.479784755883166,46.479784755883166 0 0,0 -0.260307088717948,0.7565742468616516 l -24.021351009798227 -8.49671270964259" fill="#ffd914" stroke="none" /><path d="M 119.79798401119884 107.00284435728193 l 32.52578234478855 11.5048578294912 a55.50055464506859,55.50055464506859 0 0,0 -0.32633199997236384,0.8979255099068407 l -32.32292608381096 -12.063031136404174" fill="#a2ff22" stroke="none" /><path d="M 119.67450827220406 107.3425965602758 l 32.32378789310154 12.06335276670085 a55.50147451533176,55.50147451533176 0 0,0 -0.34174562599179037,0.8921899905898505 l -32.11134798751624 -12.617966324123845" fill="#a2ff22" stroke="none" /><path d="M 119.41010516605496 108.01547362559984 l 23.82146868016617 9.83716225622761 a46.772701281307064,46.772701281307064 0 0,0 -0.3137090039265398,0.7415154171406665 l -23.648608695047322 -10.245752199034442" fill="#ffde14" stroke="none" /><path d="M 119.26925614724726 108.34839909993367 l 48.39191485072938 20.965781724875203 a73.73842457123035,73.73842457123035 0 0,0 -0.5146201675611607,1.160332622093883 l -48.02385359843694 -21.795662683461774" fill="#3dffb0" stroke="none" /><path d="M 118.97047184881838 109.00673069616215 l 22.988654160720362 10.914468482538703 a46.448061662482985,46.448061662482985 0 0,0 -0.34912739380866087,0.7193058393640646 l -22.797373510296985 -11.308563277868043" fill="#ffd914" stroke="none" /><path d="M 118.81262510543309 109.33194174019688 l 25.344463556429904 12.572039043973817 a49.29130606187006,49.29130606187006 0 0,0 -0.3835833716477593,0.7568463828249263 l -25.124301514995878 -13.006439638501437" fill="#fbff18" stroke="none" /><path d="M 118.64920377521936 109.65438752849418 l 24.83723930972385 12.85783223370902 a48.96805867911998,48.96805867911998 0 0,0 -0.3939538424254084,0.7452122044870403 l -24.612232959073545 -13.283459453282195" fill="#ffff18" stroke="none" /><line stroke="#e1ed5e" stroke-width="0.3" x1="174.80103733775053" x2="179.2010983576182" y1="140.37084112569926" y2="142.7455964860345" /><path d="M 175.68104954172406 140.8457921977663 a86.0,86.0 0 0,1 -30.038265399797805,32.042727171017184" fill="none" id="id53" stroke="none" /><text fill="#e1ed5e" style="font-size:6.75px; font-family:Arial;" text-anchor="middle"><textPath startOffset="22.206326154141568" xlink:href="#id53">May</textPath></text><path d="M 118.30583269289576 110.29060199501025 l 29.88372630156498 16.799101065561988 a55.28187413601847,55.28187413601847 0 0,0 -0.4734445101103962,0.825490410133995 l -29.590129795302204 -17.3110113215543" fill="#a5ff21" stroke="none" /><path d="M 117.94076556474637 110.91462005526583 l 23.70091939752547 14.41892372156012 a48.742367266982974,48.742367266982974 0 0,0 -0.44224497669767104,0.7130397163027798 l -23.449209781159837 -14.824759769228173" fill="#fffb17" stroke="none" /><path d="M 117.75023020441432 111.22182372390056 l 44.35448091741028 28.041223155320303 a73.4750433396618,73.4750433396618 0 0,0 -0.6850502928126776,1.0632132674170633 l -43.86522576122055 -28.80055802265882" fill="#3dffad" stroke="none" /><path d="M 117.14729908036423 112.12312394758627 l 20.315693683160212 14.363175882560924 a45.880277957880125,45.880277957880125 0 0,0 -0.4614686588632616,0.6409396059715824 l -20.06544523192135 -14.710749093983637" fill="#ffd013" stroke="none" /><path d="M 116.93607887273984 112.41649034213515 l 14.121547233849565 10.353049024076293 a38.51010337984249,38.51010337984249 0 0,0 -0.3965417130618188,0.5312324265669127 l -13.941244254092656 -10.594594330152521" fill="#ff5808" stroke="none" /><path d="M 116.71984013943494 112.70617746262583 l 33.983294650427226 25.825472551893927 a63.68277577461876,63.68277577461876 0 0,0 -0.6707712315226672,0.8670622376149979 l -33.533716601686486 -26.40661278362218" fill="#39ff2e" stroke="none" /><path d="M 116.498646956653 112.99209946851258 l 13.780190373027782 10.851411300077663 a38.53986242592401,38.53986242592401 0 0,0 -0.41491297935102767,0.517667737527456 l -13.5913594816219 -11.08700687118337" fill="#ff5908" stroke="none" /><path d="M 115.80600337817218 113.82643327865902 l 20.950275827137176 18.32642850712288 a48.83472721367706,48.83472721367706 0 0,0 -0.5589045007449879,0.6279351314929262 l -20.63171247674385 -18.684337808356673" fill="#fffd17" stroke="none" /><path d="M 115.56566222782051 114.09645910891815 l 20.77226120142907 18.811620497736556 a49.02434479468267,49.02434479468267 0 0,0 -0.5718423501482738,0.6206219308501477 l -20.445372443285077 -19.166393683388037" fill="#feff18" stroke="none" /><path d="M 115.07121518719521 114.62390073753431 l 32.14619395341497 31.192093246978175 a65.79201342671207,65.79201342671207 0 0,0 -0.7956427907707433,0.8059819463892107 l -31.60451053758869 -31.74081568734805" fill="#31ff42" stroke="none" /><path d="M 114.55890576462653 115.13401014063108 l 19.225437311056567 19.984878529163343 a48.73108021024028,48.73108021024028 0 0,0 -0.6095194534598757,0.5763386875323793 l -18.878582023205883 -20.312851853441643" fill="#fffb17" stroke="none" /><path d="M 114.0293411484842 115.62618273729858 l 11.632527618259097 12.95656013605662 a38.412298795644766,38.412298795644766 0 0,0 -0.49580701576174213,0.4374920449164957 l -11.407778249590768 -13.154875322745404" fill="#ff5708" stroke="none" /><path d="M 112.34349029814194 116.9893568818739 l 7.317573622886502 10.071776036257724 a33.449399834967934,33.449399834967934 0 0,0 -0.4687259176803378,0.3344234968199306 l -7.14312037735728 -10.196243794921873" fill="#ff0000" stroke="none" /><line stroke="#e1ed5e" stroke-width="0.3" x1="143.8653032363475" x2="146.44561519142675" y1="172.8068346515853" y2="177.08958963109032" /><path d="M 144.38136562736335 173.6633856474863 a86.0,86.0 0 0,1 -40.68145358897372,12.25698825130547" fill="none" id="id54" stroke="none" /><text fill="#e1ed5e" style="font-size:6.75px; font-family:Arial;" text-anchor="middle"><textPath startOffset="21.466115282336833" xlink:href="#id54">June</textPath></text><path d="M 109.89434966115114 118.52300852407294 l 12.599593356638543 23.587439613258617 a47.74167272744493,47.74167272744493 0 0,0 -0.7281948620573002,0.38095713521376734 l -12.191707592054748 -23.8008261674171" fill="#ffec16" stroke="none" /><path d="M 109.2508944713604 118.85261126421891 l 10.968115165001457 22.352174932609397 a45.89817813597426,45.89817813597426 0 0,0 -0.7122683245896526,0.34193208027783656 l -10.58173417241157 -22.537661289386794" fill="#ffd013" stroke="none" /><path d="M 108.2653958097858 119.30500536409082 l 13.260526021093588 30.971841138544548 a54.69119312027018,54.69119312027018 0 0,0 -0.8686225628450576,0.36308430171660977 l -12.72543199875107 -31.19551048328113" fill="#adff20" stroke="none" /><path d="M 107.59598834532513 119.57807347666477 l 12.706389874620644 32.7497388462389 a56.128303946286835,56.128303946286835 0 0,0 -0.9037452867837221,0.3417191370514127 l -12.140774367076647 -32.963606233396945" fill="#9aff23" stroke="none" /><path d="M 107.2578585660854 119.70592522655815 l 9.558485736275188 25.95239401306694 a48.65667016435726,48.65667016435726 0 0,0 -0.7884244334200744,0.2827009510267065 l -9.110341742225378 -26.113082505133605" fill="#fffa17" stroke="none" /><path d="M 106.2309692047433 120.05430185196036 l 15.605802343733547 50.22709317918318 a73.59564578957111,73.59564578957111 0 0,0 -1.2130140371429483,0.3654711788852945 l -14.738913332150352 -50.4882797271742" fill="#3dffae" stroke="none" /><path d="M 105.18746579009965 120.34920634021253 l 7.575713624335238 29.717740020603692 a51.66815137647082,51.66815137647082 0 0,0 -0.8637111821000293,0.2122791945715297 l -7.063049157491998 -29.84374047348925" fill="#d8ff1c" stroke="none" /><path d="M 104.83641907484287 120.43548508189849 l 4.715982543768019 19.926600534052405 a41.47705789894687,41.47705789894687 0 0,0 -0.6961822462783048,0.15844881267814398 l -4.372280148096852 -20.004826080308234" fill="#ff8a0c" stroke="none" /><path d="M 104.48393922423573 120.51570834832081 l 5.8447243843609895 26.741812243520542 a48.3730766483574,48.3730766483574 0 0,0 -0.8149908359580957,0.170789253682491 l -5.383542086973516 -26.838457477929573" fill="#fff617" stroke="none" /><path d="M 103.7750983002368 120.6578951692458 l 10.479285356504022 57.34419639607611 a79.29384428818182,79.29384428818182 0 0,0 -1.344789723770051,0.23380893108848633 l -9.490646661261922 -57.5160839056856" fill="#46fff6" stroke="none" /><path d="M 103.06178313531738 120.77559828337769 l 4.058433114414042 27.53832401532367 a48.83577139073255,48.83577139073255 0 0,0 -0.8326996886836898,0.11540458927471577 l -3.583804834543521 -27.60410317009099" fill="#fffd17" stroke="none" /><path d="M 102.70371172650421 120.8252237178851 l 3.841620868450083 29.58992012369943 a50.838254369581065,50.838254369581065 0 0,0 -0.8687835882467134,0.10519759353125063 l -3.3317098571519894 -29.65166324595603" fill="#e4ff1a" stroke="none" /><path d="M 101.98527174616119 120.90594882070398 l 2.8212675488519414 29.70942144311501 a50.84307747312309,50.84307747312309 0 0,0 -0.871972535973919,0.07523745947291165 l -2.309450695136481 -29.753583154866583" fill="#e4ff1a" stroke="none" /><path d="M 101.62511606390274 120.93702456842531 l 4.8753481917081976 62.81107370527595 a84.0,84.0 0 0,0 -1.4425489568842786,0.09948662193485935 l -3.7934364740449884 -62.885688671727095" fill="#4dd2ff" stroke="none" /><path d="M 100.90346689309514 120.98055641714683 l 0.8826993546672175 20.498286933934608 a41.517283576941765,41.517283576941765 0 0,0 -0.714254743338155,0.024600377540424403 l -0.5297242596544102 -20.510444109901126" fill="#ff8a0c" stroke="none" /><line stroke="#e1ed5e" stroke-width="0.3" x1="102.19456741930631" x2="102.32365962044197" y1="184.97166512339345" y2="189.96999836594603" /><path d="M 102.22038585953345 185.97133177190398 a86.0,86.0 0 0,1 -42.740103519485714,-10.115201625700543" fill="none" id="id55" stroke="none" /><text fill="#e1ed5e" style="font-size:6.75px; font-family:Arial;" text-anchor="middle"><textPath startOffset="22.20632615414155" xlink:href="#id55">July</textPath></text><path d="M 100.54218724476979 120.99299961872073 l 0.7711127831191222 29.85678936228684 a50.86674548638091,50.86674548638091 0 0,0 -0.8754901077499165,0.015072356167819429 l -0.25706298547653766 -29.86563919573382" fill="#e3ff1b" stroke="none" /><path d="M 99.81925306533755 120.99922214144158 l -0.25951756881101684 30.15081327518419 a51.15193012932248,51.15193012932248 0 0,0 -0.8803985470729,-0.01515685940212127 l 0.7784758057765847 -30.14187893850291" fill="#dfff1b" stroke="none" /><path d="M 99.45781275523022 120.99299961872073 l -0.6576518839817427 25.463685991989617 a46.47217718019316,46.47217718019316 0 0,0 -0.7994977061225649,-0.027536317534829904 l 1.0958699417789506 -25.448592876028695" fill="#ffd914" stroke="none" /><path d="M 99.09653310690486 120.98055641714683 l -2.2685621987932154 52.681174663226734 a73.72999657071102,73.72999657071102 0 0,0 -1.2674956418028203,-0.06551504683007901 l 3.1750459090095244 -52.634319809634455" fill="#3dffb0" stroke="none" /><path d="M 98.37488393609728 120.93702456842531 l -2.1567423610880216 27.786180202675435 a48.86975686775297,48.86975686775297 0 0,0 -0.8381295536433595,-0.07231734455358797 l 2.6347162324729227 -27.74493860584318" fill="#fffd17" stroke="none" /><path d="M 98.01472825383883 120.90594882070398 l -2.823053785991101 29.728231453525694 a50.86197210555581,50.86197210555581 0 0,0 -0.8708717734054021,-0.09026942009331171 l 3.3343581560020965 -29.675232664976622" fill="#e3ff1b" stroke="none" /><path d="M 97.65516085044442 120.86867818915974 l -3.8695615872446965 34.43845413134149 a55.655167433356766,55.655167433356766 0 0,0 -0.9511006360626255,-0.11516504164374838 l 4.461789646358711 -34.366743560972395" fill="#a0ff22" stroke="none" /><path d="M 96.93821686468263 120.77559828337769 l -3.6287642154078292 24.62282411017165 a45.88878054247485,45.88878054247485 0 0,0 -0.7804679367862529,-0.12189304059221166 l 4.0520680158025995 -24.55671276223233" fill="#ffd013" stroke="none" /><path d="M 96.58105272829116 120.7198165907248 l -8.60197912041791 52.130499691274956 a73.83543359195724,73.83543359195724 0 0,0 -1.252217410265844,-0.2177140477872306 l 9.498045502155804 -51.974707064966715" fill="#3effb1" stroke="none" /><path d="M 95.86986931433489 120.58985236759428 l -4.937849350168386 24.61655498850538 a46.106914101638765,46.106914101638765 0 0,0 -0.7768104712524576,-0.16278818703769593 l 5.36085128285023 -24.527910820741145" fill="#ffd313" stroke="none" /><path d="M 95.16358092515715 120.4354850818985 l -6.990658982902213 29.53786782060026 a51.35382922140934,51.35382922140934 0 0,0 -0.8584568125730418,-0.21098779837997128 l 7.498069080218466 -29.413158763906257" fill="#dcff1b" stroke="none" /><path d="M 94.81253420990036 120.34920634021253 l -8.227220316352131 32.273447305109336 a54.30559345049216,54.30559345049216 0 0,0 -0.9038249485590859,-0.23870838365158026 l 8.781535707722705 -32.127047572154176" fill="#b3ff20" stroke="none" /><path d="M 94.11515582081647 120.15858648285463 l -16.336315532633 55.96019528277013 a79.29595750365127,79.29595750365127 0 0,0 -1.3069673960826893,-0.39377855522268296 l 17.297157903155934 -55.67070135844172" fill="#46fff6" stroke="none" /><path d="M 92.7421414339146 119.70592522655815 l -8.726836746195447 23.694370842178248 a46.250364139976554,46.250364139976554 0 0,0 -0.7446964484003237,-0.2815804756429249 l 9.133403415356055 -23.54064211642869" fill="#ffd513" stroke="none" /><path d="M 92.06813273071674 119.44442032107085 l -10.33111303140503 25.326004249347964 a48.352118523172166,48.352118523172166 0 0,0 -0.7679434057733016,-0.3210004058952955 l 10.765527896675794 -25.144418800432693" fill="#fff517" stroke="none" /><path d="M 91.7346041902142 119.30500536409082 l -21.133317217859645 49.35986269027647 a74.69369740885452,74.69369740885452 0 0,0 -1.1775970926401058,-0.5162239590249104 l 21.979834985157495 -48.98877417795711" fill="#3fffbd" stroke="none" /><path d="M 91.07499286063937 119.00905698771935 l -10.618800001395673 22.616606487351778 a45.98539178146629,45.98539178146629 0 0,0 -0.7136217446964593,-0.34258180417631295 l 11.006534414092373 -22.430470406675905" fill="#ffd113" stroke="none" /><path d="M 90.10565033884886 118.52300852407294 l -7.54112894324171 14.117592411884504 a37.00546910423736,37.00546910423736 0 0,0 -0.5592710347516548,-0.3049591602144495 l 7.783022789862005 -13.985692599910289" fill="#ff3f05" stroke="none" /><line stroke="#e1ed5e" stroke-width="0.3" x1="58.666819895761336" x2="56.23545636021788" y1="174.27360380694188" y2="178.64263932499728" /><path d="M 58.180547188652646 175.14741091055294 a86.0,86.0 0 0,1 -31.652253787137756,-30.449443065178592" fill="none" id="id56" stroke="none" /><text fill="#e1ed5e" style="font-size:6.75px; font-family:Arial;" text-anchor="middle"><textPath startOffset="22.20632615414155" xlink:href="#id56">August</textPath></text><path d="M 89.7882731507175 118.34994917583269 l -9.679390265639526 17.39336764966592 a40.905271515631284,40.905271515631284 0 0,0 -0.6123153590648339,-0.34768864132624544 l 9.977354391625566 -17.22417584254504" fill="#ff800b" stroke="none" /><path d="M 89.4739219176387 118.17145234162733 l -17.022866888253013 29.387033989050963 a54.961386364057894,54.961386364057894 0 0,0 -0.8145594899674946,-0.4812561044446578 l 17.52619424924889 -29.089659312312556" fill="#aaff21" stroke="none" /><path d="M 89.1626897886671 117.98757091392108 l -12.845138677137456 21.320128182041092 a45.890670005718114,45.890670005718114 0 0,0 -0.6731086138477951,-0.41347828714547075 l 13.21022649091756 -21.09586142806724" fill="#ffd013" stroke="none" /><path d="M 87.95078237400918 117.19931262002967 l -14.408161641589468 20.566520088331423 a46.111289700728435,46.111289700728435 0 0,0 -0.6461567826936884,-0.46101570792530894 l 14.760045752132042 -20.315460118561894" fill="#ffd313" stroke="none" /><path d="M 87.65650970185807 116.9893568818739 l -12.04493897981378 16.578436244994194 a41.49207415945918,41.49207415945918 0 0,0 -0.5742009694879215,-0.42478015002073954 l 12.328524919720266 -16.36864614623369" fill="#ff8a0c" stroke="none" /><path d="M 87.36589467227662 116.77436683061367 l -31.911945831647785 42.369655133719924 a74.04300107377392,74.04300107377392 0 0,0 -1.0114671363900787,-0.7755498690125857 l 32.63654169653135 -41.81406592287997" fill="#3effb4" stroke="none" /><path d="M 87.07902340077011 116.55440617244103 l -8.031498833172853 10.289987977050753 a34.05330709341912,34.05330709341912 0 0,0 -0.45897778195176775,-0.3646397086323085 l 8.207434107841978 -10.150214354413315" fill="#ff0b01" stroke="none" /><path d="M 86.79598089348748 116.32954008644616 l -15.816995023489335 19.561033061198533 a46.15574180966223,46.15574180966223 0 0,0 -0.613497441821693,-0.5048666279260532 l 16.15136259385572 -19.285871314415296" fill="#ffd413" stroke="none" /><path d="M 86.51685102203217 116.09983520530335 l -12.784072434730861 15.265088280797823 a40.911188518945735,40.911188518945735 0 0,0 -0.5360038264679204,-0.456794089270647 l 13.044941737775838 -15.042769801304225" fill="#ff800b" stroke="none" /><path d="M 86.24171649860922 115.8653595955263 l -19.57502728268305 22.572935562827336 a50.87840546350057,50.87840546350057 0 0,0 -0.6567133748952894,-0.5794731985902706 l 19.960683010484924 -22.232639222464776" fill="#e3ff1b" stroke="none" /><path d="M 85.70375840098266 115.38237550388516 l -10.669354193563915 11.479941175632684 a36.67240148489397,36.67240148489397 0 0,0 -0.45869170175783996,-0.43372163410451225 l 10.865381729712572 -11.29458490478224" fill="#ff3905" stroke="none" /><path d="M 85.44109423537348 115.13401014063109 l -38.29478619309707 39.8075028404786 a76.23701595822976,76.23701595822976 0 0,0 -0.9378969858826663,-0.9179296018347052 l 38.97433313135552 -39.14242313572132" fill="#41ffd0" stroke="none" /><path d="M 85.18274418774928 114.88116024355367 l -10.708108573598823 10.754290916496632 a36.17624335402614,36.17624335402614 0 0,0 -0.43749029285844754,-0.4431753568996204 l 10.891639491512803 -10.568375065616348" fill="#ff3004" stroke="none" /><path d="M 84.67929136418377 114.36230785411682 l -18.167846193460573 17.031340147460725 a45.90255373506395,45.90255373506395 0 0,0 -0.5354283533129991,-0.5811017291371726 l 18.458320954769302 -16.716087163522207" fill="#ffd013" stroke="none" /><path d="M 84.43433777217949 114.09645910891817 l -20.6734698400763 18.7221538007698 a48.891063051956685,48.891063051956685 0 0,0 -0.5595492540868044,-0.6286595187074459 l 20.992677943811444 -18.363520112321492" fill="#fffe18" stroke="none" /><path d="M 83.95833913139862 113.55231037782056 l -15.208126002428655 12.848123740935694 a40.90882668989165,40.90882668989165 0 0,0 -0.44981008201704964,-0.5418252204036894 l 15.42703208433924 -12.584437263418245" fill="#ff800b" stroke="none" /><path d="M 83.72743513129214 113.27417163493432 l -40.68270611543263 33.18648460811002 a73.50166985457685,73.50166985457685 0 0,0 -0.7913052851512866,-0.9872750119760009 l 41.24792931263878 -32.48128176255576" fill="#3dffad" stroke="none" /><path d="M 83.50135304334701 112.99209946851258 l -15.61656075390415 12.29748786090471 a40.87725276464225,40.87725276464225 0 0,0 -0.4305604591615586,-0.5565574336002904 l 15.825928030283777 -12.026852433191166" fill="#ff800b" stroke="none" /><path d="M 83.06392112726016 112.41649034213515 l -20.525055669429733 15.0477071703689 a46.450174877952435,46.450174877952435 0 0,0 -0.46720074199573597,-0.6489009681004296 l 20.781036203801076 -14.692172596817333" fill="#ffd914" stroke="none" /><path d="M 82.85270091963577 112.12312394758628 l -20.50219203578105 14.495030038381445 a46.10867925808971,46.10867925808971 0 0,0 -0.45260958639117843,-0.6520178664145806 l 20.748662529334364 -14.139970909779851" fill="#ffd313" stroke="none" /><path d="M 82.44556493220864 111.52570212397912 l -21.14568285855533 13.883604963341254 a46.29613390090894,46.29613390090894 0 0,0 -0.43164561248776445,-0.6699235761728861 l 21.38153333442014 -13.517559787246919" fill="#ffd614" stroke="none" /><path d="M 82.24976979558568 111.22182372390057 l -35.73859851259343 22.594200076787754 a63.28173720123454,63.28173720123454 0 0,0 -0.574162314289283,-0.9257324678951662 l 36.12222546655067 -21.975671277527326" fill="#3eff2d" stroke="none" /><line stroke="#e1ed5e" stroke-width="0.3" x1="26.63291911575756" x2="22.317208475507996" y1="142.92168965132927" y2="145.44649492493687" /><path d="M 25.769776987707644 143.4266507060508 a86.0,86.0 0 0,1 -11.730757126820373,-40.83630448921669" fill="none" id="id57" stroke="none" /><text fill="#e1ed5e" style="font-size:6.75px; font-family:Arial;" text-anchor="middle"><textPath startOffset="21.46611528233685" xlink:href="#id57">September</textPath></text><path d="M 81.69416730710424 110.29060199501025 l -15.186819543085015 8.537252476287625 a38.42194500272883,38.42194500272883 0 0,0 -0.3191282668205868,-0.5793105013505431 l 15.331524219357117 -8.27457145653926" fill="#ff5708" stroke="none" /><path d="M 81.51974371655577 109.97397251340807 l -20.488217381360663 11.057688479866439 a44.281742331356135,44.281742331356135 0 0,0 -0.35625187134830977,-0.6738942835679285 l 20.675521760933858 -10.703379181212384" fill="#ffb711" stroke="none" /><path d="M 81.18737489456691 109.33194174019688 l -22.812384691185148 11.316009525519018 a46.464818218087785,46.464818218087785 0 0,0 -0.3492533446530588,-0.7195653354089326 l 23.003791292452924 -10.9216552341448" fill="#ffd914" stroke="none" /><path d="M 80.87730276802145 108.67885076344099 l -45.392854900092885 20.601581912076128 a70.84913693596779,70.84913693596779 0 0,0 -0.49445584081240246,-1.1148673885022544 l 45.740751825636565 -19.817166187081177" fill="#39ff89" stroke="none" /><path d="M 80.58989483394504 108.01547362559985 l -25.417736436363647 10.496346840223207 a48.49972040837346,48.49972040837346 0 0,0 -0.31200883030566057,-0.7743803291607055 l 25.594647880926697 -10.057267143219697" fill="#fff817" stroke="none" /><path d="M 80.32549172779594 107.34259656027581 l -24.387246383319532 9.101407208318538 a47.03024009363656,47.03024009363656 0 0,0 -0.2765282690792142,-0.7608870323402027 l 24.54029891340397 -8.680272378972218" fill="#ffe115" stroke="none" /><path d="M 80.20201598880116 107.00284435728193 l -16.459890274955423 5.822110456713696 a38.459237040424966,38.459237040424966 0 0,0 -0.21538851956579952,-0.6260198589893551 l 16.557669625464452 -5.537917894635044" fill="#ff5708" stroke="none" /><line stroke="#e1ed5e" stroke-width="0.3" x1="15.007084014347285" x2="10.007500721073583" y1="101.09737516637583" y2="101.16192664675087" /><path d="M 14.007167355692545 101.11028546245083 a86.0,86.0 0 0,1 10.666146001902534,-42.60595125391555" fill="none" id="id58" stroke="none" /><text fill="#e1ed5e" style="font-size:6.75px; font-family:Arial;" text-anchor="middle"><textPath startOffset="22.20632615414155" xlink:href="#id58">October</textPath></text><line stroke="#e1ed5e" stroke-width="0.3" x1="26.266209847984243" x2="21.928928074336255" y1="57.711370442889674" y2="55.22380399835377" /><path d="M 25.398753493254645 57.213857153982495 a86.0,86.0 0 0,1 29.58750427330803,-30.492523968695096" fill="none" id="id59" stroke="none" /><text fill="#e1ed5e" style="font-size:6.75px; font-family:Arial;" text-anchor="middle"><textPath startOffset="21.46611528233685" xlink:href="#id59">November</textPath></text><line stroke="#e1ed5e" stroke-width="0.3" x1="56.762969772571076" x2="54.21961505331055" y1="26.818313649435495" y2="22.513508569990535" /><path d="M 56.25429882871897 25.957352633546506 a86.0,86.0 0 0,1 42.265352541879196,-11.944610805530505" fill="none" id="id60" stroke="none" /><text fill="#e1ed5e" style="font-size:6.75px; font-family:Arial;" text-anchor="middle"><textPath startOffset="22.20632615414155" xlink:href="#id60">December</textPath></text></svg>