<?xml version="1.0" encoding="utf-8" ?>
<svg baseProfile="full" height="200mm" version="1.1" viewBox="0,0,200,200" width="200mm" xmlns="http://www.w3.org/2000/svg" xmlns:ev="http://www.w3.org/2001/xml-events" xmlns:xlink="http://www.w3.org/1999/xlink"><defs /><rect fill="#1a1a1a" height="200" width="200" x="0" y="0" /><text alignment-baseline="middle" fill="#e1ed5e" style="dominant-baseline: central; font-size:9.0px; font-family:Arial;" text-anchor="middle" x="100.0" y="100.0">2026</text><line stroke="#e1ed5e" stroke-width="0.3" x1="100.0" x2="100.0" y1="15.0" y2="10.0" /><path d="M 100.0 14.0 a86.0,86.0 0 0,1 42.46469731375804,11.215312516191453" fill="none" id="id61" stroke="none" /><text fill="#e1ed5e" style="font-size:6.75px; font-family:Arial;" text-anchor="middle"><textPath startOffset="22.20632615414155" xlink:href="#id61">January</textPath></text><path d="M 100.0 79.0 l 0.0 -49.83702514964449 a70.83702514964449,70.83702514964449 0 0,0 1.2193429429206493,0.010495269670023817 l -0.8578624636481209 49.829641256583024" fill="#3cffa6" stroke="none" /><path d="M 100.72285384407766 79.0124445844662 l 0.8689030216970438 -25.227991063477358 a46.24295001698509,46.24295001698509 0 0,0 0.795288825523623,0.03424680976153069 l -1.3030326796099982 25.209296527191633" fill="#ceff1d" stroke="none" /><path d="M 101.44485096284872 79.0497635885617 l 1.734273046862756 -25.14683608759476 a46.20656795792384,46.20656795792384 0 0,0 0.7930143051395926,0.06155317256161027 l -2.16687754136469 25.113257652844684" fill="#cfff1d" stroke="none" /><path d="M 102.52436894288641 79.15227682838746 l 2.3669644011923645 -19.54778390542914 a40.69056566200845,40.69056566200845 0 0,0 0.6946175465959246,0.09018129320522254 l -2.703096676296135 19.504144289059777" fill="#ffeb16" stroke="none" /><path d="M 103.59715602781102 79.31037775812273 l 4.412464762987981 -25.379001743599584 a46.75972777003362,46.75972777003362 0 0,0 0.7918089205201966,0.14469801910981617 l -4.848668804611079 25.299288243139028" fill="#c8ff1d" stroke="none" /><path d="M 104.66035177308747 79.52364482259891 l 5.500616980909282 -24.168258637979 a45.78631704717169,45.78631704717169 0 0,0 0.7669781808770959,0.1815189553424417 l -5.915818848748901 24.06999377049569" fill="#d4ff1c" stroke="none" /><path d="M 105.01212808612495 79.60689891045804 l 3.647183450514048 -14.839481258337342 a36.281104382152776,36.281104382152776 0 0,0 0.605188017798043,0.1542759008100382 l -3.902080356997116 14.774502361358437" fill="#ffb210" stroke="none" /><path d="M 105.71112130821622 79.79150937346287 l 16.77368015520512 -59.352750518771046 a82.67742974616078,82.67742974616078 0 0,0 1.3661846140667573,0.3988267520948847 l -17.792854986995305 59.05522543775746" fill="#4bdeff" stroke="none" /><path d="M 106.40334571778207 80.00007090966166 l 7.511091748524994 -23.459814444246117 a45.63289250196207,45.63289250196207 0 0,0 0.7460264698423222,0.24595319778931957 l -7.913801040609734 23.32704752219756" fill="#d6ff1c" stroke="none" /><path d="M 106.74666289553966 80.11325718540242 l 5.302431784119477 -15.629667409712376 a37.50461408708079,37.50461408708079 0 0,0 0.6095714151706062,0.21266749750453282 l -5.570685203353357 15.536079059035636" fill="#ffc212" stroke="none" /><path d="M 107.4271985657038 80.35727306442388 l 5.529347446068815 -14.62347627496921 a36.63392917803887,36.63392917803887 0 0,0 0.5879167078670957,0.22810254881836026 l -5.7802473189355785 14.526131022260303" fill="#ffb710" stroke="none" /><path d="M 108.09893153111575 80.62456947434976 l 7.114857606399391 -17.021187143397693 a39.44836064613618,39.44836064613618 0 0,0 0.6242538557741136,0.26727292256315816 l -7.40679521996382 16.89619469287174" fill="#ffdb14" stroke="none" /><path d="M 110.05341064243156 81.56283822128135 l 7.720773010714053 -14.159288436354029 a37.127485386967166,37.127485386967166 0 0,0 0.5584608698606172,0.3107828694446787 l -7.963357969646705 14.02429016934917" fill="#ffbd11" stroke="none" /><line stroke="#e1ed5e" stroke-width="0.3" x1="143.23703022742887" x2="145.7803849466894" y1="26.81831364943548" y2="22.513508569990506" /><path d="M 143.74570117128098 25.957352633546492 a86.0,86.0 0 0,1 28.547481713284135,27.462654790039103" fill="none" id="id62" stroke="none" /><text fill="#e1ed5e" style="font-size:6.75px; font-family:Arial;" text-anchor="middle"><textPath startOffset="19.985693538727396" xlink:href="#id62">February</textPath></text><path d="M 110.68208982089419 81.91981866633111 l 6.274590665074015 -10.620181904591748 a33.33526455739203,33.33526455739203 0 0,0 0.4915172590304423,0.2961336489416933 l -6.456469990322095 10.51060164619144" fill="#ff8a0c" stroke="none" /><path d="M 110.99172775467656 82.1063720568725 l 13.521155182503655 -22.01132757259871 a46.832541086342815,46.832541086342815 0 0,0 0.68326636355212,0.42786133417336086 l -13.898040698428039 21.775321897102405" fill="#c7ff1e" stroke="none" /><path d="M 111.2981086023043 82.29822771554956 l 8.609413120881836 -13.489149018936418 a37.002472794574146,37.002472794574146 0 0,0 0.5339509230607649,0.34729653316992193 l -8.840331069726881 13.338953561606969" fill="#ffbb11" stroke="none" /><path d="M 111.60114157652 82.49532879139004 l 8.842002566890852 -13.341475641704728 a37.00549848305591,37.00549848305591 0 0,0 0.527936839365209,0.3564653105986592 l -9.070344100662602 13.187298418807398" fill="#ffbc11" stroke="none" /><path d="M 111.90073688211348 82.69761687909136 l 13.961566615103898 -20.29860645904094 a45.63653316777753,45.63653316777753 0 0,0 0.6434074461112766,0.45074803346206876 l -14.308905200798826 20.055273582814934" fill="#d6ff1c" stroke="none" /><path d="M 112.19680574252982 82.90503203632743 l 9.028485109204594 -12.654269237408908 a36.544905059213534,36.544905059213534 0 0,0 0.5089394594272915,0.3697661614539839 l -9.244969884985673 12.496983841138249" fill="#ffb510" stroke="none" /><path d="M 112.48926042617603 83.11751280151076 l 32.22675104345982 -43.562844666110735 a75.18749780365238,75.18749780365238 0 0,0 1.0338418657184647,0.7786682594695206 l -32.97183906293667 43.00165981713537" fill="#42ffd5" stroke="none" /><path d="M 112.77801427241765 83.33499621200491 l 8.004126945583687 -10.438930730862934 a34.15436516768382,34.15436516768382 0 0,0 0.4634705796184102,0.3617461388406878 l -8.182630080361527 10.299606202799023" fill="#ff950d" stroke="none" /><path d="M 113.06298171725822 83.55741782278167 l 7.962207852577314 -10.022157250295384 a33.80001522801017,33.80001522801017 0 0,0 0.45243187662200496,0.36583511303363236 l -8.13354312776381 9.883616039997621" fill="#ff900d" stroke="none" /><path d="M 113.34407831869373 83.78471172551755 l 15.650347211914154 -19.017790931383946 a45.62944862889339,45.62944862889339 0 0,0 0.6021837038194733,0.5043115340725872 l -15.975388452692744 18.74557823991754" fill="#d6ff1c" stroke="none" /><path d="M 113.6212207817346 84.01681056812373 l 10.068349302989834 -11.814237266587556 a36.522495285173775,36.522495285173775 0 0,0 0.47497714053691786,0.4118954957711503 l -10.270220242173515 11.639176777396735" fill="#ffb510" stroke="none" /><path d="M 113.89432698308785 84.25364557470407 l 13.412585151307667 -15.200399401066608 a41.271891436001354,41.271891436001354 0 0,0 0.5286516817816914,0.474628699607632 l -13.67224782068535 14.96727169268968" fill="#fff316" stroke="none" /><path d="M 114.16331599549186 84.49514656593476 l 8.628691144007018 -9.445993548278484 a33.7937916573932,33.7937916573932 0 0,0 0.42611093369319986,0.3960236736206448 l -8.790009961495064 9.296065288583197" fill="#ff900d" stroke="none" /><path d="M 114.42810811169701 84.74124197986012 l 43.28432433509102 -45.77627406041963 a84.0,84.0 0 0,0 1.042067025550327,1.0024676529507923 l -44.06587460425377 45.02442332070654" fill="#4dd2ff" stroke="none" /><path d="M 114.68862486808459 84.99185889309783 l 5.176454544610006 -5.289056050970055 a28.40066183274959,28.40066183274959 0 0,0 0.34643965776689345,0.3449519357782817 l -5.266730002544222 5.1991682645416555" fill="#ff4506" stroke="none" /><path d="M 114.94478906791727 85.2469230424477 l 1.9425302268309395 -1.917611402781896 a23.729589195141095,23.729589195141095 0 0,0 0.2844564575267424,0.293157383909845 l -1.975250948060791 1.8838898233219366" fill="#ff0000" stroke="none" /><path d="M 115.19652480421416 85.50635884689758 l 5.382413310394894 -5.133460976348514 a28.43792945917136,28.43792945917136 0 0,0 0.33479930751457143,0.3571405580499051 l -5.469979939879929 5.040051001420554" fill="#ff4506" stroke="none" /><path d="M 115.4437574822437 85.77008943001954 l 5.446679257387304 -5.018581703649544 a28.40624582693952,28.40624582693952 0 0,0 0.328236009339575,0.3624463996887833 l -5.532258907342914 4.924082516691212" fill="#ff4506" stroke="none" /><path d="M 115.68641384162765 86.03803664274999 l 3.773823840965091 -3.358957038634643 a26.052161791751104,26.052161791751104 0 0,0 0.29526792751538417,0.33754228337235304 l -3.8310836320583235 3.293499199059342" fill="#ff2303" stroke="none" /><line stroke="#e1ed5e" stroke-width="0.3" x1="172.23445277983987" x2="176.4835382374775" y1="55.19839476539836" y2="52.563006222186495" /><path d="M 173.08426987136738 54.67131705675599 a86.0,86.0 0 0,1 12.851231095245387,41.99856678651699" fill="none" id="id63" stroke="none" /><text fill="#e1ed5e" style="font-size:6.75px; font-family:Arial;" text-anchor="middle"><textPath startOffset="22.20632615414155" xlink:href="#id63">March</textPath></text><line stroke="#e1ed5e" stroke-width="0.3" x1="184.98032266829074" x2="189.97916517819016" y1="98.17113171792111" y2="98.06355123074" /><path d="M 185.9800911702706 98.14961562048488 a86.0,86.0 0 0,1 -9.607161424134198,41.387399972396054" fill="none" id="id64" stroke="none" /><text fill="#e1ed5e" style="font-size:6.75px; font-family:Arial;" text-anchor="middle"><textPath startOffset="21.466115282336823" xlink:href="#id64">April</textPath></text><line stroke="#e1ed5e" stroke-width="0.3" x1="174.80103733775053" x2="179.2010983576182" y1="140.37084112569926" y2="142.7455964860345" /><path d="M 175.68104954172406 140.8457921977663 a86.0,86.0 0 0,1 -30.038265399797805,32.042727171017184" fill="none" id="id65" stroke="none" /><text fill="#e1ed5e" style="font-size:6.75px; font-family:Arial;" text-anchor="middle"><textPath startOffset="22.206326154141568" xlink:href="#id65">May</textPath></text><line stroke="#e1ed5e" stroke-width="0.3" x1="143.8653032363475" x2="146.44561519142675" y1="172.8068346515853" y2="177.08958963109032" /><path d="M 144.38136562736335 173.6633856474863 a86.0,86.0 0 0,1 -40.68145358897372,12.25698825130547" fill="none" id="id66" stroke="none" /><text fill="#e1ed5e" style="font-size:6.75px; font-family:Arial;" text-anchor="middle"><textPath startOffset="21.466115282336833" xlink:href="#id66">June</textPath></text><line stroke="#e1ed5e" stroke-width="0.3" x1="102.19456741930631" x2="102.32365962044197" y1="184.97166512339345" y2="189.96999836594603" /><path d="M 102.22038585953345 185.97133177190398 a86.0,86.0 0 0,1 -42.740103519485714,-10.115201625700543" fill="none" id="id67" stroke="none" /><text fill="#e1ed5e" style="font-size:6.75px; font-family:Arial;" text-anchor="middle"><textPath startOffset="22.20632615414155" xlink:href="#id67">July</textPath></text><line stroke="#e1ed5e" stroke-width="0.3" x1="58.666819895761336" x2="56.23545636021788" y1="174.27360380694188" y2="178.64263932499728" /><path d="M 58.180547188652646 175.14741091055294 a86.0,86.0 0 0,1 -31.652253787137756,-30.449443065178592" fill="none" id="id68" stroke="none" /><text fill="#e1ed5e" style="font-size:6.75px; font-family:Arial;" text-anchor="middle"><textPath startOffset="22.20632615414155" xlink:href="#id68">August</textPath></text><line stroke="#e1ed5e" stroke-width="0.3" x1="26.63291911575756" x2="22.317208475507996" y1="142.92168965132927" y2="145.44649492493687" /><path d="M 25.769776987707644 143.4266507060508 a86.0,86.0 0 0,1 -11.730757126820373,-40.83630448921669" fill="none" id="id69" stroke="none" /><text fill="#e1ed5e" style="font-size:6.75px; font-family:Arial;" text-anchor="middle"><textPath startOffset="21.46611528233685" xlink:href="#id69">September</textPath></text><line stroke="#e1ed5e" stroke-width="0.3" x1="15.007084014347285" x2="10.007500721073583" y1="101.09737516637583" y2="101.16192664675087" /><path d="M 14.007167355692545 101.11028546245083 a86.0,86.0 0 0,1 10.666146001902534,-42.60595125391555" fill="none" id="id70" stroke="none" /><text fill="#e1ed5e" style="font-size:6.75px; font-family:Arial;" text-anchor="middle"><textPath startOffset="22.20632615414155" xlink:href="#id70">October</textPath></text><line stroke="#e1ed5e" stroke-width="0.3" x1="26.266209847984243" x2="21.928928074336255" y1="57.711370442889674" y2="55.22380399835377" /><path d="M 25.398753493254645 57.213857153982495 a86.0,86.0 0 0,1 29.58750427330803,-30.492523968695096" fill="none" id="id71" stroke="none" /><text fill="#e1ed5e" style="font-size:6.75px; font-family:Arial;" text-anchor="middle"><textPath startOffset="21.46611528233685" xlink:href="#id71">November</textPath></text><line stroke="#e1ed5e" stroke-width="0.3" x1="56.762969772571076" x2="54.21961505331055" y1="26.818313649435495" y2="22.513508569990535" /><path d="M 56.25429882871897 25.957352633546506 a86.0,86.0 0 0,1 42.265352541879196,-11.944610805530505" fill="none" id="id72" stroke="none" /><text fill="#e1ed5e" style="font-size:6.75px; font-family:Arial;" text-anchor="middle"><textPath startOffset="22.20632615414155" xlink:href="#id72">December</textPath></text></svg>