<svg xmlns="http://www.w3.org/2000/svg" viewBox="0 0 500 500"><path d="M468,243l8,28l-9,4l-1,4l-29,8l-38,8l-121,43l-31,17l-7,1l-18,9l-23,16l-30,14l-35,21l-35,26l-67,44l-26,14l-6,-6l0,-2l16,-15l3,-9l6,-8l3,0l11,6l3,0l57,-45l23,-13l37,-29l54,-30l-2,-8l-12,-26l-25,2l-37,-9l-57,-2l-28,-5l-27,-1l-2,-2l0,-7l2,-12l13,-37l24,-27l6,-9l6,-22l3,-29l16,-53l7,-1l16,6l53,35l31,12l-30,-13l-13,-11l-1,-3l10,-12l31,-31l18,-24l-1,-3l-5,-6l0,-3l16,-34l2,-7l9,-7l20,4l17,-2l34,3l37,15l11,7l-3,6l2,5l16,5l36,7l23,-5l17,-1l1,1l1,6l3,3l29,-7l18,55l2,10l-110,30l26,-4l19,55" fill="none" stroke="currentColor" stroke-width="2"/></svg>