<svg xmlns="http://www.w3.org/2000/svg" viewBox="0 0 500 500"><path d="M94,357l-16,25l-35,-17l-13,-7l-9,-10l-8,-3l-13,-11l13,-10l29,-10l34,-21l-16,-12l-4,-7l3,-4l-8,-11l-34,-35l-9,-21l14,-6l78,-8l1,-18l9,-13l3,-15l-4,-6l-45,-18l-18,-5l-35,-18l40,-27l18,-9l15,-15l19,-11l112,-34l4,2l17,47l10,15l1,10l11,6l14,27l0,21l-3,9l4,9l13,15l26,21l5,11l14,15l11,94l20,31l85,75l2,6l23,24l19,11l6,11l3,21l-3,14l-13,5l-90,-10l-8,7l-105,-35l-9,-6l-82,-30l-6,-5l-13,-2l-29,-10l-4,-2l2,-4l-12,-5l-32,-10l-15,-8" fill="none" stroke="currentColor" stroke-width="8"/></svg>