<svg xmlns="http://www.w3.org/2000/svg" viewBox="0 0 500 500"><path d="M296,145l-16,7l-7,23l12,9l23,7l-8,-3l-4,7l12,14l93,54l0,10l-10,11l-4,12l-7,3l-20,41l-12,51l-18,-1l-28,-36l-13,0l-14,11l0,19l33,45l11,23l-3,42l-4,6l-12,-15l-25,3l-56,-34l-24,-9l-19,-15l1,-24l25,-68l-15,-4l-13,-14l1,-65l-5,-7l-84,-8l2,29l-14,36l13,-36l-2,-27l-8,-22l-26,-6l0,11l-7,4l-1,-7l8,-1l-6,-12l-28,8l-4,-7l-11,-2l-2,-13l2,-26l42,-40l-2,-14l-8,-11l0,-7l57,-2l48,-15l2,-7l-5,-8l-43,-43l7,-6l72,72l16,-16l44,-11l42,-40l47,-21l35,1l10,6l-1,49l8,30l22,-6l18,6l6,-7l11,12l38,-28l7,-10l8,0l17,16l-1,3l-27,21l-118,73l-8,7l-19,31l-53,-28l9,-25" fill="none" stroke="currentColor" stroke-width="8"/></svg>