<svg xmlns="http://www.w3.org/2000/svg" viewBox="0 0 500 500"><path d="M0,208l0,-35l2,-11l5,-10l1,-26l7,-6l11,0l1,-8l38,-8l50,6l65,-3l3,-5l3,-26l-2,-36l4,-30l19,3l15,-9l37,-4l51,0l-2,67l29,11l1,9l15,4l1,22l-2,24l6,26l3,26l-2,52l11,-3l-2,0l-1,21l1,-3l27,-2l2,9l5,2l4,13l-3,32l-19,23l-11,37l-8,42l1,18l5,26l17,24l8,18l11,-6l28,8l14,-7l23,5l20,-6l5,-13l3,-26l-8,-62l-14,-17l0,-29l-9,-25l-9,-10l-11,-2l-19,12l-24,-8l0,-37l-17,-1l1,-20l-64,7l-12,7l-15,19l-2,-2l-12,15l-7,-6l-3,6l-3,-1l-9,-27l-18,-12l-29,-3l34,3l15,16l7,24l5,-1l3,-13l-2,-13l8,-31l-6,-15l9,-20l7,-34l8,-59l1,-36l-92,24l-21,1l-6,5l-6,-3l-16,5l-63,3l-10,-7l-6,1" fill="none" stroke="currentColor" stroke-width="8"/></svg>