<svg xmlns="http://www.w3.org/2000/svg" viewBox="0 0 500 500"><path d="M39,215l-4,17l-17,16l-8,5l-10,-3l35,-41l42,-23l-16,-19l-42,-27l45,-53l18,-39l32,-4l31,1l7,-6l-3,-12l61,-15l120,-12l26,66l144,23l0,21l-31,33l-66,22l-1,6l-34,13l-12,1l11,14l-15,6l56,38l2,15l42,28l6,12l-17,6l-44,3l1,33l-46,-9l-11,-7l-9,4l-2,8l63,13l27,13l-34,0l-9,12l-12,4l-18,27l-64,37l-56,26l-44,10l-59,5l-12,15l-6,2l-9,-3l2,-7l-12,-4l9,-15l-2,-12l-73,-52l6,-11l11,-6l-4,-15l7,-19l-11,-14l3,-11l-15,-13l10,-33l-3,-10l-11,-5l14,-11l-4,-2" fill="none" stroke="currentColor" stroke-width="8"/></svg>