<svg xmlns="http://www.w3.org/2000/svg" viewBox="0 0 500 500"><path d="M0,31l29,41l28,21l64,24l18,14l32,9l26,14l42,14l9,-5l0,-25l-4,-51l-9,-15l0,-39l25,33l46,24l57,5l3,0l2,-13l9,5l2,11l14,7l5,-3l5,19l42,2l2,8l-1,14l9,4l0,5l3,0l0,11l16,30l6,3l7,-10l4,6l7,0l2,89l-6,60l-51,17l-59,108l-41,32l-40,-22l-13,-13l-50,-30l-21,-3l-15,-10l-6,-97l2,-13l15,-6l6,-8l32,-62l1,-24l40,-28l22,-7l0,-23l-5,-22l2,-10l34,-4l1,-20l15,-2l1,-5l0,-6l-9,-2l-47,-1l-46,-23l-12,-14l-25,-45" fill="none" stroke="currentColor" stroke-width="2"/></svg>