<svg xmlns="http://www.w3.org/2000/svg" viewBox="0 0 500 500"><path d="M189,436l-111,64l-78,-5l41,-34l163,-52l148,-25l47,-31l-395,-159l148,-76l74,-67l42,-1l-17,34l47,20l78,3l57,-12l67,-72l-89,-23l-96,15l-67,73l109,18l83,-26l45,-66l-69,-14l-79,5l-86,80l79,20l91,-12l76,-65l-71,-27l-101,13l-52,68l66,23l101,-9l57,-73l-69,-22l-103,13l-50,71l84,21l91,-16l47,-67l-69,-22l-108,15l-47,65l81,25l94,-15l49,-67l-84,-24l-93,16l-45,69l67,20l101,-11l54,-70l-76,-23l-99,14l-49,66l69,24l106,-13l49,-68l-57,-22l-118,13l-47,70l67,20l101,-11l54,-66l-52,-25l-115,8l-55,64l52,29l108,-7l47,-86l-123,-7l-59,37" fill="none" stroke="currentColor" stroke-width="2"/></svg>