<svg xmlns="http://www.w3.org/2000/svg" viewBox="0 0 500 500"><path d="M500,62l-63,42l-83,-21l-50,-37l15,14l-18,21l7,15l-66,-50l-35,33l-59,-48l-41,-1l22,-4l26,18l-89,7l-36,32l11,79l42,73l11,54l111,-27l52,7l23,104l-38,12l-35,-18l-53,26l-5,43l30,33l105,23l30,-65l14,24l-34,49l-82,-18l-11,-20l93,-43l-41,-280l-39,-35l7,-12l-16,-24l-98,-19l-61,41l6,14l32,-27l75,-3l80,71l15,56l-131,74l-27,0l-8,-23l-63,10l-13,-50l46,-8l3,-22l-12,-17l-49,-6l32,-63l7,29l37,-10l45,72l110,-7l-1,-43l-52,19l1,27l-47,31l-3,20l147,-31l9,18l-31,3l-17,-85l-55,-40l-75,-11l-52,28l-26,-23l19,-29l51,-26l80,24l-28,-62l71,64l18,-26l30,24" fill="none" stroke="currentColor" stroke-width="8"/></svg>