<svg xmlns="http://www.w3.org/2000/svg" viewBox="0 0 500 500"><path d="M24,121l-7,30l-17,38l0,13l81,58l6,-28l16,-24l111,-99l24,-30l83,-68l22,-11l7,6l14,45l29,62l-98,81l-7,15l24,43l11,33l23,35l-5,15l6,22l40,83l4,54l-5,6l-44,-29l-71,-62l-51,-35l26,-76l12,-8l50,-8l79,162l14,-10l28,-40l49,-23l22,-20l-40,-94l-15,-21l-25,44l-24,19l-43,50l-8,-1l-19,-43l-13,-16l-54,14l-12,10l-21,56l0,14l40,23l46,40l-3,-15l-1,11l-20,-14l-9,8l-17,-6l-11,29l2,-14l-13,-18l-4,-25l-61,-46" fill="none" stroke="currentColor" stroke-width="8"/></svg>