<svg xmlns="http://www.w3.org/2000/svg" viewBox="0 0 500 500"><path d="M500,271l-1,8l-15,7l-11,-4l-15,15l-10,0l-26,-12l-17,-13l-83,-89l-41,-27l-16,-17l-2,8l-41,18l-25,1l-3,-38l-10,-16l17,-4l12,-12l-30,-38l-28,-48l-27,-10l-9,9l-12,2l-52,26l7,13l-5,7l8,27l16,32l-24,17l-53,22l-4,6l43,83l48,60l0,15l-1,-15l-52,-65l-38,-76l6,-11l77,-32l5,29l-33,27l19,39l22,-7l8,-7l1,-9l38,-15l55,-4l10,50l8,82l30,2l-1,-34l9,-3l-13,82l15,42l2,20l35,8l9,39l18,17l6,22l18,-11l15,2l36,-12l57,-134" fill="none" stroke="currentColor" stroke-width="8"/></svg>