<svg xmlns="http://www.w3.org/2000/svg" viewBox="0 0 500 500"><path d="M119,481l-3,19l-6,-10l-25,-68l-11,-48l-4,-22l-4,3l-2,5l-2,6l-4,0l-6,10l-3,-14l-4,5l-8,6l-2,1l-3,-2l-4,-56l1,-17l-1,-17l-1,-5l-3,-3l-1,-6l-1,-1l-5,-59l-1,-5l-10,-49l-1,-1l-5,-22l1,-9l6,-11l10,-13l2,-3l1,1l8,-12l15,-19l27,-41l14,-19l7,-5l12,0l6,2l7,6l27,37l7,11l8,16l12,34l4,6l14,5l11,0l2,-7l10,0l27,-8l12,-13l5,-7l3,-1l7,-12l7,-3l1,1l5,-1l3,-2l0,-2l22,0l5,6l3,9l-2,-5l-1,-1l5,4l6,-1l10,-13l0,-4l3,-3l8,1l29,27l15,6l16,9l13,0l9,4l4,-2l3,2l8,1l4,0l1,-4l13,1l5,2l1,-2l6,1l3,-3l2,2l6,2l19,-4l3,17" fill="none" stroke="currentColor" stroke-width="8"/></svg>