<svg xmlns="http://www.w3.org/2000/svg" viewBox="0 0 500 500"><path d="M245,0l-12,8l-1,18l-26,29l46,15l5,9l-6,3l-55,-16l-18,10l-34,51l-3,27l-15,12l-6,38l-23,27l28,10l22,-9l1,-24l-47,-8l-10,17l-15,2l-67,84l-9,13l0,23l27,16l186,59l59,-4l48,32l47,12l65,30l68,16l-81,-24l-35,-20l-58,-17l-44,-26l-5,4l14,11l9,-6l12,-36l-3,-15l-55,-49l-42,-26l-1,-21l23,-13l34,0l-20,-41l8,-7l116,-18l41,-30l18,-31l-44,-17l-27,-3l-72,-23l-31,-14l-4,-8l-45,-13l-4,-5l27,-33" fill="none" stroke="currentColor" stroke-width="8"/></svg>