<svg xmlns="http://www.w3.org/2000/svg" viewBox="0 0 500 500"><path d="M500,500l-18,-23l-26,-18l-34,-48l-178,-209l-101,-187l-13,2l-15,-17l-17,1l-6,14l-36,13l-55,40l8,15l34,-5l27,30l30,-6l13,16l25,-40l-15,-42l-19,-24l-47,16l-52,33l-4,10l7,10l36,-17l16,37l19,9l13,-3l13,-27l22,-25l-14,-34l-16,27l-19,-11l-66,42l9,8l18,-8l13,4l16,-12l20,3l38,-18l-4,-20l-18,-24l-23,7l1,15l-19,10l-14,22l5,16l15,-13l26,-1l6,19l26,-33l0,-40l-12,-14l-14,0l-9,15l-41,18l-6,18l11,42l39,-1l16,17l28,-30l-15,-40l-20,-27l-26,5l-54,31l-21,17l0,15l19,7l23,-8l19,26l30,1l11,-27l22,-26l-20,-39l-30,4l-77,50l5,13l15,7l27,-7l40,48l16,-14l0,-34l23,-23l9,-29l-16,-27l-17,-2l-10,17l-16,0l-74,48l5,18l34,-4l23,27l26,2l35,-50l2,-18l15,-25l104,184l173,204" fill="none" stroke="currentColor" stroke-width="8"/></svg>