<svg xmlns="http://www.w3.org/2000/svg" viewBox="0 0 500 500"><path d="M100,487l-58,13l184,-90l150,-28l36,-29l-412,-151l165,-75l96,-73l-30,32l35,16l113,3l50,-12l68,-74l-68,-17l-110,9l-83,76l73,20l118,-11l73,-75l-93,-20l-101,15l-68,72l93,21l98,-15l63,-78l-63,-14l-88,3l-100,86l75,17l116,-14l62,-74l-80,-19l-100,14l-73,71l68,21l115,-11l73,-72l-80,-22l-98,13l-76,70l73,21l108,-9l73,-69l-60,-25l-128,13l-68,68l80,23l111,-12l65,-71l-75,-22l-113,14l-71,70l86,22l103,-12l70,-75l-83,-19l-103,12l-68,70l96,24l95,-14l66,-70l-96,-22l-103,15l-63,67l81,24l113,-13l65,-66l-65,-26l-131,15l-63,65l81,25l110,-13l68,-72l-78,-21l-115,16l-63,67l93,25l90,-13l73,-70l-73,-25l-70,2l-50,16l-58,63l75,25l103,-11l70,-73l-82,-23l-98,15l-68,68l78,24l95,-9l78,-73l-63,-23l-120,11l-76,66l81,27l98,-8l80,-71l-73,-26l-105,9l-81,75l86,21l108,-15l60,-73l-65,-17l-91,3l-98,81l68,20l108,-6l80,-74l-70,-24l-110,14l-73,68l85,26l108,-13l60,-76l-85,-21l-98,16l-68,69l78,22l106,-10l67,-76l-70,-20l-108,15l-70,70l85,21l98,-12l65,-72l-92,-23l-96,18l-60,67l80,22l108,-7l60,-76l-90,-24l-93,13l-68,73l103,22l93,-15l55,-73l-67,-19l-96,7l-65,35l-68,6l10,38l-108,78l23,22l-106,15l98,50l269,90l0,25l-199,40l-175,79" fill="none" stroke="currentColor" stroke-width="8"/></svg>