<svg xmlns="http://www.w3.org/2000/svg" viewBox="0 0 500 500"><path d="M419,470l-40,28l-19,2l24,-33l39,-31l68,-23l9,-17l-72,-40l-141,-111l-214,-125l-73,-77l15,-15l52,-6l236,-19l116,-3l21,5l40,65l-103,169l-32,29l-35,-8l-75,-41l-91,-69l-65,-33l-76,-79l11,-10l104,-11l277,-17l45,4l42,67l-107,169l-31,28l-21,-3l-152,-87l-34,-32l-81,-46l-54,-64l62,-15l327,-18l26,2l38,22l18,23l2,30l-98,161l-29,28l-52,-19l-144,-97l-75,-37l-40,-31l-34,-50l17,-10l249,-20l137,-3l30,11l50,55l-31,28l-76,144l-21,22l-21,6l-211,-133l-59,-25l-61,-76l17,-8l237,-20l179,0l50,63l-34,24l-3,27l-83,135l-28,12l-63,-44l-101,-50l-42,-34l-54,-25l-73,-76l19,-12l243,-19l139,-4l27,10l44,55l-19,25l0,26l-107,147" fill="none" stroke="currentColor" stroke-width="8"/></svg>