<svg xmlns="http://www.w3.org/2000/svg" viewBox="0 0 500 500"><path d="M130,0l-20,45l35,16l-6,-1l-6,7l-31,-12l-23,50l-2,-7l-4,6l-68,146l-5,13l0,20l18,12l37,11l61,29l28,-4l27,27l24,9l31,23l44,16l28,0l202,94l-27,-9l-9,1l-75,-34l-28,-14l2,-6l-3,-3l-65,-29l-25,0l-45,-17l-19,-15l-37,-12l-2,-8l-24,-22l-21,3l9,-42l-2,-28l-6,-11l-22,-20l-15,7l18,-6l25,32l3,26l-12,35l-98,-38l-21,-15l1,-17l47,-91l34,-80l13,-18l4,-14l49,19l-15,-16l-21,-10l-3,-5l5,-11" fill="none" stroke="currentColor" stroke-width="8"/></svg>