<svg xmlns="http://www.w3.org/2000/svg" viewBox="0 0 500 500"><path d="M154,0l-28,36l41,17l-11,8l-33,-12l-12,14l-26,41l-12,33l-27,45l-12,34l-10,13l0,9l-21,35l1,22l30,17l35,9l69,32l34,0l29,28l39,17l28,20l48,17l34,0l150,65l-18,-13l-37,-11l-95,-41l-34,0l-51,-19l-37,-26l-24,-7l-34,-30l-22,3l-81,-35l-44,-13l-20,-15l-3,5l29,17l37,10l66,30l-1,-5l-62,-28l-45,-13l-18,-11l-2,3l24,15l34,8l70,31l-4,-7l-119,-48l-6,-1l2,4l23,12l35,9l70,31l1,-4l-72,-31l-35,-9l-23,-15l0,6l20,11l43,13l70,29l-69,-33l-49,-15l-15,-11l-2,-18l31,-66l22,-32l66,-129l30,9l8,-4l-1,-5l-28,-13l16,-27" fill="none" stroke="currentColor" stroke-width="8"/></svg>