<svg xmlns="http://www.w3.org/2000/svg" viewBox="0 0 500 500"><path d="M133,0l-25,44l29,15l0,4l-6,4l-28,-12l-7,6l-94,196l-2,26l17,12l48,15l51,26l27,-4l25,23l1,8l38,13l18,15l43,16l28,0l16,9l2,10l14,7l136,59l10,-2l26,9l-71,-32l-6,-8l-122,-54l-33,-1l-43,-17l-19,-16l-33,-14l-30,-28l-19,4l-69,-31l-36,-9l-19,-12l0,3l15,12l42,12l58,28l28,-3l27,25l33,14l23,19l45,17l26,-1l203,93l-204,-93l-27,0l-42,-19l-21,-17l-33,-16l-29,-26l-17,3l-12,-3l-66,-30l-25,-6l-23,-14l-1,-21l77,-162l22,-37l8,3l7,-8" fill="none" stroke="currentColor" stroke-width="8"/></svg>