<svg xmlns="http://www.w3.org/2000/svg" viewBox="0 0 500 500"><path d="M283,484l-15,16l-12,0l26,-21l39,-12l3,-6l-39,-18l-35,-22l29,-21l41,-56l77,0l11,-3l2,-6l-14,-26l-98,-88l-30,-37l-29,-21l1,-9l-25,-24l-42,-38l-24,-12l-20,-28l24,-8l132,-12l15,19l17,2l2,17l30,11l22,2l30,-10l43,-7l8,-15l27,-3l5,-7l11,-2l5,-16l-15,-1l-6,-5l-17,-1l-3,-14l-11,-2l-13,3l-14,10l-19,2l-6,6l-77,4l-24,5l5,21l19,3l-4,10l6,7l29,10l22,2l36,-11l36,-6l1,-10l-88,-6l-23,1l-13,4l-6,7l4,8l33,11l21,1l33,-10l39,-5l3,-13l18,-5l12,0l8,-11l-23,-19l-9,-19l-16,2l-15,11l-21,3l-6,6l-77,3l-54,11l-86,7l-44,9l105,94l-103,34l-18,10l-68,20l-17,12l-34,5l13,-3l9,4l-14,40l6,10l-6,6l34,32l52,31" fill="none" stroke="currentColor" stroke-width="8"/></svg>