<svg xmlns="http://www.w3.org/2000/svg" viewBox="0 0 500 500"><path d="M120,25l-14,31l70,32l23,-28l124,-60l20,25l14,7l48,65l25,25l53,68l7,26l0,7l-5,0l-176,-76l-6,4l5,6l185,83l7,92l-10,70l-51,6l-29,-6l-27,2l-9,6l7,21l34,11l3,17l12,15l45,26l-19,-1l-16,-7l-8,-12l-25,-13l-2,-5l-120,-56l-29,0l-40,-15l-19,-16l-31,-15l-29,-27l-30,0l-51,-24l-40,-13l-15,-10l0,4l104,47l12,-5l8,-40l-6,-13l-29,0l-9,33l-4,3l-56,-19l-21,-17l1,-15l45,-84l49,-109l11,-2l4,-8" fill="none" stroke="currentColor" stroke-width="2"/></svg>