<svg xmlns="http://www.w3.org/2000/svg" viewBox="0 0 500 500"><path d="M124,0l-3,23l-12,19l30,15l-8,6l-28,-11l-10,11l-28,49l-5,23l-59,123l-1,24l21,13l32,10l63,29l26,-4l24,22l3,8l38,14l15,13l46,18l28,0l15,9l6,13l147,64l8,-3l26,12l-2,-6l-63,-26l-9,-10l-127,-56l-31,-1l1,4l29,0l204,93l-18,-5l-54,-29l7,-4l10,-36l-6,-29l-40,3l-4,5l3,21l22,14l14,2l-1,15l-6,6l-128,-58l-31,-1l-40,-15l-36,-26l-18,-6l-29,-27l-22,2l8,-43l-5,-14l2,-9l-21,-24l20,21l4,23l-10,39l-4,4l-60,-27l-35,-10l-21,-14l-1,-19l46,-90l24,-58l26,-43" fill="none" stroke="currentColor" stroke-width="8"/></svg>