<svg xmlns="http://www.w3.org/2000/svg" viewBox="0 0 500 500"><path d="M500,500l-23,-25l-29,-43l-43,-80l-11,-34l-33,3l-21,7l-23,17l-3,7l-2,-3l-15,6l-17,-25l1,4l-4,4l-8,-11l-49,-77l-12,-25l-34,11l-29,4l-16,-2l-17,2l-5,-2l-6,-12l-5,0l-24,-99l-44,-80l-9,-37l-8,-10l-9,5l-2,8l1,7l16,19l32,56l9,7l16,33l21,91l5,1l6,20l8,35l2,34l9,41l4,10l4,2l3,16l11,3l45,-11l17,-8l11,26l10,-5l10,0l17,-17l31,-5l9,6l17,23l53,-33l12,32l6,6l43,-9l17,34l29,40l-2,6l7,10" fill="none" stroke="currentColor" stroke-width="2"/></svg>