<svg xmlns="http://www.w3.org/2000/svg" viewBox="0 0 500 500"><path d="M36,0l-6,4l-3,15l1,4l6,6l0,4l-2,2l-7,-8l-2,8l-21,119l-2,26l3,9l11,10l14,20l8,-2l5,14l1,6l9,9l7,12l8,9l7,0l32,40l2,-10l0,-24l2,-12l18,-1l3,-51l2,3l4,19l3,98l1,5l25,-10l10,0l25,13l8,0l41,17l16,4l25,-5l50,-1l14,-6l52,3l18,15l12,16l22,43l17,37l4,4l18,35l3,1l-25,-39l-6,-16l-7,-10l-7,-17l-6,-8l-17,-37l-30,-26l-49,-1l-12,7l-49,1l-9,3l-19,1l-52,-20l-12,-1l-27,-14l-33,11l-2,-6l-2,-94l-6,-25l-3,52l-17,2l-3,22l0,14l-1,6l-32,-41l-7,0l-11,-11l-6,-12l-7,-10l-7,-18l-5,2l-17,-20l-3,-2l17,23l1,-1l-2,-3l-13,-17l-10,-9l-4,-7l0,-13l6,-35l13,-67l5,-35l1,-3l4,4" fill="none" stroke="currentColor" stroke-width="8"/></svg>