<svg xmlns="http://www.w3.org/2000/svg" viewBox="0 0 500 500"><path d="M142,14l-16,30l9,8l-10,12l-10,-2l-19,27l-80,153l-16,37l1,22l24,15l43,12l66,29l34,-2l25,22l2,11l45,13l20,15l49,17l31,1l160,66l-108,-48l1,5l90,37l6,1l-2,-4l-142,-59l-34,-1l-50,-18l-34,-22l-28,-10l-32,-30l-25,3l-78,-33l-17,-5l0,5l87,37l33,-4l30,28l29,10l33,23l51,19l32,0l145,60l-143,-62l-34,-1l-52,-18l-22,-18l-38,-16l-32,-28l-31,1l-69,-31l-40,-11l-22,-12l-1,6l16,10l48,14l63,28l3,-3l-5,-4l-59,-26l-41,-11l-24,-14l-2,4l20,14l27,4l-45,-23l-1,-20l31,-54l3,-14l16,-19l10,-32l55,-101l39,14l-4,-1l1,-10l-27,-14l12,-23l0,-11l9,-12l3,3l-14,18l11,-21" fill="none" stroke="currentColor" stroke-width="8"/></svg>