<svg xmlns="http://www.w3.org/2000/svg" viewBox="0 0 500 500"><path d="M486,261l-1,35l-9,3l-26,0l3,18l-15,21l-22,17l-40,16l-11,20l-8,54l-15,1l-18,7l-12,-5l0,12l-5,7l-8,-13l-23,-2l-15,6l-18,0l-2,4l-9,-5l-10,7l-111,29l-10,7l-3,-5l3,-16l2,-79l1,-227l-27,-45l21,-37l0,-8l-19,-32l-3,-29l-48,0l-12,8l-16,-18l1,-6l60,-4l3,3l9,-5l5,6l-3,15l2,13l-2,-13l9,-2l2,-8l5,-3l24,14l11,2l14,11l24,6l30,13l19,3l67,-10l34,-11l7,4l-1,46l3,1l6,-4l3,-42l35,6l21,-3l17,-6l6,11l-2,-6l4,-3l13,3l38,-19l36,61" fill="none" stroke="currentColor" stroke-width="2"/></svg>