<svg xmlns="http://www.w3.org/2000/svg" viewBox="0 0 500 500"><path d="M155,0l-8,7l-3,18l-16,22l32,16l3,6l-7,4l-35,-12l-9,10l-4,13l-31,41l-18,50l-56,102l-3,27l25,16l43,11l69,31l32,-4l29,25l2,9l44,13l21,16l52,18l30,-1l153,62l-150,-64l-33,0l-47,-16l-43,-28l-23,-7l-34,-30l-22,3l-13,-3l-67,-30l-34,-8l-29,-15l-4,4l22,12l46,14l67,30l33,-4l28,24l2,10l44,13l22,16l51,17l31,0l152,62l-149,-64l-34,-1l-49,-16l-26,-19l-37,-16l-34,-29l-22,3l-15,-4l-64,-28l-46,-13l-20,-14l0,-19l29,-46l88,-174l30,10l9,-3l-2,-6l-24,-9l-4,-5l20,-39" fill="none" stroke="currentColor" stroke-width="8"/></svg>