<svg xmlns="http://www.w3.org/2000/svg" viewBox="0 0 500 500"><path d="M147,0l-4,19l-14,24l43,19l-8,-1l-10,6l-27,-11l-14,0l-107,210l-6,17l0,17l22,15l51,16l61,27l34,-3l33,29l30,11l32,23l44,16l39,2l150,64l0,-6l-147,-61l-32,1l-51,-19l-40,-27l-40,-19l-16,-18l-23,4l-83,-34l-35,-7l-26,-15l0,5l20,12l44,13l68,31l34,-5l28,24l3,10l45,14l20,16l52,18l30,-1l153,63l-149,-65l-36,-1l-49,-17l-24,-18l-38,-18l-34,-28l-23,3l-14,-4l-67,-30l-39,-10l-21,-13l-4,4l28,16l34,9l73,32l34,-4l30,27l36,15l29,21l52,18l32,0l150,61l-150,-65l-35,0l-48,-16l-25,-19l-35,-15l-37,-30l-22,3l-14,-4l-129,-54l-2,-19l79,-160l37,-61l11,1" fill="none" stroke="currentColor" stroke-width="2"/></svg>