<svg xmlns="http://www.w3.org/2000/svg" viewBox="0 0 500 500"><path d="M173,0l-28,10l-12,24l31,16l-3,8l-38,-11l-32,64l-25,4l1,14l-17,43l-31,33l5,14l-18,26l-6,17l1,34l19,15l47,13l70,33l34,-4l27,25l3,10l45,14l22,17l48,17l32,0l151,64l-149,-66l-34,0l-49,-19l-22,-17l-39,-17l-32,-30l-24,3l-13,-3l-71,-33l-34,-8l-23,-14l-1,4l18,13l40,11l75,34l31,-4l14,16l13,7l4,13l41,11l25,18l44,16l35,1l149,64l-146,-65l-35,-1l-51,-19l-32,-24l-28,-10l-32,-30l-28,0l-2,6l30,-4l27,25l1,10l37,14l8,-1l29,20l43,15l29,0l153,62l-148,-64l-36,-1l-47,-17l-42,-29l-21,-7l-32,-29l-23,3l-15,-4l-66,-30l-34,-10l-27,-15l-1,-22l77,-151" fill="none" stroke="currentColor" stroke-width="2"/></svg>