<svg xmlns="http://www.w3.org/2000/svg" viewBox="0 0 500 500"><path d="M149,0l-21,42l29,14l2,5l-4,4l-34,-13l-30,41l-15,26l-2,18l-14,31l-60,113l0,20l23,15l39,10l72,32l35,-3l30,28l31,11l36,26l48,16l34,1l143,61l6,1l-2,-3l-146,-62l-35,0l-48,-17l-25,-19l-39,-16l-33,-29l-35,-1l-130,-53l-1,5l21,12l45,13l66,31l34,-5l31,28l30,11l31,24l53,19l35,1l151,62l-151,-65l-37,-1l-48,-17l-24,-19l-38,-16l-35,-30l-21,4l-78,-33l-42,-11l-21,-13l-5,2l5,4l131,54l33,-4l31,28l30,11l30,23l49,16l-47,-17l-36,-26l-25,-8l-32,-29l-24,2l-44,-20l-74,-24l-23,-14l-2,-21l43,-83" fill="none" stroke="currentColor" stroke-width="2"/></svg>