<svg xmlns="http://www.w3.org/2000/svg" viewBox="0 0 500 500"><path d="M10,463l7,-6l1,-4l-17,-24l2,-3l0,-3l4,-10l10,-35l0,-5l-4,-9l0,-7l0,-13l6,-11l-1,-10l-3,-16l-5,-9l-10,-36l1,-4l14,-11l1,-5l27,-11l20,-11l0,-5l-3,-11l-1,-30l-4,-9l1,-3l5,-5l4,-11l0,-10l6,-21l4,-10l0,-8l3,-2l-1,-4l4,-5l12,-36l12,-49l6,-1l31,2l16,6l40,1l9,4l32,7l3,2l2,7l5,4l-4,19l1,4l5,2l19,2l44,-2l65,-14l34,-11l2,-2l-1,-6l1,-13l-1,-2l-24,-8l-14,1l7,1l4,-1l10,2l36,14l7,-3l2,-4l12,7l5,-2l20,1l9,-1l12,-5l0,-5l-2,2l1,4l-5,3l-35,3l-7,-1l-7,-4l-4,7l3,-8l-2,-1l-5,7l-9,-1l2,6l2,2l-5,3l-42,15l-6,0l3,-7l7,40l-21,18l-1,5l-13,11l1,19l2,4l-8,30l0,7l-1,9l1,18l-11,0l-1,5l-3,1l-12,0l-43,7l-6,4l-18,18l-21,18l-27,10l-10,0l-6,18l2,5l0,10l-4,14l-2,38l-4,15l3,6l0,8l-2,5l-3,5l-1,20l-24,3l-2,1l0,3l-7,5l-9,0l-5,-2l-1,4l2,7l-1,3l-16,7l-63,39l-10,4l-11,8l-7,13l-23,-11l-1,-2l3,-8" fill="none" stroke="currentColor" stroke-width="2"/></svg>