<svg xmlns="http://www.w3.org/2000/svg" viewBox="0 0 500 500"><path d="M119,0l-12,26l27,17l2,11l357,178l7,89l-8,92l-13,5l-24,-5l-31,3l-9,54l4,18l13,6l0,6l-21,-18l-124,-64l-29,-1l-40,-17l-32,-27l-17,-7l-29,-30l-27,1l-60,-33l-31,-10l-16,-14l-2,-13l-3,15l11,12l48,19l53,30l28,-4l26,28l21,9l35,29l35,15l26,0l119,61l13,-5l5,-31l-5,-32l-37,-1l-4,3l6,28l36,16l-5,20l-4,2l-122,-64l-27,0l-40,-17l-36,-29l-16,-6l-26,-29l-19,3l-12,-4l-54,-30l-30,-9l-18,-14l-5,-12l-3,8l3,8l17,13l37,12l56,28l-53,-32l-39,-15l-17,-16l1,-16l68,-159" fill="none" stroke="currentColor" stroke-width="8"/></svg>