<svg xmlns="http://www.w3.org/2000/svg" viewBox="0 0 500 500"><path d="M122,1l-4,17l-13,26l37,19l-8,-1l1,10l101,46l60,33l79,36l35,24l82,37l8,116l-8,64l-22,4l-44,0l-9,24l-4,39l-4,5l-122,-65l-29,0l-40,-18l-21,-19l-31,-15l-25,-29l-20,3l-68,-35l-29,-10l-19,-13l-3,-13l-2,16l17,15l37,12l58,31l27,-5l26,29l23,10l31,26l40,17l26,0l122,62l-121,-65l-28,0l-40,-17l-33,-27l-18,-7l-27,-29l-18,2l-12,-3l-51,-28l-39,-14l-16,-13l0,-22l43,-96l35,-94l17,-30l19,9l12,-1l-1,-7l-24,-11l22,-46l14,5" fill="none" stroke="currentColor" stroke-width="2"/></svg>