<svg xmlns="http://www.w3.org/2000/svg" viewBox="0 0 500 500"><path d="M483,481l-11,19l-17,-8l-38,-30l4,-13l28,-10l23,-20l-21,-29l-22,-23l-18,-30l-29,-64l-8,-9l-43,8l-16,8l-7,6l-31,19l-7,-10l-7,-1l-13,5l-18,4l-54,22l-28,7l-18,1l-4,-16l-7,-4l-13,-55l3,-8l-11,-48l-4,-7l-5,-1l-21,-79l-45,-73l-4,-16l-7,-10l1,-6l-4,-9l-5,-1l-6,5l0,11l34,43l12,23l8,4l11,19l6,12l21,78l4,1l3,5l11,6l3,4l5,24l-5,16l0,7l8,26l10,47l5,3l43,-9l57,-23l13,-1l17,-8l12,11l17,-11l3,2l11,-2l29,-16l41,-6l5,6l24,56l6,6l15,27l30,35l6,14l14,10l17,20l4,8l-2,6l-11,9l-10,15" fill="none" stroke="currentColor" stroke-width="8"/></svg>