<svg xmlns="http://www.w3.org/2000/svg" viewBox="0 0 500 500"><path d="M125,3l-11,7l-9,19l6,9l24,13l1,10l105,50l108,60l9,9l28,9l107,53l7,94l-9,88l-22,7l-47,-3l-7,61l-5,9l-122,-66l-33,-1l6,5l23,0l122,64l-2,-6l-117,-62l-30,0l-42,-19l-26,-24l-22,-9l-26,-30l-21,3l-67,-37l-30,-10l-18,-15l-2,-10l-3,8l2,9l19,14l35,12l57,32l27,-4l26,29l21,10l32,26l39,18l25,0l125,64l-3,-6l-119,-61l-28,0l-40,-18l-22,-20l-29,-15l-27,-29l-26,0l-61,-33l-28,-10l-20,-16l0,-18l19,-53l24,-49l35,-96l17,-31l5,7l5,-2l4,-11l-7,-8l15,-30" fill="none" stroke="currentColor" stroke-width="2"/></svg>