<svg xmlns="http://www.w3.org/2000/svg" viewBox="0 0 500 500"><path d="M10,178l-3,-1l-2,7l-5,25l9,29l41,57l42,75l4,0l32,51l16,19l43,15l21,11l5,8l10,-3l19,4l45,25l2,-4l3,-14l6,2l3,-7l1,-14l25,-127l13,-83l10,-84l10,-99l5,-21l11,-27l17,-19l35,-3l16,4l-1,20l-4,8l-2,30l-9,19l-7,26l-8,68l3,43l17,47l6,-7l16,9l16,-8l11,6l11,-3l3,-6l3,-31l0,-25l-5,-50l-8,-18l0,-30l-5,-26l-7,-14l-5,-4l-14,16l-11,-9l-6,0l-11,15l-6,19l-8,68l0,23l4,32l10,23l5,21l9,-8l10,8l9,0l8,-7l14,6l11,-3l3,-7l4,-42l-6,-62l-8,-19l0,-30l-5,-27l-10,-16l-14,13l-19,-7l-11,15l-6,21l-6,53l-2,34l4,34l15,44l9,-8l10,9l17,-8l12,6l14,-3l3,-12l2,-41l-5,-60l-7,-16l-1,-33l-6,-28l-4,-8l-7,-5l-14,14l-18,-7l-13,25l-4,15l-3,29l-4,52l4,36l10,23l5,19l10,-6l17,9l9,-9l14,5l14,-6l3,-30l0,-24l-5,-55l-7,-18l-1,-32l-6,-26l-7,-13l-8,1l-11,12l-15,-10l0,-40l-2,-11l-3,-1l-2,-9l-44,6l-8,8l-18,33l-6,8l-1,-6l-3,4l0,28l-9,101l-8,58l-55,10l-60,-12l-22,-13l-13,-1l-8,7l-5,-4l-9,-17l-4,-23l-19,-73l-6,0l-8,-44l-2,-26l-1,-2l-27,42l-45,86l-17,24l-4,9l-5,30l-3,6" fill="none" stroke="currentColor" stroke-width="2"/></svg>