<svg xmlns="http://www.w3.org/2000/svg" viewBox="0 0 500 500"><path d="M69,476l-7,8l0,8l-4,0l11,-26l11,-7l9,-17l-13,-23l-22,-25l14,-27l23,-68l22,-2l14,4l9,-9l-10,-37l-15,-29l-2,-15l-6,-7l-37,-86l3,2l51,0l15,3l23,-7l23,3l48,-19l-36,-80l-3,-12l4,-3l17,-5l17,1l33,10l107,14l132,39l-10,39l2,31l-8,12l-8,63l1,26l-14,75l-5,55l-5,4l-94,19l-7,6l-84,39l1,-5l-15,-13l-6,-1l-17,19l-31,15l-12,-7l-40,1l-8,-18l2,-34l-3,-9l-10,-5l-44,2l-15,11l-17,5l30,35l6,17l-23,18l-5,11l-21,22l-7,1l-10,-7l-23,-52l10,-3l14,1l13,-8l5,20l-32,9l16,36l13,6l3,-10l7,-3" fill="none" stroke="currentColor" stroke-width="8"/></svg>