<svg xmlns="http://www.w3.org/2000/svg" viewBox="0 0 500 500"><path d="M500,478l-11,20l-6,0l-23,-10l-101,-72l-15,-16l-13,-17l-32,-35l-11,-19l-5,-2l-28,-31l-43,-51l-4,-8l14,-5l49,-2l13,-4l23,-11l18,-6l-17,-25l-7,-18l-12,-12l-14,-28l-12,1l-44,12l-43,21l-20,12l-32,-26l-17,-21l-3,-13l1,-16l-6,-21l-3,-3l31,-3l22,-6l22,-1l29,-12l11,-7l10,-8l-3,-13l-3,-6l-16,-16l-36,15l-60,15l-31,10l-72,32l20,-10l50,-17l16,27l9,26l0,19l14,18l-1,5l7,2l8,11l11,9l102,124l107,123l111,84l4,-4l-2,-3l30,14l9,-11" fill="none" stroke="currentColor" stroke-width="8"/></svg>