<svg xmlns="http://www.w3.org/2000/svg" viewBox="0 0 500 500"><path d="M481,486l-2,6l-5,8l-17,-10l-34,-25l-40,-35l-38,-37l-13,-19l-3,-8l-4,-2l-12,-15l-23,-35l-6,-5l-4,0l-10,-15l-13,1l-70,29l-46,9l-8,-2l-6,-15l-6,-3l-11,-46l-1,-19l-8,-40l-6,-14l-4,-1l-17,-60l-3,-17l-16,-29l-9,-6l-22,-35l-24,-30l0,-11l7,-5l3,1l5,9l-2,7l7,9l4,15l46,73l21,81l4,0l5,7l13,8l5,26l-6,19l20,76l7,2l48,-9l78,-32l4,0l9,11l17,-9l11,1l31,-18l43,-6l29,63l5,5l15,28l25,27l12,22l16,11l14,18l4,9l-2,5l-6,3l-15,20" fill="none" stroke="currentColor" stroke-width="8"/></svg>