<svg xmlns="http://www.w3.org/2000/svg" viewBox="0 0 500 500"><path d="M20,312l2,-43l17,-115l12,-36l3,23l9,-11l3,-21l11,-23l4,41l6,-30l19,25l17,90l11,5l10,-37l13,-109l0,-38l8,-32l12,17l17,70l37,191l54,117l5,38l11,-1l1,-24l1,0l33,35l18,-4l4,42l9,-54l27,30l27,-54l3,47l6,15l40,-38l20,6l10,66l-15,-57l-13,-19l-42,43l-6,-16l-3,-48l-27,56l-24,-26l2,8l-4,-2l-3,40l-3,-2l0,-15l-12,19l-15,-40l-32,-30l-6,23l-8,-1l-4,-38l-55,-119l-47,-233l-19,-43l-7,28l0,47l-13,104l-11,39l-10,-11l-17,-84l-18,-17l-8,26l-7,-35l-7,10l-1,-22l-5,13l-5,46l-3,-24l-13,34l-19,126l-11,95l-9,54l15,-79l3,47l-1,93" fill="none" stroke="currentColor" stroke-width="2"/></svg>