<svg xmlns="http://www.w3.org/2000/svg" viewBox="0 0 500 500"><path d="M30,96l-14,7l-1,12l-13,8l-2,9l70,38l18,-31l38,-22l78,-58l88,-51l19,-8l10,3l17,38l39,54l12,23l23,24l14,28l65,93l7,18l-2,26l4,32l-4,9l4,3l-4,10l-87,-15l-39,-1l-4,47l1,61l-6,47l-23,-3l-9,-28l-8,-7l-38,5l-18,-8l5,-18l30,-12l-7,8l-18,6l-3,11l13,9l23,-4l-28,5l-1,-14l27,-11l4,-11l12,2l1,-9l-73,-13l-32,1l27,-1l-3,-15l4,-32l-19,-7l2,-8l-2,6l20,6l14,-64l-4,-9l-22,-8l-22,63l-38,43l-72,-76l33,-90l-113,-62l1,-10l-23,-15l2,-14" fill="none" stroke="currentColor" stroke-width="2"/></svg>