<svg xmlns="http://www.w3.org/2000/svg" viewBox="0 0 500 500"><path d="M31,0l-5,6l-3,12l6,10l1,7l50,67l1,4l2,0l29,38l1,51l5,29l2,62l2,36l31,-11l22,14l8,0l35,16l15,4l23,-4l42,-1l12,-7l46,2l25,26l34,73l2,9l5,6l14,30l8,12l12,9l33,-5l11,2l-10,-3l0,-65l-1,64l-33,5l-12,-9l-16,-30l-11,-25l-9,-16l-28,-63l-24,-25l-43,-2l-13,9l-38,3l-7,-2l-26,4l-16,-3l-25,-15l-13,-2l-18,-12l-9,-1l-25,10l-2,-2l0,-11l-2,-84l-5,-20l-3,50l-16,5l-2,35l-1,3l-28,-39l-6,0l-10,-11l-4,-10l-7,-11l-6,-17l-6,0l-14,-19l-7,-6l-4,-10l0,-13l4,-25l14,-89l3,-19l5,5" fill="none" stroke="currentColor" stroke-width="8"/></svg>