<svg xmlns="http://www.w3.org/2000/svg" viewBox="0 0 500 500"><path d="M269,500l-148,-10l5,-136l-69,-46l120,-32l258,-115l60,-153l-63,-1l-48,130l-37,34l-191,71l-79,-1l-69,40l33,23l29,0l101,-26l205,-81l66,-49l56,-141l-66,-1l-48,127l-39,38l-191,71l-79,-1l-69,39l54,25l306,-104l76,-51l33,-62l23,-78l-63,-7l-52,131l-36,36l-188,70l-81,0l-74,41l43,23l89,-17l278,-115l62,-85l20,-72l-10,-12l-49,0l-44,101l-389,178l45,23l95,-20l231,-91l60,-41l40,-71l25,-76l-50,-6l-31,16l-41,119l-35,34l-189,71l-80,0l-73,41l40,21l28,0l154,-47l179,-78l43,-35l51,-128l-11,-11l-50,-2l-52,126l-46,44l-196,73l-71,-2l-70,39l41,22l36,-3l299,-106l66,-49l53,-127l-7,-15l-53,-1l-57,133l-41,36l-189,70l-76,0l-72,37l37,23l40,-2l304,-108l61,-47l51,-137l-66,-1l-51,132l-51,39l-171,63l-79,1l-71,40l117,77l-11,132l125,9" fill="none" stroke="currentColor" stroke-width="8"/></svg>