<svg xmlns="http://www.w3.org/2000/svg" viewBox="0 0 500 500"><path d="M489,417l-5,11l-6,7l-22,-9l-32,-20l-71,-50l-54,-59l-11,-15l-7,2l-5,-4l-10,3l-19,11l-18,6l-11,-10l-44,13l-32,4l-8,-3l-4,-10l-6,-3l-12,-39l3,-3l0,-5l5,-14l-4,-17l-4,-5l-10,-3l-4,-6l-5,0l-24,-67l-12,-16l-9,-5l-19,-28l-5,-1l-18,-17l-5,-8l4,-6l8,-4l140,-47l-57,17l-6,4l-82,28l-5,2l-3,7l1,4l15,12l16,18l16,20l9,5l16,21l21,61l5,1l11,33l3,11l-3,4l13,41l2,3l5,2l4,11l10,2l42,-7l19,-5l7,16l8,0l12,17l14,-4l27,38l3,11l-22,9l10,17l14,-3l6,-3l0,-3l18,-5l0,4l-7,5l2,7l13,18l24,23l17,14l7,-2l5,7l54,4l3,4l-2,24l9,5l11,2l2,-2l36,-59l24,7l-6,-6l-14,-5l8,-14" fill="none" stroke="currentColor" stroke-width="8"/></svg>