<svg xmlns="http://www.w3.org/2000/svg" viewBox="0 0 500 500"><path d="M486,490l-6,10l-1,-2l3,-8l15,-13l2,-7l-71,-79l-23,-33l-5,-10l-9,-9l-11,-26l-44,6l-6,-3l-49,25l-4,0l-3,-3l-5,1l-42,22l-7,-10l-4,-2l-33,11l-43,8l-7,-2l-4,-13l-6,-2l-11,-40l7,-29l-5,-21l-3,-3l-10,-4l-4,-6l-5,-1l-22,-73l-14,-20l-10,-6l-13,-19l-31,-35l-2,-7l5,-7l37,-16l137,-49l36,-15l-58,24l-47,14l-25,12l-10,0l-33,17l-36,13l-5,3l-1,7l29,33l19,26l8,6l13,19l24,73l4,1l5,5l10,4l2,4l6,22l-6,19l8,22l7,32l5,10l7,2l11,-3l31,-4l34,-13l9,11l11,-6l5,2l12,-5l20,-11l6,3l10,-6l46,-17l43,-6l7,8l27,49l19,26l23,24l12,16l29,28l4,6l-1,4l-23,25l5,0l6,-8" fill="none" stroke="currentColor" stroke-width="2"/></svg>