<svg xmlns="http://www.w3.org/2000/svg" viewBox="0 0 500 500"><path d="M156,0l-24,45l43,20l-8,-4l-10,7l-36,-11l-55,121l-35,65l-27,40l-2,19l21,14l44,12l68,30l35,-3l33,31l29,9l35,25l51,17l29,0l152,61l-149,-63l-35,0l-51,-19l-33,-23l-27,-10l-33,-29l-23,4l-78,-34l-41,-12l-22,-13l-3,-11l-4,4l1,10l19,13l49,15l67,30l35,-3l31,28l29,9l35,26l48,17l32,1l154,60l-149,-63l-34,0l-52,-18l-25,-19l-35,-14l-35,-30l-27,6l29,-3l29,26l30,12l33,24l52,18l31,0l108,47l41,16l0,-4l-146,-61l-34,0l-48,-17l-40,-26l-24,-8l-32,-29l-24,3l-12,-4l-62,-28l-44,-13l-24,-16l0,-19l78,-156l38,-65l34,11l6,-3l0,-6l-31,-12l11,-25" fill="none" stroke="currentColor" stroke-width="2"/></svg>