<svg xmlns="http://www.w3.org/2000/svg" viewBox="0 0 500 500"><path d="M46,82l-8,6l-3,12l27,20l6,-16l72,-67l13,-6l9,-9l20,-9l7,-6l10,-2l0,4l2,2l6,-8l30,-3l106,1l13,7l8,16l1,-3l7,1l17,-16l6,-3l35,-3l17,1l1,3l-1,6l-3,4l-3,15l-10,10l-6,13l-6,31l0,9l4,13l8,10l6,11l9,-4l9,4l7,1l8,-4l13,3l11,-2l2,-3l4,-22l-5,-21l0,-7l-7,-9l-1,-15l-6,-14l-4,-4l-6,-2l-12,7l-16,-5l0,-17l-3,-12l-43,3l-10,5l-10,10l-8,16l-12,65l-17,58l-24,63l-1,7l-8,3l-5,8l0,4l-8,17l0,5l-15,37l-18,53l-7,35l-13,111l1,-18l12,-90l6,-31l12,-38l23,-60l-1,-5l7,-13l1,-7l-6,-4l-29,-6l-36,-3l-18,-8l-44,-7l1,51l-2,42l-1,4l-5,2l-6,-1l-12,3l-3,26l-3,7l-41,-34l-10,-1l-14,-8l-11,-15l-6,-4l-10,-17l-6,2l-5,-2l-16,-14l-15,-9l-4,-7l0,-10l10,-42l22,-79l16,12l-4,-3l-1,-6l-8,-9l6,-20" fill="none" stroke="currentColor" stroke-width="2"/></svg>