<svg xmlns="http://www.w3.org/2000/svg" viewBox="0 0 500 500"><path d="M152,0l-21,46l31,14l0,6l-5,4l-35,-13l-7,7l-16,40l-20,29l-46,94l-1,11l-29,41l0,24l21,14l38,10l74,33l35,-3l27,24l3,9l42,14l20,15l53,18l32,1l151,62l-149,-65l-35,0l-51,-18l-25,-19l-36,-14l-32,-29l-24,3l-76,-33l-45,-13l-21,-14l-2,-10l-3,6l3,11l17,11l49,14l68,30l32,-4l33,29l30,11l34,24l50,18l32,0l152,61l-149,-64l-35,0l-51,-19l-33,-22l-29,-10l-31,-29l-25,3l-76,-33l-47,-14l-19,-14l-2,-8l-2,14l24,15l39,9l74,34l34,-4l31,29l32,12l34,23l47,17l34,0l150,60l-147,-62l-35,-1l-48,-16l-44,-29l-23,-7l-31,-29l-23,3l-16,-4l-68,-31l-30,-7l-30,-17l-1,-21l117,-220l39,11l2,-8l-32,-15l14,-26" fill="none" stroke="currentColor" stroke-width="2"/></svg>