<svg xmlns="http://www.w3.org/2000/svg" viewBox="0 0 500 500"><path d="M150,5l-19,42l31,14l1,7l-6,3l-33,-12l-12,15l-84,153l-3,17l-22,39l1,21l18,13l50,14l64,30l35,-5l33,30l34,12l32,23l50,17l29,0l150,62l-13,-11l-133,-54l-35,0l-49,-17l-29,-21l-36,-13l-33,-30l-24,3l-71,-30l-47,-14l-20,-11l-5,-13l-4,5l2,8l24,16l47,14l64,28l35,-4l33,30l39,16l27,20l46,16l32,0l148,61l-1,-5l-145,-59l-35,-1l-47,-17l-32,-22l-32,-12l-33,-29l-21,4l-10,-3l0,7l31,-4l28,23l3,10l42,13l19,15l54,19l31,0l151,61l-5,-6l-142,-58l-35,0l-50,-18l-37,-25l-26,-9l-30,-28l-24,3l-15,-5l-66,-28l-37,-11l-27,-16l-1,-19l26,-55l91,-165l54,19l-12,-4l-3,-13l-30,-15l27,-46" fill="none" stroke="currentColor" stroke-width="8"/></svg>