<svg xmlns="http://www.w3.org/2000/svg" viewBox="0 0 500 500"><path d="M56,488l-15,11l-15,0l10,-13l62,-15l5,-7l-87,-44l31,-23l5,-15l39,-37l19,-5l75,3l12,-3l-9,-12l6,-3l140,-17l95,-5l24,-45l-22,-63l-20,-13l-56,11l-97,7l-93,1l-116,-3l-8,-15l-40,-30l-1,-7l15,-3l28,-12l189,-24l103,-17l4,-4l-23,-19l-3,-16l-36,-3l5,-12l-24,-15l-9,-21l-25,1l-13,11l-25,3l-7,5l-87,4l-24,4l-5,10l8,13l20,3l3,16l34,11l26,1l38,-11l44,-7l3,-11l19,-7l-15,-18l-32,-5l-40,-3l-99,7l-9,7l6,16l21,4l2,15l49,13l15,0l35,-11l41,-5l6,-13l16,-5l58,5l3,12l35,35l103,80l47,47l-30,9l-62,11l-167,11l-4,12l-7,2l-87,1l51,50l5,20l13,11l-5,11l40,10l-24,13l-25,4l-8,15l-108,3l-60,11l78,40l-3,5l-23,5l-51,24l3,5l17,-1l16,-12" fill="none" stroke="currentColor" stroke-width="2"/></svg>