<svg xmlns="http://www.w3.org/2000/svg" viewBox="0 0 500 500"><path d="M497,473l-3,3l-4,10l-5,5l-18,-8l-48,-34l-48,-38l-44,-53l-8,-16l-3,-1l-6,-5l-17,-20l-77,-94l-6,-11l-11,-10l-30,-37l-3,-7l0,-11l-5,-24l-7,-7l3,-8l-3,-15l-6,-5l-6,2l-14,-25l0,-13l-6,-3l-2,-6l-8,4l6,19l-1,8l-6,3l1,-4l-1,4l-5,1l-11,-1l1,-12l20,-1l2,-5l-2,-4l-72,-2l-2,-5l-2,0l-31,-1l4,-6l3,-12l26,-1l3,-15l21,-1l3,-11l1,4l8,0l3,7l28,-2l2,11l5,1l3,23l-68,-2l-33,2l-5,-3l-13,12l1,4l10,9l24,10l79,1l4,-4l1,-8l9,10l23,42l-1,3l-12,4l-43,6l-10,5l1,8l4,8l39,53l17,58l4,1l4,5l10,4l4,6l3,16l-5,16l17,55l6,2l30,-5l26,-7l7,17l12,-1l6,-3l3,3l27,43l30,27l19,-1l41,-9l71,55l37,14l2,-4l-12,-4l0,-5" fill="none" stroke="currentColor" stroke-width="2"/></svg>