<svg xmlns="http://www.w3.org/2000/svg" viewBox="0 0 500 500"><path d="M171,12l-31,13l-13,21l41,20l-8,-2l-7,7l-33,-13l-23,40l-18,15l-6,32l-68,131l-5,16l3,9l23,15l46,12l61,29l32,-4l30,26l32,13l31,23l49,18l32,0l155,63l-154,-67l-33,0l-49,-17l-21,-16l-37,-15l-32,-30l-31,1l-71,-32l-34,-9l-26,-15l-3,-13l-3,5l2,12l18,13l46,13l69,30l31,-4l31,29l40,17l21,17l49,18l31,0l156,67l6,-1l-3,-3l-154,-66l-34,0l-53,-18l-20,-17l-37,-15l-34,-30l-24,3l0,5l27,-4l29,27l28,11l39,26l44,15l30,0l131,56l15,5l3,-2l-5,-3l-140,-59l-33,0l-49,-18l-31,-21l-31,-13l-30,-27l-24,3l-12,-3l-61,-29l-43,-12l-22,-14l0,-22l111,-217l34,14l5,-4l1,-7l-31,-12l24,-47l8,1l-9,-2l-4,3" fill="none" stroke="currentColor" stroke-width="2"/></svg>