<svg xmlns="http://www.w3.org/2000/svg" viewBox="0 0 500 500"><path d="M155,0l-9,7l-16,42l35,16l-9,8l-36,-12l-115,220l-3,24l20,12l43,12l71,31l34,-3l33,30l28,9l33,23l50,18l32,0l153,61l-146,-62l-38,-1l-48,-17l-36,-24l-27,-9l-33,-29l-35,-1l-71,-31l-37,-10l-20,-12l-7,-13l-1,14l23,15l42,11l71,32l35,-4l30,28l29,10l41,27l44,15l31,0l153,60l-148,-61l-36,-1l-48,-17l-24,-18l-41,-16l-31,-29l-24,3l-81,-34l-39,-11l-21,-13l-4,-12l-2,15l22,14l51,16l66,28l32,-4l30,27l32,12l34,24l48,17l32,1l153,62l-152,-65l-31,0l-51,-18l-25,-18l-36,-15l-34,-29l-26,3l0,3l27,-3l15,16l49,24l32,23l50,17l29,-1l148,62l4,0l-3,-4l-144,-59l-38,-2l-47,-16l-29,-21l-35,-15l-32,-27l-28,2l-78,-33l-34,-9l-26,-16l-2,-20l117,-218l34,11l5,-2l1,-7l-29,-15l11,-21l-1,-7" fill="none" stroke="currentColor" stroke-width="8"/></svg>