<svg xmlns="http://www.w3.org/2000/svg" viewBox="0 0 500 500"><path d="M123,3l-12,21l26,13l0,5l-5,3l-26,-11l-5,6l-23,39l-49,117l-6,8l-1,10l-13,23l-9,32l2,7l20,13l35,11l61,30l28,-2l25,26l25,11l32,25l41,16l28,0l112,55l88,35l-40,-15l-161,-78l-28,1l-42,-17l-23,-20l-30,-13l-27,-29l-20,4l-63,-32l-39,-13l-19,-14l-2,-10l-2,14l19,15l41,13l57,30l28,-4l23,24l1,9l38,14l21,16l41,16l25,0l136,66l69,27l-201,-95l-29,-1l-41,-16l-33,-26l-23,-9l-29,-28l-21,2l1,5l22,-4l27,28l29,13l26,21l41,17l26,0l109,52l19,7l-10,-8l-114,-53l-31,-1l-39,-15l-35,-28l-20,-7l-28,-29l-20,3l-12,-4l-52,-27l-37,-12l-19,-15l1,-24l59,-129l7,-27l29,-55l28,13l6,-2l0,-8l-25,-12l10,-26" fill="none" stroke="currentColor" stroke-width="8"/></svg>