<svg xmlns="http://www.w3.org/2000/svg" viewBox="0 0 500 500"><path d="M148,0l-14,5l8,18l-10,22l34,19l-9,5l-40,-11l-41,65l-24,60l-46,84l-6,36l20,14l45,12l68,31l34,-4l30,28l28,10l36,25l50,17l35,0l146,61l-148,-63l-33,0l-51,-18l-27,-20l-33,-13l-34,-30l-33,0l-68,-30l-35,-9l-24,-13l-6,-14l0,16l23,14l45,13l67,29l34,-3l25,25l2,8l43,14l23,16l50,17l32,0l156,64l-153,-65l-34,-1l-49,-17l-29,-21l-35,-14l-33,-29l-21,3l-15,-4l-60,-27l-46,-14l-24,-15l1,-20l20,-29l72,-151l24,-39l55,19l-15,-5l-1,-11l-30,-13l12,-23l25,-8" fill="none" stroke="currentColor" stroke-width="8"/></svg>