<svg xmlns="http://www.w3.org/2000/svg" viewBox="0 0 500 500"><path d="M136,35l-4,13l23,9l7,8l-5,4l-35,-12l-26,36l-34,78l-58,106l-3,25l18,12l56,17l62,29l34,-4l30,29l32,11l35,25l48,17l32,0l151,60l-148,-64l-36,0l-48,-17l-39,-27l-22,-7l-33,-29l-35,0l-73,-32l-36,-9l-23,-15l-2,-10l-4,7l2,8l26,16l46,13l64,28l34,-3l33,29l26,8l36,26l47,17l34,1l152,61l-150,-64l-34,0l-49,-18l-26,-19l-37,-16l-31,-28l-24,3l-14,-4l-62,-27l-47,-15l-20,-13l-2,-12l-4,8l3,9l25,16l46,12l64,29l34,-4l15,18l45,21l35,25l49,18l31,-1l152,63l-148,-65l-33,0l-51,-18l-29,-20l-32,-12l-34,-30l-24,2l-81,-34l-35,-9l-24,-14l-4,-11l-3,13l24,16l48,14l61,27l12,-4l12,-44l-6,-14l-40,-2l-10,37l-6,3l-70,-24l-21,-17l1,-16l24,-49l90,-169l5,-3l28,11l9,-2l0,-6l-31,-14l30,-46" fill="none" stroke="currentColor" stroke-width="8"/></svg>