<svg xmlns="http://www.w3.org/2000/svg" viewBox="0 0 500 500"><path d="M149,0l-6,9l-11,4l3,10l-10,25l37,17l-7,-2l-6,8l-33,-13l-7,7l-24,37l-41,97l-12,12l-25,54l-6,15l2,17l17,12l44,13l65,29l32,-3l33,29l27,10l33,24l44,16l31,0l171,73l-42,-23l-125,-52l-34,-1l-48,-18l-28,-21l-32,-12l-28,-27l-24,3l-76,-34l-35,-9l-21,-15l-3,-10l-4,5l2,9l21,16l45,13l62,29l30,-4l32,28l28,10l32,23l46,18l30,0l144,59l-140,-63l-32,0l-47,-17l-35,-24l-25,-9l-30,-28l-24,3l-107,-42l-25,-15l-4,-10l-3,7l3,9l23,15l36,9l69,30l32,-4l29,29l26,9l32,23l49,18l30,0l142,58l-141,-61l-30,1l-49,-18l-28,-21l-32,-12l-30,-28l-25,2l-117,-46l-15,-12l3,-21l21,-36l9,-26l75,-147l4,-4l33,13l2,-8l-29,-14l15,-23l27,-10" fill="none" stroke="currentColor" stroke-width="8"/></svg>