<svg xmlns="http://www.w3.org/2000/svg" viewBox="0 0 500 500"><path d="M148,0l-22,44l33,17l-8,6l-36,-11l-110,215l-5,22l3,8l21,14l47,14l60,28l33,-4l31,28l30,11l33,24l49,18l28,-1l146,63l9,-2l4,-6l6,-29l-3,-35l-54,8l2,23l45,15l1,22l-3,3l-149,-65l-33,0l-47,-17l-30,-22l-34,-12l-31,-29l-27,4l7,3l21,-4l31,29l29,10l33,24l47,17l31,0l156,67l-153,-69l-33,-1l-51,-19l-33,-23l-25,-9l-34,-30l-23,3l12,-44l-6,-13l-39,-2l-8,35l-6,4l-62,-22l-26,-16l-1,-21l65,-128l21,-31l26,-60l29,11l9,-3l0,-6l-25,-10" fill="none" stroke="currentColor" stroke-width="2"/></svg>