<svg xmlns="http://www.w3.org/2000/svg" viewBox="0 0 500 500"><path d="M127,0l-5,18l-11,12l-5,12l24,15l0,6l-3,3l-28,-11l-23,41l-14,18l-16,57l-43,90l-3,18l3,8l17,11l31,10l60,30l28,-3l26,27l23,10l30,23l40,16l25,0l102,49l94,40l-1,-5l-14,-8l-50,-21l2,-20l7,-8l2,-34l54,3l13,-7l8,-80l-5,-82l-126,-60l-13,6l-10,19l-4,-7l-53,-24l-2,-7l5,-21l-35,-12l-19,-17l-14,-4l-10,17l0,16l12,8l-15,-16l-12,9l-9,14l-54,17l-11,1l-8,-27l-33,1l-26,-7l-37,74l-17,43l1,18l18,13l59,21l10,-31l17,-1l15,-7l-6,-15l-20,-23l-28,11l32,-11l23,37l11,3l19,30l-10,13l-19,-19l-7,34l20,-3l28,28l23,9l28,22l41,17l30,0l119,60l-126,-57l-26,-1l-40,-16l-20,-17l-32,-15l-26,-27l-28,5l27,-4l15,15l8,-38l-2,-13l-12,-17l-35,-41l2,-20l8,-6l19,1l11,6l20,24l20,0l5,-9l7,-36l14,-18l8,-21l9,-3l13,-19l5,-13l0,-4l-16,-9" fill="none" stroke="currentColor" stroke-width="2"/></svg>