<svg xmlns="http://www.w3.org/2000/svg" viewBox="0 0 500 500"><path d="M154,0l-24,47l35,18l-8,8l-35,-13l-33,47l-33,79l-23,34l-30,60l-1,24l26,16l42,11l67,30l33,-4l32,28l31,12l34,23l47,17l32,0l154,62l-150,-64l-34,1l-48,-17l-28,-21l-35,-14l-31,-28l-26,3l-78,-34l-45,-12l-17,-12l-3,-12l-5,7l1,9l28,16l40,11l67,30l34,-4l32,28l28,10l43,28l41,15l32,0l153,61l-148,-64l-35,0l-50,-18l-39,-27l-21,-7l-34,-29l-23,3l-14,-4l-64,-28l-44,-13l-22,-14l3,-26l111,-209l5,-3l30,10l7,-4l-30,-19l23,-43" fill="none" stroke="currentColor" stroke-width="8"/></svg>