<svg xmlns="http://www.w3.org/2000/svg" viewBox="0 0 500 500"><path d="M217,156l-11,-2l1,-18l-6,-8l25,-15l7,-7l5,-23l7,-13l10,-7l29,-16l3,-5l-2,-15l3,-4l26,-4l10,11l3,1l15,-8l7,-13l8,-5l2,-3l7,-2l9,8l3,12l5,4l11,1l13,-3l12,4l17,2l12,-2l8,-4l8,4l1,8l5,4l11,3l18,-2l-7,20l7,10l1,6l-11,10l-17,7l-6,6l-7,13l-21,22l-17,34l-10,13l-19,15l-12,2l-13,8l0,2l16,13l-17,16l-8,13l-16,15l-2,15l-4,6l-8,6l0,5l-7,13l-1,8l5,21l8,2l7,-3l6,1l4,13l27,32l0,4l-75,42l-30,9l-5,5l0,10l-3,1l-19,3l-87,-4l-33,2l-5,5l-2,4l7,13l-13,6l4,10l-2,-3l-69,10l-44,-25l-1,-4l3,-20l44,-62l79,-65l65,-81l38,-37l5,-4l17,-7l-28,-20l-1,-14" fill="none" stroke="currentColor" stroke-width="8"/></svg>