<svg xmlns="http://www.w3.org/2000/svg" viewBox="0 0 500 500"><path d="M17,469l-5,2l-9,0l12,-17l14,-8l2,-6l-31,-33l11,-16l18,-46l18,-4l16,1l4,-3l-7,-24l-13,-29l27,-8l25,-5l7,-4l42,-7l8,-3l4,-5l-7,-15l-3,-23l-32,-53l-5,-15l17,-6l128,18l5,-4l23,3l79,19l8,-4l8,-21l2,3l17,-1l3,-8l8,0l-1,-15l11,0l22,-5l47,3l9,-6l-2,-28l-7,-49l6,-12l4,-15l-31,0l-40,-5l-4,-1l2,-12l-7,-2l-4,5l-4,14l-8,-1l-22,4l2,10l13,3l-5,27l-5,4l-5,17l-28,-4l4,16l-6,8l10,2l0,2l17,1l2,3l7,2l-2,14l-17,-2l-33,3l-5,-3l-4,-16l4,-2l6,18l6,2l8,-4l-4,-14l-6,-5l-7,2l-2,4l8,17l8,-1l3,-4l-1,-7l5,-4l6,1l-2,13l7,3l-6,18l-16,-1l-3,7l24,4l5,6l-3,13l8,0l8,-20l7,-34l9,-14l20,-75l-5,-3l-4,2l-22,81l4,16l14,1l4,-8l-6,-2l0,-4l6,-1l-2,-6l-8,-4l11,-42l-4,11l-8,5l-10,29l-2,24l-10,39l-19,44l4,9l-8,22l-6,45l1,11l-12,75l-5,14l-79,14l-55,21l-73,33l-58,23l-7,4l-12,14l-6,1l-38,-14l-2,-4" fill="none" stroke="currentColor" stroke-width="2"/></svg>