<svg xmlns="http://www.w3.org/2000/svg" viewBox="0 0 500 500"><path d="M174,0l-26,11l-15,24l49,21l-14,-6l-9,9l-35,-11l-4,3l-24,37l-69,147l-18,27l-9,29l1,7l22,13l47,15l69,30l32,-4l32,30l27,10l38,27l47,16l32,1l151,64l-16,-12l-129,-55l-36,0l-49,-18l-38,-26l-27,-9l-30,-30l-36,0l-67,-30l-42,-13l-22,-14l-2,-13l-4,9l1,9l22,14l47,14l68,31l33,-5l32,29l31,12l37,25l46,17l32,0l151,62l-147,-65l-37,0l-45,-17l-37,-25l-31,-11l-32,-30l-22,3l-12,-3l-52,-25l-57,-19l-22,-16l0,-20l30,-64l22,-36l35,-78l29,-45l51,19l-12,-15l-30,-18l14,-23l19,-6" fill="none" stroke="currentColor" stroke-width="8"/></svg>