<svg xmlns="http://www.w3.org/2000/svg" viewBox="0 0 500 500"><path d="M151,0l-12,5l4,13l-12,23l4,6l27,11l-1,5l-6,4l-31,-14l-10,4l-86,171l-22,46l-5,20l2,9l21,13l44,12l70,28l-63,-31l-49,-15l-24,-19l-1,11l13,9l49,15l64,29l10,-1l-61,-28l-49,-16l-20,-13l-3,-13l-4,17l27,17l108,37l-55,-27l-56,-19l-21,-17l-2,9l24,15l113,40l-4,-5l-63,-27l-45,-14l-23,-18l-3,6l3,6l22,13l43,12l68,30l34,-3l32,28l30,11l35,26l49,16l32,1l152,62l-150,-66l-33,1l-52,-18l-36,-27l-41,-19l-15,-17l-36,-1l-71,-31l-40,-12l-20,-13l2,-27l28,-58l22,-35l44,-95l20,-27l30,12l9,-5l-3,-6l-26,-11l1,-8" fill="none" stroke="currentColor" stroke-width="8"/></svg>