<svg xmlns="http://www.w3.org/2000/svg" viewBox="0 0 500 500"><path d="M132,0l-6,21l-13,23l3,6l26,12l-8,6l-31,-10l-36,71l-43,101l-16,25l-4,32l16,12l41,12l57,28l27,-4l28,28l24,9l31,23l42,16l28,0l120,55l25,5l42,18l15,11l-200,-92l-32,-1l-41,-16l-25,-20l-26,-10l-30,-29l-19,4l-66,-31l-39,-13l-16,-12l-2,-12l-4,9l1,9l21,13l35,10l59,29l30,-2l22,22l3,8l37,14l17,14l43,17l27,0l138,61l-134,-64l-30,0l-42,-17l-18,-16l-34,-15l-28,-28l-17,4l-14,-4l-56,-27l-40,-13l-14,-11l0,-21l66,-142l30,-58l11,1l5,-8" fill="none" stroke="currentColor" stroke-width="2"/></svg>