<svg xmlns="http://www.w3.org/2000/svg" viewBox="0 0 500 500"><path d="M399,490l-4,9l-2,-1l0,-6l8,-8l8,-6l1,-5l-11,-12l-6,-9l-4,-2l-15,-19l-14,-12l-25,-43l-6,-5l-7,-12l-10,-21l-3,-3l-10,0l-24,4l-25,15l-5,-2l-17,7l-3,-4l-4,1l-15,7l-1,3l-6,-7l-6,3l-2,-2l-60,18l-14,3l-8,-1l-5,-12l-4,-2l-9,-35l2,-5l0,-7l4,-14l-3,-18l-3,-4l-8,-3l-4,-6l-3,0l-20,-66l-10,-17l-7,-5l-17,-29l-4,-1l-18,-20l0,-4l1,-5l25,-13l39,-17l7,0l12,-8l67,-25l122,-56l23,-6l28,-2l20,0l38,7l22,7l73,31l22,11l1,4l-8,24l-9,14l0,7l-16,43l-4,21l-6,2l-2,5l5,9l1,27l7,18l-1,3l-7,4l1,2l29,68l2,20l-15,8l-47,12l-8,5l2,10l6,11l3,12l0,11l3,8l1,9l9,5l-6,9l-6,3l-2,10l-25,2l-15,7l16,19l3,6l-3,5l-11,11l-3,10" fill="none" stroke="currentColor" stroke-width="8"/></svg>