<svg xmlns="http://www.w3.org/2000/svg" viewBox="0 0 500 500"><path d="M1,464l2,5l-3,14l51,16l14,-17l8,-4l40,-14l32,-17l34,-12l24,-13l57,-22l27,-10l93,-17l1,-11l5,-6l12,-67l2,-52l6,-36l8,-24l-3,-7l10,-27l8,-5l13,-66l-28,-1l-34,3l-12,-31l25,0l38,7l20,-1l3,2l0,5l-8,-1l-3,-5l-51,-8l-3,-4l2,-10l9,-10l-9,9l-2,11l1,4l5,0l10,-26l52,9l-32,-5l-4,-3l3,-12l16,2l8,-7l18,5l0,5l-23,-2l34,6l-2,13l-17,-2l30,7l-5,17l-24,-1l41,2l-1,22l-34,4l-40,-5l15,2l-10,65l-8,6l-11,28l4,9l-2,14l-13,38l0,37l-5,15l-9,72l-6,17l-92,16l-212,87l-8,5l-16,18l-8,-1l-41,-16l-3,-2l3,-5" fill="none" stroke="currentColor" stroke-width="8"/></svg>