<svg xmlns="http://www.w3.org/2000/svg" viewBox="0 0 500 500"><path d="M157,0l-13,13l-13,29l30,14l1,5l-6,4l-31,-12l-8,8l-85,165l-2,14l-21,27l-8,33l22,15l45,12l70,31l32,-3l28,26l1,8l44,14l23,17l50,17l30,0l153,62l-146,-64l-37,-1l-51,-18l-27,-20l-36,-14l-32,-29l-20,3l-13,-3l-72,-32l-41,-7l-24,-14l25,16l45,13l64,28l36,-2l14,16l14,9l2,9l44,15l24,17l48,16l31,0l153,63l-151,-66l-33,0l-49,-17l-26,-20l-35,-14l-33,-29l-26,1l-2,-6l11,-38l-6,-16l-37,1l-9,35l-6,5l-73,-26l-19,-14l-1,-17l7,-18l25,-39l24,-57l61,-111l28,11l9,-3l-1,-7l-27,-15l11,-21" fill="none" stroke="currentColor" stroke-width="8"/></svg>