<svg xmlns="http://www.w3.org/2000/svg" viewBox="0 0 500 500"><path d="M146,0l-18,43l55,23l-18,-8l-12,8l-36,-12l-50,93l-7,25l-21,36l-10,31l-20,24l-9,28l1,9l23,13l45,14l66,29l31,-3l27,24l2,9l45,15l22,16l46,17l31,0l124,55l37,11l-2,-8l-14,0l-143,-61l-33,0l-51,-20l-37,-26l-22,-7l-31,-29l-20,4l-13,-4l-73,-32l-34,-10l-18,-10l-5,-13l-4,7l2,8l24,15l41,12l67,31l33,-4l33,30l26,8l34,26l48,17l31,0l110,48l37,12l-143,-63l-34,0l-50,-18l-31,-23l-30,-10l-32,-31l-21,4l-83,-35l-35,-10l-21,-13l-2,-11l-2,15l26,17l40,11l66,30l31,-4l33,29l30,11l32,24l48,17l32,1l138,54l-136,-58l-33,0l-48,-17l-24,-19l-38,-16l-32,-29l-22,3l-13,-4l-64,-29l-38,-11l-24,-15l-1,-16l7,-17l68,-139l40,-70l51,22l-11,-10l-1,-7l-29,-14l5,-16" fill="none" stroke="currentColor" stroke-width="8"/></svg>