<svg xmlns="http://www.w3.org/2000/svg" viewBox="0 0 500 500"><path d="M152,0l-6,22l-14,13l-5,12l43,18l-6,-2l-11,7l-32,-12l-5,3l-46,85l-43,95l-20,28l-7,26l2,9l26,16l39,10l69,31l32,-5l33,29l37,15l30,22l47,16l29,0l109,45l47,15l-151,-64l-36,0l-48,-17l-41,-28l-21,-7l-32,-28l-34,0l-75,-32l-30,-7l-24,-14l-5,-14l-3,15l21,14l47,14l67,29l35,-3l32,29l30,11l35,25l48,17l30,-1l154,63l-150,-65l-35,0l-46,-16l-42,-28l-20,-6l-36,-31l-21,3l-17,-4l-57,-26l-47,-15l-22,-14l0,-22l115,-218l51,18l-11,-5l2,-10l-34,-15l18,-39" fill="none" stroke="currentColor" stroke-width="8"/></svg>