<svg xmlns="http://www.w3.org/2000/svg" viewBox="0 0 500 500"><path d="M145,153l-14,19l20,8l2,6l-35,-5l-10,16l-18,17l-30,53l-38,48l-17,26l-4,17l19,10l45,9l71,22l33,-3l32,22l29,7l44,20l43,11l29,-1l153,45l-149,-47l-35,0l-49,-12l-25,-14l-35,-11l-37,-22l-19,3l-13,-3l-68,-21l-39,-8l-23,-10l-4,-8l-3,9l24,12l47,10l65,21l35,-2l32,20l29,8l34,17l51,13l32,0l151,44l-152,-47l-32,1l-48,-12l-37,-18l-27,-7l-33,-21l-32,0l-66,-21l-42,-9l-27,-12l1,-14l112,-160l47,11l-1,-7l-32,-13l13,-15l25,-6l6,-6l-11,-6l-5,3l-5,-3l-14,15l-7,0l25,-27l21,-9l5,-8l-23,-24l-30,-23l32,-46l5,1l2,14l19,2l10,-26l-10,-6l-13,1l-8,28l11,5l13,-8l6,-20l-14,-6l-10,4l-7,22l9,7l13,-5l8,-20l-10,-8l-13,3l-8,23l10,7l14,-6l7,-20l-11,-7l-11,4l-9,22l13,7l10,-6l8,-21l-14,-6l-9,4l-10,21l14,8l11,-5l8,-21l-11,-7l-12,4l-8,24l13,5l10,-5l8,-22l-10,-6l-13,5l-8,21l9,7l14,-5l8,-21l-10,-7l-13,5l-8,22l9,5l14,-4l8,-22l-9,-6l-14,4l-8,20l9,9l14,-5l8,-21l-11,-7l-12,4l-8,21l8,7l15,-4l8,-21l-9,-7l-13,4l-8,21l9,8l13,-5l8,-21l-5,-6l-9,-1l-9,4l-8,22l11,7l12,-6l8,-19l-12,-8l-9,3l-10,22l10,8l13,-5l8,-20l-8,-8l-13,3l-10,21l11,9l13,-5l8,-21l-5,-6l-8,-1l-11,5l-8,21l11,7l10,-3l10,-24l-10,-6l-12,4l-9,21l12,8l11,-5l8,-22l-12,-6l-11,4l-8,22l10,7l13,-6l8,-20l-11,-7l-12,5l-7,22l10,6l11,-4l9,-21l-10,-8l-13,5l-8,20l11,8l12,-5l8,-20l-4,-6l-9,-2l-11,5l-7,21l10,7l13,-4l8,-22l-9,-7l-13,4l-9,21l12,8l11,-5l8,-22l-10,-6l-12,4l-9,22l10,6l13,-4l8,-21l-12,-7l-11,4l-8,22l10,6l13,-5l8,-20l-10,-7l-13,5l-8,21l12,6l14,-6" fill="none" stroke="currentColor" stroke-width="8"/></svg>