<svg xmlns="http://www.w3.org/2000/svg" viewBox="0 0 500 500"><path d="M151,6l-5,18l-14,24l44,18l-9,-4l-10,8l-35,-12l-26,41l-34,77l-33,56l-3,12l-13,14l-11,26l-1,19l20,12l49,15l67,31l34,-5l27,26l1,7l44,14l28,19l45,16l31,0l152,60l-149,-64l-34,0l-51,-18l-38,-26l-22,-8l-33,-28l-22,3l-14,-4l-65,-28l-39,-12l-25,-14l-4,-13l-1,17l16,11l53,17l66,30l35,-4l30,27l30,12l36,25l48,17l32,0l117,50l31,12l4,-3l-150,-63l-35,0l-47,-17l-25,-17l-39,-17l-33,-29l-20,3l-16,-4l-103,-40l-25,-14l-4,-10l-3,7l3,8l20,13l43,12l70,32l35,-4l32,28l30,11l34,24l47,17l34,1l152,61l-2,-4l-146,-60l-34,0l-49,-17l-39,-26l-23,-9l-36,-30l-21,4l-16,-4l-67,-30l-39,-11l-23,-15l1,-20l115,-219l53,19l-13,-16l-30,-16l28,-45" fill="none" stroke="currentColor" stroke-width="8"/></svg>