<svg xmlns="http://www.w3.org/2000/svg" viewBox="0 0 500 500"><path d="M394,459l5,9l-51,32l-77,-19l-4,-15l-21,-13l-34,-45l94,-27l32,-19l-203,-103l-41,-40l-94,-64l0,-48l12,-17l94,-26l128,-46l72,-18l18,2l140,125l-6,23l-34,16l3,55l22,27l-33,59l18,4l-4,14l34,5l18,-7l13,-28l-29,-5l-19,5l-21,28l28,8l27,-6l19,-25l-21,-10l-31,6l-17,26l28,7l20,-7l17,-24l-23,-7l-25,7l-17,24l22,7l23,-5l20,-26l-23,-7l-24,6l-18,24l13,7l18,1l15,-5l19,-26l-24,-7l-23,5l-18,25l23,8l22,-4l20,-27l-22,-7l-23,5l-20,25l22,8l26,-6l17,-25l-24,-7l-22,5l-19,25l22,8l24,-5l19,-26l-23,-7l-23,5l-19,26l22,7l24,-5l18,-27l-22,-6l-23,5l-19,26l22,7l23,-4l20,-27l-18,-7l-27,4l-20,26l22,8l23,-4l20,-27l-15,-7l-29,4l-21,24l21,10l24,-4l20,-27l-22,-7l-25,6l-18,24l23,8l24,-6l18,-24l-24,-8l-22,5l-19,25l22,8l24,-5l19,-26l-22,-7l-23,5l-20,25l22,8l24,-5l19,-26l-22,-7l-23,4l-20,26l22,8l25,-6l18,-24l-24,-8l-23,5l-18,25l22,8l23,-4l20,-27l-26,-7l-23,8l-16,22l12,7l21,0l15,-6l17,-23l-22,-8l-25,6l-18,25l23,7l23,-5l19,-25l-22,-8l-25,6l-18,24l21,8l24,-4l19,-28l-21,-6l-24,5l-19,25l23,8l25,-6l17,-25l-22,-7l-23,5l-20,25l22,8l23,-4l20,-26l-24,-8l-21,5l-20,25l21,8l25,-5l19,-26l-23,-7l-24,6l-18,24l10,6l23,1l15,-5l16,-26l-14,-6l-19,1l-19,13" fill="none" stroke="currentColor" stroke-width="8"/></svg>