<svg xmlns="http://www.w3.org/2000/svg" viewBox="0 0 500 500"><path d="M213,490l-117,10l-62,-8l112,-75l149,-40l49,-27l-344,-153l206,-152l294,34l-119,19l67,-73l-33,-20l-66,-5l-69,15l-48,78l82,16l80,-17l54,-67l-26,-18l-76,-7l-71,19l-47,69l84,21l86,-22l50,-63l-35,-19l-67,-5l-71,19l-49,58l13,19l75,13l82,-19l52,-65l-76,-25l-84,11l-62,75l84,23l80,-14l56,-74l-43,-19l-69,-2l-59,19l-49,57l28,25l62,8l67,-11l63,-65l-50,-31l-108,9l-62,65l47,30l110,-8l65,-68l-63,-30l-95,10l-64,76l69,22l92,-12l61,-72l-76,-24l-90,14l-56,71l60,22l104,-12l58,-65l-50,-28l-112,9l-60,65l52,31l107,-10l63,-68l-50,-27l-112,9l-60,74l69,23l97,-15l56,-64l-50,-27l-110,9l-62,66l60,30l95,-9l67,-68l-20,-21l-51,-9l-91,12l-60,73l67,23l92,-11l63,-72l-63,-25l-97,11l-62,65l39,28l116,-6l67,-67l-50,-29l-114,11l-58,71l82,25l79,-13l61,-72l-63,-24l-97,11l-62,65l58,31l103,-11l61,-72l-63,-24l-99,12l-60,72l69,24l97,-15l56,-69l-71,-24l-95,14l-56,71l71,23l88,-11l63,-72l-71,-25l-93,13l-58,71l69,24l97,-15l56,-68l-76,-25l-90,14l-56,70l69,24l95,-14l58,-70l-73,-24l-91,13l-58,72l71,23l95,-15l56,-70l-71,-23l-95,14l-56,71l90,24l76,-16l56,-69l-73,-24l-91,13l-58,71l69,24l97,-15l56,-68l-71,-25l-97,16l-54,68l71,24l95,-15l56,-70l-33,-18l-71,-5l-77,31" fill="none" stroke="currentColor" stroke-width="8"/></svg>