<svg xmlns="http://www.w3.org/2000/svg" viewBox="0 0 500 500"><path d="M76,462l20,-12l138,-30l-146,-61l-88,-26l87,-56l90,-89l47,-23l242,-2l34,-5l0,-9l-243,-149l-74,40l-14,69l62,48l-82,61l-7,29l27,5l-3,25l51,5l37,-7l39,-38l-21,-15l-61,0l-56,48l38,11l49,-3l53,-41l-26,-15l-68,2l-46,40l24,15l69,-3l48,-40l-39,-16l-68,9l-36,39l40,13l66,-9l34,-40l-44,-12l-62,10l-26,39l19,11l33,2l49,-11l33,-39l-47,-12l-55,8l-38,41l39,12l63,-8l38,-40l-41,-12l-64,7l-41,40l55,13l57,-10l34,-40l-47,-11l-55,7l-41,41l40,13l63,-8l38,-36l-36,-16l-64,6l-42,43l50,11l58,-10l31,-43l-73,-7l-52,25l-30,-1l-100,79l-30,8l229,82l-33,19l-142,40l-38,26l72,1" fill="none" stroke="currentColor" stroke-width="8"/></svg>