<svg xmlns="http://www.w3.org/2000/svg" viewBox="0 0 500 500"><path d="M472,430l-3,1l-1,4l-9,8l-23,-9l-29,-18l3,-4l20,-6l29,-18l-46,-39l-22,-27l-2,-5l-9,-9l-2,-7l-9,-12l-15,1l-33,7l-25,12l-5,-2l-20,6l-5,-4l-4,1l-41,16l-10,-9l-47,11l-25,4l-10,-2l-4,-9l-5,-2l-12,-31l2,-12l5,-10l-4,-16l-3,-4l-10,-3l-4,-5l-5,-1l-19,-52l-4,-5l-13,-15l-8,-4l-27,-29l-16,-13l-2,-5l5,-6l24,-8l58,-19l92,-26l122,-42l31,-9l40,-4l45,0l43,7l40,11l-50,-13l-31,-5l-40,0l-45,4l-48,14l-126,43l-68,19l-8,2l-4,3l-19,4l-42,15l-6,3l-1,4l4,4l-2,2l-8,6l16,13l5,1l18,25l7,2l4,3l14,19l20,52l4,0l3,4l10,4l4,3l5,17l-5,10l0,4l17,50l9,2l6,-2l15,0l24,-5l15,-4l7,15l14,0l8,-3l33,44l32,21l1,4l-5,7l15,19l10,6l11,12l16,12l5,1l6,7l19,0l34,4l2,2l0,16l-2,5l7,5l11,2l6,-5l15,-25l9,-10l8,-12l11,2" fill="none" stroke="currentColor" stroke-width="8"/></svg>