<svg xmlns="http://www.w3.org/2000/svg" viewBox="0 0 500 500"><path d="M144,0l-4,7l9,11l-10,27l38,18l-12,-2l-10,7l-35,-12l-36,64l-26,64l-52,88l-4,30l19,14l48,14l67,30l36,-3l31,28l30,11l35,25l45,16l33,0l154,63l-151,-65l-33,0l-50,-18l-40,-27l-22,-7l-33,-29l-21,3l-16,-4l-65,-30l-38,-10l-23,-14l-4,-12l-4,5l1,10l21,13l52,17l59,27l38,-3l32,29l35,14l30,22l51,18l29,-1l151,60l-148,-63l-35,-1l-49,-17l-38,-26l-24,-8l-33,-30l-23,3l-16,-4l-57,-26l-46,-14l-24,-15l0,-22l62,-115l31,-75l23,-31l36,14l6,-4l-2,-6l-31,-13l6,-14" fill="none" stroke="currentColor" stroke-width="8"/></svg>