<svg xmlns="http://www.w3.org/2000/svg" viewBox="0 0 500 500"><path d="M441,429l0,3l-5,2l0,-2l20,-19l-21,-24l6,-8l15,-38l-5,-14l0,-15l8,-9l0,-14l-16,-29l-9,-23l-4,-3l-8,-16l-6,-15l-18,-29l10,-4l29,-5l15,-6l31,-2l6,-7l10,-3l1,-3l-4,-4l-14,-7l-31,-5l-33,-9l-30,-16l9,-11l13,-21l11,-13l19,-15l13,-18l9,-2l1,-5l-4,-6l-40,-11l-27,-3l-48,0l-31,3l-36,11l-110,41l-79,24l-11,6l-15,2l-52,19l-9,4l-1,4l1,4l14,12l28,32l8,4l14,18l19,53l4,1l6,15l8,23l-3,4l11,33l2,6l5,1l4,10l7,2l9,-3l11,0l20,-3l17,-5l8,15l20,-4l30,43l30,24l0,7l-3,4l8,8l0,9l9,9l-8,7l3,8l0,23l3,8l8,3l8,-8l24,-16l5,6l22,0l27,3l2,3l-2,22l8,4l11,1l33,-53l14,5l3,-1l0,-3l-13,-5l4,-6" fill="none" stroke="currentColor" stroke-width="8"/></svg>