<svg xmlns="http://www.w3.org/2000/svg" viewBox="0 0 500 500"><path d="M140,0l-19,2l-10,25l26,15l1,5l-5,4l-30,-12l-45,94l-5,23l-25,39l-2,14l-20,39l-6,22l2,8l20,13l28,7l68,34l28,-4l23,24l1,9l39,13l22,18l37,14l30,1l148,73l52,20l-9,-9l-191,-88l-29,0l-41,-17l-20,-17l-35,-17l-26,-26l-29,0l-54,-28l-36,-12l-21,-13l-3,-11l-4,5l2,10l21,14l39,13l55,27l28,-3l28,28l22,8l28,23l16,8l31,11l27,0l149,73l54,19l-201,-94l-32,-1l-41,-17l-33,-26l-18,-6l-29,-29l-19,3l-12,-4l-54,-27l-43,-16l-12,-10l0,-20l23,-42l35,-89l39,-78l27,9l7,-5l0,-6l-26,-12l10,-22" fill="none" stroke="currentColor" stroke-width="8"/></svg>