<svg xmlns="http://www.w3.org/2000/svg" viewBox="0 0 500 500"><path d="M11,372l-8,8l-3,33l13,25l10,11l6,-34l6,-16l82,-160l8,-9l5,-13l41,-34l4,-37l3,-104l3,-12l45,5l17,-5l40,2l29,-5l15,-11l44,-16l2,13l-8,105l-9,39l4,20l8,-8l2,-10l-4,16l-7,-4l1,4l-5,35l1,18l-2,14l1,-6l8,2l14,-30l13,-15l46,-5l3,34l-2,33l-9,14l-6,20l-8,70l-1,32l4,36l15,44l8,-8l18,11l13,-9l11,6l11,-4l3,-7l4,-45l-6,-67l-8,-21l0,-29l-6,-31l-11,-19l-14,16l-18,-8l-13,24l-5,22l-6,65l2,47l8,14l9,42l7,-7l13,10l15,-8l26,2l3,-8l3,-26l0,-17l-5,-68l-7,-19l-1,-32l-5,-26l-6,-17l-5,-6l-13,15l-19,-10l1,-36l-3,-30l-45,4l-11,10l-18,36l-9,5l-2,40l-8,98l-7,63l-3,4l-54,7l-39,-14l-21,1l-18,-13l-24,-3l-18,-10l-4,-17l-18,40l2,31l-14,31l-10,-31l-30,-139l-8,8l-28,51l-4,-12l-14,31l-9,40l-20,-31" fill="none" stroke="currentColor" stroke-width="8"/></svg>