<svg xmlns="http://www.w3.org/2000/svg" viewBox="0 0 500 500"><path d="M147,0l-24,8l-11,15l-2,10l38,22l-7,-4l-9,5l-29,-12l-23,40l-28,70l-44,86l-8,24l2,16l16,12l36,12l63,30l28,-3l26,27l26,11l27,22l43,17l28,0l148,70l55,22l-21,-15l-126,-54l-52,-27l-31,-1l-43,-17l-31,-24l-21,-8l-29,-28l-17,4l-14,-5l-46,-24l-49,-18l-12,-9l-2,-10l-4,4l1,10l22,16l40,13l52,26l30,-3l26,28l23,9l31,23l45,18l24,0l151,72l55,18l-18,-12l-57,-22l-127,-60l-29,-1l-44,-17l-30,-24l-21,-8l-28,-27l-19,2l-13,-3l-48,-25l-39,-14l-21,-14l1,-22l80,-180l18,-27l27,12l5,-4l0,-6l-26,-14l10,-19" fill="none" stroke="currentColor" stroke-width="2"/></svg>