<svg xmlns="http://www.w3.org/2000/svg" viewBox="0 0 500 500"><path d="M140,0l-20,5l-11,22l28,18l0,5l-5,3l-14,-9l-16,-2l-20,36l-58,139l-15,23l-9,30l2,9l18,12l38,12l59,29l29,-3l26,26l25,12l27,22l44,18l28,0l147,71l56,22l-5,-6l-196,-91l-29,1l-44,-18l-29,-23l-22,-10l-28,-28l-18,4l-11,-3l-36,-20l-56,-21l-16,-11l-5,-11l-4,7l4,10l19,12l39,13l55,28l29,-4l21,22l2,10l41,15l18,15l42,16l26,0l150,73l46,18l8,0l-201,-95l-30,0l-43,-17l-32,-25l-34,-19l-14,-17l-18,4l-13,-4l-53,-27l-33,-11l-23,-16l0,-19l27,-49l7,-24l52,-118l13,-20l27,12l7,-5l-1,-5l-24,-11l-2,-6" fill="none" stroke="currentColor" stroke-width="8"/></svg>