<svg xmlns="http://www.w3.org/2000/svg" viewBox="0 0 500 500"><path d="M122,16l-12,23l37,20l-7,-3l-6,6l-36,-12l-92,199l-6,25l3,10l19,13l43,14l52,26l28,-3l23,22l1,8l38,15l24,17l37,14l27,0l121,57l19,2l65,31l-201,-94l-32,0l-42,-17l-30,-23l-21,-9l-28,-27l-19,4l-12,-4l-89,-38l-20,-13l-3,-10l-2,13l20,15l41,14l51,25l32,-2l23,24l1,7l39,14l21,17l41,15l26,-1l128,59l-125,-61l-30,-2l-42,-15l-31,-24l-20,-7l-17,-13l-12,-16l-19,3l-13,-3l-54,-27l-39,-13l-17,-14l0,-18l51,-100l30,-80l21,-27l40,14l-10,-13l-26,-13l15,-27l3,-13" fill="none" stroke="currentColor" stroke-width="8"/></svg>