<svg xmlns="http://www.w3.org/2000/svg" viewBox="0 0 500 500"><path d="M131,0l-21,42l22,12l0,9l-26,-11l-3,2l-37,82l-57,110l-8,25l1,12l18,14l40,12l55,28l31,-3l28,28l30,12l28,22l36,14l27,0l124,58l15,0l64,30l-201,-92l-27,1l-45,-19l-29,-22l-20,-8l-30,-28l-21,3l-99,-41l-17,-11l-6,-12l-3,5l1,8l19,14l42,14l54,27l30,-2l25,25l32,14l22,19l43,16l27,0l152,73l43,15l9,-1l-14,-8l-61,-22l-124,-59l-31,0l-40,-16l-31,-23l-24,-9l-29,-28l-19,4l-60,-29l-39,-13l-20,-13l-3,-10l-3,11l18,15l41,13l58,28l27,-3l26,25l29,13l29,22l41,16l29,0l119,56l16,2l57,23l8,6l-3,3l-32,-19l-165,-74l-29,0l-44,-17l-19,-16l-32,-15l-28,-27l-20,2l-72,-33l-32,-10l-16,-11l-3,-10l-4,4l3,9l19,15l37,12l56,27l30,-3l27,27l29,13l22,18l45,18l29,0l203,89l-200,-92l-31,0l-40,-16l-22,-17l-34,-17l-26,-25l-21,2l-64,-31l-35,-11l-20,-12l-3,-10l-4,6l3,9l16,11l43,14l56,28l28,-4l14,17l11,6l-25,-26l-19,3l-12,-4l-54,-27l-37,-12l-19,-16l3,-20l53,-104l19,-52l25,-44l42,16l-9,-8l0,-7l-25,-11" fill="none" stroke="currentColor" stroke-width="8"/></svg>