<svg xmlns="http://www.w3.org/2000/svg" viewBox="0 0 500 500"><path d="M125,0l-15,27l27,17l-6,4l-30,-12l-35,70l-43,112l-20,30l-3,27l15,12l45,16l55,28l29,-3l27,28l22,9l42,29l33,13l27,0l123,60l21,2l60,31l-201,-96l-30,0l-42,-18l-34,-26l-17,-6l-30,-30l-18,4l-11,-3l-52,-26l-39,-13l-20,-14l-2,-10l-3,6l2,9l16,13l41,12l57,30l28,-4l28,29l30,13l22,19l45,18l25,0l123,59l18,2l65,32l-10,-9l-67,-26l-126,-62l-30,1l-42,-18l-32,-25l-18,-7l-30,-30l-16,4l-15,-4l-54,-27l-37,-13l-17,-11l-2,-22l49,-101l33,-85l19,-28l27,13l5,-3l0,-7l-26,-15l9,-16" fill="none" stroke="currentColor" stroke-width="8"/></svg>