<svg xmlns="http://www.w3.org/2000/svg" viewBox="0 0 500 500"><path d="M152,0l-25,41l26,12l2,9l-6,1l-26,-12l-6,3l-91,183l-18,26l-8,28l2,10l24,15l45,12l66,30l32,-3l28,24l1,9l45,14l24,16l50,18l31,0l149,64l0,-5l-23,-12l-124,-51l-33,0l-52,-19l-35,-24l-22,-7l-36,-31l-24,3l-71,-30l-43,-13l-23,-13l-6,-13l-4,14l17,13l53,16l65,30l34,-3l31,30l40,14l27,20l46,17l34,0l152,63l-150,-67l-35,0l-46,-16l-42,-29l-19,-6l-35,-30l-23,3l-13,-4l-52,-24l-60,-19l-19,-13l0,-18l56,-101l27,-74l11,-17l24,-31l38,14l0,-12l-28,-11l-3,-6l17,-31" fill="none" stroke="currentColor" stroke-width="8"/></svg>