<svg xmlns="http://www.w3.org/2000/svg" viewBox="0 0 500 500"><path d="M141,0l-11,29l34,15l-1,5l-5,4l-37,-13l-12,25l-14,16l-67,147l-22,35l-6,22l2,10l21,15l45,13l68,31l36,-2l25,23l3,10l37,16l7,-1l21,16l51,19l32,0l151,64l-15,-11l-134,-57l-34,0l-52,-19l-35,-26l-24,-9l-32,-29l-24,3l-13,-4l-69,-32l-40,-12l-20,-13l-2,-11l-5,6l2,10l19,14l37,10l80,36l32,-4l31,28l33,14l29,22l53,20l32,0l146,64l6,-1l-151,-68l-34,1l-49,-19l-25,-19l-53,-28l-17,-19l-22,5l-16,-5l-59,-28l-51,-17l-15,-10l-3,-11l-4,13l21,16l43,13l71,32l34,-4l32,30l33,13l37,27l45,15l30,0l152,65l-14,-11l-133,-58l-36,0l-51,-19l-36,-26l-38,-20l-19,-19l-23,3l-15,-4l-64,-30l-45,-14l-19,-14l0,-19l19,-31l86,-179l13,-18l33,12l6,-5l0,-5l-32,-17l10,-15" fill="none" stroke="currentColor" stroke-width="8"/></svg>