<svg xmlns="http://www.w3.org/2000/svg" viewBox="0 0 500 500"><path d="M148,0l-25,10l-11,22l3,6l23,9l-1,7l-5,2l-28,-13l-23,40l-13,40l-39,88l-24,37l-3,31l19,14l42,14l52,27l31,-3l28,28l23,9l33,25l39,15l29,1l109,53l30,7l63,29l-202,-94l-29,1l-40,-16l-34,-26l-22,-8l-25,-26l-32,-2l-56,-28l-30,-9l-22,-14l-4,-10l-4,6l2,8l21,15l35,11l57,28l32,-2l25,27l23,9l31,23l44,17l27,0l201,92l-199,-95l-32,0l-39,-16l-34,-26l-19,-7l-29,-29l-18,4l-13,-3l-52,-27l-45,-16l-12,-9l2,-25l25,-45l1,-13l22,-38l10,-34l22,-47l16,-20l1,-6l31,8l1,-8l-25,-12l6,-15" fill="none" stroke="currentColor" stroke-width="8"/></svg>