<svg xmlns="http://www.w3.org/2000/svg" viewBox="0 0 500 500"><path d="M128,0l-18,45l35,18l-12,4l-30,-12l-19,33l-35,82l-41,81l-8,22l2,11l16,14l43,14l55,27l29,-5l26,27l28,12l30,22l40,16l27,0l121,55l62,20l21,13l-201,-91l-32,-1l-42,-17l-30,-23l-21,-8l-27,-27l-21,3l-16,-6l-45,-22l-48,-18l-11,-8l-3,-10l-3,5l3,10l18,13l36,10l60,29l28,-3l27,26l32,15l27,20l39,15l27,0l120,55l17,3l23,16l31,5l11,10l-199,-92l-32,0l-42,-17l-32,-25l-20,-7l-29,-28l-19,4l-65,-31l-41,-13l-14,-10l-1,-21l29,-50l6,-22l35,-69l11,-36l18,-27l25,9l8,-3l-1,-5l-24,-13l5,-12" fill="none" stroke="currentColor" stroke-width="8"/></svg>