<svg xmlns="http://www.w3.org/2000/svg" viewBox="0 0 500 500"><path d="M128,0l-18,49l26,14l0,4l-5,3l-29,-11l-20,35l-57,131l-17,27l-8,28l2,9l16,13l37,11l60,29l30,-3l25,26l27,11l34,24l35,14l31,1l122,56l16,2l65,26l-79,-31l-122,-56l-31,0l-44,-18l-29,-22l-22,-9l-27,-27l-20,3l-10,-4l-106,-46l-6,-9l1,-13l44,-98l-17,30l-29,68l-3,18l10,11l106,46l29,-3l26,27l25,9l28,22l43,17l28,0l124,57l16,2l65,27l-62,-29l-17,-3l-122,-57l-32,0l-41,-17l-30,-22l-22,-8l-29,-29l-15,4l-13,-4l-33,-18l-63,-22l-14,-10l-1,-19l79,-176l20,-29l28,11l4,-4l0,-5l-26,-16" fill="none" stroke="currentColor" stroke-width="8"/></svg>