<svg xmlns="http://www.w3.org/2000/svg" viewBox="0 0 500 500"><path d="M150,0l-4,7l-23,3l-9,12l-6,16l36,16l-4,-1l-7,7l-31,-13l-26,48l-53,127l-14,19l-9,30l1,10l16,12l40,14l60,29l28,-4l26,27l23,9l38,26l37,15l25,-1l126,59l11,1l67,31l-6,-7l-99,-40l-96,-46l-30,-1l-41,-16l-30,-23l-22,-9l-28,-28l-21,3l-63,-31l-44,-15l-12,-11l0,-11l-6,8l1,8l17,13l42,15l56,27l28,-3l27,26l25,11l27,21l45,18l27,0l204,92l1,-6l-43,-16l-26,-15l5,-30l-5,-6l8,-13l0,-13l-44,-2l-5,3l7,27l33,16l-2,16l-6,5l-123,-59l-31,-1l-42,-17l-31,-24l-18,-7l-31,-29l-23,1l11,-38l-6,-18l-32,-2l-9,35l-5,4l-53,-20l-23,-15l0,-19l45,-92l36,-89l19,-28l25,11l6,-4l-2,-6l-23,-13" fill="none" stroke="currentColor" stroke-width="2"/></svg>