<svg xmlns="http://www.w3.org/2000/svg" viewBox="0 0 500 500"><path d="M131,0l-23,41l37,18l-6,-2l-7,6l-26,-13l-5,5l-32,60l-20,53l-23,37l-23,57l-3,14l2,9l15,12l41,14l57,28l29,-3l26,27l25,10l28,22l43,18l30,0l114,54l21,4l39,20l30,9l-68,-30l-10,-1l-125,-59l-30,0l-43,-18l-25,-19l-27,-12l-27,-28l-18,3l-11,-3l-90,-39l-17,-10l-6,-13l-3,5l2,10l21,15l31,8l63,31l28,-4l26,28l24,9l30,23l44,17l26,0l125,58l-5,-6l-116,-55l-32,0l-39,-15l-35,-27l-20,-8l-29,-28l-16,4l-13,-4l-54,-26l-41,-15l-14,-11l-1,-19l26,-49l42,-101l22,-41l11,-13" fill="none" stroke="currentColor" stroke-width="8"/></svg>