<svg xmlns="http://www.w3.org/2000/svg" viewBox="0 0 500 500"><path d="M212,496l-3,4l-5,-1l5,-11l4,-7l1,-4l-11,-25l5,-16l1,-7l1,1l-1,5l2,2l2,1l2,-4l2,-11l-2,-3l-3,1l-2,15l3,2l3,-5l1,-9l-1,-3l-3,0l-2,7l-1,-1l3,-22l2,-1l8,3l3,-3l-2,-19l-4,-22l11,-7l26,-9l2,-3l0,-5l-3,-6l-1,-23l-7,-22l-2,-13l-3,-10l-1,-7l4,-2l-1,-5l7,0l14,5l7,4l12,3l2,3l13,1l19,11l4,0l10,7l4,0l14,-9l4,-4l21,-30l4,-4l22,-6l26,-2l5,-3l13,-1l2,-4l2,-37l0,-8l-1,-5l1,-3l1,-15l-3,-2l0,-3l4,-30l1,-2l3,1l4,13l5,6l1,-3l-4,-7l-3,-13l-3,-3l2,-5l13,-8l9,-2l4,2l11,-5l5,0l-6,-1l-8,4l-2,-1l2,-1l-5,0l-5,-3l-3,-8l0,-6l3,-7l4,-4l0,-1l-28,15l-49,16l-27,1l-13,-2l-47,-17l-18,-9l-17,-11l-2,-5l1,-2l-1,2l1,3l20,14l34,15l1,-34l-1,-2l-6,-2l-24,-2l-10,-6l-18,-2l-5,14l-22,-16l-24,-22l-26,-9l-7,0l-13,-4l-22,7l-15,9l-64,49l-9,5l-10,11l-14,8l-10,9l-10,5l-1,2l5,18l-29,23l1,10l0,4l8,28l8,22l0,-1l2,3l7,20l9,57l1,0l2,5l4,3l2,6l2,15l-2,16l8,52l4,4l3,-1l16,-5l8,-5l3,15l4,0l-1,1l20,38l2,6l12,19" fill="none" stroke="currentColor" stroke-width="8"/></svg>