<svg xmlns="http://www.w3.org/2000/svg" viewBox="0 0 500 500"><path d="M131,0l-23,40l42,20l-8,-3l-9,6l-30,-12l-35,69l-41,99l-20,31l-6,25l3,9l19,13l35,11l60,29l28,-3l25,26l30,13l23,19l44,18l28,0l119,57l23,4l48,26l14,1l-3,-5l-75,-27l-125,-59l-29,0l-42,-17l-33,-25l-19,-7l-29,-28l-16,3l-13,-3l-101,-44l-10,-9l0,-16l36,-80l-10,12l-25,59l-6,24l3,8l17,12l39,13l57,28l28,-3l27,26l27,12l26,21l41,16l29,1l156,74l43,16l7,-3l-202,-90l-31,0l-40,-16l-32,-24l-22,-9l-29,-28l-23,2l-49,-24l-49,-18l-17,-12l0,-19l20,-48l28,-50l32,-81l20,-28l41,16l-8,-6l0,-8l-28,-13l10,-19" fill="none" stroke="currentColor" stroke-width="8"/></svg>