<svg xmlns="http://www.w3.org/2000/svg" viewBox="0 0 500 500"><path d="M111,0l-12,15l-8,25l25,13l-7,6l-24,-9l-73,165l-9,25l1,16l18,14l48,18l31,23l19,-3l21,23l21,10l23,20l38,16l22,0l102,54l11,-1l55,27l0,-3l-54,-28l3,-40l5,-15l19,6l28,3l7,-5l11,-78l18,33l10,129l4,5l11,2l20,-4l5,38l-17,-5l-4,-31l-19,-3l-9,-134l-18,-34l-5,-77l-2,2l1,61l5,18l-4,4l-5,64l-4,5l-52,0l-15,29l4,18l-4,12l-107,-56l-23,1l-33,-14l-28,-24l-14,-5l-15,-13l-12,-15l-16,4l-25,-15l-64,-27l-11,-11l1,-18l-5,17l3,10l13,10l24,7l56,30l24,-3l21,24l21,10l33,25l29,11l22,1l101,51l14,3l25,15l28,8l-62,-26l-104,-55l-26,0l-33,-14l-26,-22l-18,-8l-24,-26l-17,3l-95,-47l-5,-6l0,-16l24,-43l3,-18l14,-32l-14,20l-30,78l-1,14l10,12l37,14l49,28l23,-4l22,24l28,14l16,16l37,16l24,0l93,48l19,6l5,7l51,21l-167,-85l-25,0l-35,-16l-27,-23l-27,-16l-12,-15l-18,2l8,-38l-5,-13l-26,-2l-8,31l-5,5l-43,-19l-18,-13l-1,-19l23,-45l5,-21l53,-122l36,15l-8,-13l-21,-11" fill="none" stroke="currentColor" stroke-width="2"/></svg>