<svg xmlns="http://www.w3.org/2000/svg" viewBox="0 0 500 500"><path d="M165,22l-19,-1l-16,23l34,20l-6,5l-36,-13l-91,179l-15,17l-14,32l0,18l21,16l51,15l64,28l34,-3l32,29l39,16l25,19l50,17l32,0l150,61l-19,-14l-63,-22l-65,-29l-35,1l-50,-18l-27,-20l-33,-14l-34,-29l-25,2l-116,-44l-24,-13l-4,-11l-5,7l2,7l19,14l44,13l73,29l-1,-5l-41,-21l-79,-27l-11,-9l-1,-17l56,-100l3,-9l-4,3l-33,71l-5,1l24,-38l50,-105l28,-45l49,18l-10,-6l-2,-10l-30,-16l27,-44l17,7l-5,6" fill="none" stroke="currentColor" stroke-width="2"/></svg>