<svg xmlns="http://www.w3.org/2000/svg" viewBox="0 0 500 500"><path d="M146,11l-23,11l-13,21l3,5l24,11l-1,7l-32,-11l-21,36l-30,76l-24,37l-22,46l-7,26l3,12l19,14l35,10l58,29l29,-3l24,23l2,9l37,12l29,19l32,13l26,0l123,57l15,-1l68,29l-79,-30l-122,-59l-32,0l-43,-18l-32,-24l-18,-7l-27,-27l-21,3l-43,-22l-70,-27l-8,-9l0,-16l32,-66l-7,6l-24,53l-5,30l23,16l38,12l54,27l29,-4l27,28l22,8l31,23l41,17l29,1l123,56l14,1l67,29l-67,-30l-9,0l-123,-59l-33,-1l-40,-16l-34,-26l-19,-7l-29,-28l-18,4l-13,-4l-47,-24l-42,-14l-19,-14l0,-20l27,-49l4,-15l57,-123l11,-18l24,11l9,-3l-1,-5l-23,-11l-3,-6l18,-38l4,-4l6,4" fill="none" stroke="currentColor" stroke-width="2"/></svg>