<svg xmlns="http://www.w3.org/2000/svg" viewBox="0 0 500 500"><path d="M149,0l-9,8l1,11l-14,26l29,13l3,11l-39,-11l-61,97l-34,82l-23,43l-2,23l26,16l48,14l62,28l35,-3l26,24l2,9l44,13l36,22l37,12l30,0l153,61l-149,-65l-36,0l-48,-17l-35,-24l-27,-10l-34,-29l-23,3l-79,-33l-43,-13l-19,-13l-1,-11l-5,6l0,9l22,15l46,13l68,31l35,-4l14,18l51,24l28,21l53,18l33,1l144,60l-8,-8l-138,-57l-35,0l-49,-17l-37,-27l-23,-8l-34,-28l-27,1l0,5l29,-2l28,27l28,10l36,25l51,18l33,0l152,62l-148,-65l-38,-1l-47,-16l-40,-28l-22,-7l-34,-30l-22,4l-15,-4l-61,-28l-50,-15l-16,-11l0,-24l104,-197l15,-14" fill="none" stroke="currentColor" stroke-width="8"/></svg>