<svg xmlns="http://www.w3.org/2000/svg" viewBox="0 0 500 500"><path d="M444,2l-71,63l117,24l-13,-2l-29,11l-95,-18l-86,81l-103,72l-140,141l-21,35l10,15l61,18l118,15l205,41l-8,-8l-102,-24l-235,-41l-32,-13l1,-25l-19,23l11,14l50,16l337,57l-121,-32l-221,-37l-37,-14l-3,-19l-18,16l17,15l50,14l113,15l208,45l5,-8l-98,-23l-225,-38l-48,-17l-3,-18l-17,21l36,16l163,26l175,38l22,-3l-157,-36l-176,-28l-42,-15l-6,-21l-16,21l42,20l162,25l175,38l19,-1l-166,-41l-179,-29l-33,-14l-2,-27l-18,26l35,20l363,64l-174,-42l-164,-26l-40,-15l-4,-19l-13,25l56,20l132,19l186,39l19,-2l-189,-43l-148,-24l-38,-15l-3,-18l-16,23l45,19l351,59l-156,-38l-176,-28l-46,-17l-2,-18l-19,15l13,15l59,17l327,55l-166,-40l-160,-25l-49,-17l-5,-15l-18,8l11,16l52,16l333,57l-173,-42l-159,-25l-48,-24l9,-24l83,-62l80,-90l170,-149l96,19l14,-8l-2,-8l-78,-14l-8,-8l73,-62l46,17l-76,10l19,-25" fill="none" stroke="currentColor" stroke-width="8"/></svg>