<svg xmlns="http://www.w3.org/2000/svg" viewBox="0 0 500 500"><path d="M128,0l-16,34l-1,11l37,17l-8,-3l-7,5l-28,-14l-7,2l-22,39l-71,161l0,28l25,16l63,23l28,19l24,-3l25,25l34,17l19,16l44,18l26,-1l120,57l21,2l65,31l-201,-93l-31,0l-41,-16l-30,-23l-21,-9l-29,-27l-22,3l-104,-44l-14,-11l-3,-10l-3,12l14,13l45,15l57,28l29,-3l26,26l28,12l25,21l44,16l26,0l121,58l17,1l63,28l3,-4l-77,-27l-123,-59l-31,0l-42,-16l-31,-25l-22,-9l-28,-26l-18,3l-13,-4l-45,-23l-41,-13l-19,-12l-5,-12l-2,12l13,13l49,17l53,26l29,-3l26,26l28,12l24,20l44,17l26,-1l110,52l96,34l-79,-29l-122,-58l-30,-1l-42,-16l-31,-24l-20,-7l-30,-29l-20,4l-15,-6l-17,-12l-74,-27l-13,-10l-2,-9l-4,8l6,10l111,49l28,-3l25,26l33,15l30,21l36,14l26,-1l123,58l14,0l67,27l-77,-29l-127,-59l-26,0l-43,-16l-23,-19l-26,-12l-32,-28l-20,2l-96,-40l-21,-12l-5,-12l-2,12l14,13l44,15l58,28l27,-4l27,27l31,14l23,19l41,16l31,2l120,55l17,3l66,26l-120,-49l-83,-40l-29,0l-41,-16l-32,-23l-20,-9l-29,-27l-22,2l-116,-52l-4,-7l2,-15l26,-60l23,-38l20,-51" fill="none" stroke="currentColor" stroke-width="8"/></svg>