<svg xmlns="http://www.w3.org/2000/svg" viewBox="0 0 500 500"><path d="M159,0l-30,50l59,21l-21,-6l-9,6l-27,-10l-13,2l-52,87l-55,110l-9,23l-1,20l16,11l50,16l72,31l33,-3l30,28l27,8l40,27l47,17l32,0l152,61l-148,-65l-37,0l-47,-17l-36,-25l-44,-21l-16,-17l-23,3l-14,-4l-61,-27l-50,-15l-17,-13l-3,-11l-4,8l3,10l17,12l50,14l68,31l33,-5l30,28l29,10l32,23l54,20l31,0l146,61l6,-1l-5,-4l-141,-60l-37,0l-50,-17l-27,-21l-50,-25l-18,-18l-20,4l-19,-5l-106,-41l-17,-12l-5,-10l-3,12l20,16l46,13l68,31l35,-4l32,29l35,13l26,20l54,19l32,0l150,62l-149,-67l-33,1l-50,-18l-36,-24l-24,-8l-35,-30l-21,3l-13,-3l-62,-28l-47,-13l-22,-15l-1,-20l32,-49l10,-29l16,-25l45,-92l12,-15" fill="none" stroke="currentColor" stroke-width="2"/></svg>