<svg xmlns="http://www.w3.org/2000/svg" viewBox="0 0 500 500"><path d="M127,0l-21,44l42,18l-9,-3l-7,5l-28,-14l-4,2l-97,211l3,20l19,13l85,33l8,11l25,-3l27,27l28,12l29,22l40,15l28,0l123,58l13,-1l32,18l35,11l-71,-32l-7,1l-126,-59l-28,1l-40,-16l-29,-23l-24,-10l-27,-27l-30,-1l-54,-27l-38,-12l-17,-12l-5,-11l0,16l14,11l43,14l56,28l30,-3l26,26l23,10l38,26l35,14l28,0l123,58l13,0l67,29l-200,-90l-31,0l-43,-17l-28,-22l-21,-9l-31,-29l-19,3l-12,-3l-52,-27l-40,-14l-16,-11l-1,-13l-3,17l22,16l35,11l59,28l25,-4l31,25l22,9l29,23l45,17l27,0l119,60l17,2l68,27l-79,-30l-123,-59l-31,0l-42,-17l-31,-25l-35,-19l-13,-15l-21,2l-102,-43l-17,-12l-1,-12l-5,9l2,8l15,12l39,13l60,29l29,-3l25,26l25,10l30,23l42,17l27,0l119,56l20,2l11,7l-12,-8l-91,-37l76,39l9,0l5,-4l3,-20l-4,-18l9,-14l0,-10l-45,0l-3,4l-1,15l4,10l35,14l-4,21l-124,-59l45,27l75,35l1,-3l-19,-12l-107,-49l-29,1l-41,-17l-30,-22l-21,-10l-30,-28l-20,4l-28,-17l-76,-28l-15,-11l-1,-19l20,-41l9,-9l6,-24l49,-107l14,-22l3,0" fill="none" stroke="currentColor" stroke-width="8"/></svg>