<svg xmlns="http://www.w3.org/2000/svg" viewBox="0 0 500 500"><path d="M130,0l-3,20l-13,25l8,4l-2,9l-3,4l-13,-2l-19,32l-26,64l-9,9l-47,97l-3,30l20,14l39,12l61,29l32,-2l27,27l28,11l29,21l46,17l28,0l135,59l-132,-62l-31,1l-44,-17l-33,-24l-23,-8l-30,-29l-21,3l-115,-47l-12,-10l-1,-16l17,-39l-19,39l-1,22l17,12l41,13l64,30l30,-4l28,28l25,9l42,28l35,12l30,0l118,54l70,25l-187,-82l-31,0l-44,-16l-34,-26l-19,-6l-33,-29l-17,3l-14,-3l-55,-27l-45,-14l-17,-13l0,-21l48,-90l39,-92l19,-22" fill="none" stroke="currentColor" stroke-width="8"/></svg>