<svg xmlns="http://www.w3.org/2000/svg" viewBox="0 0 500 500"><path d="M123,0l4,10l-20,36l42,20l-8,-4l-10,4l-27,-15l-8,4l-6,20l-24,39l-42,105l-18,30l-6,17l0,19l18,14l43,14l53,27l31,-3l26,26l31,15l23,19l42,15l31,2l113,52l25,6l64,28l-203,-90l-29,0l-40,-16l-34,-26l-20,-7l-27,-27l-20,3l-11,-4l-49,-24l-42,-14l-17,-12l-4,-11l-4,8l2,6l14,12l40,13l60,29l29,-3l25,25l30,14l26,21l42,16l29,0l124,57l-124,-61l-27,1l-38,-15l-39,-28l-19,-6l-28,-28l-19,4l-13,-4l-48,-24l-43,-15l-19,-15l1,-18l28,-48l5,-20l66,-140l40,18l-9,-13l-27,-12l15,-24l26,-12l-5,-7l-16,-2l-2,3" fill="none" stroke="currentColor" stroke-width="8"/></svg>