<svg xmlns="http://www.w3.org/2000/svg" viewBox="0 0 500 500"><path d="M128,0l-19,39l27,18l-6,5l-29,-11l-68,145l-5,20l-25,45l1,19l19,13l36,11l56,26l6,9l23,-4l29,28l30,14l26,21l39,14l26,-1l154,75l52,13l-78,-31l-126,-60l-28,1l-43,-16l-29,-24l-21,-8l-29,-28l-21,2l-11,-3l-46,-24l-40,-14l-22,-14l-2,-10l-4,12l16,14l43,15l56,28l29,-4l26,27l33,15l21,18l41,16l30,1l113,53l27,7l61,28l3,-3l-59,-26l-17,-3l-127,-60l-29,1l-43,-18l-30,-24l-19,-6l-30,-29l-19,3l-107,-45l-13,-10l-3,-15l-3,15l19,18l37,12l58,28l31,-2l26,26l32,15l24,19l40,15l28,1l123,57l15,2l30,13l8,-3l4,-76l-85,0l3,46l31,15l0,3l-126,-60l-33,2l30,1l124,58l47,8l5,-4l4,-27l0,-41l-86,0l5,46l29,13l0,4l-120,-57l33,13l9,11l57,27l62,21l6,-2l5,-32l-4,-44l-82,-1l3,46l31,14l1,4l-122,-58l123,58l-18,-13l-17,-3l-77,-40l-11,-2l121,58l-15,-13l-21,-4l-89,-43l-32,-1l-39,-15l-34,-26l-17,-6l-31,-29l-30,3l-68,-32l5,-1l56,24" fill="none" stroke="currentColor" stroke-width="8"/></svg>