<svg xmlns="http://www.w3.org/2000/svg" viewBox="0 0 500 500"><path d="M126,0l0,14l-18,32l35,18l-6,-2l-5,6l-30,-12l-31,57l-34,78l-10,12l-24,56l-3,20l2,6l16,13l40,13l58,28l28,-5l30,30l23,8l26,20l47,18l27,0l199,90l3,-1l-1,-3l-16,-8l-58,-23l-125,-59l-30,1l-42,-16l-67,-43l-14,-16l-27,0l-2,5l29,-2l25,26l32,14l21,18l44,17l27,0l125,57l23,4l34,20l23,7l-204,-92l-29,1l-43,-17l-28,-23l-36,-18l-14,-17l-31,-1l-53,-26l-47,-16l-10,-9l0,-19l72,-153l26,-45l7,0l6,-5l3,-8l-9,-7l14,-23" fill="none" stroke="currentColor" stroke-width="2"/></svg>