<svg xmlns="http://www.w3.org/2000/svg" viewBox="0 0 500 500"><path d="M155,0l-27,44l28,14l3,7l-29,-9l-13,3l-114,212l-3,30l25,17l44,12l68,30l33,-5l32,28l38,16l26,20l52,18l32,0l149,61l-146,-65l-40,-2l-38,-12l-35,-24l-33,-14l-37,-31l-18,4l-16,-3l-110,-43l-21,-13l-2,-12l-3,16l23,16l45,13l70,30l34,-3l29,27l30,12l36,26l51,17l30,-1l152,64l-23,-16l-125,-52l-34,1l-49,-17l-26,-19l-55,-28l-19,-19l-20,4l-15,-4l-111,-43l-20,-13l2,-21l114,-220l34,11l6,-2l-4,-7l-27,-13l25,-42" fill="none" stroke="currentColor" stroke-width="2"/></svg>