<svg xmlns="http://www.w3.org/2000/svg" viewBox="0 0 500 500"><path d="M230,487l-178,13l7,-18l274,-96l43,-32l-351,-154l214,-145l55,1l-64,26l18,19l78,11l91,-14l71,-73l-75,-21l-66,5l-112,78l70,22l101,-7l87,-68l-19,-19l-64,-12l-77,11l-107,76l114,15l96,-23l45,-63l-41,-14l-89,0l-123,85l116,18l69,-12l80,-64l-64,-29l-82,5l-115,78l89,21l103,-10l66,-68l-89,-27l-68,10l-105,76l98,23l89,-9l75,-72l-70,-28l-76,8l-116,78l114,21l80,-9l68,-73l-77,-24l-69,6l-116,81l109,21l92,-12l71,-72l-92,-27l-59,4l-71,42l-46,5l-182,141l-50,15l383,142l-50,33l-69,7l-157,46l-55,40" fill="none" stroke="currentColor" stroke-width="2"/></svg>