<svg xmlns="http://www.w3.org/2000/svg" viewBox="0 0 500 500"><path d="M154,0l-22,49l53,26l-17,-8l-12,5l-34,-12l-77,148l-15,15l-28,59l0,23l24,16l40,10l70,31l35,-4l31,29l38,15l26,19l53,18l32,0l148,60l-31,-17l-115,-48l-36,0l-48,-16l-41,-27l-20,-8l-37,-28l-23,3l-13,-4l-35,-18l-77,-26l-17,-11l-3,-9l-3,13l20,14l48,14l68,30l35,-3l31,28l28,10l40,26l50,18l32,-1l148,61l-146,-65l-37,0l-47,-17l-34,-22l-30,-13l-35,-28l-22,3l-19,-6l-38,-18l-67,-23l-20,-13l1,-19l32,-52l28,-71l17,-20l22,-48l17,-26l52,15l-12,-15l-30,-14l7,-14" fill="none" stroke="currentColor" stroke-width="8"/></svg>