<svg xmlns="http://www.w3.org/2000/svg" viewBox="0 0 500 500"><path d="M346,427l154,-326l-169,-101l-178,68l-153,337l158,95l183,-58l159,-305l-31,-87l-128,-50l-194,72l-147,330l158,98l194,-73l148,-326l-174,-101l-163,57l-163,341l132,98l209,-54l159,-341l-174,-101l-163,57l-163,341l163,102l194,-80l143,-315l-169,-105l-173,61l-158,333l158,106l183,-58l159,-341l-164,-101l-194,83l-142,322l158,95l194,-73l148,-333l-164,-94l-183,65l-153,337l158,98l199,-80l132,-348l-148,-72l-132,25" fill="none" stroke="currentColor" stroke-width="8"/></svg>