<svg xmlns="http://www.w3.org/2000/svg" viewBox="0 0 500 500"><path d="M270,158l-14,31l16,10l1,5l-20,-8l-31,66l-18,52l-13,26l1,10l7,6l41,17l10,-24l20,1l0,10l-8,25l-23,-13l-35,-14l-12,-9l-1,-12l17,-43l-11,-2l-10,-10l2,-39l-3,-6l-57,-7l-5,-1l-6,-10l-11,7l-34,35l-3,-2l-7,-43l0,-30l10,-7l2,-4l-10,-20l20,-12l-14,-25l-2,-9l-15,-1l-32,-36l54,-41l0,-6l-16,-25l4,9l-4,1l-7,-7l-16,3l-37,20l1,6l16,38l36,39l0,9l-8,6l2,11l12,24l33,50l20,18l10,-5l5,9l52,5l9,5l-1,41l6,6l14,7l-15,38l0,18l15,10l18,4l37,24l16,-2l17,18l16,7l16,14l28,12l18,1l116,58l10,1l-125,-61l-18,0l-26,-11l-21,-18l-12,-5l-18,-19l-12,3l-60,-27l-13,-8l-3,-8l-2,5l3,6l7,6l26,10l36,19l18,-3l16,18l17,8l17,14l26,11l17,1l95,49l27,12l6,-2l-1,-7l-11,-6l-4,-8l1,-42l-54,0l1,29l21,11l-1,1l-78,-40l-20,0l-26,-11l-19,-17l-12,-4l-17,-19l-14,2l-41,-22l-11,-3l3,3l45,23l4,-6l6,-19l0,-8l-3,-6l-21,-1l-5,21l-3,4l-23,-8l42,23l-1,-4l-18,-11l-37,-15l-10,-7l-1,-14l55,-126" fill="none" stroke="currentColor" stroke-width="8"/></svg>