<svg xmlns="http://www.w3.org/2000/svg" viewBox="0 0 500 500"><path d="M129,0l-20,41l28,19l-6,6l-29,-12l-36,67l-27,69l-35,69l2,22l19,14l72,26l22,17l26,-3l25,25l35,17l22,18l41,16l26,0l106,49l32,9l15,10l52,21l-29,-18l6,-30l-3,-24l3,-17l-5,-6l-81,-1l3,45l30,14l0,3l-127,-59l-27,1l-45,-18l-32,-24l-33,-18l-15,-17l-17,4l-12,-4l-96,-41l-17,-15l0,11l16,12l35,11l62,30l28,-4l27,27l27,11l30,22l41,16l27,0l123,57l18,2l29,17l5,-7l5,-31l-4,-21l5,-17l-4,-5l-82,-2l0,12l6,13l-4,19l32,16l-2,3l-124,-59l-30,0l-40,-16l-35,-26l-34,-18l-14,-16l-19,3l-61,-30l-47,-16l-14,-10l-1,-9l-3,6l4,9l13,10l47,16l52,28l28,-4l27,27l26,11l28,21l44,17l28,1l106,49l59,21l7,-1l6,-22l1,-49l-3,-4l-83,-2l2,44l33,17l8,10l56,24l11,1l-29,-18l4,-31l-2,-24l3,-17l-3,-4l-83,-1l7,21l-4,24l30,16l-125,-58l-30,0l-43,-17l-31,-24l-18,-7l-31,-28l-20,4l-68,-32l-29,-9l-22,-14l-2,-10l-4,10l21,19l41,13l53,26l30,-4l26,28l28,11l25,20l43,16l28,1l127,57l-124,-60l-31,0l-37,-14l-34,-25l-22,-9l-29,-28l-19,4l-12,-4l-56,-30l-35,-9l-18,-14l-1,-18l94,-200l7,-6l26,12l5,-3l0,-7l-25,-14l10,-21l14,-4" fill="none" stroke="currentColor" stroke-width="8"/></svg>