<svg xmlns="http://www.w3.org/2000/svg" viewBox="0 0 500 500"><path d="M142,0l-22,44l23,13l3,8l-6,2l-27,-12l-3,2l-43,77l-9,27l-27,44l-30,67l-1,21l17,13l42,13l67,31l31,-4l29,29l28,11l30,22l45,17l31,0l140,61l-12,-9l-127,-56l-31,1l-46,-18l-36,-26l-19,-6l-30,-27l-22,2l-113,-45l-18,-12l-2,-12l-3,15l17,14l47,14l61,29l31,-3l29,27l36,16l22,18l48,17l28,0l162,72l18,3l-32,-19l-11,0l-136,-60l-30,1l-41,-15l-40,-28l-22,-8l-31,-28l-20,3l-12,-3l-59,-27l-44,-15l-17,-11l1,-23l59,-116l27,-65l21,-29l27,10" fill="none" stroke="currentColor" stroke-width="2"/></svg>