<svg xmlns="http://www.w3.org/2000/svg" viewBox="0 0 500 500"><path d="M11,0l-11,83l18,32l51,32l70,65l32,-9l32,60l29,22l35,49l49,36l34,1l149,126l-150,-134l-33,-1l-49,-33l-39,-56l-26,-21l-31,-56l-23,6l-15,-8l-116,-97l-11,-15l-2,-20l-3,29l17,25l54,34l66,60l33,-7l30,56l36,30l31,46l49,35l33,2l150,125l-151,-133l-34,0l-49,-36l-31,-47l-47,-48l-19,-39l-26,6l1,10l27,-7l30,56l37,31l28,45l50,34l35,2l143,127l5,2l-2,-9l-144,-124l-37,-3l-49,-36l-40,-56l-24,-18l-33,-59l-21,8l-13,-7l-41,-40l-67,-47l-23,-31l1,-38" fill="none" stroke="currentColor" stroke-width="8"/></svg>