<svg xmlns="http://www.w3.org/2000/svg" viewBox="0 0 500 500"><path d="M129,0l-7,9l-1,15l-8,9l-2,13l18,10l7,8l-4,3l-28,-13l-18,27l-34,84l-24,35l-25,58l-3,21l2,6l19,14l40,12l54,27l30,-3l26,27l24,8l30,23l38,15l33,2l122,56l14,0l25,18l36,16l5,-1l0,-5l-28,-14l6,-76l-86,0l3,45l31,13l1,4l-127,-60l-30,0l-40,-15l-36,-26l-16,-6l-29,-27l-20,2l-13,-4l-99,-43l-10,-9l-1,-8l-4,10l18,17l43,14l55,27l29,-4l27,26l23,10l32,24l41,16l27,0l120,57l20,1l19,14l46,17l-7,-6l-194,-86l-31,-1l-41,-16l-67,-43l-16,-16l-18,3l-12,-4l-41,-21l-53,-20l-14,-10l-1,-20l49,-96l29,-78l23,-29l31,14l1,-11l-26,-17l10,-20" fill="none" stroke="currentColor" stroke-width="8"/></svg>