<svg xmlns="http://www.w3.org/2000/svg" viewBox="0 0 500 500"><path d="M131,5l-7,15l-1,-20l-6,10l1,30l43,19l-10,-4l-8,9l-34,-10l-25,38l-57,116l-27,66l0,19l22,16l38,10l65,31l32,-3l27,26l38,17l23,18l47,17l30,1l160,73l18,1l-177,-78l-33,-1l-45,-16l-36,-27l-19,-7l-33,-29l-19,4l-12,-3l-120,-54l-3,6l15,11l44,13l64,30l31,-3l29,28l34,15l25,19l46,17l32,1l136,60l-136,-64l-32,0l-46,-17l-34,-26l-24,-9l-29,-28l-21,3l-12,-3l-61,-28l-34,-11l-25,-15l0,-22l97,-197l11,-18l23,10" fill="none" stroke="currentColor" stroke-width="8"/></svg>