<svg xmlns="http://www.w3.org/2000/svg" viewBox="0 0 500 500"><path d="M132,0l-21,42l47,23l-16,-8l-9,8l-30,-12l-21,35l-57,138l-18,30l-1,24l20,13l30,7l27,14l38,23l25,-3l26,27l24,9l32,24l40,16l26,0l155,72l44,18l7,-2l-15,-10l-113,-46l-73,-35l-31,0l-41,-16l-32,-26l-22,-8l-28,-26l-16,3l-14,-3l-56,-28l-39,-14l-17,-15l-3,4l3,7l18,13l36,11l59,29l29,-4l27,27l24,9l29,23l44,17l27,0l150,71l15,2l-14,-9l-149,-67l-30,0l-42,-16l-33,-26l-17,-5l-30,-29l-17,3l-12,-3l-57,-27l-38,-13l-14,-10l-4,-11l-4,6l4,10l13,10l36,12l63,30l29,-3l12,15l46,25l15,18l50,17l28,1l126,59l5,-6l-33,-16l-2,-13l7,-2l34,9l8,-38l-51,1l4,44l33,17l-121,-54l115,53l9,-1l7,-56l-3,-5l-38,0l-6,3l4,44l31,16l-126,-58l-30,-1l-41,-16l-25,-19l-29,-13l-27,-27l-31,-1l-61,-30l-33,-10l-15,-11l-1,-19l28,-54l21,-55l11,-15l22,-57l10,-13" fill="none" stroke="currentColor" stroke-width="8"/></svg>