<svg xmlns="http://www.w3.org/2000/svg" viewBox="0 0 500 500"><path d="M160,0l-23,1l-14,30l24,17l1,8l-34,-12l-30,45l-39,93l-17,25l-21,48l-7,24l2,9l19,15l46,14l59,28l34,-3l29,28l31,14l26,21l46,17l29,0l129,58l21,3l14,11l15,6l-29,-19l-13,-1l-134,-61l-33,0l-45,-18l-31,-23l-25,-9l-32,-31l-20,3l-14,-4l-32,-17l-70,-27l-18,-15l-2,9l21,16l40,12l63,30l32,-3l28,27l29,12l29,23l49,18l30,0l137,62l-133,-64l-37,-2l-45,-18l-35,-26l-19,-6l-33,-30l-20,3l-13,-3l-43,-22l-57,-21l-17,-11l0,-25l70,-139l1,-15l16,-30l20,-30l29,12l5,-3l2,-6l-29,-18" fill="none" stroke="currentColor" stroke-width="8"/></svg>