<svg xmlns="http://www.w3.org/2000/svg" viewBox="0 0 500 500"><path d="M131,0l-22,43l34,17l-11,6l-29,-13l-16,26l-78,168l-5,18l1,16l24,15l29,7l62,35l25,-2l26,26l23,9l32,23l41,16l29,2l150,71l51,17l-199,-93l-30,1l-45,-18l-30,-24l-18,-6l-30,-28l-29,0l-50,-25l-42,-15l-19,-13l-1,-12l-4,10l2,8l19,14l36,11l59,29l29,-3l26,26l22,8l37,26l38,15l28,1l123,56l14,2l36,17l30,9l-113,-45l-90,-44l-30,0l-41,-16l-31,-24l-23,-11l-25,-24l-20,3l-10,-4l-92,-39l-18,-13l-1,-12l-4,16l13,12l45,15l56,28l30,-3l27,27l25,10l28,22l41,17l28,-1l158,75l48,10l-129,-52l-73,-35l-32,-1l-41,-16l-31,-25l-19,-6l-28,-28l-21,3l-11,-4l-61,-32l-27,-6l-20,-12l-2,-11l-4,10l6,10l64,24l45,24l29,-3l27,27l31,15l24,20l42,15l27,-1l124,58l-10,-9l-112,-52l-30,0l-40,-16l-34,-26l-18,-7l-31,-28l-18,4l-16,-5l-91,-40l-13,-10l-3,-9l0,12l13,11l47,17l54,25l7,-6l9,-35l-5,-16l-31,0l-10,31l-8,4l-62,-25l-12,-9l-2,-10l0,13l14,11l98,42l-2,-5l-48,-24" fill="none" stroke="currentColor" stroke-width="8"/></svg>