<svg xmlns="http://www.w3.org/2000/svg" viewBox="0 0 500 500"><path d="M144,15l-16,6l-13,22l29,17l-2,7l-33,-12l-10,15l-39,74l-37,86l-20,31l-2,27l25,16l32,7l68,38l29,-3l29,27l34,15l32,23l41,13l28,0l137,58l-136,-63l-32,0l-45,-16l-36,-26l-22,-8l-32,-28l-20,4l-125,-51l-8,-3l1,6l18,11l37,10l65,30l33,-3l29,29l33,13l24,18l47,18l32,0l136,59l-18,-12l-117,-50l-9,2l145,61l9,-4l5,-16l-3,-12l7,-28l-2,-6l-47,-2l-4,4l2,42l36,19l-138,-60l-18,2l18,2l132,58l6,-5l-35,-19l2,-12l17,4l22,13l-8,18l-136,-62l-31,1l-47,-17l-37,-26l-19,-6l-32,-29l-22,3l-74,-32l-14,-5l-7,3l86,38l30,-4l27,26l36,16l26,19l45,17l35,2l160,72l12,3l5,-4l-178,-76l-34,0l-48,-18l-31,-23l-24,-9l-29,-28l-24,3l-129,-55l-2,4l16,11l43,12l62,32l33,-4l28,27l34,15l25,18l49,18l27,0l140,60l-20,-14l-117,-50l-32,1l-45,-17l-34,-25l-40,-20l-15,-16l-21,3l-88,-37l3,6l71,31l-19,-15l-46,-21l-28,-6l-26,-16l1,-21l97,-192l12,-17l27,13l8,-6l-1,-5l-29,-15l20,-39l8,-5" fill="none" stroke="currentColor" stroke-width="8"/></svg>