<svg xmlns="http://www.w3.org/2000/svg" viewBox="0 0 500 500"><path d="M136,0l-18,45l51,22l-15,-8l-11,7l-33,-12l-72,144l-11,32l-24,37l-3,25l18,14l42,12l65,30l30,-4l32,29l26,10l29,22l49,17l29,0l179,78l1,-6l-14,-6l-162,-69l-34,1l-46,-18l-34,-25l-21,-8l-32,-28l-21,3l-114,-45l-20,-17l-2,10l18,13l46,15l61,27l33,-2l28,27l36,15l23,18l45,17l32,1l138,60l-135,-64l-33,1l-45,-17l-37,-27l-22,-8l-31,-28l-20,4l-13,-4l-61,-28l-40,-13l-19,-13l2,-22l50,-93l43,-98l14,-19l29,11l7,-4l0,-4l-29,-15l26,-42" fill="none" stroke="currentColor" stroke-width="8"/></svg>