<svg xmlns="http://www.w3.org/2000/svg" viewBox="0 0 500 500"><path d="M133,7l12,8l-22,6l-13,23l46,22l-16,-7l-7,8l-30,-12l-14,27l-22,59l-57,103l-10,34l1,8l21,15l34,11l60,29l30,-3l26,26l31,14l22,19l42,16l28,0l124,58l12,0l69,29l-202,-91l-30,0l-37,-13l-37,-26l-21,-8l-28,-28l-18,4l-64,-30l-39,-14l-17,-10l-4,-12l-1,15l22,15l38,12l55,27l27,-4l28,27l31,14l21,18l45,18l30,1l125,60l-4,-8l-13,-7l-108,-50l-31,0l-41,-16l-34,-25l-18,-8l-28,-27l-28,1l-59,-29l-37,-12l-16,-12l1,-25l97,-201l32,13l0,-11l-26,-16l13,-20l21,-8l3,-5l-12,-9l-13,13" fill="none" stroke="currentColor" stroke-width="8"/></svg>