<svg xmlns="http://www.w3.org/2000/svg" viewBox="0 0 500 500"><path d="M125,2l-15,39l21,10l2,9l-28,-10l-8,10l-29,55l-16,46l-36,61l-15,38l-1,21l18,13l41,14l57,28l31,-3l26,26l26,12l26,20l44,18l29,0l161,73l-159,-76l-31,0l-44,-18l-28,-22l-20,-7l-31,-29l-17,3l-12,-3l-32,-18l-63,-24l-19,-17l-3,3l2,8l17,13l39,12l58,29l28,-4l28,27l26,12l27,21l44,17l27,0l122,56l17,1l25,16l-24,-15l-69,-28l-68,-33l-30,0l-39,-16l-36,-26l-21,-8l-26,-26l-19,3l-12,-3l-33,-19l-62,-23l-18,-16l-3,3l1,6l20,15l41,13l55,27l28,-3l26,26l32,14l24,19l41,16l29,1l150,72l52,19l1,-5l-11,-5l-120,-50l-69,-34l-31,0l-42,-16l-28,-22l-25,-11l-27,-27l-27,1l-113,-52l-3,5l20,13l36,11l57,28l29,-3l26,27l30,12l23,20l44,16l29,1l153,74l10,0l-2,-5l-160,-73l-31,1l-43,-18l-28,-22l-24,-9l-27,-28l-17,4l-11,-3l-56,-27l-42,-15l-17,-16l0,11l18,13l38,12l57,28l30,-3l25,26l34,16l20,17l46,17l26,0l127,58l-126,-62l-30,1l-39,-16l-35,-25l-20,-7l-28,-28l-20,3l-10,-3l-93,-40l-18,-13l1,-24l26,-55l24,-41l8,-32l23,-47l18,-27l28,11l4,-3l1,-6l-27,-15l18,-38" fill="none" stroke="currentColor" stroke-width="8"/></svg>