<svg xmlns="http://www.w3.org/2000/svg" viewBox="0 0 500 500"><path d="M132,0l-16,39l0,5l7,4l-2,8l-6,4l-12,-5l-16,27l-83,178l-4,30l17,14l43,12l63,30l30,-3l29,26l28,12l30,22l45,17l29,0l133,59l1,-3l-20,-10l-112,-50l-32,1l-44,-18l-34,-24l-23,-9l-30,-27l-16,4l-14,-4l-107,-45l-11,-9l-3,-9l-2,14l17,13l47,15l59,27l31,-3l29,29l27,10l30,22l45,17l30,0l160,74l23,6l2,-3l-10,-6l-38,-12l-135,-62l-32,0l-43,-16l-34,-24l-25,-11l-30,-27l-17,4l-12,-3l-36,-19l-62,-22l-21,-13l-1,-20l48,-92l39,-90l22,-30l28,12l5,-2l0,-6l-29,-18l24,-40" fill="none" stroke="currentColor" stroke-width="8"/></svg>