<svg xmlns="http://www.w3.org/2000/svg" viewBox="0 0 500 500"><path d="M51,82l71,80l29,-8l28,61l26,23l29,52l46,40l28,0l108,114l67,56l7,-4l5,-55l3,-107l-6,-20l-85,1l5,105l31,35l-1,9l-132,-142l-29,2l-47,-41l-31,-56l-23,-23l-28,-59l-22,7l-110,-107l-13,-21l-4,-24l-3,14l2,19l18,30l37,27l63,69l32,-5l25,57l29,29l30,52l43,38l31,2l126,132l49,34l6,-6l5,-51l4,-107l-5,-15l-87,-5l1,35l13,32l-6,43l27,30l3,8l-4,2l-130,-139l-32,-2l-41,-35l-33,-59l-23,-19l-29,-64l-22,5l-79,-83l-24,-13l-20,-29l-6,-26l-3,21l3,15l21,31l36,24l63,69l29,-9l27,62l27,26l28,49l47,43l28,-1l42,46l0,-8l-39,-45l-11,-2" fill="none" stroke="currentColor" stroke-width="8"/></svg>