<svg xmlns="http://www.w3.org/2000/svg" viewBox="0 0 500 500"><path d="M165,0l-20,6l-15,25l29,17l1,8l-40,-10l-53,92l-40,97l-25,36l-2,25l20,15l45,13l71,33l36,-4l31,29l34,14l32,23l47,17l34,0l147,63l2,-3l-17,-8l-130,-56l-35,0l-51,-18l-32,-24l-29,-11l-33,-30l-24,4l-77,-34l-48,-15l-18,-12l-1,-9l-4,12l18,15l53,16l66,31l34,-5l32,30l38,16l22,19l54,19l33,0l147,64l-13,-11l-133,-57l-35,0l-49,-18l-37,-26l-23,-8l-35,-31l-22,4l-14,-4l-43,-21l-64,-21l-22,-13l-1,8l22,12l42,12l68,31l33,-4l33,30l36,14l26,20l51,19l36,0l147,63l-16,-11l-131,-55l-35,0l-50,-19l-34,-23l-27,-11l-35,-30l-33,0l-42,-20l-78,-29l-12,-9l0,-22l59,-112l31,-72l26,-40l52,17l-14,-6l1,-10l-31,-15l13,-20" fill="none" stroke="currentColor" stroke-width="8"/></svg>