<svg xmlns="http://www.w3.org/2000/svg" viewBox="0 0 500 500"><path d="M145,2l-13,6l-13,25l46,23l-14,-6l-10,6l-30,-15l-53,93l-13,43l-15,21l-25,57l-5,30l20,15l37,11l66,32l32,-3l28,29l25,9l34,25l45,17l29,0l184,80l-27,-17l-21,-5l-132,-61l-34,0l-44,-17l-21,-17l-37,-18l-28,-28l-18,3l-13,-3l-54,-27l-40,-13l-21,-11l-6,-14l-4,4l1,9l19,16l35,10l70,33l30,-4l28,28l36,16l23,19l46,17l30,0l171,79l8,-2l-9,-6l-76,-30l-93,-44l-31,0l-47,-18l-32,-24l-23,-9l-31,-29l-18,3l-12,-3l-60,-29l-36,-12l-23,-15l0,-22l95,-200l11,-15l35,13l0,-11l-28,-15l12,-22l-1,-9" fill="none" stroke="currentColor" stroke-width="8"/></svg>