<svg xmlns="http://www.w3.org/2000/svg" viewBox="0 0 500 500"><path d="M500,130l-109,-120l-227,40l-164,305l77,126l247,-21l176,-312l-83,-130l-247,29l-170,315l77,119l242,-18l181,-326l-119,-130l-201,32l-180,316l103,134l211,-22l186,-326l-109,-131l-221,37l-170,308l108,137l227,-40l165,-311l-83,-123l-242,25l-175,319l97,127l227,-29l176,-323l-98,-123l-243,43l-159,308l118,131l217,-44l165,-315l-109,-127l-227,40l-164,308l97,131l243,-44l160,-301l-98,-130l-227,29l-175,319l87,123l258,-43l155,-305l-93,-123l-206,11l-201,333l46,105l258,11l175,-286l-36,-156l-242,-4l-196,392l211,80l149,-91l135,-312l-191,-97l-165,76l-144,333l139,91l211,-66l150,-340l-171,-94l-185,76l-144,329l144,95l211,-73l145,-279l-140,-145l-206,58l-154,326" fill="none" stroke="currentColor" stroke-width="8"/></svg>