<svg xmlns="http://www.w3.org/2000/svg" viewBox="0 0 500 500"><path d="M0,29l19,42l7,-4l6,27l1,11l10,18l6,18l10,19l8,1l43,92l5,4l7,17l1,-6l-8,-18l2,-87l1,-8l5,6l4,-10l0,-71l2,-27l5,42l2,127l2,27l0,29l2,11l36,-24l29,26l8,2l30,25l39,18l8,0l17,-12l52,-2l15,-14l54,2l31,50l41,140l-43,-146l-29,-43l-55,-3l-9,5l-4,10l-52,0l-15,8l-18,1l-50,-33l-19,-5l-27,-28l-12,1l-22,17l-7,-10l-2,-176l-7,-45l-1,3l-2,93l-9,9l-2,88l-1,4l-46,-93l-8,0l-11,-19l-10,-32l-5,-9l-8,-34l-5,3l-4,-7l-6,-20l2,-39l-4,38l-6,-12" fill="none" stroke="currentColor" stroke-width="8"/></svg>