<svg xmlns="http://www.w3.org/2000/svg" viewBox="0 0 500 500"><path d="M214,500l-77,-100l-57,-114l1,-5l69,-44l17,60l-1,8l-58,38l-28,-59l-10,13l-70,48l23,73l42,-30l35,-41l-25,-56l5,-7l-21,-42l-8,-23l164,-97l-6,67l4,15l-5,13l4,16l10,16l8,28l31,72l22,37l-67,17l2,-17l-11,-32l-10,-52l-45,-71l46,-33l7,4l5,10l-24,88l41,-11l16,-10l66,-13l-6,1l3,15l-1,-16l28,-3l25,-68l1,-31l-21,-22l-44,-30l17,18l44,28l7,-9l-8,-36l18,-7l38,2l2,-30l-1,-4l-73,-21l-7,-36l-7,-17l15,69l62,215l49,-25l50,-7l-24,-2l-25,6l-49,28l-9,-24l-8,-10l-21,-70l-1,13l-14,24l1,59l9,38l-7,18l-8,47l1,6l7,0l-5,22l8,7l8,-6l7,-29l-4,-12l-11,1l-4,19l-6,-2l-15,58" fill="none" stroke="currentColor" stroke-width="8"/></svg>