<svg xmlns="http://www.w3.org/2000/svg" viewBox="0 0 500 500"><path d="M157,0l-27,9l-10,22l30,20l-9,6l-29,-12l-24,38l-24,64l-33,67l-21,29l-8,24l-1,22l17,12l43,13l64,30l30,-4l30,29l27,11l29,22l46,17l30,1l137,59l-133,-62l-32,0l-46,-17l-22,-18l-35,-16l-29,-29l-24,3l-66,-31l-42,-14l-19,-13l-2,-12l-4,14l14,13l54,19l57,28l30,-4l29,29l31,13l26,21l48,17l29,1l182,79l-34,-19l-144,-63l-35,-1l-46,-18l-19,-16l-35,-19l-31,-28l-19,5l-9,-3l-37,-20l-67,-24l-18,-14l1,-21l52,-100l43,-96l14,-19l23,10l9,-4l-28,-18l4,-11" fill="none" stroke="currentColor" stroke-width="8"/></svg>