<svg xmlns="http://www.w3.org/2000/svg" viewBox="0 0 500 500"><path d="M139,0l-22,42l29,15l-5,7l-32,-13l-108,216l-1,22l23,15l41,12l59,28l31,-3l28,28l33,14l24,19l50,17l26,0l162,76l23,5l-25,-16l-155,-67l-37,-2l-40,-15l-72,-45l-16,-17l-19,4l-15,-5l-34,-18l-67,-24l-14,-11l-2,-9l-4,6l2,10l19,12l40,12l63,30l30,-3l29,28l33,14l24,18l48,18l29,1l133,59l-23,-15l-109,-48l-33,0l-45,-18l-33,-25l-19,-6l-34,-30l-16,3l-16,-3l-58,-28l-33,-10l-24,-15l-1,-22l50,-98l24,-61l27,-50l7,-1l27,12l5,-6l-28,-18l13,-24" fill="none" stroke="currentColor" stroke-width="8"/></svg>