<svg xmlns="http://www.w3.org/2000/svg" viewBox="0 0 500 500"><path d="M65,95l74,77l34,-8l30,66l39,37l26,45l49,41l32,1l147,143l2,-6l-21,-25l-124,-122l-35,1l-53,-45l-29,-50l-29,-27l-34,-69l-22,8l-14,-9l-35,-41l-81,-68l-13,-22l-3,-22l-4,30l21,36l48,33l69,73l35,-9l13,40l58,67l19,38l53,44l34,2l147,145l-23,-33l-121,-121l-37,-1l-45,-36l-43,-66l-22,-17l-33,-70l-24,6l-13,-8l-59,-63l-54,-41l-17,-28l-2,-21l-5,12l2,21l17,31l49,34l69,73l37,-7l30,65l41,41l19,38l54,46l31,-1l147,145l-12,-23l-133,-131l-33,2l-51,-43l-38,-62l-23,-18l-33,-68l-23,6l-13,-8l-75,-80l-38,-24l-16,-25l-3,-22l-5,12l1,18l20,34l47,33l70,73l33,-10l32,68l28,25l35,56l51,43l32,-1l150,140l-147,-148l-35,0l-49,-40l-38,-64l-25,-19l-31,-67l-23,6l-15,-9l-41,-47l-75,-62l-12,-21l-3,-22l-3,30l19,36l49,35l70,71l32,-10l30,68l35,31l31,52l48,41l36,2l147,140l-146,-149l-34,0l-51,-42l-38,-64l-25,-20l-29,-63l-38,-3l-64,-67l-43,-32l-20,-27l-6,-29l-4,11l2,23l22,37l42,21l71,79l35,-8l30,67l39,37l24,44l53,44l32,0l144,144l5,-5l-11,-13l-135,-135l-37,0l-48,-41l-41,-64l-21,-18l-33,-68l-32,2l-74,-80l-40,-24l-20,-31l-3,-21l-4,10l1,22l18,32l53,33l65,74l35,-9l29,66l34,32l32,53l47,38l36,2l147,146l-14,-26l-131,-128l-36,-1l-49,-41l-38,-62l-21,-15l-35,-72l-23,6l-17,-11l-71,-76l-42,-29l-12,-21l-4,-23l-4,12l2,21l21,35l43,29l72,74l33,-11l32,69l38,37l22,41l54,47l33,-1l145,144l2,-7l-26,-32l-119,-113l-36,-1l-49,-40l-37,-62l-25,-23l-32,-64l-24,7l-14,-11l-37,-44l-76,-62l-14,-21l-4,-24l-4,25l24,40l45,29l67,69l2,-7l-70,-80l-47,-33l-14,-24l-3,-20l-4,17l8,24l40,42" fill="none" stroke="currentColor" stroke-width="8"/></svg>