<svg xmlns="http://www.w3.org/2000/svg" viewBox="0 0 500 500"><path d="M57,90l64,70l31,-4l26,57l24,20l32,53l43,38l30,1l152,157l20,18l8,-4l13,-169l-4,-13l-90,-3l0,25l8,41l-2,39l30,28l-1,8l-129,-135l-32,1l-42,-35l-36,-59l-37,-44l-13,-36l-20,7l-12,-9l-100,-96l-15,-22l-2,-20l-3,12l1,20l17,29l43,30l59,65l31,-7l26,59l33,33l22,39l47,41l27,0l172,172l13,-20l5,-152l-4,-14l-86,-1l3,102l33,33l-1,8l-132,-137l-30,0l-42,-35l-32,-52l-24,-19l-30,-65l-20,6l-74,-79l-9,3l2,15l71,68l30,-7l27,62l27,24l33,55l41,33l31,2l167,168l9,-3l4,-18l5,-100l-2,-50l-7,-17l-79,3l1,103l33,32l3,7l-3,4l-130,-138l-32,-1l-43,-37l-26,-46l-29,-26l-28,-62l-21,7l-12,-10l-42,-48l-59,-48l-13,-22l-2,-20l-4,11l2,21l14,25l47,35l55,60l33,-6l26,59l29,28l29,49l44,38l31,0l162,170l13,-1l6,-14l5,-51l-2,-117l-87,-2l3,101l32,34l0,9l-131,-137l-32,0l-43,-37l-33,-55l-22,-18l-30,-63l-19,7l-16,-12l-57,-65l-42,-30l-11,-22l-1,-22l-5,15l2,21l15,27l44,30l58,65l32,-7l27,59l34,34l24,44l45,37l30,2l164,168l5,-6l-17,-30l-25,-13l-126,-126l-32,-2l-44,-38l-32,-52l-23,-21l-29,-61l-30,-1l-59,-68" fill="none" stroke="currentColor" stroke-width="8"/></svg>