<svg xmlns="http://www.w3.org/2000/svg" viewBox="0 0 500 500"><path d="M143,0l-26,41l28,15l2,5l-5,4l-27,-13l-5,2l-53,100l-33,80l-22,36l-2,21l18,13l42,13l64,30l32,-4l28,28l27,10l36,25l42,15l29,0l169,77l12,-1l-24,-16l-17,-3l-137,-60l-33,0l-45,-16l-32,-25l-22,-8l-33,-29l-20,4l-108,-43l-22,-14l-4,-11l-2,15l17,13l49,16l57,27l33,-3l29,28l33,14l30,21l42,15l31,1l162,74l11,3l6,-4l-23,-16l-20,-2l-136,-60l-30,1l-45,-16l-34,-24l-24,-9l-30,-30l-22,3l-12,-3l-31,-17l-67,-23l-22,-15l1,-19l98,-200l8,-12l31,12l5,-2l1,-8l-29,-14l11,-19l14,-6" fill="none" stroke="currentColor" stroke-width="8"/></svg>