<svg xmlns="http://www.w3.org/2000/svg" viewBox="0 0 500 500"><path d="M124,0l-12,37l45,21l-18,-6l-5,8l-31,-11l-99,208l-4,19l10,13l16,9l30,7l61,30l28,-4l27,28l23,9l32,24l41,16l29,1l148,72l55,19l-202,-94l-30,0l-39,-15l-33,-24l-24,-10l-25,-27l-20,3l-99,-43l-21,-14l-4,-10l-1,14l20,15l30,8l65,33l28,-4l28,28l32,15l18,16l44,18l30,1l126,59l-13,-11l-112,-52l-29,1l-43,-17l-29,-23l-23,-9l-26,-28l-28,1l-59,-30l-42,-15l-13,-11l2,-23l47,-93l25,-67l20,-40l7,-6l29,11l1,-9l-25,-13l11,-20l13,-6" fill="none" stroke="currentColor" stroke-width="8"/></svg>