<svg xmlns="http://www.w3.org/2000/svg" viewBox="0 0 500 500"><path d="M55,70l-37,-25l-11,-20l-3,-24l-3,32l19,34l44,30l73,75l35,-8l30,64l34,31l28,48l54,45l33,1l141,140l7,-2l-15,-17l-133,-130l-35,0l-50,-42l-35,-57l-25,-18l-33,-71l-24,8l-114,-102l-26,-33l-5,-29l-4,29l17,35l56,41l64,67l34,-9l31,66l29,25l34,55l52,42l33,1l139,137l9,2l-17,-22l-130,-127l-35,2l-53,-45l-33,-56l-27,-19l-30,-68l-24,7l-14,-10l-65,-69l-48,-36l-16,-27l-2,-19l-4,26l19,38l48,33l71,72l34,-8l32,70l31,26l31,51l51,42l33,0l113,114l35,23l-145,-144l-36,0l-50,-42l-36,-59l-26,-20l-33,-70l-24,9l-119,-108l-23,-33l-1,-22l-5,13l2,22l20,34l53,37l62,64l34,-8l31,66l31,28l36,57l49,39l34,2l147,139l-145,-148l-36,0l-50,-41l-39,-63l-24,-19l-32,-66l-23,7l-16,-12l-114,-106l-12,-20l-4,-23l-4,14l2,19l22,35l49,35l65,67l35,-8l28,64l38,36l26,46l52,43l33,-1l149,148l-13,-25l-133,-130l-36,0l-46,-38l-42,-66l-20,-14l-36,-73l-35,1l-66,-68l-46,-33l-18,-27l-3,-25l-5,7l1,23l19,35l47,33l72,72l33,-8l31,68l31,25l31,53l54,44l32,0l144,141l5,-2l-10,-12l-136,-134l-37,-2l-46,-38l-30,-49l-35,-32l-34,-70l-24,6l-80,-82" fill="none" stroke="currentColor" stroke-width="8"/></svg>