<svg xmlns="http://www.w3.org/2000/svg" viewBox="0 0 500 500"><path d="M143,0l-10,11l-12,32l28,14l-2,4l-4,3l-27,-12l-6,2l-60,123l-22,32l-27,65l-1,18l19,15l37,10l68,31l33,-3l30,28l24,8l39,27l43,15l28,0l166,77l13,-1l-5,-8l-39,-11l-134,-61l-31,1l-44,-16l-36,-26l-23,-8l-29,-28l-21,2l-12,-3l-63,-29l-34,-10l-23,-15l-2,-10l-4,6l2,10l24,15l38,11l62,29l30,-4l30,28l24,9l32,24l48,18l31,1l139,61l-18,-13l-120,-52l-32,0l-41,-15l-36,-25l-24,-9l-31,-30l-18,4l-12,-3l-62,-29l-41,-14l-19,-12l0,-19l80,-158l2,-14l26,-43l30,12l4,-3l1,-7l-28,-14l9,-18" fill="none" stroke="currentColor" stroke-width="8"/></svg>