<svg xmlns="http://www.w3.org/2000/svg" viewBox="0 0 500 500"><path d="M142,0l-22,39l38,18l-8,-3l-6,8l-33,-12l-44,74l-42,108l-20,35l-4,23l19,15l45,14l61,29l32,-4l29,30l31,12l28,21l46,17l30,0l156,73l22,3l-20,-15l-24,-4l-132,-60l-32,0l-46,-16l-35,-26l-24,-9l-29,-28l-22,3l-64,-29l-40,-13l-24,-13l-4,-12l-4,5l3,10l17,12l41,13l65,30l31,-3l30,28l34,15l27,21l43,15l32,1l134,58l-134,-62l-32,0l-44,-16l-33,-23l-27,-12l-31,-28l-21,3l-71,-32l-38,-12l-20,-13l0,-24l49,-91l38,-92l21,-30l29,12l6,-6l0,-4l-26,-11l-3,-5l3,-6" fill="none" stroke="currentColor" stroke-width="8"/></svg>