<svg xmlns="http://www.w3.org/2000/svg" viewBox="0 0 500 500"><path d="M52,70l-36,-30l-13,-40l-2,30l18,35l48,34l69,72l36,-7l32,69l27,20l40,63l48,39l30,-2l147,145l3,-4l-17,-21l-130,-129l-34,3l-52,-43l-35,-59l-24,-20l-33,-68l-25,6l-78,-80l-41,-27l-22,-31l-4,-25l-4,14l2,20l25,40l38,23l74,75l34,-8l30,66l30,25l33,56l52,43l32,0l148,146l-19,-31l-125,-122l-37,-1l-46,-38l-40,-64l-25,-21l-34,-69l-22,9l-86,-88l-32,-17l-22,-29l-6,-29l-4,29l19,37l46,31l74,75l32,-9l32,67l30,26l35,57l51,42l31,-1l144,142l5,4l-1,-8l-16,-20l-129,-126l-36,0l-51,-42l-35,-60l-26,-21l-32,-67l-24,7l-80,-81l-38,-24l-21,-28l-6,-30l-4,15l2,19l21,36l48,32l68,70l32,-9l31,67l33,28l33,55l49,41l33,0l144,142l5,4l-1,-9l-145,-145l-36,0l-49,-41l-37,-60l-25,-22l-32,-66l-26,6l-82,-86l-33,-18l-23,-29l-6,-30l-4,29l19,37l51,36l68,70l34,-9l30,66l32,29l36,57l47,39l37,4l139,137l7,5l-4,-10l-146,-146l-32,3l-51,-42l-38,-63l-23,-19l-33,-68l-24,8l-84,-85l-30,-17l-25,-32l-6,-29l-3,30l18,35l48,34l72,73l34,-7l29,65l30,25l36,58l51,42l33,0l145,144l-9,-19l-134,-133l-37,-1l-45,-37l-39,-62l-27,-23l-34,-69l-23,8l-15,-12l-64,-68l-49,-37l-14,-22l-3,-22l-3,31l20,35l43,28l74,76l33,-9l32,68l32,28l34,55l50,41l31,-1l145,143l4,-4l-18,-21l-129,-127l-35,1l-48,-39l-36,-59l-28,-26l-33,-67l-22,8l-80,-81l-38,-24l-23,-31l-5,-26l-3,30l20,36l38,25l81,81l31,-10l32,67l30,26l35,57l50,41l34,2l141,140l7,-1l-14,-17l-133,-132l-36,0l-51,-42l-30,-52l-29,-29l-35,-68l-24,8l-82,-84l-34,-21l-23,-30l-5,-28l-4,27l18,36l42,29l73,74l5,-7l-5,-10l-64,-66" fill="none" stroke="currentColor" stroke-width="8"/></svg>