<svg xmlns="http://www.w3.org/2000/svg" viewBox="0 0 500 500"><path d="M170,10l-27,7l-13,26l48,21l-14,-4l-7,8l-32,-14l-5,2l-106,196l-13,31l0,18l23,16l37,10l76,33l33,-3l31,28l28,10l37,25l51,18l30,0l153,62l-150,-65l-31,1l-52,-19l-33,-23l-30,-10l-31,-30l-24,3l-15,-4l-65,-29l-48,-16l-15,-11l-3,-10l-3,13l13,12l55,18l68,30l35,-3l33,30l34,12l25,20l55,20l32,0l150,61l-13,-10l-135,-55l-35,0l-45,-16l-43,-27l-24,-8l-33,-31l-25,4l-75,-33l-51,-16l-15,-11l5,-30l29,-44l25,-50l7,-25l24,-32l27,-62l50,19l-9,-6l-2,-11l-31,-15l24,-41" fill="none" stroke="currentColor" stroke-width="8"/></svg>