<svg xmlns="http://www.w3.org/2000/svg" viewBox="0 0 500 500"><path d="M152,0l-22,44l54,23l-18,-7l-9,9l-34,-12l-41,65l-54,113l-11,13l-14,32l-2,22l18,15l52,15l67,30l33,-4l31,28l40,16l22,18l54,19l33,0l148,61l-13,-10l-133,-54l-36,0l-51,-19l-34,-24l-27,-9l-31,-28l-24,2l-78,-33l-38,-11l-22,-12l-8,-14l-4,7l1,8l24,16l49,14l63,28l35,-4l30,28l30,12l34,24l51,18l33,0l150,60l-146,-63l-38,-1l-50,-18l-33,-23l-28,-10l-34,-30l-22,4l-12,-4l-115,-46l-16,-11l2,-23l115,-217l32,13l7,-5l1,-6l-31,-16l14,-36" fill="none" stroke="currentColor" stroke-width="8"/></svg>