<svg xmlns="http://www.w3.org/2000/svg" viewBox="0 0 500 500"><path d="M2,36l25,36l46,28l63,69l36,-6l31,66l37,35l27,47l51,42l36,3l144,144l2,-7l-13,-16l-134,-130l-36,0l-48,-41l-37,-60l-29,-23l-29,-65l-37,-3l-65,-69l-41,-28l-25,-33l-3,-25l-3,28l20,37l52,36l65,69l34,-8l31,66l38,37l26,45l55,43l31,2l145,143l-14,-25l-128,-125l-37,-1l-51,-42l-28,-48l-36,-37l-32,-67l-21,10l-16,-11l-59,-63l-53,-39l-16,-25l-4,-25l-2,32l21,34l46,31l71,74l34,-9l31,68l28,24l34,56l49,40l37,3l144,144l5,2l-2,-8l-148,-147l-35,1l-28,-23l-69,-85" fill="none" stroke="currentColor" stroke-width="8"/></svg>