<svg xmlns="http://www.w3.org/2000/svg" viewBox="0 0 500 500"><path d="M98,185l-89,240l221,75l118,-82l147,-333l-187,-85l-166,107l-138,300l98,89l143,0l98,-67l152,-348l-118,-78l-162,22l-191,289l39,163l236,-3l201,-330l-69,-122l-226,7l-196,311l69,145l211,-8l211,-337l-64,-115l-250,19l-186,330l112,122l221,-52l167,-300l-30,-96l-103,-45l-191,52l-176,326l132,119l191,-49l177,-307l-99,-133l-210,29l-187,315l103,141l206,-34l187,-325l-54,-104l-147,-33l-113,44l-182,311l64,126l196,7" fill="none" stroke="currentColor" stroke-width="8"/></svg>