<svg xmlns="http://www.w3.org/2000/svg" viewBox="0 0 500 500"><path d="M151,0l-22,42l40,19l-6,-1l-7,8l-35,-12l-87,158l-31,68l-3,18l24,17l43,13l69,29l37,-2l26,24l2,10l45,14l20,14l50,19l32,0l152,62l-20,-14l-45,-15l-82,-36l-37,0l-50,-19l-36,-25l-24,-8l-34,-29l-24,3l-12,-4l-40,-20l-73,-26l-16,-11l-3,-8l-4,5l2,9l19,14l49,14l66,29l36,-2l30,28l30,11l34,24l50,18l34,0l149,61l-25,-14l-121,-50l-37,0l-47,-17l-42,-29l-18,-5l-37,-31l-23,4l-14,-4l-64,-29l-36,-11l-30,-18l1,-18l24,-46l11,-12l81,-162l33,12l7,-4l-1,-7l-31,-15l16,-23" fill="none" stroke="currentColor" stroke-width="8"/></svg>