<svg xmlns="http://www.w3.org/2000/svg" viewBox="0 0 500 500"><path d="M270,423l-15,40l-30,37l-97,-44l-128,-97l59,-44l54,-6l49,-23l88,-62l96,-25l86,-6l16,-50l21,-7l31,-44l-45,-22l1,-42l-11,-27l-115,-1l-34,61l-9,50l13,13l-11,22l31,15l22,-9l21,-54l-8,-14l-24,-6l-16,7l-23,60l36,15l20,-15l16,-48l-22,-19l-23,5l-29,61l30,17l25,-13l17,-53l-24,-18l-22,9l-26,59l30,16l21,-9l21,-56l-23,-19l-21,7l-28,60l35,21l18,-15l18,-58l-21,-16l-18,4l-29,67l30,12l20,-13l16,-49l-24,-19l-16,6l-26,62l28,16l22,-12l16,-55l-22,-15l-20,8l-28,58l23,14l27,-7l21,-56l-18,-17l-22,6l-31,60l25,14l29,-13l17,-50l-7,-12l-19,-5l-15,6l-30,60l32,14l24,-14l15,-50l-20,-17l-19,6l-35,61l27,13l26,-9l21,-54l-23,-16l-18,6l-27,61l26,14l25,-14l17,-50l-21,-18l-20,6l-26,60l23,14l27,-13l17,-50l-23,-18l-22,14l-22,55l28,13l22,-13l17,-52l-19,-17l-22,7l-29,62l7,9l25,5l21,-15l17,-53l-12,-12l-17,-2l-13,7l-31,62l13,11l24,1l21,-13l16,-47l-5,-13l-17,-9l-20,8l-31,59l31,15l26,-18l15,-50l-30,-14l-14,11l-28,58l18,13l20,2l20,-15l15,-56l-30,-13l-15,10l-24,64l34,8l22,-21l13,-44l-13,-14l-18,-3l-12,7l-25,60l29,16l27,-21l14,-47l-29,-15l-15,8l-28,62l24,12l26,-10l21,-54l-21,-19l-23,10l-22,60l22,13l24,-12l20,-54l-24,-16l-19,8l-24,60l20,16l27,-10l20,-57l-24,-17l-18,7l-26,61l21,15l28,-10l19,-56l-24,-17l-19,7l-22,62l25,13l23,-14l17,-51l-25,-17l-18,7l-24,61l21,13l28,-12l18,-51l-8,-13l-21,-6l-14,10l-20,62l25,11l24,-19l15,-46l-8,-13l-22,-4l-15,10l-19,60l27,12l22,-18l14,-49l-11,-13l-20,-2l-11,7l-23,65l18,10l21,-4l24,-47l-4,-26l-35,-1l-11,28l-23,6l-38,101l-16,13l76,79l22,38l-15,21l-17,4l-40,32l-23,36" fill="none" stroke="currentColor" stroke-width="8"/></svg>