<svg xmlns="http://www.w3.org/2000/svg" viewBox="0 0 500 500"><path d="M114,0l-13,39l45,21l-15,-8l-11,8l-26,-10l-35,67l-23,63l-36,76l0,22l21,16l29,9l55,28l28,-1l24,26l23,10l29,22l37,16l26,0l114,57l-34,-23l-77,-36l-31,-1l-38,-16l-25,-23l-35,-20l-13,-16l-18,3l-14,-5l-26,-17l-60,-25l-10,-10l-2,-7l-3,4l1,9l18,15l33,10l55,29l25,-3l25,27l27,12l22,20l39,16l27,0l114,57l-112,-59l-29,0l-38,-16l-29,-24l-18,-7l-27,-29l-17,4l-90,-41l-19,-13l-4,-11l-1,13l14,14l38,13l54,29l25,-4l24,25l21,10l30,24l39,16l26,0l113,57l-113,-60l-28,0l-38,-16l-23,-20l-24,-12l-26,-27l-18,3l-12,-5l-48,-25l-40,-16l-11,-11l-1,-7l-4,4l2,8l16,15l36,11l53,29l26,-4l24,26l25,11l23,21l41,17l25,0l115,58l-114,-61l-26,1l-39,-17l-26,-23l-22,-9l-27,-28l-14,4l-10,-3l-52,-28l-30,-10l-19,-12l-3,-11l-3,11l16,15l37,13l53,28l25,-4l25,27l24,10l26,23l40,16l25,0l191,96l4,-45l33,-4l-36,-1l4,-17l-2,-34l-104,-1l-4,13l1,30l29,15l-2,3l-113,-58l-27,0l-39,-17l-26,-22l-22,-10l-27,-27l-21,3l-103,-52l-4,-7l2,-15l44,-93l40,-106" fill="none" stroke="currentColor" stroke-width="8"/></svg>