<svg xmlns="http://www.w3.org/2000/svg" viewBox="0 0 500 500"><path d="M146,0l-15,42l43,17l-12,-3l-6,9l-35,-9l-8,18l-16,18l-79,155l-15,33l-1,19l24,19l38,11l69,32l35,-4l34,28l24,7l38,26l50,17l35,2l149,61l-145,-64l-39,-1l-49,-17l-37,-26l-23,-9l-34,-28l-34,0l-117,-48l-13,-10l-4,-9l-3,13l20,15l49,15l67,30l36,-3l29,28l37,15l26,20l52,18l32,1l152,62l-148,-65l-37,-1l-49,-17l-35,-25l-25,-10l-36,-29l-26,3l-54,-25l-56,-18l-29,-18l0,-22l70,-131l22,-56l15,-15l8,-17l32,14l8,-5l-1,-7l-30,-15l11,-18l2,-17" fill="none" stroke="currentColor" stroke-width="8"/></svg>