<svg xmlns="http://www.w3.org/2000/svg" viewBox="0 0 500 500"><path d="M132,0l-3,4l5,18l-11,20l29,16l-9,9l-33,-11l-105,211l0,21l22,15l44,11l65,30l23,-1l26,29l36,15l23,19l39,14l38,0l110,54l57,25l12,1l-7,-12l-21,-8l-15,0l-133,-60l-33,-1l-45,-16l-36,-25l-21,-8l-32,-29l-21,4l-13,-4l-104,-44l-12,-8l-4,-11l-3,12l17,14l41,12l68,32l30,-3l30,27l36,17l21,17l42,15l35,2l132,58l6,1l-4,-4l-25,-11l-2,3l16,8l13,1l-134,-59l-33,-1l-43,-16l-34,-24l-23,-9l-31,-28l-21,3l-17,-5l-54,-27l-50,-18l-10,-7l-2,-9l-4,9l16,16l50,16l56,27l35,-2l29,28l33,13l24,19l48,17l35,1l154,66l-156,-68l-34,-2l-44,-16l-35,-24l-22,-8l-31,-29l-21,3l-16,-5l-42,-21l-64,-24l-9,-8l-2,-8l-4,3l2,10l15,12l49,16l60,29l30,-5l29,28l29,11l30,22l47,18l29,0l136,59l-134,-62l-34,-1l-43,-16l-29,-22l-28,-10l-30,-29l-21,3l-17,-5l-105,-44l-10,-9l-2,-8l-2,13l20,15l44,13l59,28l32,-4l31,29l27,10l29,23l47,17l29,0l137,60l-11,-9l-19,-6l18,10l10,4l1,-3l-134,-60l-30,1l-45,-16l-35,-25l-23,-9l-31,-29l-22,3l-64,-29l-46,-15l-19,-12l-2,-10l-2,15l19,13l34,10l71,32l32,-3l27,26l29,12l30,23l47,17l30,0l135,59l-25,-16l-4,0l1,4l27,13l1,-4l-134,-60l-31,0l-46,-16l-31,-23l-26,-11l-32,-29l-17,5l-15,-5l-106,-44l-11,-8l-3,-10l-4,6l1,7l18,14l38,12l69,30l31,-3l27,27l36,16l21,17l48,18l31,1l138,59l-15,-10l-119,-52l-34,0l-43,-17l-34,-24l-23,-8l-32,-30l-22,3l-14,-5l-35,-18l-67,-25l-12,-8l-3,-10l-5,7l3,8l22,15l36,9l66,30l31,-3l26,27l33,13l26,20l47,18l29,0l138,58l-133,-60l-33,0l-43,-16l-36,-27l-23,-8l-31,-28l-20,4l-14,-5l-57,-28l-36,-10l-25,-16l0,-19l64,-125l21,-51l16,-27l8,-9l33,10l-1,-8l-27,-16l16,-30" fill="none" stroke="currentColor" stroke-width="8"/></svg>