<svg xmlns="http://www.w3.org/2000/svg" viewBox="0 0 500 500"><path d="M131,0l-9,22l50,21l-16,-6l-10,9l-33,-12l-31,53l-77,167l1,24l42,26l79,36l32,-3l25,24l1,9l43,16l17,13l49,20l29,0l177,81l-26,-18l-147,-66l-32,0l-45,-17l-34,-25l-26,-10l-30,-30l-22,4l-74,-35l-33,-10l-20,-10l-8,-16l-3,5l1,10l16,13l46,15l63,30l33,-3l28,28l39,19l20,17l49,18l30,1l166,74l-9,-10l-16,-3l-138,-64l-34,-1l-46,-18l-34,-25l-24,-10l-30,-29l-29,1l-61,-29l-43,-15l-21,-15l1,-22l58,-111l16,-48l33,-61l46,18l-11,-7l2,-10l-28,-13l10,-21" fill="none" stroke="currentColor" stroke-width="8"/></svg>