<svg xmlns="http://www.w3.org/2000/svg" viewBox="0 0 500 500"><path d="M138,0l-17,42l54,19l-16,-10l-8,13l-35,-11l-61,107l-30,74l-21,35l-4,16l2,7l27,16l36,11l65,30l33,-3l30,29l26,8l35,26l47,17l33,0l146,64l-17,-11l-129,-56l-38,-1l-42,-16l-35,-25l-25,-9l-29,-28l-23,2l-12,-3l-60,-28l-35,-11l-28,-16l-1,-10l-4,13l17,14l39,12l72,33l34,-3l28,27l38,16l22,19l49,17l32,0l139,62l0,-4l-137,-60l-35,-1l-46,-17l-30,-22l-28,-11l-31,-29l-23,3l-110,-43l-22,-13l-5,-11l-3,10l18,16l42,13l69,31l33,-3l29,28l26,9l35,25l47,17l33,1l166,73l-48,-26l-118,-51l-35,0l-48,-18l-22,-18l-35,-16l-30,-27l-22,3l-19,-7l-104,-42l-12,-9l-3,-10l-4,6l2,7l16,13l46,14l69,31l32,-3l29,28l31,12l28,22l48,17l32,1l149,63l-147,-67l-35,0l-45,-17l-35,-25l-26,-10l-30,-28l-26,3l-63,-29l-46,-15l-21,-13l-3,-12l-4,7l1,8l22,16l43,13l66,29l29,-4l29,27l33,14l28,21l50,18l29,0l151,64l-146,-66l-36,-1l-45,-17l-34,-24l-28,-11l-31,-29l-24,4l-130,-57l-1,6l13,9l107,44l5,-3l-35,-20l-86,-34l-5,-10l6,-22" fill="none" stroke="currentColor" stroke-width="8"/></svg>