<svg xmlns="http://www.w3.org/2000/svg" viewBox="0 0 500 500"><path d="M131,0l-19,42l34,17l-6,-1l-6,8l-26,-10l-6,3l-98,200l-3,23l23,17l38,11l56,28l29,-3l25,26l35,14l21,18l43,16l28,1l154,72l4,-1l-1,-3l-34,-17l-118,-53l-34,-1l-42,-17l-29,-22l-22,-9l-29,-28l-20,4l-99,-41l-21,-13l-4,-12l-3,13l16,13l40,13l59,28l14,2l16,-4l28,27l26,10l27,21l44,17l27,0l163,74l-43,-24l-115,-52l-30,0l-42,-16l-23,-18l-32,-14l-29,-28l-20,3l-70,-32l-29,-9l-19,-11l-5,-13l-4,6l2,9l15,12l36,10l62,30l32,-2l26,26l25,10l30,23l42,16l31,1l155,73l6,0l-158,-76l-33,-1l-42,-15l-32,-24l-22,-9l-28,-27l-20,3l-98,-41l-19,-11l-6,-12l-4,4l1,9l19,14l36,11l58,27l14,3l18,-5l27,27l24,9l33,25l42,16l30,0l141,67l57,23l-196,-92l-33,-1l-41,-16l-22,-18l-33,-16l-28,-26l-19,3l-103,-43l-19,-13l-1,-11l-4,15l20,16l32,9l61,28l33,-1l27,27l27,11l27,21l44,17l31,1l139,66l33,8l-173,-78l-30,0l-42,-17l-29,-22l-24,-9l-29,-28l-21,3l-109,-47l-12,-8l-1,-13l-5,10l2,8l16,12l50,17l45,22l16,3l18,-4l13,16l40,21l27,22l45,17l29,0l156,74l18,2l-172,-79l-31,0l-44,-17l-30,-23l-22,-9l-28,-27l-22,3l-107,-46l-13,-10l-2,-13l-4,10l2,9l22,14l35,10l54,27l16,3l19,-3l27,26l23,9l35,25l40,15l27,0l129,57l-125,-60l-31,0l-45,-17l-30,-24l-22,-7l-29,-28l-21,3l-97,-41l-23,-15l0,-18l93,-201l8,-5l31,11l1,-9l-24,-11l1,-10" fill="none" stroke="currentColor" stroke-width="8"/></svg>