<svg xmlns="http://www.w3.org/2000/svg" viewBox="0 0 500 500"><path d="M135,0l-17,42l29,14l1,5l-6,6l-31,-11l-99,184l-11,32l-1,20l22,15l41,12l60,29l35,-2l29,29l23,7l41,27l42,15l30,0l162,75l15,-1l-16,-9l-26,-5l-135,-61l-32,-2l-35,-13l-65,-37l-32,-28l-25,1l-104,-42l-21,-12l-6,-12l-3,7l3,9l21,13l36,10l65,31l33,-2l28,27l34,14l25,20l45,17l28,-1l168,76l12,1l-12,-10l-38,-11l-126,-58l-32,0l-45,-17l-21,-17l-37,-17l-30,-28l-28,2l-62,-29l-38,-12l-21,-14l-1,-24l91,-193l11,-14l28,9" fill="none" stroke="currentColor" stroke-width="8"/></svg>