<svg xmlns="http://www.w3.org/2000/svg" viewBox="0 0 500 500"><path d="M146,0l1,10l-18,35l50,20l-14,-6l-11,9l-33,-13l-41,68l-51,110l-16,20l-13,29l0,19l20,15l48,14l68,30l34,-3l31,28l38,16l26,19l51,18l32,0l152,62l-147,-64l-38,-2l-49,-17l-36,-25l-26,-9l-33,-30l-25,4l-111,-43l-25,-13l-7,-13l-3,13l16,13l51,16l66,30l36,-3l34,30l39,15l26,19l50,17l31,0l151,61l-150,-65l-35,1l-47,-17l-28,-20l-35,-14l-33,-30l-24,4l-13,-5l-65,-29l-37,-10l-28,-18l2,-23l54,-100l45,-96l19,-20l27,11l9,-7l-31,-16l12,-20" fill="none" stroke="currentColor" stroke-width="8"/></svg>