<svg xmlns="http://www.w3.org/2000/svg" viewBox="0 0 500 500"><path d="M57,311l-52,127l-5,-65l33,-77l7,-23l69,-189l23,-50l10,-16l17,-16l16,-2l13,15l12,-2l17,56l21,49l11,17l24,11l11,23l28,8l3,11l-1,122l20,28l10,8l40,5l52,-59l18,-34l0,-53l1,-22l11,22l4,-7l2,-16l9,25l14,0l5,-5l-19,2l-2,-3l-3,-17l-2,0l-4,35l-7,18l1,7l-5,15l-2,27l1,30l2,18l4,9l6,-2l0,5l-8,1l-8,10l-19,42l-4,19l-8,17l-20,34l-49,31l-26,-3l-9,-13l-7,15l-3,-11l-1,-16l-1,-5l-25,-35l-8,1l-3,-23l-15,-59l-9,-25" fill="none" stroke="currentColor" stroke-width="8"/></svg>