<svg xmlns="http://www.w3.org/2000/svg" viewBox="0 0 500 500"><path d="M170,461l-89,39l-47,0l15,-17l148,-72l71,-9l116,-49l-357,-155l216,-151l36,6l-43,31l34,19l84,10l73,-16l68,-81l-82,-16l-82,6l-113,77l59,22l134,-4l89,-70l-44,-26l-125,3l-116,78l146,23l82,-31l43,-51l-16,-18l-127,-7l-105,73l-2,14l70,17l103,-3l72,-58l-11,-37l-125,-3l-111,71l61,27l116,-1l79,-71l-38,-27l-125,4l-96,70l73,27l109,-4l80,-76l-53,-23l-97,0l-98,79l41,21l111,0l93,-72l-16,-23l-136,-4l-54,41l-80,8l-195,149l365,145l-27,27l-168,38l-179,83l97,2l89,-41" fill="none" stroke="currentColor" stroke-width="8"/></svg>