<svg xmlns="http://www.w3.org/2000/svg" viewBox="0 0 500 500"><path d="M137,500l230,-54l133,-322l-138,-121l-204,50l-158,299l132,107l220,-57l148,-282l-103,-110l-229,33l-163,292l127,124l214,-50l154,-289l-133,-117l-214,54l-148,275l25,80l123,51l183,-44l164,-295l-128,-121l-214,50l-153,279l20,77l128,54l193,-54l133,-352l-133,-57l-153,26l-188,302l102,125l214,-24l179,-309l-128,-117l-209,43l-158,286l91,117l240,-33l164,-299l-108,-107l-224,33l-163,289l91,117l225,-20l179,-309l-82,-104l-255,30l-158,282l76,118l255,-30l164,-296l-82,-104l-240,20l-173,292l91,121l240,-33l164,-292l-92,-111l-245,33l-158,292" fill="none" stroke="currentColor" stroke-width="8"/></svg>