<svg xmlns="http://www.w3.org/2000/svg" viewBox="0 0 500 500"><path d="M302,0l1,30l13,3l1,8l-1,14l0,39l-1,46l0,66l0,58l-1,9l0,10l0,9l0,11l0,19l-1,4l-7,-2l-1,4l23,5l83,40l14,4l24,15l29,-6l22,-16l-3,-1l-22,15l-19,4l-8,-1l-107,-52l-1,-1l-1,-16l0,-52l-1,-3l-1,15l2,36l0,90l0,53l2,43l1,-3l0,-5l-1,-61l9,-15l4,-4l7,5l5,7l8,4l13,14l4,2l3,-2l3,7l15,7l16,11l49,5l21,-3l-2,-2l-19,3l-47,-5l-32,-19l-2,1l-2,-3l-6,-4l-18,-18l-1,1l-4,-7l-11,-6l-4,3l-11,17l-5,3l-5,1l-15,-12l-8,-1l-16,4l5,-5l-1,4l2,19l1,40l-3,8l-11,-6l-10,-16l-2,-8l-1,-15l-1,-3l-4,4l-14,36l-4,7l-3,2l-8,-1l-3,-4l-4,2l-19,-5l-17,1l-10,-3l-12,-11l-16,-46l-5,-12l-9,-17l-26,-40l-13,-12l-6,-2l-13,1l-10,8l-40,67l-23,31l-1,6l2,22l-1,9l-2,-9l-6,-45l-2,-24l0,-2l1,1l0,16l1,4l7,-6l12,-16l6,-11l47,-73l16,-18l13,-4l6,0l10,6l4,-2l4,4l8,15l7,10l13,14l8,4l6,0l6,8l15,2l17,14l2,9l2,6l-1,28l7,4l18,0l20,-13l15,-12l7,-10l0,-15l1,-7l7,8l2,-2l1,-7l4,7l9,1" fill="none" stroke="currentColor" stroke-width="8"/></svg>