<svg xmlns="http://www.w3.org/2000/svg" viewBox="0 0 500 500"><path d="M31,0l-2,8l-3,20l6,9l0,3l-1,3l-6,-9l-1,1l-10,62l-14,70l0,10l0,5l4,8l11,10l12,15l7,-1l6,16l7,8l6,13l10,11l7,0l47,58l2,-3l1,-22l9,-2l1,4l1,26l2,4l4,1l5,-5l20,-8l26,13l9,1l38,17l17,5l16,-6l51,-2l13,-7l49,3l25,23l34,71l3,4l4,10l5,3l20,39l13,11l15,0l-15,-1l-14,-11l-20,-38l-5,-5l-2,-10l-10,-16l-6,-15l-23,-44l-15,-16l-10,-6l-48,-3l-10,8l-46,1l-21,5l-14,-2l-28,-10l-10,-7l-16,-2l-21,-13l-34,10l-1,-2l-1,-28l-1,-3l-9,2l-1,6l-1,19l-1,1l-47,-60l-7,0l-10,-11l-7,-14l-5,-6l-7,-17l-4,2l-3,-3l-13,-16l-8,-7l-5,-10l0,-13l23,-130l7,8l1,-3l-1,-4l-5,-6l1,-8" fill="none" stroke="currentColor" stroke-width="8"/></svg>