<svg xmlns="http://www.w3.org/2000/svg" viewBox="0 0 500 500"><path d="M160,465l-74,32l-56,3l153,-81l151,-27l54,-30l-368,-160l196,-153l39,7l-30,33l21,16l86,8l84,-14l72,-76l-56,-21l-91,3l-97,93l114,18l95,-30l42,-64l-114,-22l-56,11l-86,82l98,22l95,-16l56,-72l-88,-27l-75,11l-102,81l116,23l93,-15l56,-77l-84,-23l-79,11l-98,81l79,21l105,-7l79,-80l-86,-26l-74,8l-114,82l123,22l88,-17l68,-72l-35,-18l-88,-5l-49,12l-96,78l119,22l79,-14l72,-70l-70,-26l-95,6l-105,82l121,22l75,-14l74,-75l-81,-21l-79,8l-107,79l104,20l77,-10l77,-76l-91,-23l-72,10l-105,82l117,20l88,-14l68,-71l-77,-24l-89,10l-109,80l128,19l79,-15l63,-74l-86,-23l-84,11l-102,80l102,22l91,-8l91,-74l-66,-26l-97,6l-114,75l60,23l79,4l58,-10l80,-80l-84,-21l-82,9l-116,84l121,18l79,-15l72,-70l-28,-20l-83,-6l-59,13l-93,80l117,18l76,-17l68,-67l-72,-27l-89,9l-104,81l132,19l77,-22l49,-74l-75,-14l-65,4l-116,88l105,17l90,-14l68,-72l-84,-22l-88,13l-86,80l97,17l98,-18l65,-71l-84,-22l-88,13l-102,79l104,19l107,-18l73,-72l-61,-18l-95,4l-70,39l-58,9l-216,146l288,107l72,55l-51,23l-109,17l-168,71" fill="none" stroke="currentColor" stroke-width="8"/></svg>