<svg xmlns="http://www.w3.org/2000/svg" viewBox="0 0 500 500"><path d="M138,0l-20,39l31,19l-6,6l-28,-13l-5,4l-35,59l-74,159l-1,16l19,15l47,14l58,27l33,-2l29,28l31,12l30,22l44,16l29,1l139,59l-18,-12l-117,-51l-33,0l-46,-17l-33,-24l-24,-10l-29,-27l-24,3l-66,-31l-42,-13l-19,-12l-3,-13l-4,16l22,14l42,14l63,28l30,-3l31,29l30,12l27,21l46,17l30,0l178,78l-61,-32l-114,-50l-34,0l-44,-16l-28,-21l-31,-12l-28,-29l-20,4l-12,-3l-40,-20l-65,-25l-17,-11l1,-18l49,-95l40,-93l19,-26l28,12l5,-1l0,-10l-26,-14l10,-18" fill="none" stroke="currentColor" stroke-width="8"/></svg>