<svg xmlns="http://www.w3.org/2000/svg" viewBox="0 0 500 500"><path d="M156,0l-29,46l44,19l-8,-2l-7,9l-32,-14l-6,5l-78,143l-11,30l-26,43l-3,22l26,18l46,13l65,29l34,-4l31,29l39,15l26,19l49,17l34,1l150,61l-148,-63l-37,-1l-45,-16l-26,-19l-38,-16l-34,-30l-23,3l-114,-43l-26,-13l-4,-13l-5,6l2,10l24,16l44,11l67,30l34,-4l31,28l31,12l31,22l53,19l32,0l149,62l-19,-12l-129,-53l-33,0l-50,-18l-33,-23l-30,-11l-31,-29l-27,3l-68,-30l-53,-17l-18,-13l0,-19l53,-95l57,-118l8,-7l36,12l2,-8l-32,-17l11,-18" fill="none" stroke="currentColor" stroke-width="8"/></svg>