<svg xmlns="http://www.w3.org/2000/svg" viewBox="0 0 500 500"><path d="M136,0l-8,6l-13,38l28,15l0,5l-4,4l-32,-11l-9,20l-30,43l-18,51l-48,94l-2,22l20,16l43,14l57,27l31,-2l27,25l26,9l32,24l46,17l30,1l188,82l-61,-32l-126,-54l-32,1l-42,-16l-35,-25l-23,-7l-27,-28l-22,3l-14,-5l-45,-22l-57,-20l-13,-10l-2,-9l-1,15l17,12l45,14l60,28l30,-3l27,26l21,8l2,6l18,6l16,13l49,17l28,0l134,58l-14,-10l-119,-51l-32,0l-40,-15l-39,-27l-21,-8l-30,-27l-20,3l-15,-4l-113,-52l2,-24l86,-176l18,-28l24,10" fill="none" stroke="currentColor" stroke-width="8"/></svg>