<svg xmlns="http://www.w3.org/2000/svg" viewBox="0 0 500 500"><path d="M394,426l-9,17l11,5l1,3l-15,-4l-21,33l-9,19l-9,-1l-7,-4l2,-13l0,-9l-2,-2l-43,-5l-5,-5l-9,4l-22,19l-2,0l-3,-4l-3,-36l-4,-1l-10,4l-9,-14l18,-8l-5,-8l-2,-9l7,-3l0,-4l-6,2l4,-3l-27,-25l-26,-42l-12,6l-8,-6l-6,-11l-34,9l-15,1l-7,-2l-3,-15l-5,1l-2,-5l-6,-21l-1,-14l-3,-14l-8,-21l-4,-3l-16,-52l-13,-19l-7,-4l-23,-28l-14,-15l-2,-4l2,-4l3,-3l24,-10l46,-15l35,-14l33,-10l111,-46l23,-8l19,-3l18,-2l36,1l35,7l115,45l-29,-14l-67,-25l-31,-9l-43,-5l-32,1l-21,4l-14,4l-108,45l-78,26l-5,5l-22,5l-44,18l-5,3l-1,5l2,4l14,14l22,28l6,3l14,20l16,51l2,3l3,0l4,12l7,26l-2,3l12,39l4,1l3,10l7,2l27,-4l23,-6l7,16l-9,4l15,-5l10,13l11,-3l2,6l-12,4l-6,6l-12,4l12,-3l4,-4l12,-5l3,-1l2,1l16,26l2,7l-1,3l-15,6l-1,1l12,15l6,16l9,15l6,2l10,-3l4,38l7,3l29,-25l6,7l43,5l1,12l-2,11l8,4l8,2l8,-10l21,-41" fill="none" stroke="currentColor" stroke-width="8"/></svg>