<svg xmlns="http://www.w3.org/2000/svg" viewBox="0 0 500 500"><path d="M116,0l-19,43l35,17l-5,-2l-5,8l-29,-13l-61,143l-8,29l-8,7l-12,27l-4,16l3,9l14,11l35,13l53,28l28,-2l24,26l23,11l25,21l38,16l30,2l177,90l10,-3l5,-38l35,-4l-35,-2l1,-34l-6,-15l-103,-3l-2,22l3,25l29,17l-114,-58l-31,-2l-35,-14l-18,-17l-44,-28l-12,-16l-18,4l-88,-41l-21,-13l-3,-12l-2,14l18,15l39,14l49,26l25,-3l25,26l25,12l22,20l42,17l25,1l112,57l-111,-61l-27,1l-40,-18l-26,-22l-21,-9l-25,-28l-17,4l-99,-46l-12,-10l0,-17" fill="none" stroke="currentColor" stroke-width="8"/></svg>