<svg xmlns="http://www.w3.org/2000/svg" viewBox="0 0 500 500"><path d="M133,488l-23,12l-62,-3l53,-42l106,-42l168,-37l23,-19l-369,-159l217,-144l32,4l-32,27l21,10l99,8l55,-15l76,-61l-14,-16l-60,-11l-89,13l-88,73l106,17l69,-19l72,-65l-70,-19l-64,5l-104,84l92,17l81,-17l72,-64l-77,-24l-80,10l-90,75l81,18l69,-9l87,-70l-71,-25l-88,14l-80,72l96,17l79,-20l64,-63l-39,-17l-90,2l-94,67l7,23l120,5l89,-59l-18,-35l-122,2l-85,80l76,16l89,-8l77,-71l-67,-23l-88,8l-83,73l81,20l76,-8l76,-65l-44,-29l-115,7l-35,39l-301,151l389,140l-35,30l-115,23l-193,77" fill="none" stroke="currentColor" stroke-width="8"/></svg>