<svg xmlns="http://www.w3.org/2000/svg" viewBox="0 0 500 500"><path d="M141,0l-26,41l29,14l0,7l-5,3l-27,-14l-5,2l-7,19l-29,46l-54,118l-17,42l2,10l15,12l53,18l50,24l32,-3l29,28l25,10l31,22l47,18l30,1l144,63l-142,-68l-33,0l-47,-17l-30,-23l-22,-9l-30,-27l-29,0l-45,-22l-49,-17l-23,-13l-4,-11l-4,5l2,10l18,12l42,13l61,29l30,-4l28,28l28,11l28,21l48,18l29,1l186,82l-183,-85l-33,-2l-46,-17l-31,-23l-35,-19l-18,-18l-31,0l-38,-19l-64,-24l-15,-11l-1,-19l103,-208l47,15l-9,-6l-2,-10l-26,-13l9,-18" fill="none" stroke="currentColor" stroke-width="8"/></svg>