<svg xmlns="http://www.w3.org/2000/svg" viewBox="0 0 500 500"><path d="M115,484l-56,16l-13,-11l341,-134l-374,-158l233,-148l32,2l-53,37l28,11l101,6l76,-22l58,-64l-55,-17l-79,3l-124,83l120,23l71,-13l69,-76l-57,-21l-95,8l-122,71l48,21l123,-1l94,-56l-2,-33l-62,-11l-60,3l-132,74l14,20l115,8l81,-22l53,-64l-55,-17l-83,4l-127,73l32,20l120,5l69,-22l44,-65l-55,-15l-76,3l-125,76l37,18l152,-2l79,-67l-51,-27l-106,3l-102,70l35,24l145,-2l67,-65l-44,-30l-115,7l-97,73l92,22l104,-11l62,-66l-53,-26l-101,8l-90,73l65,20l119,-4l63,-74l-83,-25l-86,19l-69,71l113,18l67,-15l55,-72l-76,-21l-90,14l-73,73l55,16l83,-1l60,-29l30,-60l-111,-11l-76,35l-44,53l60,13l95,1l85,-66l-5,-25l-119,-10l-72,42l-28,46l132,12l92,-66l-16,-29l-118,-7l-69,40l-55,4l-150,125l-71,28l295,105l78,45l-25,22l-93,16l-264,94l13,11l97,0l99,-42" fill="none" stroke="currentColor" stroke-width="8"/></svg>