<svg xmlns="http://www.w3.org/2000/svg" viewBox="0 0 500 500"><path d="M49,336l-9,4l-4,8l28,12l6,-9l17,-8l8,-1l24,-16l27,-13l13,-4l-1,-7l5,-3l-2,-4l-2,-28l-2,-14l-4,-8l-20,-22l-2,-10l0,-5l-4,0l3,-3l-2,-7l-14,-33l-4,-15l-5,-5l-2,-6l-3,-8l1,-3l-4,-11l0,-22l3,-25l17,-36l1,-7l6,-15l5,-6l-4,-4l-3,-2l0,0l19,6l17,12l8,3l6,6l11,0l35,8l3,6l4,1l4,0l5,-3l15,3l29,1l76,-6l38,-11l10,-7l6,0l3,-3l17,-6l17,-3l6,2l8,-4l12,-1l29,0l-29,0l-12,1l-9,4l-11,-2l-11,3l-24,9l-1,3l-7,4l1,8l-3,13l1,4l5,5l-2,12l-1,2l2,6l-6,39l0,5l2,4l3,25l5,52l-2,8l2,8l-2,20l-1,2l-3,1l3,0l0,8l-8,26l-9,9l4,5l-2,8l-14,44l-7,16l-7,1l7,0l-14,24l-34,46l-4,8l-4,5l-1,2l-6,8l-2,5l-7,8l-7,1l-3,2l-1,14l-14,18l-16,-3l-13,-1l-46,6l-2,-15l-10,-1l-5,1l-1,3l-2,10l-1,1l-14,-7l-56,-24l-10,0l-14,-5l-11,-8l-8,-3l-10,-9l-5,1l-5,-1l-35,-14l-3,-4l1,-6l28,-59l6,-9l8,4" fill="none" stroke="currentColor" stroke-width="8"/></svg>