<svg xmlns="http://www.w3.org/2000/svg" viewBox="0 0 500 500"><path d="M136,445l-66,51l-59,4l7,-9l150,-43l35,-32l139,-34l48,-28l-372,-158l242,-144l27,4l-25,40l94,12l59,-8l85,-63l-26,-31l-134,3l-64,53l0,35l75,10l48,-8l87,-70l-46,-24l-107,5l-80,70l78,26l70,-5l83,-70l-46,-26l-107,4l-87,75l77,24l89,-8l76,-69l-9,-20l-55,-9l-89,6l-91,79l95,20l69,-7l82,-68l-39,-26l-118,6l-76,79l80,20l64,-7l82,-73l-36,-26l-110,4l-91,75l73,23l84,-5l83,-72l-14,-19l-46,-9l-91,8l-82,78l96,24l77,-12l71,-81l-80,-19l-91,6l-48,42l-60,3l-43,22l-173,126l356,158l-23,21l-146,34l-169,76l7,11l86,-2l78,-43" fill="none" stroke="currentColor" stroke-width="8"/></svg>