<svg xmlns="http://www.w3.org/2000/svg" viewBox="0 0 500 500"><path d="M153,0l-14,12l5,12l-13,24l47,21l-13,-6l-7,9l-32,-15l-6,3l-28,56l-15,17l-16,43l-55,102l-6,18l2,7l22,16l43,12l70,30l34,-4l32,28l28,11l40,26l45,16l33,0l151,62l-28,-18l-119,-48l-35,1l-51,-18l-31,-22l-30,-11l-34,-30l-23,4l-48,-22l-67,-22l-25,-13l-5,-12l-4,7l4,10l15,11l43,12l77,32l33,-3l32,29l27,10l33,23l54,19l32,0l149,59l-146,-63l-36,0l-52,-18l-33,-24l-30,-11l-29,-27l-26,2l-55,-25l-62,-19l-23,-14l0,-21l34,-55l4,-16l43,-78l16,-42l21,-27l31,12l6,-5l0,-4l-29,-15l1,-10" fill="none" stroke="currentColor" stroke-width="8"/></svg>