<svg xmlns="http://www.w3.org/2000/svg" viewBox="0 0 500 500"><path d="M158,0l-26,47l33,17l-8,7l-31,-14l-6,2l-58,125l-24,32l-32,62l-5,24l19,15l49,14l66,29l38,-2l27,27l30,10l41,27l45,16l34,0l150,62l-15,-11l-135,-55l-35,0l-48,-18l-23,-16l-41,-19l-31,-27l-23,3l-14,-4l-114,-45l-15,-10l-2,-9l-4,6l1,9l22,14l46,13l68,29l35,-2l29,27l30,11l35,24l50,17l35,1l149,61l-17,-11l-132,-54l-33,1l-49,-18l-36,-24l-28,-10l-34,-29l-21,3l-15,-4l-62,-28l-41,-13l-26,-15l0,-21l98,-190l20,-27l33,12l4,-2l-1,-8l-31,-16l20,-35" fill="none" stroke="currentColor" stroke-width="8"/></svg>