<svg xmlns="http://www.w3.org/2000/svg" viewBox="0 0 500 500"><path d="M3,465l0,4l-2,2l-1,12l13,17l3,-13l7,-10l5,-3l7,-15l23,-32l0,-8l2,-4l19,-11l1,-3l1,-7l0,1l1,5l1,2l14,-2l59,0l6,-1l3,-4l2,6l4,-3l2,-5l1,4l3,2l22,1l40,-1l6,0l2,-4l0,4l2,1l5,-1l2,-4l3,3l10,-1l52,-32l4,-3l2,-5l10,-3l80,-64l15,-14l3,-5l1,-5l0,-28l2,-36l0,-27l0,-2l-1,1l1,2l2,-1l0,-15l1,-6l6,-13l4,-3l4,2l8,0l7,3l11,-1l6,3l2,-2l3,1l-1,-7l1,-1l8,-77l-1,-6l-3,-3l2,-4l-2,3l-2,-6l-18,-6l-8,0l-1,3l-5,2l-2,-3l-10,2l-1,2l1,1l4,-3l1,4l0,4l-4,1l-4,-3l-1,-4l-19,6l-19,-4l-19,2l-19,-3l-1,3l-7,-1l-1,3l-4,0l-17,-9l-11,-3l-6,-6l-10,-4l-33,-26l-9,-1l-3,1l-14,18l-10,-1l-6,-7l-4,-3l-27,0l-4,1l-3,5l-3,1l-2,-2l-5,1l-16,15l-3,6l-18,16l-36,9l-16,0l-6,-4l-6,4l-1,-3l-1,-7l-17,-11l-6,1l-2,-8l-11,-19l-7,-8l-5,30l-1,15l-2,6l-1,12" fill="none" stroke="currentColor" stroke-width="8"/></svg>