<svg xmlns="http://www.w3.org/2000/svg" viewBox="0 0 500 500"><path d="M119,0l-7,16l1,10l-9,9l-3,12l19,12l2,10l-27,-11l-15,25l-49,116l-4,20l-15,20l-10,26l0,19l18,14l32,11l51,27l29,-2l24,27l22,7l26,22l39,17l27,1l180,89l3,-1l-3,-2l-179,-89l-30,0l-34,-16l-17,-15l-43,-26l-15,-18l-19,3l-57,-30l-34,-11l-15,-11l-4,-11l-3,6l1,8l16,12l38,14l51,26l26,-3l25,27l22,9l30,24l37,15l24,0l181,89l1,-3l-181,-90l-28,0l-38,-17l-18,-15l-28,-15l-25,-27l-18,3l-12,-4l-53,-28l-34,-13l-11,-10l-3,-8l-3,4l1,8l17,14l33,11l55,29l27,-2l23,25l22,9l29,24l39,15l25,1l185,92l5,-5l3,-37l23,-8l11,2l-36,-3l-6,43l-3,4l-181,-92l-29,0l-36,-16l-30,-24l-20,-8l-24,-27l-17,4l-12,-5l-47,-25l-38,-13l-13,-11l-2,-8l-3,0l0,11l12,12l44,16l49,26l28,-2l22,25l23,10l26,22l40,17l24,-1l187,92l4,-3l4,-38l36,-5l-37,-4l-7,43l-4,4l-180,-91l-27,0l-37,-16l-31,-25l-19,-8l-26,-27l-17,3l-11,-3l-51,-27l-33,-12l-15,-12l1,-20l89,-200l29,12l1,-10l-22,-10l-2,-5l11,-18l6,-22" fill="none" stroke="currentColor" stroke-width="8"/></svg>