<svg xmlns="http://www.w3.org/2000/svg" viewBox="0 0 500 500"><path d="M477,445l23,6l-13,-3l2,1l-3,3l-16,-4l-23,30l-4,3l-11,18l-10,-1l-8,-4l3,-18l-2,-5l-4,-2l-50,-4l-7,-4l-6,2l-3,0l-29,20l-6,-3l-2,-38l7,-3l4,-6l-16,-12l-1,-6l-7,-5l0,-3l5,-4l0,-3l-36,-26l-13,-19l-19,-23l-23,0l-7,-11l-3,0l-40,8l-19,2l-7,-1l-1,-9l-4,-3l-15,-39l6,-14l-5,-16l-5,-4l-9,-2l-4,-5l-4,0l-21,-55l-16,-18l-8,-4l-27,-29l-18,-13l-2,-4l1,-4l10,-6l45,-12l14,-6l21,-4l17,-7l74,-20l153,-51l32,-4l34,-1l-32,0l-32,4l-149,49l-94,26l-7,4l-14,2l-62,21l4,8l0,5l7,5l5,11l44,50l20,53l6,1l4,9l10,29l-4,3l4,8l5,0l16,42l8,2l14,-2l31,-4l17,-5l7,15l22,-2l2,1l32,42l34,23l-1,4l-7,2l-1,3l10,14l13,12l-9,8l2,30l4,8l10,4l34,-25l6,7l53,3l2,2l-1,23l8,4l13,1l36,-53l17,5l1,-4l-14,-6l5,-7l14,-4l-1,-3l-7,-2" fill="none" stroke="currentColor" stroke-width="8"/></svg>