<svg xmlns="http://www.w3.org/2000/svg" viewBox="0 0 500 500"><path d="M330,418l160,-330l-141,-88l-161,48l-188,307l75,126l217,-19l203,-318l-113,-141l-199,52l-183,300l75,126l222,-22l193,-300l-66,-141l-226,22l-198,322l99,126l198,-33l198,-311l-104,-137l-203,41l-188,314l99,126l207,-37l189,-303l-104,-141l-203,44l-188,308l103,133l198,-37l194,-307l-90,-137l-217,40l-188,304l113,137l193,-44l194,-326l-128,-119l-189,52l-183,300l122,141l184,-48l194,-326l-114,-115l-207,52l-179,296l122,141l184,-48l189,-304l-99,-137l-213,48l-183,304l122,137l175,-37l198,-315l-95,-133l-212,37l-188,311l122,137l184,-48l189,-304l-99,-137l-217,52l-179,292l122,145l179,-45l194,-314l-80,-123l-232,41l-183,307l23,82l127,56l170,-67l175,-293l-95,-129l-212,37l-188,307l127,141l189,-59l179,-345l-137,-92l-184,66l-174,333l94,89l132,4l94,-59l175,-333l-137,-100l-189,74l-169,285l28,89l122,52l170,-67l175,-337l-137,-96l-179,59l-179,340l193,101l123,-63l179,-334l-99,-96l-113,-4l-184,182l-99,214l75,82l165,7l236,-303l-28,-152l-246,4l-193,300l71,144l203,-15l212,-326l-62,-115l-217,0l-202,297l42,148l194,15l240,-404l-118,-78l-141,15l-217,304l47,152l207,3l227,-333l-80,-130l-222,34l-193,307l99,133l193,-26l203,-318l-57,-119l-226,4l-208,315l62,130l202,3l227,-329l-90,-137l-198,22l-207,337l108,122l203,-48l184,-300l-90,-133l-217,37l-184,292l71,141l208,-15l212,-326l-66,-118l-227,15l-198,307l80,141l166,0" fill="none" stroke="currentColor" stroke-width="8"/></svg>