<svg xmlns="http://www.w3.org/2000/svg" viewBox="0 0 500 500"><path d="M398,437l-7,-3l-5,8l1,2l10,4l0,3l-14,-4l-30,51l-2,1l-8,-1l-6,-4l1,-21l-2,-3l-42,-5l-7,-6l-4,0l-27,-26l-11,-13l-6,-12l-13,-14l-7,-16l-30,-45l-8,-1l-10,4l-7,-15l-22,7l-16,2l-11,2l-7,-2l-2,-8l-7,-3l-3,-11l-6,-19l-1,-21l-7,-22l-3,-7l-5,-2l-16,-52l-13,-20l-7,-3l-23,-30l-14,-13l-1,-4l4,-6l28,-12l27,-10l17,-3l15,-8l52,-17l115,-47l17,-6l18,-4l55,-1l25,5l29,8l84,32l10,6l4,-1l-86,-34l-39,-12l-40,-5l-41,2l-16,2l-25,9l-103,43l-67,22l-57,21l-24,10l-2,6l1,4l15,14l23,29l6,4l11,15l19,57l4,0l2,4l9,4l4,4l3,15l-5,15l17,50l7,2l17,-3l31,-8l7,15l15,-2l5,0l29,45l12,24l18,26l34,34l5,-2l5,5l21,1l22,3l1,3l-2,21l9,5l7,1l8,-9l16,-31l8,-12l18,5l-4,-2l0,-3l-12,-5l6,-9l1,-5" fill="none" stroke="currentColor" stroke-width="8"/></svg>