<svg xmlns="http://www.w3.org/2000/svg" viewBox="0 0 500 500"><path d="M149,0l-18,30l44,18l-11,-4l-8,10l-35,-13l-118,227l-3,26l20,15l46,13l68,31l37,-3l30,30l36,14l26,21l54,19l31,0l149,66l0,-5l-16,-8l-131,-56l-36,0l-48,-19l-35,-25l-26,-10l-33,-30l-21,3l-20,-5l-58,-28l-53,-18l-13,-10l-3,-11l-4,7l2,8l21,17l44,12l70,32l36,-2l30,29l27,9l38,27l47,17l35,1l150,63l-147,-66l-39,-1l-46,-18l-38,-26l-24,-9l-35,-32l-21,4l-16,-4l-62,-29l-44,-13l-22,-15l1,-23l31,-51l47,-107l37,-65l4,-4l31,14l5,-5l1,-5l-33,-17l11,-25l9,0l-4,0" fill="none" stroke="currentColor" stroke-width="8"/></svg>