<svg xmlns="http://www.w3.org/2000/svg" viewBox="0 0 500 500"><path d="M149,3l-13,33l28,17l-4,14l-40,-9l-25,41l-47,101l-46,83l-2,14l4,9l25,16l43,11l63,26l36,-3l28,27l41,16l26,20l53,18l33,1l148,62l-8,-8l-141,-58l-34,0l-49,-17l-25,-18l-38,-16l-32,-29l-23,3l-72,-31l-48,-14l-21,-13l-4,-11l-4,12l24,17l48,14l64,29l34,-4l32,30l27,9l37,25l51,18l32,0l149,61l-148,-65l-35,1l-49,-18l-32,-23l-30,-11l-31,-29l-27,2l-69,-30l-49,-15l-21,-14l0,-21l116,-219l33,13l6,-7l0,-4l-31,-15l25,-44" fill="none" stroke="currentColor" stroke-width="8"/></svg>