<svg xmlns="http://www.w3.org/2000/svg" viewBox="0 0 500 500"><path d="M107,0l-4,12l-7,-1l0,5l28,21l0,6l-3,4l-27,-12l-82,192l-11,38l5,12l15,13l34,11l49,28l28,-4l24,29l26,13l21,20l40,17l25,0l141,77l42,18l9,-3l5,-38l34,-4l-36,-1l-10,45l-181,-98l-28,0l-38,-17l-27,-24l-19,-8l-26,-29l-19,3l-61,-32l-34,-13l-15,-12l-1,-10l-4,6l3,11l17,12l29,11l56,30l27,-4l25,30l20,8l27,24l39,17l28,1l182,96l8,-7l4,-37l32,-3l1,-4l-16,5l-18,0l-12,42l-179,-95l-29,-1l-38,-17l-27,-23l-20,-9l-26,-29l-18,3l-14,-6l-44,-26l-41,-16l-10,-9l-4,-10l-1,13l14,14l35,13l56,31l28,-4l9,16l10,7l3,10l34,14l17,15l38,16l27,1l183,94l6,-5l4,-37l22,-9l13,4l-37,2l-7,19l-3,23l-3,1l-178,-96l-28,0l-38,-17l-21,-20l-25,-13l-28,-30l-17,4l-10,-4l-95,-49l-6,-9l1,-15l24,-51l5,-21l48,-115l14,-27l20,10" fill="none" stroke="currentColor" stroke-width="8"/></svg>