<svg xmlns="http://www.w3.org/2000/svg" viewBox="0 0 500 500"><path d="M122,0l-21,41l29,17l-4,-2l-7,7l-25,-12l-85,189l-9,34l3,8l15,13l33,11l55,28l26,-3l13,18l42,25l18,17l38,16l25,0l183,92l6,0l2,-4l4,-37l23,-7l11,2l-37,0l-4,17l0,25l-4,3l-179,-93l-28,-1l-38,-15l-21,-19l-29,-15l-24,-26l-18,2l-12,-4l-44,-25l-39,-15l-13,-9l-3,-11l-2,1l-1,11l15,14l40,15l50,26l26,-3l24,27l27,13l23,20l38,16l26,1l182,92l8,-5l4,-37l26,-7l9,2l-34,1l-9,16l-3,27l-181,-93l-28,0l-38,-17l-24,-20l-25,-13l-24,-25l-18,2l-88,-40l-20,-13l-5,-11l0,13l18,15l37,13l49,26l27,-2l23,25l23,11l29,24l36,15l26,0l182,92l7,-3l5,-38l36,-5l-37,1l-11,43l-180,-92l-29,-1l-36,-16l-28,-24l-33,-19l-13,-17l-18,3l-12,-4l-88,-43l-9,-9l-2,-8l-4,5l2,9l18,14l37,13l50,27l26,-4l23,28l22,9l24,20l42,19l26,0l179,91l10,-3l3,-37l36,-5l-2,-2l-35,4l-6,17l1,21l-4,4l-181,-93l-28,-1l-39,-16l-26,-24l-34,-20l-12,-16l-17,3l-96,-44l-14,-11l-1,-18l76,-180l16,-26l29,14l-6,-4l5,-6" fill="none" stroke="currentColor" stroke-width="8"/></svg>