<svg xmlns="http://www.w3.org/2000/svg" viewBox="0 0 500 500"><path d="M171,0l-33,17l-11,20l59,22l-18,-6l-13,9l-34,-11l-40,67l-56,118l-24,38l-1,23l23,17l40,11l71,31l37,-3l31,30l26,9l47,30l42,14l33,0l150,62l-149,-65l-34,0l-50,-19l-34,-24l-27,-10l-34,-30l-24,3l-75,-33l-42,-13l-24,-14l-3,-12l-4,6l1,9l22,17l38,10l77,34l34,-4l29,29l30,10l33,24l52,19l34,1l148,64l-10,-10l-136,-57l-35,-1l-49,-17l-35,-25l-25,-10l-36,-30l-32,0l-67,-30l-37,-11l-28,-16l0,-23l66,-121l17,-43l31,-58l51,18l-9,-7l-2,-10l-29,-14l10,-23" fill="none" stroke="currentColor" stroke-width="8"/></svg>