<svg xmlns="http://www.w3.org/2000/svg" viewBox="0 0 500 500"><path d="M166,0l-24,4l-12,28l28,13l-2,10l-36,-12l-4,4l-85,180l-26,42l-4,23l16,14l53,17l64,29l34,-3l27,24l2,10l45,15l20,16l50,18l30,0l148,64l-18,-13l-129,-55l-34,0l-48,-18l-24,-19l-36,-16l-33,-30l-22,4l-15,-5l-108,-44l-16,-12l-2,-9l-5,4l2,11l23,16l37,10l72,33l35,-4l30,29l28,11l31,23l53,19l32,0l157,69l-29,-18l-125,-54l-35,0l-50,-18l-38,-28l-21,-8l-33,-29l-23,3l-17,-5l-62,-29l-38,-11l-23,-15l2,-25l20,-39l14,-14l4,-19l36,-78l39,-69l49,18l-8,-5l-1,-10l-33,-18" fill="none" stroke="currentColor" stroke-width="8"/></svg>