<svg xmlns="http://www.w3.org/2000/svg" viewBox="0 0 500 500"><path d="M154,0l-25,45l30,14l1,8l-4,3l-35,-11l-26,41l-92,183l-1,22l21,14l37,9l78,33l33,-3l27,23l1,11l46,14l16,12l52,20l35,0l151,61l-147,-64l-37,-1l-48,-17l-34,-23l-27,-11l-34,-29l-23,3l-77,-32l-38,-11l-25,-15l-5,-12l-4,6l1,9l24,17l39,10l75,32l32,-4l32,29l26,8l36,26l53,19l30,-1l152,62l-148,-65l-36,-1l-46,-15l-31,-22l-35,-14l-34,-29l-22,3l-13,-4l-66,-29l-34,-9l-28,-17l2,-24l31,-50l7,-24l76,-140l50,16l-9,-6l-1,-9l-32,-15l11,-18" fill="none" stroke="currentColor" stroke-width="8"/></svg>