<svg xmlns="http://www.w3.org/2000/svg" viewBox="0 0 500 500"><path d="M128,0l-19,39l3,4l37,13l-10,0l-7,6l-29,-10l-41,75l-10,31l-48,100l-4,16l2,7l20,14l31,9l65,30l29,-2l23,23l2,7l37,14l16,14l45,18l25,0l205,91l-24,-12l-10,-11l-44,-14l-123,-57l-32,-1l-39,-15l-19,-17l-33,-16l-30,-28l-20,4l-65,-32l-33,-11l-19,-12l-4,-11l-4,6l2,8l20,14l35,11l61,29l27,-3l27,27l24,10l28,22l43,18l30,0l197,92l-195,-95l-33,-1l-42,-17l-29,-23l-21,-8l-31,-29l-19,4l-97,-42l-20,-12l-4,-10l-3,6l2,7l16,13l38,12l59,29l30,-2l25,25l30,14l23,18l43,18l32,2l199,90l-31,-20l-168,-75l-31,0l-39,-16l-32,-24l-22,-8l-31,-29l-15,4l-11,-3l-40,-21l-54,-20l-16,-11l0,-21l97,-205l29,12l5,-6l-1,-4l-26,-14l9,-16" fill="none" stroke="currentColor" stroke-width="8"/></svg>