<svg xmlns="http://www.w3.org/2000/svg" viewBox="0 0 500 500"><path d="M155,0l-32,46l34,14l1,5l-5,6l-31,-14l-5,3l-78,175l-32,46l-4,21l20,15l35,8l75,32l34,-3l30,28l29,11l32,22l52,19l32,0l158,66l-155,-69l-34,0l-49,-16l-36,-25l-25,-9l-33,-30l-22,3l-120,-45l-18,-10l-6,-12l-2,14l21,15l38,10l73,32l35,-2l26,23l3,9l44,15l21,15l50,17l30,0l149,61l-17,-11l-127,-53l-35,-1l-49,-17l-35,-24l-26,-9l-34,-29l-21,3l-15,-5l-61,-27l-45,-14l-20,-13l0,-21l60,-109l37,-77l22,-29l28,11l7,-5l-32,-20l13,-19" fill="none" stroke="currentColor" stroke-width="8"/></svg>