<svg xmlns="http://www.w3.org/2000/svg" viewBox="0 0 500 500"><path d="M117,1l-6,26l-14,16l24,13l0,8l-2,2l-27,-11l-7,19l-7,6l-57,143l-18,36l-3,23l12,11l31,11l60,31l28,-3l25,27l27,13l17,16l43,19l26,0l115,58l-11,-10l-103,-52l-27,1l-36,-15l-28,-24l-21,-10l-26,-26l-19,3l-62,-32l-28,-10l-18,-12l-3,-10l-2,12l16,15l29,9l60,32l26,-4l12,17l40,23l20,18l40,17l28,1l183,92l1,-4l-29,-18l-30,-10l-125,-64l-29,0l-39,-17l-17,-17l-29,-14l-25,-27l-18,3l-11,-4l-85,-40l-14,-13l-1,-18l-3,24l17,14l36,13l50,27l29,-2l23,25l29,14l18,18l42,17l26,1l184,91l7,-4l3,-37l36,-4l-31,1l-6,-4l-8,22l-1,24l-28,-18l-155,-75l-28,0l-38,-16l-27,-24l-19,-8l-28,-28l-16,4l-13,-5l-26,-15l-53,-22l-19,-13l2,-25l88,-197l24,10l6,-5l-24,-19l10,-19l23,-9l1,-6l-14,-7l-10,15l4,4l20,-8l0,-7" fill="none" stroke="currentColor" stroke-width="8"/></svg>