<svg xmlns="http://www.w3.org/2000/svg" viewBox="0 0 500 500"><path d="M26,0l-1,15l-3,11l7,12l-1,-2l-1,5l-6,-7l-15,91l-2,19l-4,23l0,12l3,10l8,7l12,17l6,0l6,16l5,7l5,13l10,11l5,0l42,59l1,-1l1,-25l7,-5l2,3l1,28l1,7l24,-13l7,2l17,13l17,3l9,8l29,11l13,-2l8,-5l41,-1l9,-7l42,1l24,26l27,67l5,6l2,10l4,4l9,20l12,23l14,8l32,-6l13,3l17,-5l10,-7l-13,8l-18,3l-11,-3l-33,6l-10,-7l-5,-5l-16,-36l-5,-7l-2,-8l-9,-16l-17,-44l-8,-17l-23,-23l-41,-1l-6,3l-3,4l-40,1l-15,5l-15,-2l-38,-18l-9,0l-19,-14l-6,1l-20,9l-1,-6l-2,-27l-10,0l-2,12l0,12l-1,3l-11,-20l-5,-3l-25,-36l-7,-1l-8,-11l-7,-15l-4,-5l-6,-17l-4,2l-2,-3l-11,-17l-8,-7l-3,-7l0,-14l5,-30l0,-7l4,-24l1,-9l5,-35" fill="none" stroke="currentColor" stroke-width="8"/></svg>