<svg xmlns="http://www.w3.org/2000/svg" viewBox="0 0 500 500"><path d="M136,0l-12,29l33,17l0,5l-6,4l-33,-12l-87,179l-30,48l-1,21l20,16l40,11l71,33l36,-3l30,29l28,11l39,26l44,16l33,0l146,63l-15,-13l-129,-53l-34,0l-48,-18l-37,-26l-21,-8l-35,-30l-26,3l-44,-22l-65,-23l-27,-16l-3,-11l-3,15l23,17l37,10l72,33l35,-3l29,28l33,13l30,23l47,17l35,1l159,70l-29,-20l-126,-53l-38,0l-45,-17l-39,-29l-41,-21l-17,-17l-19,4l-13,-3l-30,-16l-76,-28l-21,-14l0,-20l113,-223l44,17l-12,-6l5,-1l1,-8l-27,-13l-2,-6l5,-10" fill="none" stroke="currentColor" stroke-width="8"/></svg>