<svg xmlns="http://www.w3.org/2000/svg" viewBox="0 0 500 500"><path d="M84,266l-72,112l43,61l169,57l93,-32l174,-279l-34,-128l-123,-51l-135,38l-174,318l85,112l190,-16l183,-301l-111,-135l-182,32l-174,301l13,61l132,67l161,-38l139,-288l-89,-125l-182,19l-161,343l132,89l169,-19l148,-330l-131,-122l-165,42l-166,324l178,112l161,-67l115,-324l-132,-90l-165,51l-173,305l127,109l224,-35l132,-314l-119,-106l-170,29l-152,327l114,112l204,-52l127,-282l-127,-141l-170,32l-161,340l144,106l178,-51l119,-273l-4,-80l-115,-67l-161,35l-169,330l123,96l203,-29l140,-349l-165,-96l-153,51l-169,334l177,102l157,-35l153,-282l-89,-154l-204,22l-161,241l43,176l241,29l161,-365l-25,-74l-165,-51l-89,38l-119,308l51,128l207,-19l140,-343l-89,-93l-212,45l-110,275l9,90l101,58l178,-55l123,-320l-59,-84l-97,-25l-149,51l-135,301l114,116l178,-16l144,-369l-148,-80l-174,74l-114,298l114,115l165,-26l183,-326l-166,-138l-173,57l-111,343l115,97l165,-33l161,-326l-80,-116l-234,19l-156,305l101,134l208,-28l153,-324l-39,-87l-106,-38l-173,54l-110,337l50,64l123,29l127,-55l115,-301l-85,-118l-161,-4l-148,350" fill="none" stroke="currentColor" stroke-width="8"/></svg>