<svg xmlns="http://www.w3.org/2000/svg" viewBox="0 0 500 500"><path d="M448,0l-35,29l70,16l17,17l-103,-16l-21,5l-130,103l-39,52l-180,158l-27,41l13,14l53,16l149,20l218,44l12,-6l-220,-45l-119,-16l-93,-27l-4,10l56,19l147,21l222,45l14,-6l-237,-49l-106,-13l-94,-28l-1,13l71,20l364,59l-199,-45l-173,-25l-54,-17l-8,6l56,19l359,63l18,-4l-422,-82l-3,9l78,20l105,12l229,46l12,-4l-209,-45l-127,-17l-76,-21l-15,-1l-1,8l68,19l106,13l239,48l20,-3l-304,-58" fill="none" stroke="currentColor" stroke-width="2"/></svg>