<svg xmlns="http://www.w3.org/2000/svg" viewBox="0 0 500 500"><path d="M458,0l-38,25l-18,30l83,21l15,14l-124,-18l-18,6l-242,207l-116,122l9,15l70,20l336,58l15,-5l-412,-79l1,10l45,13l134,18l213,42l21,-4l-416,-80l-1,9l65,18l331,56l18,-3l-406,-78l-16,1l8,6l61,17l130,17l206,40l19,-4l-200,-41l-152,-20l-64,-19l-11,3l8,6l63,18l148,19l196,39l15,-2l-13,-6l-210,-40l-111,-14l-83,-22l-9,7l56,17l146,19l204,40l14,-5l-196,-39l-163,-24l-52,-15l-12,1l9,8l51,14l139,19l215,42l8,-5l-36,-8l-184,-37l-110,-13l-89,-25l2,11l31,11l378,66l7,-5l-42,-11l-176,-33l-97,-12l-98,-22l-3,6l43,13l153,22l209,41l17,-2l-11,-5l-192,-37" fill="none" stroke="currentColor" stroke-width="2"/></svg>