<svg xmlns="http://www.w3.org/2000/svg" viewBox="0 0 500 500"><path d="M74,483l183,17l88,-50l150,-306l-84,-118l-206,3l-205,352l88,95l215,-46l168,-273l-88,-118l-197,10l-182,299l112,122l225,-30l149,-309l-112,-122l-192,10l-144,296l-19,99l65,59l211,-16l182,-309l-38,-93l-102,-39l-192,49l-126,310l112,101l196,-39l140,-299l-14,-69l-130,-56l-178,65l-121,290l126,112l215,-53l98,-335l-164,-83l-163,66l-112,316l102,82l197,-36l144,-293l-88,-118l-225,43l-116,289l70,112l229,-49l130,-300l-107,-102l-210,50l-122,319l103,102l192,-50l149,-329l-117,-92l-191,50l-140,329l107,62l201,-33l126,-293l-103,-108l-191,43l-159,338l121,76l201,-46l169,-296l-141,-135l-173,33l-182,303l108,148l247,-73l141,-283l-103,-102l-220,37l-159,329l168,92l155,-53l154,-332l-38,-66l-149,-36l-196,125l-75,270l196,59l112,-56l126,-309l-149,-79l-168,62l-126,319l186,96l150,-96l107,-276l-144,-99l-173,46l-122,273l126,132l178,-46l140,-326l-159,-89l-173,69l-88,323l144,69l164,-95l112,-274l-135,-88l-178,49l-145,303l154,108l169,-66l130,-312l-154,-82l-177,69l-108,316l201,85l112,-76l126,-296l-177,-95l-164,109l-93,263l220,79l168,-198l32,-240l-130,-29l-145,39l-126,283l37,118l238,-13l145,-276l-121,-128l-183,29l-158,306l107,118l224,-49l136,-309l-145,-95l-168,39l-150,326l112,85l234,-62l131,-277l-178,-118l-182,76l-126,299l163,92l192,-92l126,-263l-173,-122l-168,72l-112,349" fill="none" stroke="currentColor" stroke-width="8"/></svg>