<svg xmlns="http://www.w3.org/2000/svg" viewBox="0 0 500 500"><path d="M44,500l316,-115l-2,-20l-358,-155l149,-119l132,-38l-18,47l100,11l64,-16l65,-63l-90,-28l-99,19l-60,69l67,17l80,-4l85,-56l2,-29l-67,-14l-80,4l-84,72l35,25l117,-5l89,-62l-35,-34l-104,-3l-102,90l117,19l77,-22l50,-67l-115,-20l-82,25l-50,60l80,27l114,-25l58,-64l-110,-23l-47,6l-52,32l-43,54l53,19l97,-4l39,-14l60,-69l-107,-24l-107,38l-37,49l59,22l93,-4l32,-13l70,-68l-95,-27l-107,37l-50,57l87,21l105,-19l62,-69l-95,-27l-87,17l-82,76l102,23l77,-10l33,-20l45,-69l-63,-17l-97,6l-94,86l35,13l89,5l67,-12l73,-65l-53,-32l-94,3l-102,68l32,38" fill="none" stroke="currentColor" stroke-width="8"/></svg>