<svg xmlns="http://www.w3.org/2000/svg" viewBox="0 0 500 500"><path d="M425,16l66,14l9,9l-122,-12l-100,61l-190,217l-79,64l-9,33l63,22l344,67l32,-2l45,-30l13,-21l-29,-41l12,-21l-92,-49l-159,21l-166,-20l-53,43l-2,33l67,22l221,40l109,27l-16,7l26,-3l39,-15l35,-62l-23,-16l12,-26l-99,-53l-142,24l-75,-8l68,7l46,-4l-214,-17l-52,45l-8,34l87,24l321,60l-170,-45l-129,-20l-84,-22l-4,6l40,16l355,67l6,-4l-131,-33l-182,-27l-89,-22l40,18l350,68l10,-3l-89,-23l-233,-39l-78,-21l40,18l351,68l-207,-51l-97,-10l-87,-24l18,13l389,73l-122,-33l-232,-41l-53,-19l-8,-16l15,-32l81,-60l7,-23l244,-238l24,-6l105,15l-1,-11l-66,-12l-8,-17" fill="none" stroke="currentColor" stroke-width="8"/></svg>