<svg xmlns="http://www.w3.org/2000/svg" viewBox="0 0 500 500"><path d="M55,306l17,126l231,3l158,-294l-60,-106l-145,-29l-81,39l-120,309l77,113l175,-13l150,-258l-30,-145l-218,-29l-184,323l98,129l184,-7l180,-335l-111,-110l-184,16l-180,320l86,100l154,9l111,-55l124,-245l-47,-97l-120,-58l-154,39l-166,303l162,129l192,-58l120,-264l-90,-145l-205,25l-150,326l22,71l124,58l166,-51l141,-329l-149,-113l-150,42l-158,329l210,126l123,-55l142,-304l-120,-132l-180,20l-175,354l184,110l167,-84l94,-316l-210,-90l-102,64l-129,313l163,100l166,-71l129,-284l-133,-116l-179,45l-133,304l116,119l188,-36l128,-329l-47,-77l-120,-35l-162,99l-94,304l162,84l171,-104l86,-280l-82,-81l-128,-13l-141,120l-64,300l124,58l137,-23l149,-258" fill="none" stroke="currentColor" stroke-width="8"/></svg>