<svg xmlns="http://www.w3.org/2000/svg" viewBox="0 0 500 500"><path d="M216,479l144,-58l121,-315l-99,-96l-189,61l-126,285l126,120l135,-35l144,-267l-40,-133l-122,-24l-63,41l-166,267l58,144l171,-4l171,-298l-63,-140l-189,72l-108,171l153,103l-18,89l113,-65l108,-288l-99,-96l-153,45l-189,311l121,103l180,-55l135,-274l-54,-120l-175,31l-216,326l112,99l198,-51l158,-309l-149,-113l-162,113l-144,285l185,89l153,-89l122,-302l-140,-89l-185,76l-153,304l162,86l185,-75l131,-261l-131,-133l-203,79l-144,301l99,89l117,10l171,-137l72,-267l-81,-68l-103,0l-158,102l-139,254l198,113l171,-79l121,-294l-117,-100l-157,34l-194,278l50,127l216,30l81,-58l117,-332l-158,-82l-207,150l-103,240l234,89l157,-157l54,-291l-189,-14l-189,181l-40,209l220,69l225,-384l-135,-85l-229,147l-90,246l198,76l180,-141l58,-260l-103,-68l-99,6l-162,148l-90,209l238,99l117,-72l108,-305l-45,-72l-139,-7l-198,175l-59,206l104,78l112,4l126,-100l81,-318l-103,-58l-207,116l-104,281l167,93l144,-66l112,-325l-117,-109l-193,102l-144,298l180,89l171,-99l108,-291l-32,-69l-103,-24l-207,141" fill="none" stroke="currentColor" stroke-width="8"/></svg>