<svg xmlns="http://www.w3.org/2000/svg" viewBox="0 0 500 500"><path d="M179,449l-122,25l-15,26l-40,-9l179,-70l164,-40l33,-26l-378,-149l201,-152l45,-4l7,40l60,19l124,-19l53,-72l-63,-18l-87,5l-77,73l35,21l107,-1l85,-64l-58,-30l-102,8l-69,68l32,21l112,-2l90,-68l-40,-24l-117,1l-77,73l37,20l109,-3l85,-63l-45,-30l-102,2l-84,88l104,12l77,-23l58,-58l-43,-21l-64,-5l-70,12l-70,74l90,23l92,-19l60,-57l-60,-31l-95,10l-79,63l0,16l67,15l102,-11l65,-63l-13,-18l-70,-14l-116,23l-38,73l75,17l65,-7l99,-72l-45,-28l-79,-1l-48,12l-74,58l64,34l105,-17l72,-66l-90,-25l-74,10l-80,64l72,34l102,-17l65,-64l-65,-25l-104,11l-57,69l59,25l100,-14l77,-66l-72,-26l-105,9l-57,71l52,25l102,-13l78,-66l-90,-27l-102,17l-55,54l70,34l107,-14l67,-64l-65,-24l-104,10l-65,71l65,22l97,-17l65,-67l-60,-20l-107,11" fill="none" stroke="currentColor" stroke-width="8"/></svg>