<svg xmlns="http://www.w3.org/2000/svg" viewBox="0 0 500 500"><path d="M475,0l-41,7l-29,26l91,26l4,11l-106,-17l-30,5l-121,93l-54,77l-120,108l18,8l143,18l165,-16l74,44l17,42l-40,58l-27,1l-193,-41l-121,-16l-79,-22l-10,-16l-16,11l30,19l48,14l142,19l195,40l14,-5l-175,-39l-177,-26l-44,-13l-18,-19l-14,7l5,11l78,26l340,59l-3,-8l-177,-38l-164,-25l-48,-14l-20,-19l-8,16l60,22l337,64l21,2l1,-6l-186,-41l-141,-20l-67,-20l-14,-16l-14,5l7,13l64,21l188,28l148,35l21,-5l-52,-12l-309,-57l-62,-27l0,16l64,22l124,17l218,46l36,-8l37,-30l-5,-66l-93,-54l-165,19l-127,-15l-23,-9l286,-275l24,-8l89,15l26,-3l1,-7l-88,-23l34,-30" fill="none" stroke="currentColor" stroke-width="8"/></svg>