<svg xmlns="http://www.w3.org/2000/svg" viewBox="0 0 500 500"><path d="M452,28l-70,7l-3,23l85,38l-105,-15l-19,4l-68,50l-270,275l6,12l74,23l119,17l180,38l13,-5l-196,-43l-139,-21l-45,-26l-9,14l52,20l317,59l24,-1l-186,-43l-132,-19l-50,-16l-17,-14l-12,5l11,13l59,20l326,55l-161,-39l-173,-29l-50,-25l-13,6l9,12l59,18l330,57l-189,-44l-152,-24l-31,-11l-15,-16l-7,18l53,18l314,57l23,-2l-343,-67l-30,-11l-6,-11l-15,5l8,12l70,22l318,52l-173,-40l-161,-27l-46,-24l-12,13l53,21l341,58l-151,-37l-193,-33l-32,-13l-8,-18l157,-149l59,-73l112,-94l100,14l24,-6l-88,-25l27,-28l95,-22l-12,-10l-26,-3" fill="none" stroke="currentColor" stroke-width="2"/></svg>