<svg xmlns="http://www.w3.org/2000/svg" viewBox="0 0 500 500"><path d="M205,496l295,-110l-36,-124l-245,-238l-91,93l75,176l112,27l61,-55l-89,-172l-96,-52l-58,93l67,162l89,31l89,-72l-112,-214l-98,0l-21,117l93,166l208,-45l2,83l-51,58l-182,48l-194,-268l-23,-90l46,-110l199,324l184,-62l19,106l-229,104l-201,-269l91,197l124,82l157,-38l-213,4l-152,-224l173,251l115,4l179,-90l-282,83l-189,-283l168,286l142,0l119,-93l-123,45l-129,-27l-91,-187l89,280l196,-38l75,-155l-255,-256l-79,21l-84,-65l-47,120l170,362l229,-55l56,-134l-205,-197l-124,-17l-75,-69l-44,41l-2,97l165,331l145,21l178,-97l-283,76l-189,-262l119,224" fill="none" stroke="currentColor" stroke-width="8"/></svg>