<svg xmlns="http://www.w3.org/2000/svg" viewBox="0 0 500 500"><path d="M303,500l-28,-9l44,-49l53,-29l1,-16l-71,-69l-89,-57l-72,-72l-97,-77l-44,-78l31,-13l192,-20l151,-4l24,-7l28,7l34,-4l37,51l3,34l-107,-3l-21,5l-33,70l1,56l21,19l29,-10l19,-44l-13,-17l-33,2l-23,48l17,19l28,-5l23,-42l-14,-22l-33,6l-23,44l14,18l15,4l18,-9l22,-41l-14,-22l-30,2l-25,52l11,14l37,-3l22,-41l-13,-23l-27,0l-28,50l7,16l37,-1l22,-39l-7,-22l-32,-2l-26,46l4,15l20,7l17,-5l24,-39l-5,-23l-35,-1l-24,45l5,15l22,7l13,-4l24,-46l-10,-20l-30,2l-26,50l7,11l23,8l12,-4l24,-43l-6,-21l-30,-3l-26,35l-2,27l15,7l28,-5l23,-39l-9,-25l-29,1l-32,48l3,10l20,9l17,-2l25,-32" fill="none" stroke="currentColor" stroke-width="8"/></svg>