<svg xmlns="http://www.w3.org/2000/svg" viewBox="0 0 500 500"><path d="M469,0l-54,26l-3,10l68,21l16,17l-108,-18l-20,3l-73,55l-69,72l-21,33l4,-9l39,-12l-24,-2l-149,127l-74,82l34,23l60,14l137,19l183,39l5,-8l-98,-23l-270,-48l-35,-24l-12,4l5,14l60,22l131,17l203,43l22,0l-1,-5l-213,-46l-144,-21l-39,-12l-17,-18l-12,9l11,13l64,20l134,19l175,37l36,5l40,-16l31,-49l-13,-40l-94,-53l-148,22l-129,-15l-38,-12l47,-53l62,-42l98,-113l90,-69l10,-4l124,18l0,-13l-94,-19l38,-40" fill="none" stroke="currentColor" stroke-width="8"/></svg>