<svg xmlns="http://www.w3.org/2000/svg" viewBox="0 0 500 500"><path d="M473,6l-59,14l-29,28l74,23l5,9l-26,1l-78,-17l-16,3l-96,81l-64,85l-121,103l73,18l66,6l159,-17l138,77l-42,9l-37,52l-25,4l-185,-39l-136,-19l-46,-16l-17,-20l-4,20l55,22l328,59l0,-7l-104,-25l-221,-37l-43,-16l-6,-16l-16,10l4,11l62,21l183,29l134,30l-14,8l32,-7l23,-11l32,-61l-8,-33l-79,-46l-151,18l-125,-12l-27,-10l74,-74l49,-26l6,-28l141,-136l21,-9l80,14l38,0l-4,-9l-93,-19l41,-32l81,-19" fill="none" stroke="currentColor" stroke-width="8"/></svg>