<svg xmlns="http://www.w3.org/2000/svg" viewBox="0 0 500 500"><path d="M470,25l-48,9l-27,31l104,26l-28,8l-97,-18l-22,3l-74,58l-114,127l-38,21l-60,57l79,18l70,5l161,-15l77,50l11,35l-35,49l-33,3l-166,-35l-151,-22l-52,-15l-13,-19l-14,7l0,8l61,26l347,58l-125,-33l-213,-34l-54,-20l4,-22l47,-39l149,18l155,-17l81,50l10,34l-38,55l-326,-52l-72,-19l-16,-16l-10,13l73,26l117,16l176,35l37,5l31,-9l36,-53l-9,-37l-86,-49l-152,18l-132,-12l-22,-10l44,-49l67,-50l75,-89l95,-73l33,-3l117,18l-20,-15l-89,-20l51,-59l23,-8l17,4" fill="none" stroke="currentColor" stroke-width="8"/></svg>