<svg xmlns="http://www.w3.org/2000/svg" viewBox="0 0 500 500"><path d="M448,451l-6,-6l2,31l-5,23l-6,1l-60,-45l-51,-72l11,-32l40,-23l55,-76l-62,-115l-54,-129l-32,3l-53,28l-40,22l-42,37l-44,-80l-1,-8l8,-10l-32,30l-11,19l-26,13l-39,37l9,12l22,-2l18,22l19,-4l33,-79l-8,-20l-12,-1l20,-21l73,171l66,99l78,97l33,-38l47,-24l38,-52l26,-99l7,0l-1,30l4,8l15,-3l12,-54l-8,-17l-10,1l-11,51l2,14l9,7l7,-5l10,-43l-1,-17l-5,-7l-12,3l-11,51l4,15l16,-4l9,-38l-5,-25l-13,0l-11,61l14,10l11,-22l4,-40l-15,-11l-6,11l-9,51l10,12l11,-6l9,-44l-5,-22l-10,-2l-6,8l-8,44l8,18l13,-8l8,-41l-4,-20l-13,1l-14,51l8,18l15,-7l9,-45l-6,-17l-7,-3l-8,9l-9,41l4,20l10,3l6,-6l10,-46l-6,-19l-16,6l-10,48l9,15l13,-5l10,-41l-7,-24l-13,6l-12,47l10,17l11,-2l12,-41l-3,-22l-14,-6l-7,13l-6,49l11,12l9,-10l8,-49l-7,-13l-13,6l-9,47l8,18l9,-1l4,-9l8,-48l-5,-11l-8,-2l-10,21l-8,34l6,14l8,4l10,-12l8,-44l-11,-19l-11,10l-7,45l3,14l6,3l12,-10l7,-48l-10,-14l-10,8l-7,48l8,17l12,-12l6,-49l-4,-9l-10,-1l-11,27l-7,-1l0,-8l10,-72l7,-13l10,-4" fill="none" stroke="currentColor" stroke-width="8"/></svg>