<svg xmlns="http://www.w3.org/2000/svg" viewBox="0 0 500 500"><path d="M457,16l-49,19l-28,28l85,20l5,8l-13,4l-111,-14l-114,92l-47,59l-80,66l-104,112l44,27l318,60l32,0l-179,-42l-141,-21l-48,-15l-14,-16l-13,16l74,26l130,16l171,38l22,-2l-104,-27l-230,-39l-38,-13l-12,-15l-13,8l5,12l58,20l104,13l201,43l30,-3l-195,-43l-139,-22l-38,-12l-15,-15l-8,16l51,20l322,59l23,-1l-181,-43l-153,-23l-44,-16l-8,-12l-10,6l12,15l53,19l113,14l212,42l-9,-9l-103,-24l-224,-38l-38,-15l-4,-18l115,-119l39,-26l117,-131l58,-39l101,12l23,-6l-90,-21l39,-37l83,-15l-18,-14l-40,0" fill="none" stroke="currentColor" stroke-width="8"/></svg>