<svg xmlns="http://www.w3.org/2000/svg" viewBox="0 0 500 500"><path d="M488,488l-6,2l-8,9l-12,-4l-8,-6l0,-8l-9,-21l-1,-6l21,-12l7,-7l-32,-32l-26,-32l-13,0l8,-3l1,-2l-20,-30l-19,5l-5,5l-36,12l-22,11l-12,-12l-10,-14l-10,-2l-8,-7l-46,11l-33,13l-27,6l-23,3l-3,-2l-3,-8l-5,-5l-14,-45l0,-7l4,-11l-4,-18l-23,-16l-23,-69l-14,-18l-12,-10l-15,-22l-6,-3l-21,-21l3,-9l10,0l2,-5l56,-21l18,-5l17,-8l63,-20l114,-44l3,2l5,17l3,26l25,3l11,5l8,-2l21,4l11,15l0,4l19,34l0,7l6,4l7,10l22,42l3,10l-2,2l3,0l10,18l5,6l29,66l21,38l7,19l-1,4l-8,10l0,14l-69,10l-1,4l8,14l8,9l9,6l28,32l-28,19l-25,7l-4,6l21,19l34,16l10,-9l7,-1l6,-4l-1,-4l-6,-2l-5,8l5,1l8,-4" fill="none" stroke="currentColor" stroke-width="8"/></svg>