<svg xmlns="http://www.w3.org/2000/svg" viewBox="0 0 500 500"><path d="M139,463l-66,37l-73,-7l37,-49l357,-127l-295,-133l12,-25l142,-116l42,3l6,39l75,10l59,-12l65,-58l-52,-25l-111,20l-48,51l48,22l84,-6l64,-59l-50,-26l-82,10l-62,59l62,22l78,-8l54,-58l-54,-25l-86,15l-56,55l78,23l72,-15l48,-60l-57,-19l-93,20l-48,53l96,21l36,-8l76,-64l-56,-23l-86,9l-60,57l12,20l64,10l41,-5l69,-43l4,-37l-101,-6l-39,11l-50,61l96,16l66,-27l26,-45l-30,-16l-62,-3l-54,21l-50,54l56,18l88,-6l52,-61l-53,-27l-125,32l-18,50l78,14l73,-21l39,-59l-47,-16l-63,4l-56,33l-51,9l-159,128l293,134l-27,28l-150,39l-76,45" fill="none" stroke="currentColor" stroke-width="8"/></svg>