<svg xmlns="http://www.w3.org/2000/svg" viewBox="0 0 500 500"><path d="M487,15l-48,9l-44,31l105,28l-14,5l-111,-18l-27,12l-225,202l-34,47l-51,33l-38,45l7,12l74,21l131,18l177,36l34,-1l-205,-43l-142,-20l-43,-13l-21,-17l-11,9l9,10l71,21l123,16l210,42l34,-13l26,-44l-2,-49l-86,-47l-151,21l-171,-19l161,18l146,-20l18,3l69,42l17,33l-41,66l-360,-60l-43,-14l-18,-15l-10,9l28,17l63,17l116,13l186,39l30,0l19,-9l31,-53l-4,-19l-113,-7l91,0l19,-14l-85,-47l-149,20l-135,-15l-27,-9l278,-266l27,-8l89,12l32,-3l-96,-23l52,-56" fill="none" stroke="currentColor" stroke-width="2"/></svg>