<svg xmlns="http://www.w3.org/2000/svg" viewBox="0 0 500 500"><path d="M486,488l-3,1l-8,9l-6,-2l3,-8l17,-17l7,-4l4,-7l-22,-25l-17,-11l-3,-6l-19,-17l-3,-7l-21,-26l-7,-2l-10,1l9,-5l0,-2l-4,-6l-2,-8l-9,-9l-3,-10l-10,-14l-28,1l-19,4l-28,16l-6,-3l-15,5l-12,-11l-9,6l-36,9l-39,15l-47,9l-7,-3l-9,-25l-7,-3l3,-11l-7,-22l6,-19l-5,-17l-3,-3l-10,-4l-5,-6l-4,-1l-21,-63l-5,-10l-12,-15l-8,-5l-19,-28l-5,-3l-22,-22l0,-4l4,-6l25,-11l44,-16l12,-3l22,-10l40,-11l113,-43l-81,31l-78,25l-10,5l-5,6l-16,1l-68,26l-2,7l1,4l21,21l8,5l17,26l9,6l15,21l21,65l18,10l5,6l4,18l-6,16l20,62l8,2l35,-6l58,-19l35,-8l6,7l9,4l0,6l59,70l43,33l16,8l41,34l17,2l8,6" fill="none" stroke="currentColor" stroke-width="8"/></svg>