<svg xmlns="http://www.w3.org/2000/svg" viewBox="0 0 500 500"><path d="M439,490l-7,-30l34,-40l-8,-8l-20,-40l-10,-10l-5,-17l-25,-50l-19,-1l10,-3l2,-9l-12,-9l3,-19l-4,-8l-8,-5l0,-17l-10,-29l-4,-4l-45,6l-22,13l-24,23l-10,-4l-19,12l-8,-13l-8,-3l-43,17l-62,33l-39,11l-8,-2l-12,-31l-15,-80l0,-11l5,-26l-4,-34l-3,-7l-12,-10l-7,-13l-5,-3l-15,-69l14,70l6,3l9,13l7,4l5,10l6,36l-6,20l0,16l22,111l15,2l34,-9l108,-52l7,2l16,27l41,-35l8,-10l16,-10l47,-8l5,8l31,84l17,37l49,80l6,19l16,15l21,32l-2,14l-15,21" fill="none" stroke="currentColor" stroke-width="2"/></svg>