<svg xmlns="http://www.w3.org/2000/svg" viewBox="0 0 500 500"><path d="M293,451l-47,49l-135,-36l-111,-198l169,-60l23,-23l-92,-55l-81,44l14,20l62,6l45,-5l55,-28l-79,-50l-64,20l-42,36l143,15l56,-10l100,-81l30,-54l25,9l-2,25l21,14l29,9l39,-4l40,-46l-6,-37l-65,-3l-45,59l33,23l52,-6l37,-50l-18,-29l-32,-5l-33,7l-39,67l30,21l51,-7l44,-59l-32,-23l-48,6l-39,60l41,19l38,-11l33,-52l-29,-27l-41,4l-46,66l35,19l40,-8l35,-57l-27,-19l-38,2l-43,55l12,17l35,10l25,-4l40,-50l-17,-31l-57,5l-40,54l27,27l44,-1l45,-55l-12,-26l-56,-3l-50,54l5,15l32,13l52,-8l34,-53l-19,-22l-59,-2l-23,26l-37,12l-78,122l-24,14l141,93l38,42l-18,25l-66,30l-75,79" fill="none" stroke="currentColor" stroke-width="8"/></svg>