<svg xmlns="http://www.w3.org/2000/svg" viewBox="0 0 500 500"><path d="M489,491l-11,1l-7,-6l-9,-35l-6,-7l-7,0l30,-20l6,-9l-30,-38l-30,-45l-9,-18l-3,-9l-7,-10l-14,-30l-15,-1l-36,8l-11,5l-9,10l-11,6l-7,-4l-10,5l-14,-13l-7,5l-75,29l-32,9l-19,3l-10,-1l-19,-74l-1,-9l5,-20l-5,-21l-22,-18l-22,-84l-11,-18l0,-11l-14,-4l-31,-47l-16,-20l35,41l3,12l9,13l7,6l15,24l25,87l7,8l11,5l4,7l5,22l-4,24l19,77l9,1l46,-8l45,-20l23,-6l13,-6l7,0l7,10l7,-2l5,3l27,-15l15,-12l20,-3l13,-6l19,1l14,28l0,7l5,11l18,25l16,30l41,50l0,4l-26,21l3,24l10,28l16,9l7,-11l4,-1" fill="none" stroke="currentColor" stroke-width="2"/></svg>