<svg xmlns="http://www.w3.org/2000/svg" viewBox="0 0 500 500"><path d="M143,500l-143,-109l204,-286l52,-7l4,85l98,28l76,-36l58,-136l-78,-38l-93,28l-78,147l83,35l98,-19l71,-150l-110,-42l-78,38l-49,113l61,60l98,-17l83,-131l-52,-58l-122,17l-63,127l44,55l78,0l58,-32l57,-117l-61,-51l-110,17l-66,140l56,43l100,-18l73,-127l-58,-52l-64,1l-53,32l-47,126l20,30l83,15l122,-139l-22,-51l-49,-19l-78,10l-90,139l63,53l100,-21l71,-124l-32,-47l-51,-10l-81,22l-61,127l44,52l105,-11l83,-135l-37,-42l-58,-13l-71,22l-61,131l44,48l100,-13l73,-144l-58,-39l-100,19l-64,130l39,48l88,0l98,-135l-37,-58l-112,5l-76,126l32,58l115,-7l80,-126l-19,-46l-52,-20l-82,10l-79,126" fill="none" stroke="currentColor" stroke-width="8"/></svg>