<svg xmlns="http://www.w3.org/2000/svg" viewBox="0 0 500 500"><path d="M451,26l-38,4l-28,27l81,26l0,8l-103,-14l-23,7l-65,51l-76,76l-5,21l-70,53l-36,44l-51,30l-36,51l15,13l71,22l111,15l172,37l33,0l-107,-28l-204,-33l-55,-13l-27,-20l-10,5l8,13l43,15l339,64l10,0l-5,-7l-186,-41l-151,-23l-36,-14l-10,-14l-12,11l8,10l70,22l317,54l26,-8l31,-49l-4,-42l-72,-47l-19,-4l-139,20l-133,-14l-17,-13l264,-256l22,-6l95,13l19,-6l-89,-26l31,-28l90,-20l-14,-12" fill="none" stroke="currentColor" stroke-width="8"/></svg>