<svg xmlns="http://www.w3.org/2000/svg" viewBox="0 0 500 500"><path d="M477,17l-89,-17l-19,9l-369,386l7,14l79,27l350,64l33,-19l31,-71l-33,-48l-73,-38l-158,23l-165,-20l-71,72l89,38l86,10l239,52l25,-2l28,-15l27,-70l-10,-33l-82,-54l-157,23l-170,-23l-61,49l-11,27l96,37l340,62l28,-20l29,-60l-15,-42l-85,-53l-156,22l-177,-20l-32,20l-30,56l90,34l111,15l210,46l37,-2l22,-16l24,-59l-11,-38l-92,-59l-143,25l-181,-21l-50,39l-16,33l22,17l62,19l350,63l28,-14l31,-69l-17,-38l-84,-54l-156,26l-159,-24l-24,6l-54,64l19,18l412,85l31,-11l21,-32l-1,-74l-95,-58l-143,25l-183,-18l-45,36l-12,38l58,22l145,23" fill="none" stroke="currentColor" stroke-width="2"/></svg>