<svg xmlns="http://www.w3.org/2000/svg" viewBox="0 0 500 500"><path d="M445,24l-31,4l-33,34l104,18l-22,11l-88,-16l-31,6l-105,87l-69,81l-50,38l-29,43l-82,57l-9,24l36,22l38,10l121,16l170,37l31,3l5,-6l-326,-59l-39,-12l-21,-19l-5,17l70,23l125,18l186,39l10,-4l-194,-43l-121,-16l-48,-15l-25,-18l0,18l60,20l112,15l198,41l31,-3l46,-49l1,-17l-13,-34l-72,-42l-29,-4l-122,18l-120,-11l-36,-11l110,-106l60,-75l99,-82l23,-6l122,19l-17,-16l-82,-17l38,-32l71,-16l7,-14" fill="none" stroke="currentColor" stroke-width="8"/></svg>