<svg xmlns="http://www.w3.org/2000/svg" viewBox="0 0 500 500"><path d="M199,500l89,-27l-2,-6l-33,-14l-71,-25l61,-41l12,1l-3,9l10,3l25,2l18,-4l18,-19l-26,-5l-21,2l-20,13l2,9l25,5l25,-5l16,-18l-10,-4l-25,-2l-17,3l-17,19l22,6l31,-5l17,-17l-33,-6l-23,6l-12,17l28,5l22,-6l14,-15l-14,-6l-17,0l-18,4l-14,19l16,5l15,-2l24,-10l5,-13l-30,-3l-14,4l-16,18l25,5l26,-7l14,-14l-25,-7l-26,5l-15,17l19,5l18,0l10,-3l19,-17l-22,-6l-28,4l-17,18l10,3l23,2l21,-8l13,-13l-15,-5l-17,-1l-23,5l-14,19l25,3l16,-1l26,-16l-12,-9l-30,0l-23,16l7,8l24,2l14,-3l22,-17l-19,-7l-28,2l-22,19l20,6l23,-2l26,-19l-10,-5l-18,-1l-19,2l-12,8l-16,-1l28,-33l18,-4l121,-2l4,-21l-70,-41l16,-8l-27,2l-115,-76l-29,-31l-156,-93l-38,-31l79,-11l151,-9l20,19l30,3l3,17l43,10l37,2l109,-19l5,-10l23,-8l-19,-17l-42,-6l-60,-3l-96,5l-38,6l4,17l31,7l4,16l43,10l43,1l66,-13l30,-2l9,-12l23,-9l-21,-19l-70,-8l-1,-3l25,-4l14,-6" fill="none" stroke="currentColor" stroke-width="8"/></svg>