<svg xmlns="http://www.w3.org/2000/svg" viewBox="0 0 500 500"><path d="M40,500l337,-128l-130,-70l-247,-90l192,-163l57,2l15,40l60,19l106,-13l70,-68l-51,-28l-123,4l-62,68l31,31l116,-1l79,-75l-46,-27l-125,6l-60,69l60,31l99,-10l69,-69l-52,-26l-118,10l-55,71l64,25l87,-11l67,-72l-55,-24l-99,11l-50,69l38,26l94,-4l75,-69l-48,-30l-109,7l-52,69l45,27l101,-13l63,-69l-58,-24l-94,8l-55,68l58,31l77,-11l72,-69l-68,-27l-103,19l-41,63l41,28l103,-13l63,-64l-63,-32l-91,9l-55,68l45,28l99,-8l72,-70l-29,-23l-103,-3l-89,66l31,31l101,2l82,-68l-29,-28l-72,-6l-60,13l-41,56l26,35l73,7l33,-9l75,-68l-12,-21l-46,-10l-75,3l-64,48l-8,45l92,12l113,-75l-22,-27l-72,-8l-67,12l-56,57l27,36l101,-5l84,-67l-27,-28l-55,-6l-62,10l-65,76l48,21l106,-10l64,-68l-38,-27l-118,6l-62,64l29,34l98,-5l89,-67l-36,-29l-77,-5l-50,13l-58,72l43,22l94,0l89,-75l-36,-27l-75,-5l-60,13l-57,70l26,19l115,-1l84,-70l-62,-31l-99,9l-67,74l58,24l91,-7l70,-77l-41,-21l-103,5l-77,64" fill="none" stroke="currentColor" stroke-width="8"/></svg>