<svg xmlns="http://www.w3.org/2000/svg" viewBox="0 0 500 500"><path d="M59,476l-1,-18l-7,-18l33,-30l12,-18l10,-56l8,-23l57,-52l3,-10l-3,-34l5,-8l35,-8l17,24l4,0l21,-17l9,-24l16,-21l8,-4l15,19l4,25l12,9l12,2l19,-7l39,14l19,-6l8,-7l7,0l8,8l0,17l4,7l20,9l24,-5l14,-15l9,-10l-1,-8l-31,-31l-55,-70l12,-21l-5,-27l0,-26l10,-14l16,-10l12,-12l-38,33l-1,32l5,23l-3,10l-91,103l-8,0l-7,-7l-11,-28l-12,-17l-6,-3l-9,5l-16,21l-17,34l-6,6l-12,-4l-12,-17l-36,7l-10,7l-8,18l6,27l-2,7l-35,26l-24,27l-6,18l-9,55l-5,13l-21,21l-11,3l-22,25l-31,50l0,5l12,-2l6,-20l17,-24l52,-48l-23,24l-16,7" fill="none" stroke="currentColor" stroke-width="8"/></svg>