<svg xmlns="http://www.w3.org/2000/svg" viewBox="0 0 500 500"><path d="M134,500l78,-49l151,-38l10,-20l-373,-180l202,-159l66,5l-25,33l49,21l59,3l78,-16l71,-80l-59,-20l-110,5l-80,76l17,23l85,10l56,-11l88,-73l-41,-28l-103,2l-97,79l26,24l52,7l78,-12l80,-64l-53,-38l-105,10l-78,80l41,21l127,-9l76,-67l-49,-32l-103,1l-97,78l24,22l76,11l49,-7l87,-67l-31,-37l-108,1l-95,79l37,22l51,7l76,-14l75,-76l-71,-23l-80,7l-83,76l32,22l112,-1l80,-69l-46,-32l-112,10l-68,74l53,22l115,-11l66,-60l-30,-31l-114,-2l-83,65l22,33l110,3l100,-69l-42,-33l-110,4l-70,91l122,8l92,-72l-22,-27l-117,-1l-83,63l10,28l122,7l81,-53" fill="none" stroke="currentColor" stroke-width="8"/></svg>