<svg xmlns="http://www.w3.org/2000/svg" viewBox="0 0 500 500"><path d="M336,474l-56,2l-7,-11l71,-65l97,-61l-191,-158l59,-65l38,-76l26,12l12,29l60,13l50,-60l-22,-27l-38,-3l-62,59l43,35l49,-12l35,-61l-51,-25l-41,18l-29,66l23,12l45,0l49,-54l-8,-31l-66,-6l-33,37l-6,40l53,17l32,-17l29,-64l-64,-18l-36,25l-22,48l45,23l46,-11l32,-58l-53,-27l-40,18l-30,53l41,30l48,-15l32,-62l-38,-23l-49,15l-34,64l39,20l44,-7l39,-68l-37,-23l-40,6l-43,65l39,28l31,-4l25,-21l22,-61l-24,-13l-49,3l-30,31l-47,11l-63,103l8,19l-289,116l45,108l71,92l49,15l61,-17" fill="none" stroke="currentColor" stroke-width="8"/></svg>