<svg xmlns="http://www.w3.org/2000/svg" viewBox="0 0 500 500"><path d="M121,500l104,-59l141,-33l20,-27l-377,-160l-9,-21l230,-147l42,4l-10,38l44,16l87,1l50,-19l52,-68l-50,-24l-87,2l-86,77l15,25l54,9l59,-6l92,-61l-15,-39l-104,-8l-57,27l-47,67l62,17l107,-13l59,-65l-67,-32l-101,13l-62,74l72,25l89,-19l64,-75l-92,-19l-84,23l-47,63l75,27l84,-15l69,-76l-84,-22l-92,18l-57,76l57,19l87,-6l79,-67l-32,-36l-119,6l-72,74l50,25l109,-10l69,-67l-12,-21l-55,-11l-99,16l-67,67l75,29l84,-7l82,-72l-70,-33l-104,16l-57,67l18,19l71,11l104,-44l23,-57l-102,-12l-104,46l-54,4l-211,169l359,153l-15,31l-86,23" fill="none" stroke="currentColor" stroke-width="2"/></svg>