<svg xmlns="http://www.w3.org/2000/svg" viewBox="0 0 500 500"><path d="M79,500l307,-123l-386,-177l220,-144l52,6l-20,26l30,18l89,6l64,-14l60,-77l-67,-21l-94,8l-65,78l50,22l99,-7l77,-64l-25,-31l-121,0l-87,74l72,29l76,-8l90,-74l-87,-26l-84,15l-65,72l72,19l62,-3l47,-21l50,-62l-80,-20l-101,19l-50,66l77,21l77,-8l77,-68l-80,-31l-79,13l-74,71l87,25l74,-13l72,-69l-87,-26l-84,15l-72,70l101,20l75,-12l67,-65l-82,-27l-82,12l-74,76l25,20l59,6l94,-29l47,-71l-111,-13l-60,24l-57,61l67,19l67,1l102,-72l-33,-27l-104,-3l-69,36l-89,14l-186,152l357,145l-10,36l-92,23" fill="none" stroke="currentColor" stroke-width="8"/></svg>