<svg xmlns="http://www.w3.org/2000/svg" viewBox="0 0 500 500"><path d="M69,500l119,-71l198,-55l-386,-166l215,-146l47,0l-15,27l69,19l119,-18l55,-70l-67,-16l-84,6l-85,63l45,32l121,-8l80,-62l-30,-28l-112,0l-108,73l56,20l112,-5l72,-67l-75,-28l-91,16l-79,67l47,24l71,2l52,-12l65,-54l-13,-36l-59,-7l-69,10l-92,73l57,23l92,-1l94,-64l-25,-34l-60,-7l-66,10l-89,66l32,24l126,0l87,-70l-70,-29l-99,12l-84,66l79,28l94,-13l80,-63l-65,-29l-99,11l-86,67l44,22l119,-7l87,-64l-30,-25l-121,-3l-92,74l35,24l99,1l64,-34l30,-54l-114,-12l-82,38l-79,12l-203,156l359,140l-3,30l-89,24" fill="none" stroke="currentColor" stroke-width="8"/></svg>