<svg xmlns="http://www.w3.org/2000/svg" viewBox="0 0 500 500"><path d="M270,301l194,-135l-276,-109l-173,391l301,-51l138,-147l-82,-186l-199,-39l-173,410l280,26l179,-179l-67,-225l-250,-51l-137,436l209,32l265,-276l-265,-173l-169,391l159,51l255,-192l15,-109l-245,-154l-219,302l25,141l194,6l265,-244l-30,-128l-250,-89l-158,275l10,192l408,-224l-31,-147l-239,-90l-143,250l10,224l143,20l280,-276l-107,-180l-189,-19l-127,231l-5,199l168,-7l255,-218l-112,-179l-179,-19l-153,410l205,-13l229,-218l-41,-128l-245,-77l-122,429l153,7l250,-180l-26,-141l-234,-115l-163,282l25,186l408,-257l-30,-147l-261,-58l-132,436l148,13l291,-256l-291,-167l-174,276l21,115l153,6l265,-192l-26,-109l-260,-115l-127,192l10,224l163,-19l245,-218l-255,-186l-153,295l20,160l383,-224l-31,-128l-219,-115l-179,339l41,122l393,-244l-265,-211l-189,269l51,167l107,19l296,-224l-36,-129l-306,-57l-127,218l76,211l383,-339l-276,-122l-127,211l-10,218" fill="none" stroke="currentColor" stroke-width="2"/></svg>