<svg xmlns="http://www.w3.org/2000/svg" viewBox="0 0 500 500"><path d="M138,430l-21,-167l46,-65l135,-79l12,136l21,28l9,136l30,63l33,6l29,-62l42,-49l8,-104l17,-44l-17,-142l-63,-50l-82,29l-26,31l-7,41l7,124l21,31l3,114l36,78l27,15l79,-130l6,-102l15,-48l-13,-124l-77,-59l-73,29l-30,50l5,139l21,27l7,134l32,68l22,14l87,-138l1,-55l17,-97l-14,-123l-62,-44l-85,28l-30,60l5,121l22,38l3,116l28,70l36,21l78,-131l5,-89l17,-41l-17,-144l-50,-47l-7,-43l-101,30l-54,65l-118,75l-44,12l-10,-33l-99,175" fill="none" stroke="currentColor" stroke-width="8"/></svg>