<svg xmlns="http://www.w3.org/2000/svg" viewBox="0 0 500 500"><path d="M131,0l-9,8l-6,28l28,19l-4,4l-29,-10l-8,3l-97,203l-6,20l3,8l23,16l37,10l52,25l34,-1l28,25l71,39l28,11l32,3l44,19l7,7l-3,8l6,3l114,50l24,2l-48,-28l-143,-63l-29,-1l-46,-17l-24,-19l-29,-13l-30,-27l-22,2l-70,-33l-32,-9l-18,-11l-6,-13l-2,12l24,16l93,39l3,-1l-3,-4l-41,-21l-60,-22l-14,-18l-1,12l21,14l93,38l9,-1l4,-6l8,-36l-1,-23l-26,-34l-44,13l-39,-10l-6,-8l83,-177l37,6l-1,-5l-23,-14l11,-23" fill="none" stroke="currentColor" stroke-width="8"/></svg>