<svg xmlns="http://www.w3.org/2000/svg" viewBox="0 0 500 500"><path d="M109,112l-78,302l208,86l104,-63l157,-321l-79,-89l-203,11l-182,349l42,93l198,4l208,-306l-11,-101l-109,-66l-182,51l-151,317l31,109l229,-4l193,-306l-47,-140l-208,-7l-224,430l47,27l265,-23l162,-268l-32,-151l-208,-23l-234,418l250,51l192,-225l32,-209l-224,-47l-255,450l281,23l187,-298l-36,-152l-198,-15l-167,279l-15,186l213,-8l203,-267l-10,-159l-245,-19l-177,461l229,-8l219,-322l-68,-135l-208,0l-198,438l292,-8l182,-314l-89,-128l-151,-4l-224,450l224,15l219,-252l-5,-166l-224,-43l-219,426l276,35l104,-124l99,-217l-57,-97l-151,-38l-99,50l-167,426l214,8l135,-124l115,-279l-110,-74l-135,8l-239,434l244,16l172,-167l57,-225l-208,-62l-250,372" fill="none" stroke="currentColor" stroke-width="2"/></svg>