<svg xmlns="http://www.w3.org/2000/svg" viewBox="0 0 500 500"><path d="M122,27l-5,7l0,14l35,16l-7,-4l-6,7l-30,-12l-7,3l-19,32l-36,87l-20,35l-1,10l-22,34l-4,21l2,9l19,12l92,39l34,-1l27,25l25,9l40,26l39,15l24,0l135,56l33,29l30,4l-45,-30l-145,-62l-35,-2l-42,-15l-30,-23l-35,-16l-17,-18l-29,-1l-58,-27l-43,-14l-19,-14l1,-15l24,-58l26,-43l14,-37l-2,-8l6,-2l17,-30l12,-28l5,-3l26,12l4,-3l0,-7l-15,-7l-2,-13l6,-11l12,0l15,-11l0,-8l-3,-5l-12,-1l-9,8" fill="none" stroke="currentColor" stroke-width="8"/></svg>