<svg xmlns="http://www.w3.org/2000/svg" viewBox="0 0 500 500"><path d="M109,15l-2,27l14,61l-50,5l-30,29l-3,15l-24,42l-13,42l2,24l17,12l41,14l53,29l9,2l22,-4l31,36l27,10l29,23l34,14l32,1l202,103l-35,-8l-39,-17l-41,-22l-5,-14l-83,-41l-29,-1l-90,-37l-2,-7l7,0l88,41l32,1l68,36l76,31l44,29l-5,2l-31,-13l-159,-80l-26,-1l-47,-22l-27,-22l-25,-11l-26,-29l-30,2l-111,-54l-2,-5l3,-1l97,43l12,8l-3,6l-45,-25l-42,-13l-21,-12l1,-6l16,9l23,5l73,40l-10,1l-82,-37l-20,-12l-4,-13l2,-21l46,-98l7,-27l17,-24l4,-27l21,-46l9,-4l28,8l-17,-12" fill="none" stroke="currentColor" stroke-width="2"/></svg>