<svg xmlns="http://www.w3.org/2000/svg" viewBox="0 0 500 500"><path d="M103,0l-11,13l-24,65l-20,37l-9,30l-21,36l-1,15l-16,36l-1,15l4,10l19,14l95,41l26,-3l20,22l31,17l31,26l46,21l30,1l198,104l-35,-9l-66,-27l-19,-21l-48,-29l-35,-18l-26,-1l-46,-21l-22,-21l-35,-17l-21,-24l-26,2l-60,-37l-28,-7l-29,-15l108,54l-45,-27l-43,-16l-18,-13l10,11l100,46l-60,-33l-34,-12l-15,-11l10,10l30,11l68,35l-111,-56l19,14l28,9l61,31l10,1l6,-8l2,-22l7,-15l-8,-12l1,-14l-13,-16l-29,-18l-23,14l-37,-11l-9,-8l40,-98l-1,-33l11,-11l29,-56l5,0" fill="none" stroke="currentColor" stroke-width="8"/></svg>