<svg xmlns="http://www.w3.org/2000/svg" viewBox="0 0 500 500"><path d="M101,2l-10,8l-13,26l-30,83l-7,9l-2,17l-9,11l-10,32l-12,22l-8,38l9,15l34,10l54,30l50,11l28,17l11,16l11,6l12,-4l19,18l15,5l24,19l80,17l22,19l61,28l7,10l9,-4l20,4l32,29l2,6l-25,-6l-6,3l-57,-26l-65,-46l-47,-23l-30,-2l-43,-20l-20,-18l-34,-18l-29,-29l-27,-3l-114,-55l103,52l-103,-52l74,40l33,11l-106,-52l10,11l46,18l17,13l26,10l6,0l-10,-5l-98,-46l44,20l31,20l35,13l7,-6l9,-45l-13,-33l-21,-18l-20,13l-53,-15l-5,-12l1,-30l12,-11l20,-36l12,-46l7,-8l20,-59l13,-4" fill="none" stroke="currentColor" stroke-width="2"/></svg>