<svg xmlns="http://www.w3.org/2000/svg" viewBox="0 0 500 500"><path d="M480,488l1,-5l-4,-6l2,1l10,8l-8,4l1,-2l-5,1l-5,-2l-3,-6l19,-11l12,-11l-9,-1l-13,-10l-2,-5l3,-8l-2,-2l-24,-6l-5,-4l-10,-19l-4,-2l-1,-5l-13,-16l-10,-3l-2,-13l2,-6l-6,-5l-29,-42l-2,-5l0,-9l-9,-10l-3,-14l-4,-3l0,-4l-5,-10l-11,-8l-6,-8l0,-9l-8,-9l2,-6l-1,-3l-8,-4l0,-8l-10,-3l-4,-6l-1,-3l5,-6l-10,-9l2,-1l-7,-8l-3,-8l-6,-7l1,-2l-9,-6l-9,-18l-7,-5l0,-10l-14,-23l-11,-11l1,3l-2,-2l-1,-4l3,-3l-9,-18l-7,-8l-3,-9l1,-6l-3,-5l1,-2l3,2l5,-2l-1,-5l-14,-17l-9,0l-11,12l-21,2l-75,23l-23,11l-13,3l-21,12l-32,11l-4,3l-2,6l2,6l27,27l19,27l6,3l17,27l19,66l5,2l13,40l4,6l3,24l6,12l3,18l8,12l5,3l27,-1l19,-5l29,-12l13,14l44,-22l5,2l11,6l3,8l15,17l34,47l38,30l30,18l23,23l2,6l12,6l4,7l8,-4l9,2l7,-4" fill="none" stroke="currentColor" stroke-width="8"/></svg>